M48
; DRILL file {KiCad (6.0.4)} date Mon Apr  4 02:46:48 2022
; FORMAT={-:-/ absolute / inch / decimal}
; #@! TF.CreationDate,2022-04-04T02:46:48+02:00
; #@! TF.GenerationSoftware,Kicad,Pcbnew,(6.0.4)
; #@! TF.FileFunction,Plated,1,4,PTH
FMAT,2
INCH
; #@! TA.AperFunction,Plated,PTH,ViaDrill
T1C0.0118
; #@! TA.AperFunction,Plated,PTH,ViaDrill
T2C0.0157
; #@! TA.AperFunction,Plated,PTH,ComponentDrill
T3C0.0394
%
G90
G05
T1
X6.032Y-4.322
X6.032Y-4.438
X6.032Y-4.934
X6.032Y-5.05
X6.116Y-5.088
X6.118Y-4.474
X6.208Y-4.38
X6.208Y-4.994
X6.232Y-4.284
X6.234Y-4.902
X6.328Y-4.05
X6.364Y-4.686
X6.404Y-5.07
X6.408Y-4.454
X6.437Y-4.345
X6.654Y-4.086
X6.654Y-4.7
X6.658Y-3.616
X6.672Y-4.364
X6.672Y-4.978
X6.712Y-3.91
X6.735Y-3.79
X6.785Y-3.693
X6.855Y-3.6925
X6.8575Y-3.6125
X6.858Y-3.89
X6.885Y-3.6925
X6.954Y-5.088
X6.958Y-4.474
X6.985Y-3.795
X7.014Y-4.97
X7.018Y-4.36
X7.076Y-4.278
X7.076Y-4.9
X7.218Y-4.27
X7.218Y-4.88
X7.25Y-4.27
X7.252Y-4.88
X7.626Y-4.276
X7.75Y-4.918
X7.752Y-4.3
T2
X6.076Y-4.086
X6.138Y-4.676
X6.176Y-4.18
X6.1773Y-4.2644
X6.1773Y-4.8794
X6.178Y-4.796
X6.236Y-5.218
X6.286Y-4.544
X6.416Y-3.866
X6.44Y-3.64
X6.475Y-5.1045
X6.526Y-3.816
X6.808Y-4.288
X6.808Y-4.336
X6.808Y-4.952
X6.81Y-4.904
X7.006Y-4.002
X7.0198Y-4.2644
X7.0198Y-4.7978
X7.0198Y-4.8802
X7.07Y-3.62
X7.136Y-4.54
X7.136Y-5.156
X7.192Y-3.854
X7.2008Y-4.147
X7.202Y-4.088
X7.202Y-4.702
X7.229Y-3.817
X7.268Y-3.778
X7.38Y-4.9
X7.383Y-4.4835
X7.384Y-4.286
X7.4092Y-3.7774
X7.4465Y-3.8167
X7.464Y-5.166
X7.4857Y-3.8536
X7.5365Y-5.173
X7.5405Y-4.5555
X7.6125Y-4.902
X7.6194Y-5.1714
X7.6208Y-4.555
X7.76Y-4.3615
T3
X6.3Y-5.3455
X6.4Y-5.3455
X6.5Y-5.3455
X6.6Y-5.3455
X6.9062Y-4.3068
X6.9062Y-4.4068
X6.9062Y-4.5068
X6.9062Y-4.6068
X7.1915Y-5.3465
X7.192Y-3.928
X7.2915Y-5.3465
X7.292Y-3.928
X7.3915Y-5.3465
X7.392Y-3.928
X7.4915Y-5.3465
X7.492Y-3.928
X7.813Y-4.308
X7.813Y-4.408
X7.813Y-4.508
X7.813Y-4.608
T0
M30
