%TF.GenerationSoftware,KiCad,Pcbnew,(6.0.4)*%
%TF.CreationDate,2022-04-04T02:46:47+02:00*%
%TF.ProjectId,Duino Coin,4475696e-6f20-4436-9f69-6e2e6b696361,rev?*%
%TF.SameCoordinates,Original*%
%TF.FileFunction,Soldermask,Top*%
%TF.FilePolarity,Negative*%
%FSLAX46Y46*%
G04 Gerber Fmt 4.6, Leading zero omitted, Abs format (unit mm)*
G04 Created by KiCad (PCBNEW (6.0.4)) date 2022-04-04 02:46:47*
%MOMM*%
%LPD*%
G01*
G04 APERTURE LIST*
G04 Aperture macros list*
%AMRoundRect*
0 Rectangle with rounded corners*
0 $1 Rounding radius*
0 $2 $3 $4 $5 $6 $7 $8 $9 X,Y pos of 4 corners*
0 Add a 4 corners polygon primitive as box body*
4,1,4,$2,$3,$4,$5,$6,$7,$8,$9,$2,$3,0*
0 Add four circle primitives for the rounded corners*
1,1,$1+$1,$2,$3*
1,1,$1+$1,$4,$5*
1,1,$1+$1,$6,$7*
1,1,$1+$1,$8,$9*
0 Add four rect primitives between the rounded corners*
20,1,$1+$1,$2,$3,$4,$5,0*
20,1,$1+$1,$4,$5,$6,$7,0*
20,1,$1+$1,$6,$7,$8,$9,0*
20,1,$1+$1,$8,$9,$2,$3,0*%
G04 Aperture macros list end*
%ADD10RoundRect,0.250000X0.337500X0.475000X-0.337500X0.475000X-0.337500X-0.475000X0.337500X-0.475000X0*%
%ADD11RoundRect,0.250000X0.475000X-0.337500X0.475000X0.337500X-0.475000X0.337500X-0.475000X-0.337500X0*%
%ADD12RoundRect,0.250000X-0.337500X-0.475000X0.337500X-0.475000X0.337500X0.475000X-0.337500X0.475000X0*%
%ADD13RoundRect,0.237500X0.287500X0.237500X-0.287500X0.237500X-0.287500X-0.237500X0.287500X-0.237500X0*%
%ADD14RoundRect,0.237500X0.237500X-0.287500X0.237500X0.287500X-0.237500X0.287500X-0.237500X-0.287500X0*%
%ADD15R,1.500000X0.600000*%
%ADD16R,0.600000X1.500000*%
%ADD17R,0.400000X1.400000*%
%ADD18R,1.800000X1.900000*%
%ADD19R,2.300000X1.900000*%
%ADD20RoundRect,0.249999X-0.350001X-0.450001X0.350001X-0.450001X0.350001X0.450001X-0.350001X0.450001X0*%
%ADD21RoundRect,0.249999X0.350001X0.450001X-0.350001X0.450001X-0.350001X-0.450001X0.350001X-0.450001X0*%
%ADD22R,1.900000X0.400000*%
%ADD23C,3.200000*%
%ADD24R,1.700000X1.700000*%
%ADD25O,1.700000X1.700000*%
G04 APERTURE END LIST*
D10*
%TO.C,C6*%
X167720000Y-119408000D03*
X165645000Y-119408000D03*
%TD*%
%TO.C,C7*%
X189119500Y-119408000D03*
X187044500Y-119408000D03*
%TD*%
%TO.C,C8*%
X167725000Y-103787000D03*
X165650000Y-103787000D03*
%TD*%
%TO.C,C9*%
X189119500Y-103787000D03*
X187044500Y-103787000D03*
%TD*%
D11*
%TO.C,C10*%
X156903500Y-123938000D03*
X156903500Y-121863000D03*
%TD*%
%TO.C,C11*%
X178303000Y-123938000D03*
X178303000Y-121863000D03*
%TD*%
%TO.C,C12*%
X156903500Y-108317000D03*
X156903500Y-106242000D03*
%TD*%
%TO.C,C13*%
X178303000Y-108317000D03*
X178303000Y-106242000D03*
%TD*%
D12*
%TO.C,C14*%
X170852000Y-127282000D03*
X172927000Y-127282000D03*
%TD*%
%TO.C,C15*%
X192251500Y-127282000D03*
X194326500Y-127282000D03*
%TD*%
%TO.C,C16*%
X170852000Y-111661000D03*
X172927000Y-111661000D03*
%TD*%
%TO.C,C17*%
X192251500Y-111661000D03*
X194326500Y-111661000D03*
%TD*%
D10*
%TO.C,C19*%
X177377000Y-98044000D03*
X175302000Y-98044000D03*
%TD*%
D13*
%TO.C,D9*%
X172764500Y-123218000D03*
X171014500Y-123218000D03*
%TD*%
%TO.C,D10*%
X194164000Y-123218000D03*
X192414000Y-123218000D03*
%TD*%
%TO.C,D11*%
X172764500Y-107597000D03*
X171014500Y-107597000D03*
%TD*%
%TO.C,D12*%
X194164000Y-107597000D03*
X192414000Y-107597000D03*
%TD*%
D14*
%TO.C,D13*%
X162306000Y-94855000D03*
X162306000Y-93105000D03*
%TD*%
%TO.C,D17*%
X159512000Y-94855000D03*
X159512000Y-93105000D03*
%TD*%
D15*
%TO.C,IC1*%
X159702000Y-124037500D03*
X159702000Y-124837500D03*
X159702000Y-125637500D03*
X159702000Y-126437500D03*
X159702000Y-127237500D03*
X159702000Y-128037500D03*
X159702000Y-128837500D03*
X159702000Y-129637500D03*
D16*
X161152000Y-131087500D03*
X161952000Y-131087500D03*
X162752000Y-131087500D03*
X163552000Y-131087500D03*
X164352000Y-131087500D03*
X165152000Y-131087500D03*
X165952000Y-131087500D03*
X166752000Y-131087500D03*
D15*
X168202000Y-129637500D03*
X168202000Y-128837500D03*
X168202000Y-128037500D03*
X168202000Y-127237500D03*
X168202000Y-126437500D03*
X168202000Y-125637500D03*
X168202000Y-124837500D03*
X168202000Y-124037500D03*
D16*
X166752000Y-122587500D03*
X165952000Y-122587500D03*
X165152000Y-122587500D03*
X164352000Y-122587500D03*
X163552000Y-122587500D03*
X162752000Y-122587500D03*
X161952000Y-122587500D03*
X161152000Y-122587500D03*
%TD*%
D15*
%TO.C,IC2*%
X181101500Y-124037500D03*
X181101500Y-124837500D03*
X181101500Y-125637500D03*
X181101500Y-126437500D03*
X181101500Y-127237500D03*
X181101500Y-128037500D03*
X181101500Y-128837500D03*
X181101500Y-129637500D03*
D16*
X182551500Y-131087500D03*
X183351500Y-131087500D03*
X184151500Y-131087500D03*
X184951500Y-131087500D03*
X185751500Y-131087500D03*
X186551500Y-131087500D03*
X187351500Y-131087500D03*
X188151500Y-131087500D03*
D15*
X189601500Y-129637500D03*
X189601500Y-128837500D03*
X189601500Y-128037500D03*
X189601500Y-127237500D03*
X189601500Y-126437500D03*
X189601500Y-125637500D03*
X189601500Y-124837500D03*
X189601500Y-124037500D03*
D16*
X188151500Y-122587500D03*
X187351500Y-122587500D03*
X186551500Y-122587500D03*
X185751500Y-122587500D03*
X184951500Y-122587500D03*
X184151500Y-122587500D03*
X183351500Y-122587500D03*
X182551500Y-122587500D03*
%TD*%
D15*
%TO.C,IC4*%
X181101500Y-108416500D03*
X181101500Y-109216500D03*
X181101500Y-110016500D03*
X181101500Y-110816500D03*
X181101500Y-111616500D03*
X181101500Y-112416500D03*
X181101500Y-113216500D03*
X181101500Y-114016500D03*
D16*
X182551500Y-115466500D03*
X183351500Y-115466500D03*
X184151500Y-115466500D03*
X184951500Y-115466500D03*
X185751500Y-115466500D03*
X186551500Y-115466500D03*
X187351500Y-115466500D03*
X188151500Y-115466500D03*
D15*
X189601500Y-114016500D03*
X189601500Y-113216500D03*
X189601500Y-112416500D03*
X189601500Y-111616500D03*
X189601500Y-110816500D03*
X189601500Y-110016500D03*
X189601500Y-109216500D03*
X189601500Y-108416500D03*
D16*
X188151500Y-106966500D03*
X187351500Y-106966500D03*
X186551500Y-106966500D03*
X185751500Y-106966500D03*
X184951500Y-106966500D03*
X184151500Y-106966500D03*
X183351500Y-106966500D03*
X182551500Y-106966500D03*
%TD*%
D17*
%TO.C,J1*%
X187672500Y-94323500D03*
X187022500Y-94323500D03*
X186372500Y-94323500D03*
X185722500Y-94323500D03*
X185072500Y-94323500D03*
D18*
X185222500Y-91473500D03*
D19*
X182622500Y-91473500D03*
D18*
X187522500Y-91473500D03*
D19*
X190122500Y-91473500D03*
%TD*%
D20*
%TO.C,R17*%
X161555000Y-119408000D03*
X163555000Y-119408000D03*
%TD*%
%TO.C,R18*%
X182954500Y-119408000D03*
X184954500Y-119408000D03*
%TD*%
%TO.C,R19*%
X161555000Y-103787000D03*
X163555000Y-103787000D03*
%TD*%
%TO.C,R20*%
X182954500Y-103787000D03*
X184954500Y-103787000D03*
%TD*%
D21*
%TO.C,R21*%
X172889500Y-129695000D03*
X170889500Y-129695000D03*
%TD*%
%TO.C,R22*%
X194289000Y-129695000D03*
X192289000Y-129695000D03*
%TD*%
%TO.C,R23*%
X172889500Y-114074000D03*
X170889500Y-114074000D03*
%TD*%
%TO.C,R24*%
X194289000Y-114074000D03*
X192289000Y-114074000D03*
%TD*%
%TO.C,R25*%
X173085000Y-95123000D03*
X171085000Y-95123000D03*
%TD*%
D20*
%TO.C,R26*%
X171085000Y-98044000D03*
X173085000Y-98044000D03*
%TD*%
%TO.C,R27*%
X164989000Y-94869000D03*
X166989000Y-94869000D03*
%TD*%
%TO.C,R28*%
X164989000Y-92456000D03*
X166989000Y-92456000D03*
%TD*%
%TO.C,R30*%
X159528000Y-98234500D03*
X161528000Y-98234500D03*
%TD*%
D22*
%TO.C,Y1*%
X156776500Y-128050500D03*
X156776500Y-129250500D03*
X156776500Y-130450500D03*
%TD*%
%TO.C,Y2*%
X178176000Y-128050500D03*
X178176000Y-129250500D03*
X178176000Y-130450500D03*
%TD*%
%TO.C,Y3*%
X156776500Y-112429500D03*
X156776500Y-113629500D03*
X156776500Y-114829500D03*
%TD*%
%TO.C,Y4*%
X178176000Y-112429500D03*
X178176000Y-113629500D03*
X178176000Y-114829500D03*
%TD*%
D23*
%TO.C,H1*%
X196342000Y-136334500D03*
%TD*%
%TO.C,H2*%
X153670000Y-136334500D03*
%TD*%
%TO.C,H3*%
X153670000Y-93662500D03*
%TD*%
%TO.C,H4*%
X196278500Y-93662500D03*
%TD*%
D15*
%TO.C,IC3*%
X159702000Y-108416500D03*
X159702000Y-109216500D03*
X159702000Y-110016500D03*
X159702000Y-110816500D03*
X159702000Y-111616500D03*
X159702000Y-112416500D03*
X159702000Y-113216500D03*
X159702000Y-114016500D03*
D16*
X161152000Y-115466500D03*
X161952000Y-115466500D03*
X162752000Y-115466500D03*
X163552000Y-115466500D03*
X164352000Y-115466500D03*
X165152000Y-115466500D03*
X165952000Y-115466500D03*
X166752000Y-115466500D03*
D15*
X168202000Y-114016500D03*
X168202000Y-113216500D03*
X168202000Y-112416500D03*
X168202000Y-111616500D03*
X168202000Y-110816500D03*
X168202000Y-110016500D03*
X168202000Y-109216500D03*
X168202000Y-108416500D03*
D16*
X166752000Y-106966500D03*
X165952000Y-106966500D03*
X165152000Y-106966500D03*
X164352000Y-106966500D03*
X163552000Y-106966500D03*
X162752000Y-106966500D03*
X161952000Y-106966500D03*
X161152000Y-106966500D03*
%TD*%
D24*
%TO.C,J2*%
X198450200Y-117043200D03*
D25*
X198450200Y-114503200D03*
X198450200Y-111963200D03*
X198450200Y-109423200D03*
%TD*%
D24*
%TO.C,J3*%
X182664100Y-135801100D03*
D25*
X185204100Y-135801100D03*
X187744100Y-135801100D03*
X190284100Y-135801100D03*
%TD*%
D24*
%TO.C,J5*%
X160020000Y-135775700D03*
D25*
X162560000Y-135775700D03*
X165100000Y-135775700D03*
X167640000Y-135775700D03*
%TD*%
D24*
%TO.C,J6*%
X175417480Y-117012720D03*
D25*
X175417480Y-114472720D03*
X175417480Y-111932720D03*
X175417480Y-109392720D03*
%TD*%
D24*
%TO.C,J4*%
X190296800Y-99771200D03*
D25*
X187756800Y-99771200D03*
X185216800Y-99771200D03*
X182676800Y-99771200D03*
%TD*%
M02*
