%TF.GenerationSoftware,KiCad,Pcbnew,(6.0.4)*%
%TF.CreationDate,2022-03-26T16:13:01+01:00*%
%TF.ProjectId,Duino Coin,4475696e-6f20-4436-9f69-6e2e6b696361,rev?*%
%TF.SameCoordinates,Original*%
%TF.FileFunction,Copper,L4,Bot*%
%TF.FilePolarity,Positive*%
%FSLAX46Y46*%
G04 Gerber Fmt 4.6, Leading zero omitted, Abs format (unit mm)*
G04 Created by KiCad (PCBNEW (6.0.4)) date 2022-03-26 16:13:01*
%MOMM*%
%LPD*%
G01*
G04 APERTURE LIST*
G04 Aperture macros list*
%AMRoundRect*
0 Rectangle with rounded corners*
0 $1 Rounding radius*
0 $2 $3 $4 $5 $6 $7 $8 $9 X,Y pos of 4 corners*
0 Add a 4 corners polygon primitive as box body*
4,1,4,$2,$3,$4,$5,$6,$7,$8,$9,$2,$3,0*
0 Add four circle primitives for the rounded corners*
1,1,$1+$1,$2,$3*
1,1,$1+$1,$4,$5*
1,1,$1+$1,$6,$7*
1,1,$1+$1,$8,$9*
0 Add four rect primitives between the rounded corners*
20,1,$1+$1,$2,$3,$4,$5,0*
20,1,$1+$1,$4,$5,$6,$7,0*
20,1,$1+$1,$6,$7,$8,$9,0*
20,1,$1+$1,$8,$9,$2,$3,0*%
G04 Aperture macros list end*
%TA.AperFunction,ComponentPad*%
%ADD10R,1.700000X1.700000*%
%TD*%
%TA.AperFunction,ComponentPad*%
%ADD11O,1.700000X1.700000*%
%TD*%
%TA.AperFunction,SMDPad,CuDef*%
%ADD12RoundRect,0.250000X0.337500X0.475000X-0.337500X0.475000X-0.337500X-0.475000X0.337500X-0.475000X0*%
%TD*%
%TA.AperFunction,SMDPad,CuDef*%
%ADD13RoundRect,0.250000X-0.337500X-0.475000X0.337500X-0.475000X0.337500X0.475000X-0.337500X0.475000X0*%
%TD*%
%TA.AperFunction,SMDPad,CuDef*%
%ADD14RoundRect,0.237500X0.287500X0.237500X-0.287500X0.237500X-0.287500X-0.237500X0.287500X-0.237500X0*%
%TD*%
%TA.AperFunction,SMDPad,CuDef*%
%ADD15RoundRect,0.237500X-0.237500X0.287500X-0.237500X-0.287500X0.237500X-0.287500X0.237500X0.287500X0*%
%TD*%
%TA.AperFunction,SMDPad,CuDef*%
%ADD16RoundRect,0.237500X0.237500X-0.287500X0.237500X0.287500X-0.237500X0.287500X-0.237500X-0.287500X0*%
%TD*%
%TA.AperFunction,SMDPad,CuDef*%
%ADD17RoundRect,0.237500X-0.250000X-0.237500X0.250000X-0.237500X0.250000X0.237500X-0.250000X0.237500X0*%
%TD*%
%TA.AperFunction,SMDPad,CuDef*%
%ADD18RoundRect,0.237500X0.250000X0.237500X-0.250000X0.237500X-0.250000X-0.237500X0.250000X-0.237500X0*%
%TD*%
%TA.AperFunction,SMDPad,CuDef*%
%ADD19RoundRect,0.250000X0.350000X0.450000X-0.350000X0.450000X-0.350000X-0.450000X0.350000X-0.450000X0*%
%TD*%
%TA.AperFunction,SMDPad,CuDef*%
%ADD20RoundRect,0.250000X0.450000X-0.350000X0.450000X0.350000X-0.450000X0.350000X-0.450000X-0.350000X0*%
%TD*%
%TA.AperFunction,SMDPad,CuDef*%
%ADD21RoundRect,0.250000X-0.450000X0.350000X-0.450000X-0.350000X0.450000X-0.350000X0.450000X0.350000X0*%
%TD*%
%TA.AperFunction,SMDPad,CuDef*%
%ADD22R,0.400000X1.200000*%
%TD*%
%TA.AperFunction,SMDPad,CuDef*%
%ADD23R,2.000000X2.400000*%
%TD*%
%TA.AperFunction,SMDPad,CuDef*%
%ADD24RoundRect,0.150000X-0.825000X-0.150000X0.825000X-0.150000X0.825000X0.150000X-0.825000X0.150000X0*%
%TD*%
%TA.AperFunction,SMDPad,CuDef*%
%ADD25R,2.000000X0.400000*%
%TD*%
%TA.AperFunction,ViaPad*%
%ADD26C,0.900000*%
%TD*%
%TA.AperFunction,ViaPad*%
%ADD27C,0.600000*%
%TD*%
%TA.AperFunction,Conductor*%
%ADD28C,0.300000*%
%TD*%
%TA.AperFunction,Conductor*%
%ADD29C,0.200000*%
%TD*%
%TA.AperFunction,Conductor*%
%ADD30C,0.400000*%
%TD*%
%TA.AperFunction,Conductor*%
%ADD31C,0.228600*%
%TD*%
G04 APERTURE END LIST*
D10*
%TO.P,J2,1*%
%TO.N,/MOSI4*%
X198450200Y-117043200D03*
D11*
%TO.P,J2,2*%
%TO.N,/MISO4*%
X198450200Y-114503200D03*
%TO.P,J2,3*%
%TO.N,/SCK4*%
X198450200Y-111963200D03*
%TO.P,J2,4*%
%TO.N,/SS4*%
X198450200Y-109423200D03*
%TD*%
D10*
%TO.P,J3,1*%
%TO.N,/MOSI3*%
X182664100Y-135801100D03*
D11*
%TO.P,J3,2*%
%TO.N,/MISO3*%
X185204100Y-135801100D03*
%TO.P,J3,3*%
%TO.N,/SCK3*%
X187744100Y-135801100D03*
%TO.P,J3,4*%
%TO.N,/SS3*%
X190284100Y-135801100D03*
%TD*%
D10*
%TO.P,J5,1*%
%TO.N,/MOSI2*%
X160020000Y-135775700D03*
D11*
%TO.P,J5,2*%
%TO.N,/MISO2*%
X162560000Y-135775700D03*
%TO.P,J5,3*%
%TO.N,/SCK2*%
X165100000Y-135775700D03*
%TO.P,J5,4*%
%TO.N,/SS2*%
X167640000Y-135775700D03*
%TD*%
D10*
%TO.P,J6,1*%
%TO.N,/MOSI1*%
X175417480Y-117012720D03*
D11*
%TO.P,J6,2*%
%TO.N,/MISO1*%
X175417480Y-114472720D03*
%TO.P,J6,3*%
%TO.N,/SCK1*%
X175417480Y-111932720D03*
%TO.P,J6,4*%
%TO.N,/SS1*%
X175417480Y-109392720D03*
%TD*%
D12*
%TO.P,C2,1*%
%TO.N,+5V*%
X193569500Y-115697000D03*
%TO.P,C2,2*%
%TO.N,GND*%
X191494500Y-115697000D03*
%TD*%
%TO.P,C3,1*%
%TO.N,+5V*%
X164486500Y-131381500D03*
%TO.P,C3,2*%
%TO.N,GND*%
X162411500Y-131381500D03*
%TD*%
%TO.P,C4,1*%
%TO.N,+5V*%
X193506000Y-131381500D03*
%TO.P,C4,2*%
%TO.N,GND*%
X191431000Y-131381500D03*
%TD*%
%TO.P,C5,1*%
%TO.N,+5V*%
X164486500Y-115760500D03*
%TO.P,C5,2*%
%TO.N,GND*%
X162411500Y-115760500D03*
%TD*%
D13*
%TO.P,C21,1*%
%TO.N,+3V3*%
X176064000Y-91948000D03*
%TO.P,C21,2*%
%TO.N,GND*%
X178139000Y-91948000D03*
%TD*%
D12*
%TO.P,C23,1*%
%TO.N,+5V*%
X172360500Y-91948000D03*
%TO.P,C23,2*%
%TO.N,GND*%
X170285500Y-91948000D03*
%TD*%
D14*
%TO.P,D1,1*%
%TO.N,/RXD_4*%
X183945500Y-112141000D03*
%TO.P,D1,2*%
%TO.N,Net-(D1-Pad2)*%
X182195500Y-112141000D03*
%TD*%
%TO.P,D2,1*%
%TO.N,/TXD_4*%
X183945500Y-110045500D03*
%TO.P,D2,2*%
%TO.N,Net-(D2-Pad2)*%
X182195500Y-110045500D03*
%TD*%
D15*
%TO.P,D3,1*%
%TO.N,/RXD_2*%
X154368500Y-128284000D03*
%TO.P,D3,2*%
%TO.N,Net-(D3-Pad2)*%
X154368500Y-130034000D03*
%TD*%
D16*
%TO.P,D4,1*%
%TO.N,/TXD_2*%
X154368500Y-125335000D03*
%TO.P,D4,2*%
%TO.N,Net-(D4-Pad2)*%
X154368500Y-123585000D03*
%TD*%
D14*
%TO.P,D5,1*%
%TO.N,/RXD_3*%
X183882000Y-127825500D03*
%TO.P,D5,2*%
%TO.N,Net-(D5-Pad2)*%
X182132000Y-127825500D03*
%TD*%
%TO.P,D6,1*%
%TO.N,/TXD_3*%
X183882000Y-125730000D03*
%TO.P,D6,2*%
%TO.N,Net-(D6-Pad2)*%
X182132000Y-125730000D03*
%TD*%
D15*
%TO.P,D7,1*%
%TO.N,/RXD_1*%
X154305000Y-112726500D03*
%TO.P,D7,2*%
%TO.N,Net-(D7-Pad2)*%
X154305000Y-114476500D03*
%TD*%
D16*
%TO.P,D8,1*%
%TO.N,/TXD_1*%
X154305000Y-109714000D03*
%TO.P,D8,2*%
%TO.N,Net-(D8-Pad2)*%
X154305000Y-107964000D03*
%TD*%
D17*
%TO.P,R1,1*%
%TO.N,/RXD_4*%
X185841000Y-111950500D03*
%TO.P,R1,2*%
%TO.N,Net-(R1-Pad2)*%
X187666000Y-111950500D03*
%TD*%
%TO.P,R2,1*%
%TO.N,/RXD_2*%
X156758000Y-127635000D03*
%TO.P,R2,2*%
%TO.N,Net-(R2-Pad2)*%
X158583000Y-127635000D03*
%TD*%
%TO.P,R3,1*%
%TO.N,/RXD_3*%
X185777500Y-127635000D03*
%TO.P,R3,2*%
%TO.N,Net-(R3-Pad2)*%
X187602500Y-127635000D03*
%TD*%
%TO.P,R4,1*%
%TO.N,/RXD_1*%
X156758000Y-112014000D03*
%TO.P,R4,2*%
%TO.N,Net-(R4-Pad2)*%
X158583000Y-112014000D03*
%TD*%
D18*
%TO.P,R5,1*%
%TO.N,Net-(R5-Pad1)*%
X187666000Y-110236000D03*
%TO.P,R5,2*%
%TO.N,/TXD_4*%
X185841000Y-110236000D03*
%TD*%
%TO.P,R6,1*%
%TO.N,Net-(R6-Pad1)*%
X158583000Y-125920500D03*
%TO.P,R6,2*%
%TO.N,/TXD_2*%
X156758000Y-125920500D03*
%TD*%
%TO.P,R7,1*%
%TO.N,Net-(R7-Pad1)*%
X187602500Y-125920500D03*
%TO.P,R7,2*%
%TO.N,/TXD_3*%
X185777500Y-125920500D03*
%TD*%
%TO.P,R8,1*%
%TO.N,Net-(R8-Pad1)*%
X158583000Y-110299500D03*
%TO.P,R8,2*%
%TO.N,/TXD_1*%
X156758000Y-110299500D03*
%TD*%
D19*
%TO.P,R9,1*%
%TO.N,+5V*%
X187499500Y-115316000D03*
%TO.P,R9,2*%
%TO.N,Net-(D1-Pad2)*%
X185499500Y-115316000D03*
%TD*%
D20*
%TO.P,R10,1*%
%TO.N,+5V*%
X179679600Y-112099600D03*
%TO.P,R10,2*%
%TO.N,Net-(D2-Pad2)*%
X179679600Y-110099600D03*
%TD*%
D19*
%TO.P,R11,1*%
%TO.N,+5V*%
X158416500Y-131000500D03*
%TO.P,R11,2*%
%TO.N,Net-(D3-Pad2)*%
X156416500Y-131000500D03*
%TD*%
D21*
%TO.P,R12,1*%
%TO.N,+5V*%
X154381200Y-119446800D03*
%TO.P,R12,2*%
%TO.N,Net-(D4-Pad2)*%
X154381200Y-121446800D03*
%TD*%
D19*
%TO.P,R13,1*%
%TO.N,+5V*%
X187436000Y-131000500D03*
%TO.P,R13,2*%
%TO.N,Net-(D5-Pad2)*%
X185436000Y-131000500D03*
%TD*%
D20*
%TO.P,R14,1*%
%TO.N,+5V*%
X179679600Y-127796800D03*
%TO.P,R14,2*%
%TO.N,Net-(D6-Pad2)*%
X179679600Y-125796800D03*
%TD*%
D19*
%TO.P,R15,1*%
%TO.N,+5V*%
X158416500Y-115379500D03*
%TO.P,R15,2*%
%TO.N,Net-(D7-Pad2)*%
X156416500Y-115379500D03*
%TD*%
D21*
%TO.P,R16,1*%
%TO.N,+5V*%
X154330400Y-103800400D03*
%TO.P,R16,2*%
%TO.N,Net-(D8-Pad2)*%
X154330400Y-105800400D03*
%TD*%
D20*
%TO.P,R29,1*%
%TO.N,Net-(R29-Pad1)*%
X165735000Y-100377500D03*
%TO.P,R29,2*%
%TO.N,GND*%
X165735000Y-98377500D03*
%TD*%
D10*
%TO.P,J4,1*%
%TO.N,+5V*%
X190296800Y-99771200D03*
D11*
%TO.P,J4,2*%
%TO.N,/D-*%
X187756800Y-99771200D03*
%TO.P,J4,3*%
%TO.N,/D+*%
X185216800Y-99771200D03*
%TO.P,J4,4*%
%TO.N,GND*%
X182676800Y-99771200D03*
%TD*%
D22*
%TO.P,U5,1*%
%TO.N,GND*%
X177419000Y-100390000D03*
%TO.P,U5,2*%
%TO.N,Net-(U5-Pad2)*%
X176784000Y-100390000D03*
%TO.P,U5,3*%
%TO.N,Net-(U5-Pad3)*%
X176149000Y-100390000D03*
%TO.P,U5,4*%
%TO.N,/D4_N*%
X175514000Y-100390000D03*
%TO.P,U5,5*%
%TO.N,/D4_P*%
X174879000Y-100390000D03*
%TO.P,U5,6*%
%TO.N,/D3_N*%
X174244000Y-100390000D03*
%TO.P,U5,7*%
%TO.N,/D3_P*%
X173609000Y-100390000D03*
%TO.P,U5,8*%
%TO.N,/D2_N*%
X172974000Y-100390000D03*
%TO.P,U5,9*%
%TO.N,/D2_P*%
X172339000Y-100390000D03*
%TO.P,U5,10*%
%TO.N,/D1_N*%
X171704000Y-100390000D03*
%TO.P,U5,11*%
%TO.N,/D1_P*%
X171069000Y-100390000D03*
%TO.P,U5,12*%
%TO.N,Net-(C19-Pad1)*%
X170434000Y-100390000D03*
%TO.P,U5,13*%
%TO.N,+3V3*%
X169799000Y-100390000D03*
%TO.P,U5,14*%
%TO.N,Net-(R29-Pad1)*%
X169164000Y-100390000D03*
%TO.P,U5,15*%
%TO.N,/D-*%
X169164000Y-95190000D03*
%TO.P,U5,16*%
%TO.N,/D+*%
X169799000Y-95190000D03*
%TO.P,U5,17*%
%TO.N,+3V3*%
X170434000Y-95190000D03*
%TO.P,U5,18*%
%TO.N,Net-(R25-Pad2)*%
X171069000Y-95190000D03*
%TO.P,U5,19*%
%TO.N,+3V3*%
X171704000Y-95190000D03*
%TO.P,U5,20*%
%TO.N,+5V*%
X172339000Y-95190000D03*
%TO.P,U5,21*%
%TO.N,+3V3*%
X172974000Y-95190000D03*
%TO.P,U5,22*%
%TO.N,Net-(D17-Pad2)*%
X173609000Y-95190000D03*
%TO.P,U5,23*%
%TO.N,Net-(R27-Pad2)*%
X174244000Y-95190000D03*
%TO.P,U5,24*%
%TO.N,Net-(R28-Pad2)*%
X174879000Y-95190000D03*
%TO.P,U5,25*%
%TO.N,Net-(U5-Pad25)*%
X175514000Y-95190000D03*
%TO.P,U5,26*%
%TO.N,+3V3*%
X176149000Y-95190000D03*
%TO.P,U5,27*%
%TO.N,Net-(U5-Pad27)*%
X176784000Y-95190000D03*
%TO.P,U5,28*%
%TO.N,Net-(C19-Pad1)*%
X177419000Y-95190000D03*
%TD*%
D23*
%TO.P,Y5,1*%
%TO.N,Net-(U5-Pad2)*%
X180107200Y-105664000D03*
%TO.P,Y5,2*%
%TO.N,Net-(U5-Pad3)*%
X176407200Y-105664000D03*
%TD*%
D24*
%TO.P,U1,1*%
%TO.N,GND*%
X190250040Y-113024920D03*
%TO.P,U1,2*%
%TO.N,Net-(R1-Pad2)*%
X190250040Y-111754920D03*
%TO.P,U1,3*%
%TO.N,Net-(R5-Pad1)*%
X190250040Y-110484920D03*
%TO.P,U1,4*%
%TO.N,+5V*%
X190250040Y-109214920D03*
%TO.P,U1,5*%
%TO.N,/D4_P*%
X190250040Y-107944920D03*
%TO.P,U1,6*%
%TO.N,/D4_N*%
X190250040Y-106674920D03*
%TO.P,U1,7*%
%TO.N,Net-(U1-Pad7)*%
X190250040Y-105404920D03*
%TO.P,U1,8*%
%TO.N,Net-(U1-Pad8)*%
X190250040Y-104134920D03*
%TO.P,U1,9*%
%TO.N,Net-(U1-Pad9)*%
X195200040Y-104134920D03*
%TO.P,U1,10*%
%TO.N,Net-(U1-Pad10)*%
X195200040Y-105404920D03*
%TO.P,U1,11*%
%TO.N,Net-(U1-Pad11)*%
X195200040Y-106674920D03*
%TO.P,U1,12*%
%TO.N,Net-(U1-Pad12)*%
X195200040Y-107944920D03*
%TO.P,U1,13*%
%TO.N,/DTR_4*%
X195200040Y-109214920D03*
%TO.P,U1,14*%
%TO.N,Net-(U1-Pad14)*%
X195200040Y-110484920D03*
%TO.P,U1,15*%
%TO.N,Net-(U1-Pad15)*%
X195200040Y-111754920D03*
%TO.P,U1,16*%
%TO.N,+5V*%
X195200040Y-113024920D03*
%TD*%
%TO.P,U2,1*%
%TO.N,GND*%
X161161960Y-128717040D03*
%TO.P,U2,2*%
%TO.N,Net-(R2-Pad2)*%
X161161960Y-127447040D03*
%TO.P,U2,3*%
%TO.N,Net-(R6-Pad1)*%
X161161960Y-126177040D03*
%TO.P,U2,4*%
%TO.N,+5V*%
X161161960Y-124907040D03*
%TO.P,U2,5*%
%TO.N,/D2_P*%
X161161960Y-123637040D03*
%TO.P,U2,6*%
%TO.N,/D2_N*%
X161161960Y-122367040D03*
%TO.P,U2,7*%
%TO.N,Net-(U2-Pad7)*%
X161161960Y-121097040D03*
%TO.P,U2,8*%
%TO.N,Net-(U2-Pad8)*%
X161161960Y-119827040D03*
%TO.P,U2,9*%
%TO.N,Net-(U2-Pad9)*%
X166111960Y-119827040D03*
%TO.P,U2,10*%
%TO.N,Net-(U2-Pad10)*%
X166111960Y-121097040D03*
%TO.P,U2,11*%
%TO.N,Net-(U2-Pad11)*%
X166111960Y-122367040D03*
%TO.P,U2,12*%
%TO.N,Net-(U2-Pad12)*%
X166111960Y-123637040D03*
%TO.P,U2,13*%
%TO.N,/DTR_2*%
X166111960Y-124907040D03*
%TO.P,U2,14*%
%TO.N,Net-(U2-Pad14)*%
X166111960Y-126177040D03*
%TO.P,U2,15*%
%TO.N,Net-(U2-Pad15)*%
X166111960Y-127447040D03*
%TO.P,U2,16*%
%TO.N,+5V*%
X166111960Y-128717040D03*
%TD*%
%TO.P,U3,1*%
%TO.N,GND*%
X190184000Y-128717040D03*
%TO.P,U3,2*%
%TO.N,Net-(R3-Pad2)*%
X190184000Y-127447040D03*
%TO.P,U3,3*%
%TO.N,Net-(R7-Pad1)*%
X190184000Y-126177040D03*
%TO.P,U3,4*%
%TO.N,+5V*%
X190184000Y-124907040D03*
%TO.P,U3,5*%
%TO.N,/D3_P*%
X190184000Y-123637040D03*
%TO.P,U3,6*%
%TO.N,/D3_N*%
X190184000Y-122367040D03*
%TO.P,U3,7*%
%TO.N,Net-(U3-Pad7)*%
X190184000Y-121097040D03*
%TO.P,U3,8*%
%TO.N,Net-(U3-Pad8)*%
X190184000Y-119827040D03*
%TO.P,U3,9*%
%TO.N,Net-(U3-Pad9)*%
X195134000Y-119827040D03*
%TO.P,U3,10*%
%TO.N,Net-(U3-Pad10)*%
X195134000Y-121097040D03*
%TO.P,U3,11*%
%TO.N,Net-(U3-Pad11)*%
X195134000Y-122367040D03*
%TO.P,U3,12*%
%TO.N,Net-(U3-Pad12)*%
X195134000Y-123637040D03*
%TO.P,U3,13*%
%TO.N,/DTR_3*%
X195134000Y-124907040D03*
%TO.P,U3,14*%
%TO.N,Net-(U3-Pad14)*%
X195134000Y-126177040D03*
%TO.P,U3,15*%
%TO.N,Net-(U3-Pad15)*%
X195134000Y-127447040D03*
%TO.P,U3,16*%
%TO.N,+5V*%
X195134000Y-128717040D03*
%TD*%
%TO.P,U4,1*%
%TO.N,GND*%
X161161960Y-113096040D03*
%TO.P,U4,2*%
%TO.N,Net-(R4-Pad2)*%
X161161960Y-111826040D03*
%TO.P,U4,3*%
%TO.N,Net-(R8-Pad1)*%
X161161960Y-110556040D03*
%TO.P,U4,4*%
%TO.N,+5V*%
X161161960Y-109286040D03*
%TO.P,U4,5*%
%TO.N,/D1_P*%
X161161960Y-108016040D03*
%TO.P,U4,6*%
%TO.N,/D1_N*%
X161161960Y-106746040D03*
%TO.P,U4,7*%
%TO.N,Net-(U4-Pad7)*%
X161161960Y-105476040D03*
%TO.P,U4,8*%
%TO.N,Net-(U4-Pad8)*%
X161161960Y-104206040D03*
%TO.P,U4,9*%
%TO.N,Net-(U4-Pad9)*%
X166111960Y-104206040D03*
%TO.P,U4,10*%
%TO.N,Net-(U4-Pad10)*%
X166111960Y-105476040D03*
%TO.P,U4,11*%
%TO.N,Net-(U4-Pad11)*%
X166111960Y-106746040D03*
%TO.P,U4,12*%
%TO.N,Net-(U4-Pad12)*%
X166111960Y-108016040D03*
%TO.P,U4,13*%
%TO.N,/DTR_1*%
X166111960Y-109286040D03*
%TO.P,U4,14*%
%TO.N,Net-(U4-Pad14)*%
X166111960Y-110556040D03*
%TO.P,U4,15*%
%TO.N,Net-(U4-Pad15)*%
X166111960Y-111826040D03*
%TO.P,U4,16*%
%TO.N,+5V*%
X166111960Y-113096040D03*
%TD*%
D25*
%TO.P,Y6,1*%
%TO.N,Net-(U4-Pad7)*%
X158536640Y-105959760D03*
%TO.P,Y6,2*%
%TO.N,GND*%
X158536640Y-104759760D03*
%TO.P,Y6,3*%
%TO.N,Net-(U4-Pad8)*%
X158536640Y-103559760D03*
%TD*%
%TO.P,Y7,1*%
%TO.N,Net-(U2-Pad7)*%
X158328360Y-121748400D03*
%TO.P,Y7,2*%
%TO.N,GND*%
X158328360Y-120548400D03*
%TO.P,Y7,3*%
%TO.N,Net-(U2-Pad8)*%
X158328360Y-119348400D03*
%TD*%
%TO.P,Y9,1*%
%TO.N,Net-(U3-Pad7)*%
X187340240Y-121621400D03*
%TO.P,Y9,2*%
%TO.N,GND*%
X187340240Y-120421400D03*
%TO.P,Y9,3*%
%TO.N,Net-(U3-Pad8)*%
X187340240Y-119221400D03*
%TD*%
%TO.P,Y8,1*%
%TO.N,Net-(U1-Pad7)*%
X187137040Y-106848760D03*
%TO.P,Y8,2*%
%TO.N,GND*%
X187137040Y-105648760D03*
%TO.P,Y8,3*%
%TO.N,Net-(U1-Pad8)*%
X187137040Y-104448760D03*
%TD*%
D26*
%TO.N,GND*%
X165760400Y-96926400D03*
D27*
X156763720Y-121813320D03*
D26*
X193357500Y-124510800D03*
D27*
X176733200Y-113639600D03*
D26*
X172923200Y-125780800D03*
D27*
X174193200Y-98806000D03*
X158292800Y-108813600D03*
D26*
X172923200Y-110134400D03*
X197104000Y-110782100D03*
D27*
X155346400Y-129235200D03*
X157683200Y-111252000D03*
X157012640Y-106126280D03*
X178155600Y-126238000D03*
D26*
X187553600Y-108864400D03*
X183616600Y-96951800D03*
D27*
X179730400Y-108661200D03*
X169113200Y-91846400D03*
X193700400Y-108610400D03*
X179730400Y-124460000D03*
D26*
X187452000Y-124460000D03*
D27*
X176631600Y-129235200D03*
X185851800Y-120929400D03*
D26*
X179578000Y-91948000D03*
X178303000Y-121863028D03*
X172923200Y-108915200D03*
X182900320Y-105333800D03*
D27*
X162661600Y-128778000D03*
X158343600Y-124510800D03*
X157683200Y-126847600D03*
X155397200Y-113639600D03*
D26*
X184607200Y-95961200D03*
X172974000Y-124561600D03*
X191427102Y-131394200D03*
X177952400Y-101650800D03*
X182676800Y-97891600D03*
D27*
X178257200Y-110744000D03*
D26*
X162966400Y-98196400D03*
D27*
X169468800Y-126441200D03*
D26*
X191528700Y-115709700D03*
D27*
X162763200Y-113131600D03*
X169468800Y-110845600D03*
D26*
%TO.N,+5V*%
X178303000Y-123957000D03*
X156903500Y-108317000D03*
X188193680Y-95945960D03*
D27*
X160731200Y-102870000D03*
D26*
X154391360Y-119390160D03*
X189141100Y-96944180D03*
X182930800Y-119430800D03*
D27*
X163499800Y-110363000D03*
D26*
X187528200Y-113880900D03*
X178303000Y-108317000D03*
X156903500Y-123938000D03*
X189585600Y-131216400D03*
X154330400Y-103784400D03*
X159664400Y-115417600D03*
X190136780Y-97881440D03*
D27*
X161645600Y-119024400D03*
D26*
X182930800Y-103835200D03*
X193569500Y-115697000D03*
X181254400Y-130962400D03*
X193533350Y-131354150D03*
X181254400Y-115316000D03*
X164465000Y-129654300D03*
X158394400Y-132537200D03*
D27*
X172339000Y-93802200D03*
%TO.N,Net-(R25-Pad2)*%
X171069000Y-96266000D03*
%TO.N,Net-(R27-Pad2)*%
X174117000Y-93789500D03*
%TO.N,Net-(R28-Pad2)*%
X174879000Y-93789500D03*
D26*
%TO.N,+3V3*%
X163576000Y-92456000D03*
D27*
%TO.N,Net-(D17-Pad2)*%
X174180500Y-91757500D03*
%TO.N,Net-(C19-Pad1)*%
X170484800Y-99314000D03*
X177419000Y-96393000D03*
%TO.N,/DTR_2*%
X169011600Y-119380000D03*
%TO.N,/DTR_3*%
X196850000Y-124917200D03*
%TO.N,/DTR_1*%
X169011600Y-103784400D03*
%TO.N,/DTR_4*%
X196900800Y-109220000D03*
%TO.N,/RXD_4*%
X184150000Y-108458000D03*
%TO.N,/TXD_4*%
X183337200Y-108458000D03*
%TO.N,/RXD_2*%
X153212800Y-128270000D03*
%TO.N,/TXD_2*%
X153212800Y-125323600D03*
%TO.N,/RXD_3*%
X184200800Y-123952000D03*
%TO.N,/TXD_3*%
X183337200Y-123952000D03*
%TO.N,/RXD_1*%
X153212800Y-112725200D03*
%TO.N,/TXD_1*%
X153212800Y-109778800D03*
%TD*%
D28*
%TO.N,GND*%
X190184000Y-130036800D02*
X191431000Y-131283800D01*
D29*
X182905400Y-105328720D02*
X182900320Y-105333800D01*
D28*
X177419000Y-100390000D02*
X177419000Y-101117400D01*
D29*
X186532520Y-120421400D02*
X186024520Y-120929400D01*
X156763720Y-121310400D02*
X157525720Y-120548400D01*
D28*
X191431000Y-131283800D02*
X191431000Y-131381500D01*
D29*
X184505600Y-105648760D02*
X184185560Y-105328720D01*
D28*
X162763200Y-115408800D02*
X162411500Y-115760500D01*
D29*
X184185560Y-105328720D02*
X182905400Y-105328720D01*
D28*
X165735000Y-96951800D02*
X165760400Y-96926400D01*
X177419000Y-101117400D02*
X177952400Y-101650800D01*
X165735000Y-98377500D02*
X165735000Y-96951800D01*
X162411500Y-131381500D02*
X162661600Y-131131400D01*
D29*
X157012640Y-105486200D02*
X157012640Y-106126280D01*
D28*
X161164500Y-113093500D02*
X162725100Y-113093500D01*
X191427102Y-131385398D02*
X191427102Y-131394200D01*
D29*
X157739080Y-104759760D02*
X157012640Y-105486200D01*
D28*
X162725100Y-113093500D02*
X162763200Y-113131600D01*
D29*
X187340240Y-120421400D02*
X186532520Y-120421400D01*
D28*
X191431000Y-131381500D02*
X191427102Y-131385398D01*
D30*
X178139000Y-91948000D02*
X179578000Y-91948000D01*
D28*
X162598100Y-128714500D02*
X162661600Y-128778000D01*
X191494500Y-115548500D02*
X191494500Y-115697000D01*
X190184000Y-128714500D02*
X190184000Y-130036800D01*
D29*
X158536640Y-104759760D02*
X157739080Y-104759760D01*
D30*
X169113200Y-91846400D02*
X170183900Y-91846400D01*
D28*
X191494500Y-115697000D02*
X191507200Y-115709700D01*
D29*
X186024520Y-120929400D02*
X185851800Y-120929400D01*
D28*
X190247500Y-114301500D02*
X191494500Y-115548500D01*
X161164500Y-128714500D02*
X162598100Y-128714500D01*
D29*
X157525720Y-120548400D02*
X158328360Y-120548400D01*
X156763720Y-121813320D02*
X156763720Y-121310400D01*
D28*
X191507200Y-115709700D02*
X191528700Y-115709700D01*
X162661600Y-131131400D02*
X162661600Y-128778000D01*
X162763200Y-113131600D02*
X162763200Y-115408800D01*
X190247500Y-113030000D02*
X190247500Y-114301500D01*
D30*
X170183900Y-91846400D02*
X170285500Y-91948000D01*
D29*
X187137040Y-105648760D02*
X184505600Y-105648760D01*
%TO.N,Net-(D1-Pad2)*%
X182195500Y-112904300D02*
X182195500Y-112141000D01*
X184607200Y-115316000D02*
X182195500Y-112904300D01*
X185499500Y-115316000D02*
X184607200Y-115316000D01*
%TO.N,Net-(D2-Pad2)*%
X182195500Y-110045500D02*
X179733700Y-110045500D01*
X179733700Y-110045500D02*
X179679600Y-110099600D01*
%TO.N,Net-(D3-Pad2)*%
X155232100Y-131000500D02*
X156416500Y-131000500D01*
X154368500Y-130034000D02*
X154368500Y-130136900D01*
X154368500Y-130136900D02*
X155232100Y-131000500D01*
%TO.N,Net-(D4-Pad2)*%
X154368500Y-123585000D02*
X154368500Y-121459500D01*
X154368500Y-121459500D02*
X154381200Y-121446800D01*
%TO.N,Net-(D5-Pad2)*%
X185436000Y-131000500D02*
X184391300Y-131000500D01*
X182132000Y-128741200D02*
X182132000Y-127825500D01*
X184391300Y-131000500D02*
X182132000Y-128741200D01*
%TO.N,Net-(D6-Pad2)*%
X182132000Y-125730000D02*
X179746400Y-125730000D01*
X179746400Y-125730000D02*
X179679600Y-125796800D01*
%TO.N,Net-(D7-Pad2)*%
X154305000Y-114476500D02*
X155513500Y-114476500D01*
X155513500Y-114476500D02*
X156416500Y-115379500D01*
%TO.N,Net-(D8-Pad2)*%
X154305000Y-107964000D02*
X154305000Y-105825800D01*
X154305000Y-105825800D02*
X154330400Y-105800400D01*
D28*
%TO.N,+5V*%
X193687700Y-128714500D02*
X195070500Y-128714500D01*
X191452500Y-124904500D02*
X192532000Y-125984000D01*
X190120500Y-124904500D02*
X191452500Y-124904500D01*
X192532000Y-127558800D02*
X193687700Y-128714500D01*
X192532000Y-125984000D02*
X192532000Y-127558800D01*
D30*
X193506000Y-131381500D02*
X193506000Y-131381500D01*
X193569500Y-115697000D02*
X193569500Y-115697000D01*
X181254400Y-115316000D02*
X181254400Y-115316000D01*
D28*
X172339000Y-93802200D02*
X172339000Y-91969500D01*
D30*
X193533350Y-131354150D02*
X193506000Y-131381500D01*
D28*
X163499800Y-110363000D02*
X163525200Y-110388400D01*
X193738500Y-113017300D02*
X195121300Y-113017300D01*
D30*
X164486500Y-131381500D02*
X164486500Y-129675800D01*
D28*
X158416500Y-115379500D02*
X159626300Y-115379500D01*
X161113700Y-109308900D02*
X162445700Y-109308900D01*
X162445700Y-109308900D02*
X163499800Y-110363000D01*
D30*
X195197500Y-113030000D02*
X195197500Y-114069000D01*
D28*
X191503300Y-109207300D02*
X192582800Y-110286800D01*
D30*
X166114500Y-129753500D02*
X164486500Y-131381500D01*
D28*
X158416500Y-131000500D02*
X158416500Y-132515100D01*
X187499500Y-113909600D02*
X187528200Y-113880900D01*
D30*
X179679600Y-112099600D02*
X180273200Y-112099600D01*
D28*
X164731700Y-128714500D02*
X166114500Y-128714500D01*
D30*
X195134000Y-129753500D02*
X193533350Y-131354150D01*
D28*
X158416500Y-132515100D02*
X158394400Y-132537200D01*
X163576000Y-127558800D02*
X164731700Y-128714500D01*
X179714400Y-127796800D02*
X181254400Y-129336800D01*
D30*
X166114500Y-113093500D02*
X166114500Y-114132500D01*
X180273200Y-112099600D02*
X181254400Y-113080800D01*
D28*
X159626300Y-115379500D02*
X159664400Y-115417600D01*
X163525200Y-111963200D02*
X164680900Y-113118900D01*
X179679600Y-127796800D02*
X179714400Y-127796800D01*
D30*
X195134000Y-128714500D02*
X195134000Y-129753500D01*
D28*
X189585600Y-131216400D02*
X187651900Y-131216400D01*
X190171300Y-109207300D02*
X191503300Y-109207300D01*
X181254400Y-129336800D02*
X181254400Y-130962400D01*
X172339000Y-91969500D02*
X172360500Y-91948000D01*
D30*
X166114500Y-114132500D02*
X164486500Y-115760500D01*
D28*
X163576000Y-125984000D02*
X163576000Y-127558800D01*
X192582800Y-110286800D02*
X192582800Y-111861600D01*
X187499500Y-115316000D02*
X187499500Y-113909600D01*
X163525200Y-110388400D02*
X163525200Y-111963200D01*
D30*
X181254400Y-113080800D02*
X181254400Y-115316000D01*
D28*
X162496500Y-124904500D02*
X163576000Y-125984000D01*
X161164500Y-124904500D02*
X162496500Y-124904500D01*
X164680900Y-113118900D02*
X166063700Y-113118900D01*
X154391360Y-119436640D02*
X154391360Y-119390160D01*
D30*
X164486500Y-129675800D02*
X164465000Y-129654300D01*
D28*
X187651900Y-131216400D02*
X187436000Y-131000500D01*
X172339000Y-95190000D02*
X172339000Y-93802200D01*
X154381200Y-119446800D02*
X154391360Y-119436640D01*
D30*
X166114500Y-128714500D02*
X166114500Y-129753500D01*
D28*
X192582800Y-111861600D02*
X193738500Y-113017300D01*
D30*
X195197500Y-114069000D02*
X193569500Y-115697000D01*
D29*
%TO.N,Net-(U2-Pad7)*%
X159404200Y-121748400D02*
X160055560Y-121097040D01*
X158328360Y-121748400D02*
X159404200Y-121748400D01*
X160055560Y-121097040D02*
X161161960Y-121097040D01*
%TO.N,Net-(U3-Pad8)*%
X187340240Y-119221400D02*
X188863120Y-119221400D01*
X189468760Y-119827040D02*
X190184000Y-119827040D01*
X188863120Y-119221400D02*
X189468760Y-119827040D01*
%TO.N,Net-(U3-Pad7)*%
X187340240Y-121621400D02*
X188985040Y-121621400D01*
X189509400Y-121097040D02*
X190184000Y-121097040D01*
X188985040Y-121621400D02*
X189509400Y-121097040D01*
%TO.N,Net-(R1-Pad2)*%
X190247500Y-111760000D02*
X187856500Y-111760000D01*
X187856500Y-111760000D02*
X187666000Y-111950500D01*
%TO.N,Net-(R2-Pad2)*%
X161164500Y-127444500D02*
X158773500Y-127444500D01*
X158773500Y-127444500D02*
X158583000Y-127635000D01*
%TO.N,Net-(R3-Pad2)*%
X187793000Y-127444500D02*
X187602500Y-127635000D01*
X190184000Y-127444500D02*
X187793000Y-127444500D01*
%TO.N,Net-(R4-Pad2)*%
X158773500Y-111823500D02*
X158583000Y-112014000D01*
X161164500Y-111823500D02*
X158773500Y-111823500D01*
%TO.N,Net-(R5-Pad1)*%
X190247500Y-110490000D02*
X187920000Y-110490000D01*
X187920000Y-110490000D02*
X187666000Y-110236000D01*
%TO.N,Net-(R6-Pad1)*%
X158837000Y-126174500D02*
X158583000Y-125920500D01*
X161164500Y-126174500D02*
X158837000Y-126174500D01*
%TO.N,Net-(R7-Pad1)*%
X187856500Y-126174500D02*
X187602500Y-125920500D01*
X190184000Y-126174500D02*
X187856500Y-126174500D01*
%TO.N,Net-(R8-Pad1)*%
X158837000Y-110553500D02*
X158583000Y-110299500D01*
X161164500Y-110553500D02*
X158837000Y-110553500D01*
%TO.N,Net-(R25-Pad2)*%
X171069000Y-95190000D02*
X171069000Y-96266000D01*
%TO.N,Net-(R27-Pad2)*%
X174244000Y-95190000D02*
X174244000Y-93916500D01*
X174244000Y-93916500D02*
X174117000Y-93789500D01*
%TO.N,Net-(R28-Pad2)*%
X174879000Y-93789500D02*
X174879000Y-95190000D01*
%TO.N,Net-(R29-Pad1)*%
X169164000Y-100390000D02*
X165747500Y-100390000D01*
X165747500Y-100390000D02*
X165735000Y-100377500D01*
%TO.N,Net-(U1-Pad8)*%
X188580880Y-104448760D02*
X188894720Y-104134920D01*
X188894720Y-104134920D02*
X190250040Y-104134920D01*
X187137040Y-104448760D02*
X188580880Y-104448760D01*
%TO.N,Net-(U1-Pad7)*%
X187137040Y-106848760D02*
X187989360Y-106848760D01*
X189433200Y-105404920D02*
X190250040Y-105404920D01*
X187989360Y-106848760D02*
X189433200Y-105404920D01*
%TO.N,Net-(U2-Pad8)*%
X159505800Y-119348400D02*
X159984440Y-119827040D01*
X158328360Y-119348400D02*
X159505800Y-119348400D01*
X159984440Y-119827040D02*
X161161960Y-119827040D01*
%TO.N,Net-(U4-Pad8)*%
X158536640Y-103559760D02*
X159541360Y-103559760D01*
X160187640Y-104206040D02*
X161161960Y-104206040D01*
X159541360Y-103559760D02*
X160187640Y-104206040D01*
%TO.N,Net-(U4-Pad7)*%
X160004760Y-105476040D02*
X161161960Y-105476040D01*
X159521040Y-105959760D02*
X160004760Y-105476040D01*
X158536640Y-105959760D02*
X159521040Y-105959760D01*
%TO.N,Net-(U5-Pad3)*%
X177292000Y-103530400D02*
X177292000Y-104597200D01*
X177292000Y-104597200D02*
X176407200Y-105482000D01*
X176149000Y-100390000D02*
X176149000Y-102387400D01*
X176407200Y-105482000D02*
X176407200Y-105664000D01*
X176149000Y-102387400D02*
X177292000Y-103530400D01*
%TO.N,Net-(U5-Pad2)*%
X176784000Y-100390000D02*
X176784000Y-102173600D01*
X180107200Y-105496800D02*
X180107200Y-105664000D01*
X176784000Y-102173600D02*
X180107200Y-105496800D01*
D28*
%TO.N,+3V3*%
X176149000Y-95190000D02*
X176149000Y-95986600D01*
X176149000Y-92033000D02*
X176064000Y-91948000D01*
X171704000Y-94297500D02*
X171704000Y-95190000D01*
X170370500Y-93853000D02*
X171259500Y-93853000D01*
X170434000Y-95190000D02*
X170434000Y-93916500D01*
X171259500Y-93853000D02*
X171704000Y-94297500D01*
X171704000Y-96012000D02*
X172021500Y-96329500D01*
X175806100Y-96329500D02*
X172720000Y-96329500D01*
X171704000Y-95190000D02*
X171704000Y-96012000D01*
X172720000Y-96329500D02*
X172974000Y-96329500D01*
X167894000Y-97663000D02*
X167894000Y-93853000D01*
X172021500Y-96329500D02*
X172720000Y-96329500D01*
X172974000Y-96329500D02*
X172974000Y-95190000D01*
X169799000Y-99568000D02*
X167894000Y-97663000D01*
X176149000Y-95190000D02*
X176149000Y-92033000D01*
X176149000Y-95986600D02*
X175806100Y-96329500D01*
X169799000Y-100390000D02*
X169799000Y-99568000D01*
X166497000Y-92456000D02*
X163576000Y-92456000D01*
X167894000Y-93853000D02*
X166497000Y-92456000D01*
X170434000Y-93916500D02*
X170370500Y-93853000D01*
X167894000Y-93853000D02*
X170370500Y-93853000D01*
D29*
%TO.N,Net-(D17-Pad2)*%
X174180500Y-91757500D02*
X174180500Y-92583000D01*
X173482000Y-94107000D02*
X173609000Y-94234000D01*
X173609000Y-94234000D02*
X173609000Y-95190000D01*
X173482000Y-93281500D02*
X173482000Y-94107000D01*
X174180500Y-92583000D02*
X173482000Y-93281500D01*
%TO.N,Net-(C19-Pad1)*%
X177419000Y-95190000D02*
X177419000Y-96393000D01*
D28*
X170434000Y-99364800D02*
X170484800Y-99314000D01*
X170434000Y-100390000D02*
X170434000Y-99364800D01*
D31*
%TO.N,/D1_N*%
X165066435Y-102507057D02*
X165112571Y-102478067D01*
X165295802Y-102097586D02*
X165341938Y-102068596D01*
X170949501Y-102044500D02*
X171704000Y-101290001D01*
X164793368Y-102525053D02*
X164847514Y-102531154D01*
X165112571Y-102478067D02*
X165151100Y-102439538D01*
X164512571Y-102097586D02*
X164551100Y-102136115D01*
X165447514Y-102044500D02*
X170949501Y-102044500D01*
X164580090Y-102182251D02*
X164598086Y-102233681D01*
X165198086Y-102341972D02*
X165210287Y-102233681D01*
X165210287Y-102233681D02*
X165228283Y-102182251D01*
X171704000Y-101290001D02*
X171704000Y-100390000D01*
X164695802Y-102478067D02*
X164741938Y-102507057D01*
X164847514Y-102531154D02*
X164960860Y-102531154D01*
X156641800Y-107188000D02*
X156184600Y-106730800D01*
X164741938Y-102507057D02*
X164793368Y-102525053D01*
X164657273Y-102439538D02*
X164695802Y-102478067D01*
X164360860Y-102044500D02*
X164415005Y-102050600D01*
X164415005Y-102050600D02*
X164466435Y-102068596D01*
X161164500Y-106743500D02*
X160515300Y-106743500D01*
X165228283Y-102182251D02*
X165257273Y-102136115D01*
X165180090Y-102393402D02*
X165198086Y-102341972D01*
X164628283Y-102393402D02*
X164657273Y-102439538D01*
X164610287Y-102341972D02*
X164628283Y-102393402D01*
X165015005Y-102525053D02*
X165066435Y-102507057D01*
X160515300Y-106743500D02*
X160070800Y-107188000D01*
X156184600Y-102631240D02*
X156771340Y-102044500D01*
X164960860Y-102531154D02*
X165015005Y-102525053D01*
X165341938Y-102068596D02*
X165393368Y-102050600D01*
X164598086Y-102233681D02*
X164610287Y-102341972D01*
X164466435Y-102068596D02*
X164512571Y-102097586D01*
X165257273Y-102136115D02*
X165295802Y-102097586D01*
X164551100Y-102136115D02*
X164580090Y-102182251D01*
X160070800Y-107188000D02*
X156641800Y-107188000D01*
X156184600Y-106730800D02*
X156184600Y-102631240D01*
X165393368Y-102050600D02*
X165447514Y-102044500D01*
X156771340Y-102044500D02*
X164360860Y-102044500D01*
X165151100Y-102439538D02*
X165180090Y-102393402D01*
%TO.N,/D1_P*%
X171069000Y-100390000D02*
X171069000Y-101371400D01*
X171069000Y-101371400D02*
X170776900Y-101663500D01*
X170776900Y-101663500D02*
X156649431Y-101663500D01*
X160489900Y-108013500D02*
X161164500Y-108013500D01*
X155828989Y-106878098D02*
X156499571Y-107548680D01*
X155828989Y-102483942D02*
X155828989Y-106878098D01*
X160025080Y-107548680D02*
X160489900Y-108013500D01*
X156649431Y-101663500D02*
X155828989Y-102483942D01*
X156499571Y-107548680D02*
X160025080Y-107548680D01*
%TO.N,/D4_N*%
X190247500Y-106680000D02*
X190450700Y-106883200D01*
X179133500Y-99850108D02*
X178381492Y-99098100D01*
X192493900Y-103761708D02*
X191589492Y-102857300D01*
X191589492Y-102857300D02*
X180870692Y-102857300D01*
X175780700Y-99098100D02*
X175514000Y-99364800D01*
X190450700Y-106883200D02*
X191602192Y-106883200D01*
X192493900Y-105991492D02*
X192493900Y-103761708D01*
X179133500Y-101120108D02*
X179133500Y-99850108D01*
X191602192Y-106883200D02*
X192493900Y-105991492D01*
X175514000Y-99364800D02*
X175514000Y-100390000D01*
X178381492Y-99098100D02*
X175780700Y-99098100D01*
X180870692Y-102857300D02*
X179133500Y-101120108D01*
%TO.N,/D4_P*%
X179514500Y-99692292D02*
X178539308Y-98717100D01*
X181028508Y-102476300D02*
X179514500Y-100962292D01*
X192874900Y-103603892D02*
X191747308Y-102476300D01*
X190399900Y-107797600D02*
X191226608Y-107797600D01*
X175485892Y-98717100D02*
X174879000Y-99323992D01*
X174879000Y-99323992D02*
X174879000Y-100390000D01*
X191226608Y-107797600D02*
X192874900Y-106149308D01*
X178539308Y-98717100D02*
X175485892Y-98717100D01*
X192874900Y-106149308D02*
X192874900Y-103603892D01*
X190247500Y-107950000D02*
X190399900Y-107797600D01*
X179514500Y-100962292D02*
X179514500Y-99692292D01*
X191747308Y-102476300D02*
X181028508Y-102476300D01*
%TO.N,/D2_N*%
X169516977Y-115181632D02*
X169410912Y-115287696D01*
X170297416Y-114441467D02*
X170283086Y-114504248D01*
X169832878Y-115095962D02*
X169770099Y-115081632D01*
X170405655Y-114790133D02*
X170433594Y-114848150D01*
X170112386Y-115246469D02*
X170049605Y-115232141D01*
X170239559Y-115232141D02*
X170176780Y-115246469D01*
X170447923Y-114975325D02*
X170433595Y-115038104D01*
X170283086Y-114568642D02*
X170297416Y-114631421D01*
X170365505Y-114739787D02*
X170405655Y-114790133D01*
X170433595Y-115038104D02*
X170405655Y-115096123D01*
X170297577Y-115204201D02*
X170239559Y-115232141D01*
X170433594Y-114848150D02*
X170447924Y-114910929D01*
X169534561Y-115164050D02*
X169516977Y-115181632D01*
X170325356Y-114383449D02*
X170297416Y-114441467D01*
X169770099Y-115081632D02*
X169705703Y-115081633D01*
X172974000Y-100390000D02*
X172974000Y-101290001D01*
X169991587Y-115204201D02*
X169890895Y-115123901D01*
X170049605Y-115232141D02*
X169991587Y-115204201D01*
X156331920Y-122809000D02*
X160045400Y-122809000D01*
X160045400Y-122809000D02*
X160489900Y-122364500D01*
X166804508Y-117894100D02*
X156324300Y-117894100D01*
X172974000Y-101290001D02*
X172847000Y-101417001D01*
X170283086Y-114504248D02*
X170283086Y-114568642D01*
X170347923Y-115164051D02*
X170297577Y-115204201D01*
X156324300Y-117894100D02*
X155925520Y-118292880D01*
X170297416Y-114631421D02*
X170325356Y-114689439D01*
X169584905Y-115123901D02*
X169534561Y-115164050D01*
X160489900Y-122364500D02*
X161164500Y-122364500D01*
X172847000Y-101417001D02*
X172847000Y-101793208D01*
X170325356Y-114689439D02*
X170365505Y-114739787D01*
X170573700Y-114124908D02*
X170365504Y-114333104D01*
X155925520Y-118292880D02*
X155925520Y-122402600D01*
X169890895Y-115123901D02*
X169832878Y-115095962D01*
X155925520Y-122402600D02*
X156331920Y-122809000D01*
X170365504Y-114333104D02*
X170325356Y-114383449D01*
X170176780Y-115246469D02*
X170112386Y-115246469D01*
X170405655Y-115096123D02*
X170365506Y-115146467D01*
X172847000Y-101793208D02*
X170573700Y-104066508D01*
X170573700Y-104066508D02*
X170573700Y-114124908D01*
X170447924Y-114910929D02*
X170447923Y-114975325D01*
X169642924Y-115095961D02*
X169584905Y-115123901D01*
X170365506Y-115146467D02*
X170347923Y-115164051D01*
X169410912Y-115287696D02*
X166804508Y-117894100D01*
X169705703Y-115081633D02*
X169642924Y-115095961D01*
%TO.N,/D2_P*%
X155569909Y-118145582D02*
X156202391Y-117513100D01*
X161164500Y-123634500D02*
X160489900Y-123634500D01*
X160025080Y-123169680D02*
X156189691Y-123169680D01*
X160489900Y-123634500D02*
X160025080Y-123169680D01*
X155569909Y-122549898D02*
X155569909Y-118145582D01*
X172339000Y-101218600D02*
X172339000Y-100390000D01*
X156202391Y-117513100D02*
X166646692Y-117513100D01*
X156189691Y-123169680D02*
X155569909Y-122549898D01*
X172466000Y-101345600D02*
X172339000Y-101218600D01*
X172466000Y-101635392D02*
X172466000Y-101345600D01*
X170192700Y-103908692D02*
X172466000Y-101635392D01*
X170192700Y-113967092D02*
X170192700Y-103908692D01*
X166646692Y-117513100D02*
X170192700Y-113967092D01*
%TO.N,/D3_N*%
X176853318Y-120235891D02*
X176874590Y-120296681D01*
X176083288Y-120431018D02*
X176137820Y-120396753D01*
X176737820Y-119947032D02*
X176783360Y-119992572D01*
X176954395Y-120396753D02*
X177008927Y-120431018D01*
X174244000Y-100390000D02*
X174244000Y-101290001D01*
X176354395Y-119947032D02*
X176408927Y-119912767D01*
X177008927Y-120431018D02*
X177069717Y-120452290D01*
X176469717Y-119891495D02*
X176533716Y-119884284D01*
X174117000Y-101417001D02*
X174117000Y-102148808D01*
X176874590Y-120296681D02*
X176908855Y-120351213D01*
X176408927Y-119912767D02*
X176469717Y-119891495D01*
X171742100Y-104523708D02*
X171742100Y-116964292D01*
X177133716Y-120459500D02*
X183370220Y-120459500D01*
X176217625Y-120296681D02*
X176238897Y-120235891D01*
X175958500Y-120459500D02*
X176022498Y-120452290D01*
X176783360Y-119992572D02*
X176817625Y-120047104D01*
X176137820Y-120396753D02*
X176183360Y-120351213D01*
X189496700Y-122364500D02*
X190184000Y-122364500D01*
X171742100Y-116964292D02*
X175237308Y-120459500D01*
X176183360Y-120351213D02*
X176217625Y-120296681D01*
X176622498Y-119891495D02*
X176683288Y-119912767D01*
X176274590Y-120047104D02*
X176308855Y-119992572D01*
X176022498Y-120452290D02*
X176083288Y-120431018D01*
X176908855Y-120351213D02*
X176954395Y-120396753D01*
X176683288Y-119912767D02*
X176737820Y-119947032D01*
X174117000Y-102148808D02*
X171742100Y-104523708D01*
X176533716Y-119884284D02*
X176558500Y-119884284D01*
X176253318Y-120107894D02*
X176274590Y-120047104D01*
X174244000Y-101290001D02*
X174117000Y-101417001D01*
X183370220Y-120459500D02*
X185719720Y-122809000D01*
X176838897Y-120107894D02*
X176853318Y-120235891D01*
X189052200Y-122809000D02*
X189496700Y-122364500D01*
X176238897Y-120235891D02*
X176253318Y-120107894D01*
X185719720Y-122809000D02*
X189052200Y-122809000D01*
X176308855Y-119992572D02*
X176354395Y-119947032D01*
X175237308Y-120459500D02*
X175958500Y-120459500D01*
X177069717Y-120452290D02*
X177133716Y-120459500D01*
X176817625Y-120047104D02*
X176838897Y-120107894D01*
X176558500Y-119884284D02*
X176622498Y-119891495D01*
%TO.N,/D3_P*%
X189522100Y-123634500D02*
X189077600Y-123190000D01*
X175079492Y-120840500D02*
X171361100Y-117122108D01*
X173736000Y-101345600D02*
X173609000Y-101218600D01*
X173736000Y-101990992D02*
X173736000Y-101345600D01*
X190184000Y-123634500D02*
X189522100Y-123634500D01*
X173609000Y-101218600D02*
X173609000Y-100390000D01*
X171361100Y-104365892D02*
X173736000Y-101990992D01*
X171361100Y-117122108D02*
X171361100Y-104365892D01*
X189077600Y-123190000D02*
X185597812Y-123190000D01*
X185597812Y-123190000D02*
X183248312Y-120840500D01*
X183248312Y-120840500D02*
X175079492Y-120840500D01*
D29*
%TO.N,/DTR_2*%
X166114500Y-124879100D02*
X167678100Y-124879100D01*
X167678100Y-124879100D02*
X169011600Y-123545600D01*
X169011600Y-123545600D02*
X169011600Y-119380000D01*
%TO.N,/DTR_3*%
X195146700Y-124917200D02*
X195134000Y-124904500D01*
X196850000Y-124917200D02*
X195146700Y-124917200D01*
%TO.N,/DTR_1*%
X166114500Y-109283500D02*
X167678100Y-109283500D01*
X169011600Y-107950000D02*
X169011600Y-103784400D01*
X167678100Y-109283500D02*
X169011600Y-107950000D01*
%TO.N,/DTR_4*%
X196900800Y-109220000D02*
X195197500Y-109220000D01*
X195197500Y-109220000D02*
X195184800Y-109207300D01*
%TO.N,/RXD_4*%
X186131200Y-108813600D02*
X185775600Y-108458000D01*
X185841000Y-111950500D02*
X184136000Y-111950500D01*
X186740800Y-109423200D02*
X186131200Y-108813600D01*
X186740800Y-111201200D02*
X186740800Y-109423200D01*
X185991500Y-111950500D02*
X186740800Y-111201200D01*
X185841000Y-111950500D02*
X185991500Y-111950500D01*
X184136000Y-111950500D02*
X183945500Y-112141000D01*
X185775600Y-108458000D02*
X184150000Y-108458000D01*
%TO.N,/TXD_4*%
X184136000Y-110236000D02*
X183945500Y-110045500D01*
X183337200Y-109524800D02*
X183337200Y-108458000D01*
X183945500Y-110045500D02*
X183857900Y-110045500D01*
X185841000Y-110236000D02*
X184136000Y-110236000D01*
X183857900Y-110045500D02*
X183337200Y-109524800D01*
%TO.N,/RXD_2*%
X154354500Y-128270000D02*
X154368500Y-128284000D01*
X153226800Y-128284000D02*
X153212800Y-128270000D01*
X156758000Y-127635000D02*
X155017500Y-127635000D01*
X154368500Y-128284000D02*
X153226800Y-128284000D01*
X155017500Y-127635000D02*
X154368500Y-128284000D01*
%TO.N,/TXD_2*%
X154368500Y-125335000D02*
X153224200Y-125335000D01*
X156758000Y-125920500D02*
X154954000Y-125920500D01*
X153224200Y-125335000D02*
X153212800Y-125323600D01*
X154954000Y-125920500D02*
X154368500Y-125335000D01*
%TO.N,/RXD_3*%
X186690000Y-126722500D02*
X185777500Y-127635000D01*
X186131200Y-124714000D02*
X186690000Y-125272800D01*
X185777500Y-127635000D02*
X184072500Y-127635000D01*
X184962800Y-124714000D02*
X186131200Y-124714000D01*
X186690000Y-125272800D02*
X186690000Y-126722500D01*
X184072500Y-127635000D02*
X183882000Y-127825500D01*
X184200800Y-123952000D02*
X184962800Y-124714000D01*
%TO.N,/TXD_3*%
X183337200Y-123952000D02*
X183882000Y-124496800D01*
X184072500Y-125920500D02*
X183882000Y-125730000D01*
X185777500Y-125920500D02*
X184072500Y-125920500D01*
X183882000Y-124496800D02*
X183882000Y-125730000D01*
%TO.N,/RXD_1*%
X153226800Y-112739200D02*
X153212800Y-112725200D01*
X154368500Y-112739200D02*
X153226800Y-112739200D01*
X155017500Y-112014000D02*
X154305000Y-112726500D01*
X156758000Y-112014000D02*
X155017500Y-112014000D01*
%TO.N,/TXD_1*%
X154368500Y-109790200D02*
X153224200Y-109790200D01*
X153224200Y-109790200D02*
X153212800Y-109778800D01*
X156758000Y-110299500D02*
X154890500Y-110299500D01*
X154890500Y-110299500D02*
X154305000Y-109714000D01*
D31*
%TO.N,/D-*%
X169164000Y-96090001D02*
X169291000Y-96217001D01*
X180200300Y-99189708D02*
X178991092Y-97980500D01*
X186677300Y-100850700D02*
X186677300Y-101577308D01*
X180200300Y-100713708D02*
X180200300Y-99189708D01*
X178991092Y-97980500D02*
X170304292Y-97980500D01*
X181429492Y-101942900D02*
X180200300Y-100713708D01*
X186677300Y-101577308D02*
X186311708Y-101942900D01*
X170304292Y-97980500D02*
X169291000Y-96967208D01*
X169164000Y-95190000D02*
X169164000Y-96090001D01*
X186311708Y-101942900D02*
X181429492Y-101942900D01*
X169291000Y-96217001D02*
X169291000Y-96967208D01*
X187756800Y-99771200D02*
X186677300Y-100850700D01*
%TO.N,/D+*%
X177948908Y-97599500D02*
X170462108Y-97599500D01*
X179082151Y-97591978D02*
X179018742Y-97569790D01*
X178548908Y-96708730D02*
X178482151Y-96716251D01*
X178418742Y-96738439D02*
X178361861Y-96774180D01*
X179148908Y-97599500D02*
X179082151Y-97591978D01*
X178615664Y-96716251D02*
X178548908Y-96708730D01*
X178361861Y-96774180D02*
X178314358Y-96821683D01*
X178278617Y-96878564D02*
X178256429Y-96941973D01*
X178783457Y-96821683D02*
X178735954Y-96774180D01*
X180581300Y-99031892D02*
X179148908Y-97599500D01*
X178241386Y-97366256D02*
X178219198Y-97429665D01*
X178256429Y-96941973D02*
X178248908Y-97008730D01*
X178248908Y-97299500D02*
X178241386Y-97366256D01*
X170462108Y-97599500D02*
X169672000Y-96809392D01*
X181587308Y-101561900D02*
X180581300Y-100555892D01*
X186296300Y-100850700D02*
X186296300Y-101419492D01*
X178848908Y-97299500D02*
X178848908Y-97008730D01*
X178015664Y-97591978D02*
X177948908Y-97599500D01*
X185216800Y-99771200D02*
X186296300Y-100850700D01*
X178735954Y-96774180D02*
X178679073Y-96738439D01*
X180581300Y-100555892D02*
X180581300Y-99031892D01*
X178079073Y-97569790D02*
X178015664Y-97591978D01*
X169672000Y-96217001D02*
X169799000Y-96090001D01*
X178841386Y-96941973D02*
X178819198Y-96878564D01*
X169799000Y-96090001D02*
X169799000Y-95190000D01*
X186153892Y-101561900D02*
X181587308Y-101561900D01*
X178314358Y-96821683D02*
X178278617Y-96878564D01*
X178848908Y-97008730D02*
X178841386Y-96941973D01*
X178248908Y-97008730D02*
X178248908Y-97299500D01*
X178878617Y-97429665D02*
X178856429Y-97366256D01*
X178135954Y-97534049D02*
X178079073Y-97569790D01*
X178856429Y-97366256D02*
X178848908Y-97299500D01*
X178183457Y-97486546D02*
X178135954Y-97534049D01*
X178679073Y-96738439D02*
X178615664Y-96716251D01*
X178914358Y-97486546D02*
X178878617Y-97429665D01*
X186296300Y-101419492D02*
X186153892Y-101561900D01*
X179018742Y-97569790D02*
X178961861Y-97534049D01*
X178219198Y-97429665D02*
X178183457Y-97486546D01*
X178482151Y-96716251D02*
X178418742Y-96738439D01*
X178819198Y-96878564D02*
X178783457Y-96821683D01*
X178961861Y-97534049D02*
X178914358Y-97486546D01*
X169672000Y-96809392D02*
X169672000Y-96217001D01*
%TD*%
M02*
