%TF.GenerationSoftware,KiCad,Pcbnew,(5.1.12)-1*%
%TF.CreationDate,2022-03-26T18:35:52+01:00*%
%TF.ProjectId,Duino Coin,4475696e-6f20-4436-9f69-6e2e6b696361,rev?*%
%TF.SameCoordinates,Original*%
%TF.FileFunction,Copper,L3,Inr*%
%TF.FilePolarity,Positive*%
%FSLAX46Y46*%
G04 Gerber Fmt 4.6, Leading zero omitted, Abs format (unit mm)*
G04 Created by KiCad (PCBNEW (5.1.12)-1) date 2022-03-26 18:35:52*
%MOMM*%
%LPD*%
G01*
G04 APERTURE LIST*
%TA.AperFunction,ComponentPad*%
%ADD10O,1.700000X1.700000*%
%TD*%
%TA.AperFunction,ComponentPad*%
%ADD11R,1.700000X1.700000*%
%TD*%
%TA.AperFunction,ViaPad*%
%ADD12C,0.600000*%
%TD*%
%TA.AperFunction,ViaPad*%
%ADD13C,0.900000*%
%TD*%
%TA.AperFunction,Conductor*%
%ADD14C,0.254000*%
%TD*%
%TA.AperFunction,Conductor*%
%ADD15C,0.100000*%
%TD*%
G04 APERTURE END LIST*
D10*
%TO.N,/SS4*%
%TO.C,J2*%
X198450200Y-109423200D03*
%TO.N,/SCK4*%
X198450200Y-111963200D03*
%TO.N,/MISO4*%
X198450200Y-114503200D03*
D11*
%TO.N,/MOSI4*%
X198450200Y-117043200D03*
%TD*%
%TO.N,/MOSI1*%
%TO.C,J6*%
X175417480Y-117012720D03*
D10*
%TO.N,/MISO1*%
X175417480Y-114472720D03*
%TO.N,/SCK1*%
X175417480Y-111932720D03*
%TO.N,/SS1*%
X175417480Y-109392720D03*
%TD*%
%TO.N,/SS2*%
%TO.C,J5*%
X167640000Y-135775700D03*
%TO.N,/SCK2*%
X165100000Y-135775700D03*
%TO.N,/MISO2*%
X162560000Y-135775700D03*
D11*
%TO.N,/MOSI2*%
X160020000Y-135775700D03*
%TD*%
D10*
%TO.N,/SS3*%
%TO.C,J3*%
X190284100Y-135801100D03*
%TO.N,/SCK3*%
X187744100Y-135801100D03*
%TO.N,/MISO3*%
X185204100Y-135801100D03*
D11*
%TO.N,/MOSI3*%
X182664100Y-135801100D03*
%TD*%
%TO.N,+5V*%
%TO.C,J4*%
X190296800Y-99771200D03*
D10*
%TO.N,/D-*%
X187756800Y-99771200D03*
%TO.N,/D+*%
X185216800Y-99771200D03*
%TO.N,GND*%
X182676800Y-99771200D03*
%TD*%
D12*
%TO.N,*%
X188371480Y-93766640D03*
X184370980Y-93766640D03*
D13*
%TO.N,GND*%
X156870400Y-106172000D03*
X172923200Y-110134400D03*
X162966400Y-98196400D03*
X156921200Y-121818400D03*
X172923200Y-125780800D03*
X165760400Y-96926400D03*
X179578000Y-91948000D03*
D12*
X169468800Y-126441200D03*
X176631600Y-129235200D03*
X155346400Y-129235200D03*
X157683200Y-126847600D03*
X158343600Y-124510800D03*
X162661600Y-128778000D03*
D13*
X172974000Y-124561600D03*
X172923200Y-108915200D03*
D12*
X169468800Y-110845600D03*
X155397200Y-113639600D03*
X158292800Y-108813600D03*
X162763200Y-113131600D03*
X157683200Y-111252000D03*
X176733200Y-113639600D03*
X179730400Y-108661200D03*
X178257200Y-110744000D03*
D13*
X187553600Y-108864400D03*
D12*
X193700400Y-108610400D03*
X174193200Y-98806000D03*
X169113200Y-91846400D03*
D13*
X182676800Y-97891600D03*
X183616600Y-96951800D03*
X184607200Y-95961200D03*
D12*
X179730400Y-124460000D03*
X178155600Y-126238000D03*
D13*
X187452000Y-124460000D03*
X177952400Y-101650800D03*
X191427102Y-131394200D03*
X191528700Y-115709700D03*
X197104000Y-110782100D03*
X193357500Y-124510800D03*
X178303000Y-121863028D03*
X182900320Y-105333800D03*
D12*
%TO.N,+5V*%
X161645600Y-119024400D03*
D13*
X182930800Y-119430800D03*
X182930800Y-103835200D03*
X154330400Y-103784400D03*
X156903500Y-108317000D03*
X178303000Y-108317000D03*
X178303000Y-123957000D03*
X156903500Y-123938000D03*
X155905200Y-118770400D03*
X159664400Y-115417600D03*
X158394400Y-132537200D03*
D12*
X160731200Y-102870000D03*
D13*
X193569500Y-115697000D03*
X181254400Y-115316000D03*
D12*
X172339000Y-93802200D03*
D13*
X188193680Y-95945960D03*
X190136780Y-97881440D03*
X189141100Y-96944180D03*
X181254400Y-130962400D03*
X189585600Y-131216400D03*
X193533350Y-131354150D03*
D12*
X163499800Y-110363000D03*
D13*
X164465000Y-129654300D03*
X187528200Y-113880900D03*
D12*
%TO.N,Net-(R25-Pad2)*%
X171069000Y-96266000D03*
%TO.N,Net-(R27-Pad2)*%
X174117000Y-93789500D03*
%TO.N,Net-(R28-Pad2)*%
X174879000Y-93789500D03*
D13*
%TO.N,+3V3*%
X163576000Y-92456000D03*
D12*
%TO.N,Net-(D17-Pad2)*%
X174180500Y-91757500D03*
%TO.N,Net-(C19-Pad1)*%
X177419000Y-96393000D03*
X170484800Y-99314000D03*
%TO.N,/DTR_2*%
X169011600Y-119380000D03*
%TO.N,/DTR_3*%
X196850000Y-124917200D03*
%TO.N,/DTR_1*%
X169011600Y-103784400D03*
%TO.N,/DTR_4*%
X196900800Y-109220000D03*
%TO.N,/RXD_4*%
X184150000Y-108458000D03*
%TO.N,/TXD_4*%
X183337200Y-108458000D03*
%TO.N,/RXD_2*%
X153212800Y-128270000D03*
%TO.N,/TXD_2*%
X153212800Y-125323600D03*
%TO.N,/RXD_3*%
X184200800Y-123952000D03*
%TO.N,/TXD_3*%
X183337200Y-123952000D03*
%TO.N,/RXD_1*%
X153212800Y-112725200D03*
%TO.N,/TXD_1*%
X153212800Y-109778800D03*
%TD*%
D14*
%TO.N,GND*%
X196697696Y-90476356D02*
X197368824Y-90678982D01*
X197987810Y-91008102D01*
X198531084Y-91451184D01*
X198977946Y-91991347D01*
X199311381Y-92608022D01*
X199518686Y-93277716D01*
X199593976Y-93994053D01*
X199594001Y-94001122D01*
X199594001Y-108967822D01*
X199541098Y-108840103D01*
X199406380Y-108638483D01*
X199234917Y-108467020D01*
X199033297Y-108332302D01*
X198809269Y-108239507D01*
X198571443Y-108192200D01*
X198328957Y-108192200D01*
X198091131Y-108239507D01*
X197867103Y-108332302D01*
X197665483Y-108467020D01*
X197494020Y-108638483D01*
X197409242Y-108765363D01*
X197334912Y-108691033D01*
X197223374Y-108616506D01*
X197099440Y-108565171D01*
X196967873Y-108539000D01*
X196833727Y-108539000D01*
X196702160Y-108565171D01*
X196578226Y-108616506D01*
X196466688Y-108691033D01*
X196371833Y-108785888D01*
X196297306Y-108897426D01*
X196245971Y-109021360D01*
X196219800Y-109152927D01*
X196219800Y-109287073D01*
X196245971Y-109418640D01*
X196297306Y-109542574D01*
X196371833Y-109654112D01*
X196466688Y-109748967D01*
X196578226Y-109823494D01*
X196702160Y-109874829D01*
X196833727Y-109901000D01*
X196967873Y-109901000D01*
X197099440Y-109874829D01*
X197223374Y-109823494D01*
X197270531Y-109791985D01*
X197359302Y-110006297D01*
X197494020Y-110207917D01*
X197665483Y-110379380D01*
X197867103Y-110514098D01*
X198091131Y-110606893D01*
X198328957Y-110654200D01*
X198571443Y-110654200D01*
X198809269Y-110606893D01*
X199033297Y-110514098D01*
X199234917Y-110379380D01*
X199406380Y-110207917D01*
X199541098Y-110006297D01*
X199594001Y-109878578D01*
X199594001Y-111507822D01*
X199541098Y-111380103D01*
X199406380Y-111178483D01*
X199234917Y-111007020D01*
X199033297Y-110872302D01*
X198809269Y-110779507D01*
X198571443Y-110732200D01*
X198328957Y-110732200D01*
X198091131Y-110779507D01*
X197867103Y-110872302D01*
X197665483Y-111007020D01*
X197494020Y-111178483D01*
X197359302Y-111380103D01*
X197266507Y-111604131D01*
X197219200Y-111841957D01*
X197219200Y-112084443D01*
X197266507Y-112322269D01*
X197359302Y-112546297D01*
X197494020Y-112747917D01*
X197665483Y-112919380D01*
X197867103Y-113054098D01*
X198091131Y-113146893D01*
X198328957Y-113194200D01*
X198571443Y-113194200D01*
X198809269Y-113146893D01*
X199033297Y-113054098D01*
X199234917Y-112919380D01*
X199406380Y-112747917D01*
X199541098Y-112546297D01*
X199594001Y-112418578D01*
X199594001Y-114047822D01*
X199541098Y-113920103D01*
X199406380Y-113718483D01*
X199234917Y-113547020D01*
X199033297Y-113412302D01*
X198809269Y-113319507D01*
X198571443Y-113272200D01*
X198328957Y-113272200D01*
X198091131Y-113319507D01*
X197867103Y-113412302D01*
X197665483Y-113547020D01*
X197494020Y-113718483D01*
X197359302Y-113920103D01*
X197266507Y-114144131D01*
X197219200Y-114381957D01*
X197219200Y-114624443D01*
X197266507Y-114862269D01*
X197359302Y-115086297D01*
X197494020Y-115287917D01*
X197665483Y-115459380D01*
X197867103Y-115594098D01*
X198091131Y-115686893D01*
X198328957Y-115734200D01*
X198571443Y-115734200D01*
X198809269Y-115686893D01*
X199033297Y-115594098D01*
X199234917Y-115459380D01*
X199406380Y-115287917D01*
X199541098Y-115086297D01*
X199594001Y-114958578D01*
X199594000Y-115950624D01*
X199570911Y-115922489D01*
X199512896Y-115874878D01*
X199446708Y-115839499D01*
X199374889Y-115817713D01*
X199300200Y-115810357D01*
X197600200Y-115810357D01*
X197525511Y-115817713D01*
X197453692Y-115839499D01*
X197387504Y-115874878D01*
X197329489Y-115922489D01*
X197281878Y-115980504D01*
X197246499Y-116046692D01*
X197224713Y-116118511D01*
X197217357Y-116193200D01*
X197217357Y-117893200D01*
X197224713Y-117967889D01*
X197246499Y-118039708D01*
X197281878Y-118105896D01*
X197329489Y-118163911D01*
X197387504Y-118211522D01*
X197453692Y-118246901D01*
X197525511Y-118268687D01*
X197600200Y-118276043D01*
X199300200Y-118276043D01*
X199374889Y-118268687D01*
X199446708Y-118246901D01*
X199512896Y-118211522D01*
X199570911Y-118163911D01*
X199594000Y-118135776D01*
X199594000Y-135980146D01*
X199523644Y-136697696D01*
X199321017Y-137368828D01*
X198991896Y-137987814D01*
X198548815Y-138531084D01*
X198008652Y-138977946D01*
X197391977Y-139311381D01*
X196722284Y-139518686D01*
X196005947Y-139593976D01*
X195999166Y-139594000D01*
X154019854Y-139594000D01*
X153302304Y-139523644D01*
X152631172Y-139321017D01*
X152012186Y-138991896D01*
X151468916Y-138548815D01*
X151022054Y-138008652D01*
X150688619Y-137391977D01*
X150481314Y-136722284D01*
X150420050Y-136139389D01*
X151689000Y-136139389D01*
X151689000Y-136529611D01*
X151765129Y-136912336D01*
X151914461Y-137272855D01*
X152131257Y-137597314D01*
X152407186Y-137873243D01*
X152731645Y-138090039D01*
X153092164Y-138239371D01*
X153474889Y-138315500D01*
X153865111Y-138315500D01*
X154247836Y-138239371D01*
X154608355Y-138090039D01*
X154932814Y-137873243D01*
X155208743Y-137597314D01*
X155425539Y-137272855D01*
X155574871Y-136912336D01*
X155651000Y-136529611D01*
X155651000Y-136139389D01*
X155574871Y-135756664D01*
X155425539Y-135396145D01*
X155208743Y-135071686D01*
X155062757Y-134925700D01*
X158787157Y-134925700D01*
X158787157Y-136625700D01*
X158794513Y-136700389D01*
X158816299Y-136772208D01*
X158851678Y-136838396D01*
X158899289Y-136896411D01*
X158957304Y-136944022D01*
X159023492Y-136979401D01*
X159095311Y-137001187D01*
X159170000Y-137008543D01*
X160870000Y-137008543D01*
X160944689Y-137001187D01*
X161016508Y-136979401D01*
X161082696Y-136944022D01*
X161140711Y-136896411D01*
X161188322Y-136838396D01*
X161223701Y-136772208D01*
X161245487Y-136700389D01*
X161252843Y-136625700D01*
X161252843Y-135654457D01*
X161329000Y-135654457D01*
X161329000Y-135896943D01*
X161376307Y-136134769D01*
X161469102Y-136358797D01*
X161603820Y-136560417D01*
X161775283Y-136731880D01*
X161976903Y-136866598D01*
X162200931Y-136959393D01*
X162438757Y-137006700D01*
X162681243Y-137006700D01*
X162919069Y-136959393D01*
X163143097Y-136866598D01*
X163344717Y-136731880D01*
X163516180Y-136560417D01*
X163650898Y-136358797D01*
X163743693Y-136134769D01*
X163791000Y-135896943D01*
X163791000Y-135654457D01*
X163869000Y-135654457D01*
X163869000Y-135896943D01*
X163916307Y-136134769D01*
X164009102Y-136358797D01*
X164143820Y-136560417D01*
X164315283Y-136731880D01*
X164516903Y-136866598D01*
X164740931Y-136959393D01*
X164978757Y-137006700D01*
X165221243Y-137006700D01*
X165459069Y-136959393D01*
X165683097Y-136866598D01*
X165884717Y-136731880D01*
X166056180Y-136560417D01*
X166190898Y-136358797D01*
X166283693Y-136134769D01*
X166331000Y-135896943D01*
X166331000Y-135654457D01*
X166409000Y-135654457D01*
X166409000Y-135896943D01*
X166456307Y-136134769D01*
X166549102Y-136358797D01*
X166683820Y-136560417D01*
X166855283Y-136731880D01*
X167056903Y-136866598D01*
X167280931Y-136959393D01*
X167518757Y-137006700D01*
X167761243Y-137006700D01*
X167999069Y-136959393D01*
X168223097Y-136866598D01*
X168424717Y-136731880D01*
X168596180Y-136560417D01*
X168730898Y-136358797D01*
X168823693Y-136134769D01*
X168871000Y-135896943D01*
X168871000Y-135654457D01*
X168823693Y-135416631D01*
X168730898Y-135192603D01*
X168596180Y-134990983D01*
X168556297Y-134951100D01*
X181431257Y-134951100D01*
X181431257Y-136651100D01*
X181438613Y-136725789D01*
X181460399Y-136797608D01*
X181495778Y-136863796D01*
X181543389Y-136921811D01*
X181601404Y-136969422D01*
X181667592Y-137004801D01*
X181739411Y-137026587D01*
X181814100Y-137033943D01*
X183514100Y-137033943D01*
X183588789Y-137026587D01*
X183660608Y-137004801D01*
X183726796Y-136969422D01*
X183784811Y-136921811D01*
X183832422Y-136863796D01*
X183867801Y-136797608D01*
X183889587Y-136725789D01*
X183896943Y-136651100D01*
X183896943Y-135679857D01*
X183973100Y-135679857D01*
X183973100Y-135922343D01*
X184020407Y-136160169D01*
X184113202Y-136384197D01*
X184247920Y-136585817D01*
X184419383Y-136757280D01*
X184621003Y-136891998D01*
X184845031Y-136984793D01*
X185082857Y-137032100D01*
X185325343Y-137032100D01*
X185563169Y-136984793D01*
X185787197Y-136891998D01*
X185988817Y-136757280D01*
X186160280Y-136585817D01*
X186294998Y-136384197D01*
X186387793Y-136160169D01*
X186435100Y-135922343D01*
X186435100Y-135679857D01*
X186513100Y-135679857D01*
X186513100Y-135922343D01*
X186560407Y-136160169D01*
X186653202Y-136384197D01*
X186787920Y-136585817D01*
X186959383Y-136757280D01*
X187161003Y-136891998D01*
X187385031Y-136984793D01*
X187622857Y-137032100D01*
X187865343Y-137032100D01*
X188103169Y-136984793D01*
X188327197Y-136891998D01*
X188528817Y-136757280D01*
X188700280Y-136585817D01*
X188834998Y-136384197D01*
X188927793Y-136160169D01*
X188975100Y-135922343D01*
X188975100Y-135679857D01*
X189053100Y-135679857D01*
X189053100Y-135922343D01*
X189100407Y-136160169D01*
X189193202Y-136384197D01*
X189327920Y-136585817D01*
X189499383Y-136757280D01*
X189701003Y-136891998D01*
X189925031Y-136984793D01*
X190162857Y-137032100D01*
X190405343Y-137032100D01*
X190643169Y-136984793D01*
X190867197Y-136891998D01*
X191068817Y-136757280D01*
X191240280Y-136585817D01*
X191374998Y-136384197D01*
X191467793Y-136160169D01*
X191471926Y-136139389D01*
X194361000Y-136139389D01*
X194361000Y-136529611D01*
X194437129Y-136912336D01*
X194586461Y-137272855D01*
X194803257Y-137597314D01*
X195079186Y-137873243D01*
X195403645Y-138090039D01*
X195764164Y-138239371D01*
X196146889Y-138315500D01*
X196537111Y-138315500D01*
X196919836Y-138239371D01*
X197280355Y-138090039D01*
X197604814Y-137873243D01*
X197880743Y-137597314D01*
X198097539Y-137272855D01*
X198246871Y-136912336D01*
X198323000Y-136529611D01*
X198323000Y-136139389D01*
X198246871Y-135756664D01*
X198097539Y-135396145D01*
X197880743Y-135071686D01*
X197604814Y-134795757D01*
X197280355Y-134578961D01*
X196919836Y-134429629D01*
X196537111Y-134353500D01*
X196146889Y-134353500D01*
X195764164Y-134429629D01*
X195403645Y-134578961D01*
X195079186Y-134795757D01*
X194803257Y-135071686D01*
X194586461Y-135396145D01*
X194437129Y-135756664D01*
X194361000Y-136139389D01*
X191471926Y-136139389D01*
X191515100Y-135922343D01*
X191515100Y-135679857D01*
X191467793Y-135442031D01*
X191374998Y-135218003D01*
X191240280Y-135016383D01*
X191068817Y-134844920D01*
X190867197Y-134710202D01*
X190643169Y-134617407D01*
X190405343Y-134570100D01*
X190162857Y-134570100D01*
X189925031Y-134617407D01*
X189701003Y-134710202D01*
X189499383Y-134844920D01*
X189327920Y-135016383D01*
X189193202Y-135218003D01*
X189100407Y-135442031D01*
X189053100Y-135679857D01*
X188975100Y-135679857D01*
X188927793Y-135442031D01*
X188834998Y-135218003D01*
X188700280Y-135016383D01*
X188528817Y-134844920D01*
X188327197Y-134710202D01*
X188103169Y-134617407D01*
X187865343Y-134570100D01*
X187622857Y-134570100D01*
X187385031Y-134617407D01*
X187161003Y-134710202D01*
X186959383Y-134844920D01*
X186787920Y-135016383D01*
X186653202Y-135218003D01*
X186560407Y-135442031D01*
X186513100Y-135679857D01*
X186435100Y-135679857D01*
X186387793Y-135442031D01*
X186294998Y-135218003D01*
X186160280Y-135016383D01*
X185988817Y-134844920D01*
X185787197Y-134710202D01*
X185563169Y-134617407D01*
X185325343Y-134570100D01*
X185082857Y-134570100D01*
X184845031Y-134617407D01*
X184621003Y-134710202D01*
X184419383Y-134844920D01*
X184247920Y-135016383D01*
X184113202Y-135218003D01*
X184020407Y-135442031D01*
X183973100Y-135679857D01*
X183896943Y-135679857D01*
X183896943Y-134951100D01*
X183889587Y-134876411D01*
X183867801Y-134804592D01*
X183832422Y-134738404D01*
X183784811Y-134680389D01*
X183726796Y-134632778D01*
X183660608Y-134597399D01*
X183588789Y-134575613D01*
X183514100Y-134568257D01*
X181814100Y-134568257D01*
X181739411Y-134575613D01*
X181667592Y-134597399D01*
X181601404Y-134632778D01*
X181543389Y-134680389D01*
X181495778Y-134738404D01*
X181460399Y-134804592D01*
X181438613Y-134876411D01*
X181431257Y-134951100D01*
X168556297Y-134951100D01*
X168424717Y-134819520D01*
X168223097Y-134684802D01*
X167999069Y-134592007D01*
X167761243Y-134544700D01*
X167518757Y-134544700D01*
X167280931Y-134592007D01*
X167056903Y-134684802D01*
X166855283Y-134819520D01*
X166683820Y-134990983D01*
X166549102Y-135192603D01*
X166456307Y-135416631D01*
X166409000Y-135654457D01*
X166331000Y-135654457D01*
X166283693Y-135416631D01*
X166190898Y-135192603D01*
X166056180Y-134990983D01*
X165884717Y-134819520D01*
X165683097Y-134684802D01*
X165459069Y-134592007D01*
X165221243Y-134544700D01*
X164978757Y-134544700D01*
X164740931Y-134592007D01*
X164516903Y-134684802D01*
X164315283Y-134819520D01*
X164143820Y-134990983D01*
X164009102Y-135192603D01*
X163916307Y-135416631D01*
X163869000Y-135654457D01*
X163791000Y-135654457D01*
X163743693Y-135416631D01*
X163650898Y-135192603D01*
X163516180Y-134990983D01*
X163344717Y-134819520D01*
X163143097Y-134684802D01*
X162919069Y-134592007D01*
X162681243Y-134544700D01*
X162438757Y-134544700D01*
X162200931Y-134592007D01*
X161976903Y-134684802D01*
X161775283Y-134819520D01*
X161603820Y-134990983D01*
X161469102Y-135192603D01*
X161376307Y-135416631D01*
X161329000Y-135654457D01*
X161252843Y-135654457D01*
X161252843Y-134925700D01*
X161245487Y-134851011D01*
X161223701Y-134779192D01*
X161188322Y-134713004D01*
X161140711Y-134654989D01*
X161082696Y-134607378D01*
X161016508Y-134571999D01*
X160944689Y-134550213D01*
X160870000Y-134542857D01*
X159170000Y-134542857D01*
X159095311Y-134550213D01*
X159023492Y-134571999D01*
X158957304Y-134607378D01*
X158899289Y-134654989D01*
X158851678Y-134713004D01*
X158816299Y-134779192D01*
X158794513Y-134851011D01*
X158787157Y-134925700D01*
X155062757Y-134925700D01*
X154932814Y-134795757D01*
X154608355Y-134578961D01*
X154247836Y-134429629D01*
X153865111Y-134353500D01*
X153474889Y-134353500D01*
X153092164Y-134429629D01*
X152731645Y-134578961D01*
X152407186Y-134795757D01*
X152131257Y-135071686D01*
X151914461Y-135396145D01*
X151765129Y-135756664D01*
X151689000Y-136139389D01*
X150420050Y-136139389D01*
X150406024Y-136005947D01*
X150406000Y-135999166D01*
X150406000Y-132455354D01*
X157563400Y-132455354D01*
X157563400Y-132619046D01*
X157595335Y-132779594D01*
X157657977Y-132930826D01*
X157748920Y-133066932D01*
X157864668Y-133182680D01*
X158000774Y-133273623D01*
X158152006Y-133336265D01*
X158312554Y-133368200D01*
X158476246Y-133368200D01*
X158636794Y-133336265D01*
X158788026Y-133273623D01*
X158924132Y-133182680D01*
X159039880Y-133066932D01*
X159130823Y-132930826D01*
X159193465Y-132779594D01*
X159225400Y-132619046D01*
X159225400Y-132455354D01*
X159193465Y-132294806D01*
X159130823Y-132143574D01*
X159039880Y-132007468D01*
X158924132Y-131891720D01*
X158788026Y-131800777D01*
X158636794Y-131738135D01*
X158476246Y-131706200D01*
X158312554Y-131706200D01*
X158152006Y-131738135D01*
X158000774Y-131800777D01*
X157864668Y-131891720D01*
X157748920Y-132007468D01*
X157657977Y-132143574D01*
X157595335Y-132294806D01*
X157563400Y-132455354D01*
X150406000Y-132455354D01*
X150406000Y-130880554D01*
X180423400Y-130880554D01*
X180423400Y-131044246D01*
X180455335Y-131204794D01*
X180517977Y-131356026D01*
X180608920Y-131492132D01*
X180724668Y-131607880D01*
X180860774Y-131698823D01*
X181012006Y-131761465D01*
X181172554Y-131793400D01*
X181336246Y-131793400D01*
X181496794Y-131761465D01*
X181648026Y-131698823D01*
X181784132Y-131607880D01*
X181899880Y-131492132D01*
X181990823Y-131356026D01*
X182053465Y-131204794D01*
X182067436Y-131134554D01*
X188754600Y-131134554D01*
X188754600Y-131298246D01*
X188786535Y-131458794D01*
X188849177Y-131610026D01*
X188940120Y-131746132D01*
X189055868Y-131861880D01*
X189191974Y-131952823D01*
X189343206Y-132015465D01*
X189503754Y-132047400D01*
X189667446Y-132047400D01*
X189827994Y-132015465D01*
X189979226Y-131952823D01*
X190115332Y-131861880D01*
X190231080Y-131746132D01*
X190322023Y-131610026D01*
X190384665Y-131458794D01*
X190416600Y-131298246D01*
X190416600Y-131272304D01*
X192702350Y-131272304D01*
X192702350Y-131435996D01*
X192734285Y-131596544D01*
X192796927Y-131747776D01*
X192887870Y-131883882D01*
X193003618Y-131999630D01*
X193139724Y-132090573D01*
X193290956Y-132153215D01*
X193451504Y-132185150D01*
X193615196Y-132185150D01*
X193775744Y-132153215D01*
X193926976Y-132090573D01*
X194063082Y-131999630D01*
X194178830Y-131883882D01*
X194269773Y-131747776D01*
X194332415Y-131596544D01*
X194364350Y-131435996D01*
X194364350Y-131272304D01*
X194332415Y-131111756D01*
X194269773Y-130960524D01*
X194178830Y-130824418D01*
X194063082Y-130708670D01*
X193926976Y-130617727D01*
X193775744Y-130555085D01*
X193615196Y-130523150D01*
X193451504Y-130523150D01*
X193290956Y-130555085D01*
X193139724Y-130617727D01*
X193003618Y-130708670D01*
X192887870Y-130824418D01*
X192796927Y-130960524D01*
X192734285Y-131111756D01*
X192702350Y-131272304D01*
X190416600Y-131272304D01*
X190416600Y-131134554D01*
X190384665Y-130974006D01*
X190322023Y-130822774D01*
X190231080Y-130686668D01*
X190115332Y-130570920D01*
X189979226Y-130479977D01*
X189827994Y-130417335D01*
X189667446Y-130385400D01*
X189503754Y-130385400D01*
X189343206Y-130417335D01*
X189191974Y-130479977D01*
X189055868Y-130570920D01*
X188940120Y-130686668D01*
X188849177Y-130822774D01*
X188786535Y-130974006D01*
X188754600Y-131134554D01*
X182067436Y-131134554D01*
X182085400Y-131044246D01*
X182085400Y-130880554D01*
X182053465Y-130720006D01*
X181990823Y-130568774D01*
X181899880Y-130432668D01*
X181784132Y-130316920D01*
X181648026Y-130225977D01*
X181496794Y-130163335D01*
X181336246Y-130131400D01*
X181172554Y-130131400D01*
X181012006Y-130163335D01*
X180860774Y-130225977D01*
X180724668Y-130316920D01*
X180608920Y-130432668D01*
X180517977Y-130568774D01*
X180455335Y-130720006D01*
X180423400Y-130880554D01*
X150406000Y-130880554D01*
X150406000Y-129572454D01*
X163634000Y-129572454D01*
X163634000Y-129736146D01*
X163665935Y-129896694D01*
X163728577Y-130047926D01*
X163819520Y-130184032D01*
X163935268Y-130299780D01*
X164071374Y-130390723D01*
X164222606Y-130453365D01*
X164383154Y-130485300D01*
X164546846Y-130485300D01*
X164707394Y-130453365D01*
X164858626Y-130390723D01*
X164994732Y-130299780D01*
X165110480Y-130184032D01*
X165201423Y-130047926D01*
X165264065Y-129896694D01*
X165296000Y-129736146D01*
X165296000Y-129572454D01*
X165264065Y-129411906D01*
X165201423Y-129260674D01*
X165110480Y-129124568D01*
X164994732Y-129008820D01*
X164858626Y-128917877D01*
X164707394Y-128855235D01*
X164546846Y-128823300D01*
X164383154Y-128823300D01*
X164222606Y-128855235D01*
X164071374Y-128917877D01*
X163935268Y-129008820D01*
X163819520Y-129124568D01*
X163728577Y-129260674D01*
X163665935Y-129411906D01*
X163634000Y-129572454D01*
X150406000Y-129572454D01*
X150406000Y-128202927D01*
X152531800Y-128202927D01*
X152531800Y-128337073D01*
X152557971Y-128468640D01*
X152609306Y-128592574D01*
X152683833Y-128704112D01*
X152778688Y-128798967D01*
X152890226Y-128873494D01*
X153014160Y-128924829D01*
X153145727Y-128951000D01*
X153279873Y-128951000D01*
X153411440Y-128924829D01*
X153535374Y-128873494D01*
X153646912Y-128798967D01*
X153741767Y-128704112D01*
X153816294Y-128592574D01*
X153867629Y-128468640D01*
X153893800Y-128337073D01*
X153893800Y-128202927D01*
X153867629Y-128071360D01*
X153816294Y-127947426D01*
X153741767Y-127835888D01*
X153646912Y-127741033D01*
X153535374Y-127666506D01*
X153411440Y-127615171D01*
X153279873Y-127589000D01*
X153145727Y-127589000D01*
X153014160Y-127615171D01*
X152890226Y-127666506D01*
X152778688Y-127741033D01*
X152683833Y-127835888D01*
X152609306Y-127947426D01*
X152557971Y-128071360D01*
X152531800Y-128202927D01*
X150406000Y-128202927D01*
X150406000Y-125256527D01*
X152531800Y-125256527D01*
X152531800Y-125390673D01*
X152557971Y-125522240D01*
X152609306Y-125646174D01*
X152683833Y-125757712D01*
X152778688Y-125852567D01*
X152890226Y-125927094D01*
X153014160Y-125978429D01*
X153145727Y-126004600D01*
X153279873Y-126004600D01*
X153411440Y-125978429D01*
X153535374Y-125927094D01*
X153646912Y-125852567D01*
X153741767Y-125757712D01*
X153816294Y-125646174D01*
X153867629Y-125522240D01*
X153893800Y-125390673D01*
X153893800Y-125256527D01*
X153867629Y-125124960D01*
X153816294Y-125001026D01*
X153741767Y-124889488D01*
X153702406Y-124850127D01*
X196169000Y-124850127D01*
X196169000Y-124984273D01*
X196195171Y-125115840D01*
X196246506Y-125239774D01*
X196321033Y-125351312D01*
X196415888Y-125446167D01*
X196527426Y-125520694D01*
X196651360Y-125572029D01*
X196782927Y-125598200D01*
X196917073Y-125598200D01*
X197048640Y-125572029D01*
X197172574Y-125520694D01*
X197284112Y-125446167D01*
X197378967Y-125351312D01*
X197453494Y-125239774D01*
X197504829Y-125115840D01*
X197531000Y-124984273D01*
X197531000Y-124850127D01*
X197504829Y-124718560D01*
X197453494Y-124594626D01*
X197378967Y-124483088D01*
X197284112Y-124388233D01*
X197172574Y-124313706D01*
X197048640Y-124262371D01*
X196917073Y-124236200D01*
X196782927Y-124236200D01*
X196651360Y-124262371D01*
X196527426Y-124313706D01*
X196415888Y-124388233D01*
X196321033Y-124483088D01*
X196246506Y-124594626D01*
X196195171Y-124718560D01*
X196169000Y-124850127D01*
X153702406Y-124850127D01*
X153646912Y-124794633D01*
X153535374Y-124720106D01*
X153411440Y-124668771D01*
X153279873Y-124642600D01*
X153145727Y-124642600D01*
X153014160Y-124668771D01*
X152890226Y-124720106D01*
X152778688Y-124794633D01*
X152683833Y-124889488D01*
X152609306Y-125001026D01*
X152557971Y-125124960D01*
X152531800Y-125256527D01*
X150406000Y-125256527D01*
X150406000Y-123856154D01*
X156072500Y-123856154D01*
X156072500Y-124019846D01*
X156104435Y-124180394D01*
X156167077Y-124331626D01*
X156258020Y-124467732D01*
X156373768Y-124583480D01*
X156509874Y-124674423D01*
X156661106Y-124737065D01*
X156821654Y-124769000D01*
X156985346Y-124769000D01*
X157145894Y-124737065D01*
X157297126Y-124674423D01*
X157433232Y-124583480D01*
X157548980Y-124467732D01*
X157639923Y-124331626D01*
X157702565Y-124180394D01*
X157734500Y-124019846D01*
X157734500Y-123875154D01*
X177472000Y-123875154D01*
X177472000Y-124038846D01*
X177503935Y-124199394D01*
X177566577Y-124350626D01*
X177657520Y-124486732D01*
X177773268Y-124602480D01*
X177909374Y-124693423D01*
X178060606Y-124756065D01*
X178221154Y-124788000D01*
X178384846Y-124788000D01*
X178545394Y-124756065D01*
X178696626Y-124693423D01*
X178832732Y-124602480D01*
X178948480Y-124486732D01*
X179039423Y-124350626D01*
X179102065Y-124199394D01*
X179134000Y-124038846D01*
X179134000Y-123884927D01*
X182656200Y-123884927D01*
X182656200Y-124019073D01*
X182682371Y-124150640D01*
X182733706Y-124274574D01*
X182808233Y-124386112D01*
X182903088Y-124480967D01*
X183014626Y-124555494D01*
X183138560Y-124606829D01*
X183270127Y-124633000D01*
X183404273Y-124633000D01*
X183535840Y-124606829D01*
X183659774Y-124555494D01*
X183769000Y-124482512D01*
X183878226Y-124555494D01*
X184002160Y-124606829D01*
X184133727Y-124633000D01*
X184267873Y-124633000D01*
X184399440Y-124606829D01*
X184523374Y-124555494D01*
X184634912Y-124480967D01*
X184729767Y-124386112D01*
X184804294Y-124274574D01*
X184855629Y-124150640D01*
X184881800Y-124019073D01*
X184881800Y-123884927D01*
X184855629Y-123753360D01*
X184804294Y-123629426D01*
X184729767Y-123517888D01*
X184634912Y-123423033D01*
X184523374Y-123348506D01*
X184399440Y-123297171D01*
X184267873Y-123271000D01*
X184133727Y-123271000D01*
X184002160Y-123297171D01*
X183878226Y-123348506D01*
X183769000Y-123421488D01*
X183659774Y-123348506D01*
X183535840Y-123297171D01*
X183404273Y-123271000D01*
X183270127Y-123271000D01*
X183138560Y-123297171D01*
X183014626Y-123348506D01*
X182903088Y-123423033D01*
X182808233Y-123517888D01*
X182733706Y-123629426D01*
X182682371Y-123753360D01*
X182656200Y-123884927D01*
X179134000Y-123884927D01*
X179134000Y-123875154D01*
X179102065Y-123714606D01*
X179039423Y-123563374D01*
X178948480Y-123427268D01*
X178832732Y-123311520D01*
X178696626Y-123220577D01*
X178545394Y-123157935D01*
X178384846Y-123126000D01*
X178221154Y-123126000D01*
X178060606Y-123157935D01*
X177909374Y-123220577D01*
X177773268Y-123311520D01*
X177657520Y-123427268D01*
X177566577Y-123563374D01*
X177503935Y-123714606D01*
X177472000Y-123875154D01*
X157734500Y-123875154D01*
X157734500Y-123856154D01*
X157702565Y-123695606D01*
X157639923Y-123544374D01*
X157548980Y-123408268D01*
X157433232Y-123292520D01*
X157297126Y-123201577D01*
X157145894Y-123138935D01*
X156985346Y-123107000D01*
X156821654Y-123107000D01*
X156661106Y-123138935D01*
X156509874Y-123201577D01*
X156373768Y-123292520D01*
X156258020Y-123408268D01*
X156167077Y-123544374D01*
X156104435Y-123695606D01*
X156072500Y-123856154D01*
X150406000Y-123856154D01*
X150406000Y-118688554D01*
X155074200Y-118688554D01*
X155074200Y-118852246D01*
X155106135Y-119012794D01*
X155168777Y-119164026D01*
X155259720Y-119300132D01*
X155375468Y-119415880D01*
X155511574Y-119506823D01*
X155662806Y-119569465D01*
X155823354Y-119601400D01*
X155987046Y-119601400D01*
X156147594Y-119569465D01*
X156298826Y-119506823D01*
X156434932Y-119415880D01*
X156550680Y-119300132D01*
X156641623Y-119164026D01*
X156704265Y-119012794D01*
X156715298Y-118957327D01*
X160964600Y-118957327D01*
X160964600Y-119091473D01*
X160990771Y-119223040D01*
X161042106Y-119346974D01*
X161116633Y-119458512D01*
X161211488Y-119553367D01*
X161323026Y-119627894D01*
X161446960Y-119679229D01*
X161578527Y-119705400D01*
X161712673Y-119705400D01*
X161844240Y-119679229D01*
X161968174Y-119627894D01*
X162079712Y-119553367D01*
X162174567Y-119458512D01*
X162249094Y-119346974D01*
X162263196Y-119312927D01*
X168330600Y-119312927D01*
X168330600Y-119447073D01*
X168356771Y-119578640D01*
X168408106Y-119702574D01*
X168482633Y-119814112D01*
X168577488Y-119908967D01*
X168689026Y-119983494D01*
X168812960Y-120034829D01*
X168944527Y-120061000D01*
X169078673Y-120061000D01*
X169210240Y-120034829D01*
X169334174Y-119983494D01*
X169445712Y-119908967D01*
X169540567Y-119814112D01*
X169615094Y-119702574D01*
X169666429Y-119578640D01*
X169692600Y-119447073D01*
X169692600Y-119348954D01*
X182099800Y-119348954D01*
X182099800Y-119512646D01*
X182131735Y-119673194D01*
X182194377Y-119824426D01*
X182285320Y-119960532D01*
X182401068Y-120076280D01*
X182537174Y-120167223D01*
X182688406Y-120229865D01*
X182848954Y-120261800D01*
X183012646Y-120261800D01*
X183173194Y-120229865D01*
X183324426Y-120167223D01*
X183460532Y-120076280D01*
X183576280Y-119960532D01*
X183667223Y-119824426D01*
X183729865Y-119673194D01*
X183761800Y-119512646D01*
X183761800Y-119348954D01*
X183729865Y-119188406D01*
X183667223Y-119037174D01*
X183576280Y-118901068D01*
X183460532Y-118785320D01*
X183324426Y-118694377D01*
X183173194Y-118631735D01*
X183012646Y-118599800D01*
X182848954Y-118599800D01*
X182688406Y-118631735D01*
X182537174Y-118694377D01*
X182401068Y-118785320D01*
X182285320Y-118901068D01*
X182194377Y-119037174D01*
X182131735Y-119188406D01*
X182099800Y-119348954D01*
X169692600Y-119348954D01*
X169692600Y-119312927D01*
X169666429Y-119181360D01*
X169615094Y-119057426D01*
X169540567Y-118945888D01*
X169445712Y-118851033D01*
X169334174Y-118776506D01*
X169210240Y-118725171D01*
X169078673Y-118699000D01*
X168944527Y-118699000D01*
X168812960Y-118725171D01*
X168689026Y-118776506D01*
X168577488Y-118851033D01*
X168482633Y-118945888D01*
X168408106Y-119057426D01*
X168356771Y-119181360D01*
X168330600Y-119312927D01*
X162263196Y-119312927D01*
X162300429Y-119223040D01*
X162326600Y-119091473D01*
X162326600Y-118957327D01*
X162300429Y-118825760D01*
X162249094Y-118701826D01*
X162174567Y-118590288D01*
X162079712Y-118495433D01*
X161968174Y-118420906D01*
X161844240Y-118369571D01*
X161712673Y-118343400D01*
X161578527Y-118343400D01*
X161446960Y-118369571D01*
X161323026Y-118420906D01*
X161211488Y-118495433D01*
X161116633Y-118590288D01*
X161042106Y-118701826D01*
X160990771Y-118825760D01*
X160964600Y-118957327D01*
X156715298Y-118957327D01*
X156736200Y-118852246D01*
X156736200Y-118688554D01*
X156704265Y-118528006D01*
X156641623Y-118376774D01*
X156550680Y-118240668D01*
X156434932Y-118124920D01*
X156298826Y-118033977D01*
X156147594Y-117971335D01*
X155987046Y-117939400D01*
X155823354Y-117939400D01*
X155662806Y-117971335D01*
X155511574Y-118033977D01*
X155375468Y-118124920D01*
X155259720Y-118240668D01*
X155168777Y-118376774D01*
X155106135Y-118528006D01*
X155074200Y-118688554D01*
X150406000Y-118688554D01*
X150406000Y-115335754D01*
X158833400Y-115335754D01*
X158833400Y-115499446D01*
X158865335Y-115659994D01*
X158927977Y-115811226D01*
X159018920Y-115947332D01*
X159134668Y-116063080D01*
X159270774Y-116154023D01*
X159422006Y-116216665D01*
X159582554Y-116248600D01*
X159746246Y-116248600D01*
X159906794Y-116216665D01*
X160037029Y-116162720D01*
X174184637Y-116162720D01*
X174184637Y-117862720D01*
X174191993Y-117937409D01*
X174213779Y-118009228D01*
X174249158Y-118075416D01*
X174296769Y-118133431D01*
X174354784Y-118181042D01*
X174420972Y-118216421D01*
X174492791Y-118238207D01*
X174567480Y-118245563D01*
X176267480Y-118245563D01*
X176342169Y-118238207D01*
X176413988Y-118216421D01*
X176480176Y-118181042D01*
X176538191Y-118133431D01*
X176585802Y-118075416D01*
X176621181Y-118009228D01*
X176642967Y-117937409D01*
X176650323Y-117862720D01*
X176650323Y-116162720D01*
X176642967Y-116088031D01*
X176621181Y-116016212D01*
X176585802Y-115950024D01*
X176538191Y-115892009D01*
X176480176Y-115844398D01*
X176413988Y-115809019D01*
X176342169Y-115787233D01*
X176267480Y-115779877D01*
X174567480Y-115779877D01*
X174492791Y-115787233D01*
X174420972Y-115809019D01*
X174354784Y-115844398D01*
X174296769Y-115892009D01*
X174249158Y-115950024D01*
X174213779Y-116016212D01*
X174191993Y-116088031D01*
X174184637Y-116162720D01*
X160037029Y-116162720D01*
X160058026Y-116154023D01*
X160194132Y-116063080D01*
X160309880Y-115947332D01*
X160400823Y-115811226D01*
X160463465Y-115659994D01*
X160495400Y-115499446D01*
X160495400Y-115335754D01*
X160463465Y-115175206D01*
X160400823Y-115023974D01*
X160309880Y-114887868D01*
X160194132Y-114772120D01*
X160058026Y-114681177D01*
X159906794Y-114618535D01*
X159746246Y-114586600D01*
X159582554Y-114586600D01*
X159422006Y-114618535D01*
X159270774Y-114681177D01*
X159134668Y-114772120D01*
X159018920Y-114887868D01*
X158927977Y-115023974D01*
X158865335Y-115175206D01*
X158833400Y-115335754D01*
X150406000Y-115335754D01*
X150406000Y-114351477D01*
X174186480Y-114351477D01*
X174186480Y-114593963D01*
X174233787Y-114831789D01*
X174326582Y-115055817D01*
X174461300Y-115257437D01*
X174632763Y-115428900D01*
X174834383Y-115563618D01*
X175058411Y-115656413D01*
X175296237Y-115703720D01*
X175538723Y-115703720D01*
X175776549Y-115656413D01*
X176000577Y-115563618D01*
X176202197Y-115428900D01*
X176373660Y-115257437D01*
X176389217Y-115234154D01*
X180423400Y-115234154D01*
X180423400Y-115397846D01*
X180455335Y-115558394D01*
X180517977Y-115709626D01*
X180608920Y-115845732D01*
X180724668Y-115961480D01*
X180860774Y-116052423D01*
X181012006Y-116115065D01*
X181172554Y-116147000D01*
X181336246Y-116147000D01*
X181496794Y-116115065D01*
X181648026Y-116052423D01*
X181784132Y-115961480D01*
X181899880Y-115845732D01*
X181990823Y-115709626D01*
X182029954Y-115615154D01*
X192738500Y-115615154D01*
X192738500Y-115778846D01*
X192770435Y-115939394D01*
X192833077Y-116090626D01*
X192924020Y-116226732D01*
X193039768Y-116342480D01*
X193175874Y-116433423D01*
X193327106Y-116496065D01*
X193487654Y-116528000D01*
X193651346Y-116528000D01*
X193811894Y-116496065D01*
X193963126Y-116433423D01*
X194099232Y-116342480D01*
X194214980Y-116226732D01*
X194305923Y-116090626D01*
X194368565Y-115939394D01*
X194400500Y-115778846D01*
X194400500Y-115615154D01*
X194368565Y-115454606D01*
X194305923Y-115303374D01*
X194214980Y-115167268D01*
X194099232Y-115051520D01*
X193963126Y-114960577D01*
X193811894Y-114897935D01*
X193651346Y-114866000D01*
X193487654Y-114866000D01*
X193327106Y-114897935D01*
X193175874Y-114960577D01*
X193039768Y-115051520D01*
X192924020Y-115167268D01*
X192833077Y-115303374D01*
X192770435Y-115454606D01*
X192738500Y-115615154D01*
X182029954Y-115615154D01*
X182053465Y-115558394D01*
X182085400Y-115397846D01*
X182085400Y-115234154D01*
X182053465Y-115073606D01*
X181990823Y-114922374D01*
X181899880Y-114786268D01*
X181784132Y-114670520D01*
X181648026Y-114579577D01*
X181496794Y-114516935D01*
X181336246Y-114485000D01*
X181172554Y-114485000D01*
X181012006Y-114516935D01*
X180860774Y-114579577D01*
X180724668Y-114670520D01*
X180608920Y-114786268D01*
X180517977Y-114922374D01*
X180455335Y-115073606D01*
X180423400Y-115234154D01*
X176389217Y-115234154D01*
X176508378Y-115055817D01*
X176601173Y-114831789D01*
X176648480Y-114593963D01*
X176648480Y-114351477D01*
X176601173Y-114113651D01*
X176508378Y-113889623D01*
X176447862Y-113799054D01*
X186697200Y-113799054D01*
X186697200Y-113962746D01*
X186729135Y-114123294D01*
X186791777Y-114274526D01*
X186882720Y-114410632D01*
X186998468Y-114526380D01*
X187134574Y-114617323D01*
X187285806Y-114679965D01*
X187446354Y-114711900D01*
X187610046Y-114711900D01*
X187770594Y-114679965D01*
X187921826Y-114617323D01*
X188057932Y-114526380D01*
X188173680Y-114410632D01*
X188264623Y-114274526D01*
X188327265Y-114123294D01*
X188359200Y-113962746D01*
X188359200Y-113799054D01*
X188327265Y-113638506D01*
X188264623Y-113487274D01*
X188173680Y-113351168D01*
X188057932Y-113235420D01*
X187921826Y-113144477D01*
X187770594Y-113081835D01*
X187610046Y-113049900D01*
X187446354Y-113049900D01*
X187285806Y-113081835D01*
X187134574Y-113144477D01*
X186998468Y-113235420D01*
X186882720Y-113351168D01*
X186791777Y-113487274D01*
X186729135Y-113638506D01*
X186697200Y-113799054D01*
X176447862Y-113799054D01*
X176373660Y-113688003D01*
X176202197Y-113516540D01*
X176000577Y-113381822D01*
X175776549Y-113289027D01*
X175538723Y-113241720D01*
X175296237Y-113241720D01*
X175058411Y-113289027D01*
X174834383Y-113381822D01*
X174632763Y-113516540D01*
X174461300Y-113688003D01*
X174326582Y-113889623D01*
X174233787Y-114113651D01*
X174186480Y-114351477D01*
X150406000Y-114351477D01*
X150406000Y-112658127D01*
X152531800Y-112658127D01*
X152531800Y-112792273D01*
X152557971Y-112923840D01*
X152609306Y-113047774D01*
X152683833Y-113159312D01*
X152778688Y-113254167D01*
X152890226Y-113328694D01*
X153014160Y-113380029D01*
X153145727Y-113406200D01*
X153279873Y-113406200D01*
X153411440Y-113380029D01*
X153535374Y-113328694D01*
X153646912Y-113254167D01*
X153741767Y-113159312D01*
X153816294Y-113047774D01*
X153867629Y-112923840D01*
X153893800Y-112792273D01*
X153893800Y-112658127D01*
X153867629Y-112526560D01*
X153816294Y-112402626D01*
X153741767Y-112291088D01*
X153646912Y-112196233D01*
X153535374Y-112121706D01*
X153411440Y-112070371D01*
X153279873Y-112044200D01*
X153145727Y-112044200D01*
X153014160Y-112070371D01*
X152890226Y-112121706D01*
X152778688Y-112196233D01*
X152683833Y-112291088D01*
X152609306Y-112402626D01*
X152557971Y-112526560D01*
X152531800Y-112658127D01*
X150406000Y-112658127D01*
X150406000Y-111811477D01*
X174186480Y-111811477D01*
X174186480Y-112053963D01*
X174233787Y-112291789D01*
X174326582Y-112515817D01*
X174461300Y-112717437D01*
X174632763Y-112888900D01*
X174834383Y-113023618D01*
X175058411Y-113116413D01*
X175296237Y-113163720D01*
X175538723Y-113163720D01*
X175776549Y-113116413D01*
X176000577Y-113023618D01*
X176202197Y-112888900D01*
X176373660Y-112717437D01*
X176508378Y-112515817D01*
X176601173Y-112291789D01*
X176648480Y-112053963D01*
X176648480Y-111811477D01*
X176601173Y-111573651D01*
X176508378Y-111349623D01*
X176373660Y-111148003D01*
X176202197Y-110976540D01*
X176000577Y-110841822D01*
X175776549Y-110749027D01*
X175538723Y-110701720D01*
X175296237Y-110701720D01*
X175058411Y-110749027D01*
X174834383Y-110841822D01*
X174632763Y-110976540D01*
X174461300Y-111148003D01*
X174326582Y-111349623D01*
X174233787Y-111573651D01*
X174186480Y-111811477D01*
X150406000Y-111811477D01*
X150406000Y-109711727D01*
X152531800Y-109711727D01*
X152531800Y-109845873D01*
X152557971Y-109977440D01*
X152609306Y-110101374D01*
X152683833Y-110212912D01*
X152778688Y-110307767D01*
X152890226Y-110382294D01*
X153014160Y-110433629D01*
X153145727Y-110459800D01*
X153279873Y-110459800D01*
X153411440Y-110433629D01*
X153535374Y-110382294D01*
X153646912Y-110307767D01*
X153658752Y-110295927D01*
X162818800Y-110295927D01*
X162818800Y-110430073D01*
X162844971Y-110561640D01*
X162896306Y-110685574D01*
X162970833Y-110797112D01*
X163065688Y-110891967D01*
X163177226Y-110966494D01*
X163301160Y-111017829D01*
X163432727Y-111044000D01*
X163566873Y-111044000D01*
X163698440Y-111017829D01*
X163822374Y-110966494D01*
X163933912Y-110891967D01*
X164028767Y-110797112D01*
X164103294Y-110685574D01*
X164154629Y-110561640D01*
X164180800Y-110430073D01*
X164180800Y-110295927D01*
X164154629Y-110164360D01*
X164103294Y-110040426D01*
X164028767Y-109928888D01*
X163933912Y-109834033D01*
X163822374Y-109759506D01*
X163698440Y-109708171D01*
X163566873Y-109682000D01*
X163432727Y-109682000D01*
X163301160Y-109708171D01*
X163177226Y-109759506D01*
X163065688Y-109834033D01*
X162970833Y-109928888D01*
X162896306Y-110040426D01*
X162844971Y-110164360D01*
X162818800Y-110295927D01*
X153658752Y-110295927D01*
X153741767Y-110212912D01*
X153816294Y-110101374D01*
X153867629Y-109977440D01*
X153893800Y-109845873D01*
X153893800Y-109711727D01*
X153867629Y-109580160D01*
X153816294Y-109456226D01*
X153741767Y-109344688D01*
X153668556Y-109271477D01*
X174186480Y-109271477D01*
X174186480Y-109513963D01*
X174233787Y-109751789D01*
X174326582Y-109975817D01*
X174461300Y-110177437D01*
X174632763Y-110348900D01*
X174834383Y-110483618D01*
X175058411Y-110576413D01*
X175296237Y-110623720D01*
X175538723Y-110623720D01*
X175776549Y-110576413D01*
X176000577Y-110483618D01*
X176202197Y-110348900D01*
X176373660Y-110177437D01*
X176508378Y-109975817D01*
X176601173Y-109751789D01*
X176648480Y-109513963D01*
X176648480Y-109271477D01*
X176601173Y-109033651D01*
X176508378Y-108809623D01*
X176373660Y-108608003D01*
X176202197Y-108436540D01*
X176000577Y-108301822D01*
X175839626Y-108235154D01*
X177472000Y-108235154D01*
X177472000Y-108398846D01*
X177503935Y-108559394D01*
X177566577Y-108710626D01*
X177657520Y-108846732D01*
X177773268Y-108962480D01*
X177909374Y-109053423D01*
X178060606Y-109116065D01*
X178221154Y-109148000D01*
X178384846Y-109148000D01*
X178545394Y-109116065D01*
X178696626Y-109053423D01*
X178832732Y-108962480D01*
X178948480Y-108846732D01*
X179039423Y-108710626D01*
X179102065Y-108559394D01*
X179134000Y-108398846D01*
X179134000Y-108390927D01*
X182656200Y-108390927D01*
X182656200Y-108525073D01*
X182682371Y-108656640D01*
X182733706Y-108780574D01*
X182808233Y-108892112D01*
X182903088Y-108986967D01*
X183014626Y-109061494D01*
X183138560Y-109112829D01*
X183270127Y-109139000D01*
X183404273Y-109139000D01*
X183535840Y-109112829D01*
X183659774Y-109061494D01*
X183743600Y-109005483D01*
X183827426Y-109061494D01*
X183951360Y-109112829D01*
X184082927Y-109139000D01*
X184217073Y-109139000D01*
X184348640Y-109112829D01*
X184472574Y-109061494D01*
X184584112Y-108986967D01*
X184678967Y-108892112D01*
X184753494Y-108780574D01*
X184804829Y-108656640D01*
X184831000Y-108525073D01*
X184831000Y-108390927D01*
X184804829Y-108259360D01*
X184753494Y-108135426D01*
X184678967Y-108023888D01*
X184584112Y-107929033D01*
X184472574Y-107854506D01*
X184348640Y-107803171D01*
X184217073Y-107777000D01*
X184082927Y-107777000D01*
X183951360Y-107803171D01*
X183827426Y-107854506D01*
X183743600Y-107910517D01*
X183659774Y-107854506D01*
X183535840Y-107803171D01*
X183404273Y-107777000D01*
X183270127Y-107777000D01*
X183138560Y-107803171D01*
X183014626Y-107854506D01*
X182903088Y-107929033D01*
X182808233Y-108023888D01*
X182733706Y-108135426D01*
X182682371Y-108259360D01*
X182656200Y-108390927D01*
X179134000Y-108390927D01*
X179134000Y-108235154D01*
X179102065Y-108074606D01*
X179039423Y-107923374D01*
X178948480Y-107787268D01*
X178832732Y-107671520D01*
X178696626Y-107580577D01*
X178545394Y-107517935D01*
X178384846Y-107486000D01*
X178221154Y-107486000D01*
X178060606Y-107517935D01*
X177909374Y-107580577D01*
X177773268Y-107671520D01*
X177657520Y-107787268D01*
X177566577Y-107923374D01*
X177503935Y-108074606D01*
X177472000Y-108235154D01*
X175839626Y-108235154D01*
X175776549Y-108209027D01*
X175538723Y-108161720D01*
X175296237Y-108161720D01*
X175058411Y-108209027D01*
X174834383Y-108301822D01*
X174632763Y-108436540D01*
X174461300Y-108608003D01*
X174326582Y-108809623D01*
X174233787Y-109033651D01*
X174186480Y-109271477D01*
X153668556Y-109271477D01*
X153646912Y-109249833D01*
X153535374Y-109175306D01*
X153411440Y-109123971D01*
X153279873Y-109097800D01*
X153145727Y-109097800D01*
X153014160Y-109123971D01*
X152890226Y-109175306D01*
X152778688Y-109249833D01*
X152683833Y-109344688D01*
X152609306Y-109456226D01*
X152557971Y-109580160D01*
X152531800Y-109711727D01*
X150406000Y-109711727D01*
X150406000Y-108235154D01*
X156072500Y-108235154D01*
X156072500Y-108398846D01*
X156104435Y-108559394D01*
X156167077Y-108710626D01*
X156258020Y-108846732D01*
X156373768Y-108962480D01*
X156509874Y-109053423D01*
X156661106Y-109116065D01*
X156821654Y-109148000D01*
X156985346Y-109148000D01*
X157145894Y-109116065D01*
X157297126Y-109053423D01*
X157433232Y-108962480D01*
X157548980Y-108846732D01*
X157639923Y-108710626D01*
X157702565Y-108559394D01*
X157734500Y-108398846D01*
X157734500Y-108235154D01*
X157702565Y-108074606D01*
X157639923Y-107923374D01*
X157548980Y-107787268D01*
X157433232Y-107671520D01*
X157297126Y-107580577D01*
X157145894Y-107517935D01*
X156985346Y-107486000D01*
X156821654Y-107486000D01*
X156661106Y-107517935D01*
X156509874Y-107580577D01*
X156373768Y-107671520D01*
X156258020Y-107787268D01*
X156167077Y-107923374D01*
X156104435Y-108074606D01*
X156072500Y-108235154D01*
X150406000Y-108235154D01*
X150406000Y-103702554D01*
X153499400Y-103702554D01*
X153499400Y-103866246D01*
X153531335Y-104026794D01*
X153593977Y-104178026D01*
X153684920Y-104314132D01*
X153800668Y-104429880D01*
X153936774Y-104520823D01*
X154088006Y-104583465D01*
X154248554Y-104615400D01*
X154412246Y-104615400D01*
X154572794Y-104583465D01*
X154724026Y-104520823D01*
X154860132Y-104429880D01*
X154975880Y-104314132D01*
X155066823Y-104178026D01*
X155129465Y-104026794D01*
X155161400Y-103866246D01*
X155161400Y-103717327D01*
X168330600Y-103717327D01*
X168330600Y-103851473D01*
X168356771Y-103983040D01*
X168408106Y-104106974D01*
X168482633Y-104218512D01*
X168577488Y-104313367D01*
X168689026Y-104387894D01*
X168812960Y-104439229D01*
X168944527Y-104465400D01*
X169078673Y-104465400D01*
X169210240Y-104439229D01*
X169334174Y-104387894D01*
X169445712Y-104313367D01*
X169540567Y-104218512D01*
X169615094Y-104106974D01*
X169666429Y-103983040D01*
X169692600Y-103851473D01*
X169692600Y-103753354D01*
X182099800Y-103753354D01*
X182099800Y-103917046D01*
X182131735Y-104077594D01*
X182194377Y-104228826D01*
X182285320Y-104364932D01*
X182401068Y-104480680D01*
X182537174Y-104571623D01*
X182688406Y-104634265D01*
X182848954Y-104666200D01*
X183012646Y-104666200D01*
X183173194Y-104634265D01*
X183324426Y-104571623D01*
X183460532Y-104480680D01*
X183576280Y-104364932D01*
X183667223Y-104228826D01*
X183729865Y-104077594D01*
X183761800Y-103917046D01*
X183761800Y-103753354D01*
X183729865Y-103592806D01*
X183667223Y-103441574D01*
X183576280Y-103305468D01*
X183460532Y-103189720D01*
X183324426Y-103098777D01*
X183173194Y-103036135D01*
X183012646Y-103004200D01*
X182848954Y-103004200D01*
X182688406Y-103036135D01*
X182537174Y-103098777D01*
X182401068Y-103189720D01*
X182285320Y-103305468D01*
X182194377Y-103441574D01*
X182131735Y-103592806D01*
X182099800Y-103753354D01*
X169692600Y-103753354D01*
X169692600Y-103717327D01*
X169666429Y-103585760D01*
X169615094Y-103461826D01*
X169540567Y-103350288D01*
X169445712Y-103255433D01*
X169334174Y-103180906D01*
X169210240Y-103129571D01*
X169078673Y-103103400D01*
X168944527Y-103103400D01*
X168812960Y-103129571D01*
X168689026Y-103180906D01*
X168577488Y-103255433D01*
X168482633Y-103350288D01*
X168408106Y-103461826D01*
X168356771Y-103585760D01*
X168330600Y-103717327D01*
X155161400Y-103717327D01*
X155161400Y-103702554D01*
X155129465Y-103542006D01*
X155066823Y-103390774D01*
X154975880Y-103254668D01*
X154860132Y-103138920D01*
X154724026Y-103047977D01*
X154572794Y-102985335D01*
X154412246Y-102953400D01*
X154248554Y-102953400D01*
X154088006Y-102985335D01*
X153936774Y-103047977D01*
X153800668Y-103138920D01*
X153684920Y-103254668D01*
X153593977Y-103390774D01*
X153531335Y-103542006D01*
X153499400Y-103702554D01*
X150406000Y-103702554D01*
X150406000Y-102802927D01*
X160050200Y-102802927D01*
X160050200Y-102937073D01*
X160076371Y-103068640D01*
X160127706Y-103192574D01*
X160202233Y-103304112D01*
X160297088Y-103398967D01*
X160408626Y-103473494D01*
X160532560Y-103524829D01*
X160664127Y-103551000D01*
X160798273Y-103551000D01*
X160929840Y-103524829D01*
X161053774Y-103473494D01*
X161165312Y-103398967D01*
X161260167Y-103304112D01*
X161334694Y-103192574D01*
X161386029Y-103068640D01*
X161412200Y-102937073D01*
X161412200Y-102802927D01*
X161386029Y-102671360D01*
X161334694Y-102547426D01*
X161260167Y-102435888D01*
X161165312Y-102341033D01*
X161053774Y-102266506D01*
X160929840Y-102215171D01*
X160798273Y-102189000D01*
X160664127Y-102189000D01*
X160532560Y-102215171D01*
X160408626Y-102266506D01*
X160297088Y-102341033D01*
X160202233Y-102435888D01*
X160127706Y-102547426D01*
X160076371Y-102671360D01*
X160050200Y-102802927D01*
X150406000Y-102802927D01*
X150406000Y-99246927D01*
X169803800Y-99246927D01*
X169803800Y-99381073D01*
X169829971Y-99512640D01*
X169881306Y-99636574D01*
X169955833Y-99748112D01*
X170050688Y-99842967D01*
X170162226Y-99917494D01*
X170286160Y-99968829D01*
X170417727Y-99995000D01*
X170551873Y-99995000D01*
X170683440Y-99968829D01*
X170807374Y-99917494D01*
X170918912Y-99842967D01*
X171013767Y-99748112D01*
X171079351Y-99649957D01*
X183985800Y-99649957D01*
X183985800Y-99892443D01*
X184033107Y-100130269D01*
X184125902Y-100354297D01*
X184260620Y-100555917D01*
X184432083Y-100727380D01*
X184633703Y-100862098D01*
X184857731Y-100954893D01*
X185095557Y-101002200D01*
X185338043Y-101002200D01*
X185575869Y-100954893D01*
X185799897Y-100862098D01*
X186001517Y-100727380D01*
X186172980Y-100555917D01*
X186307698Y-100354297D01*
X186400493Y-100130269D01*
X186447800Y-99892443D01*
X186447800Y-99649957D01*
X186525800Y-99649957D01*
X186525800Y-99892443D01*
X186573107Y-100130269D01*
X186665902Y-100354297D01*
X186800620Y-100555917D01*
X186972083Y-100727380D01*
X187173703Y-100862098D01*
X187397731Y-100954893D01*
X187635557Y-101002200D01*
X187878043Y-101002200D01*
X188115869Y-100954893D01*
X188339897Y-100862098D01*
X188541517Y-100727380D01*
X188712980Y-100555917D01*
X188847698Y-100354297D01*
X188940493Y-100130269D01*
X188987800Y-99892443D01*
X188987800Y-99649957D01*
X188940493Y-99412131D01*
X188847698Y-99188103D01*
X188712980Y-98986483D01*
X188541517Y-98815020D01*
X188339897Y-98680302D01*
X188115869Y-98587507D01*
X187878043Y-98540200D01*
X187635557Y-98540200D01*
X187397731Y-98587507D01*
X187173703Y-98680302D01*
X186972083Y-98815020D01*
X186800620Y-98986483D01*
X186665902Y-99188103D01*
X186573107Y-99412131D01*
X186525800Y-99649957D01*
X186447800Y-99649957D01*
X186400493Y-99412131D01*
X186307698Y-99188103D01*
X186172980Y-98986483D01*
X186001517Y-98815020D01*
X185799897Y-98680302D01*
X185575869Y-98587507D01*
X185338043Y-98540200D01*
X185095557Y-98540200D01*
X184857731Y-98587507D01*
X184633703Y-98680302D01*
X184432083Y-98815020D01*
X184260620Y-98986483D01*
X184125902Y-99188103D01*
X184033107Y-99412131D01*
X183985800Y-99649957D01*
X171079351Y-99649957D01*
X171088294Y-99636574D01*
X171139629Y-99512640D01*
X171165800Y-99381073D01*
X171165800Y-99246927D01*
X171139629Y-99115360D01*
X171088294Y-98991426D01*
X171013767Y-98879888D01*
X170918912Y-98785033D01*
X170807374Y-98710506D01*
X170683440Y-98659171D01*
X170551873Y-98633000D01*
X170417727Y-98633000D01*
X170286160Y-98659171D01*
X170162226Y-98710506D01*
X170050688Y-98785033D01*
X169955833Y-98879888D01*
X169881306Y-98991426D01*
X169829971Y-99115360D01*
X169803800Y-99246927D01*
X150406000Y-99246927D01*
X150406000Y-96198927D01*
X170388000Y-96198927D01*
X170388000Y-96333073D01*
X170414171Y-96464640D01*
X170465506Y-96588574D01*
X170540033Y-96700112D01*
X170634888Y-96794967D01*
X170746426Y-96869494D01*
X170870360Y-96920829D01*
X171001927Y-96947000D01*
X171136073Y-96947000D01*
X171267640Y-96920829D01*
X171391574Y-96869494D01*
X171503112Y-96794967D01*
X171597967Y-96700112D01*
X171672494Y-96588574D01*
X171723829Y-96464640D01*
X171750000Y-96333073D01*
X171750000Y-96325927D01*
X176738000Y-96325927D01*
X176738000Y-96460073D01*
X176764171Y-96591640D01*
X176815506Y-96715574D01*
X176890033Y-96827112D01*
X176984888Y-96921967D01*
X177096426Y-96996494D01*
X177220360Y-97047829D01*
X177351927Y-97074000D01*
X177486073Y-97074000D01*
X177617640Y-97047829D01*
X177741574Y-96996494D01*
X177853112Y-96921967D01*
X177947967Y-96827112D01*
X178022494Y-96715574D01*
X178073829Y-96591640D01*
X178100000Y-96460073D01*
X178100000Y-96325927D01*
X178073829Y-96194360D01*
X178022494Y-96070426D01*
X177947967Y-95958888D01*
X177853193Y-95864114D01*
X187362680Y-95864114D01*
X187362680Y-96027806D01*
X187394615Y-96188354D01*
X187457257Y-96339586D01*
X187548200Y-96475692D01*
X187663948Y-96591440D01*
X187800054Y-96682383D01*
X187951286Y-96745025D01*
X188111834Y-96776960D01*
X188275526Y-96776960D01*
X188329206Y-96766282D01*
X188310100Y-96862334D01*
X188310100Y-97026026D01*
X188342035Y-97186574D01*
X188404677Y-97337806D01*
X188495620Y-97473912D01*
X188611368Y-97589660D01*
X188747474Y-97680603D01*
X188898706Y-97743245D01*
X189059254Y-97775180D01*
X189222946Y-97775180D01*
X189314249Y-97757019D01*
X189305780Y-97799594D01*
X189305780Y-97963286D01*
X189337715Y-98123834D01*
X189400357Y-98275066D01*
X189491300Y-98411172D01*
X189607048Y-98526920D01*
X189624165Y-98538357D01*
X189446800Y-98538357D01*
X189372111Y-98545713D01*
X189300292Y-98567499D01*
X189234104Y-98602878D01*
X189176089Y-98650489D01*
X189128478Y-98708504D01*
X189093099Y-98774692D01*
X189071313Y-98846511D01*
X189063957Y-98921200D01*
X189063957Y-100621200D01*
X189071313Y-100695889D01*
X189093099Y-100767708D01*
X189128478Y-100833896D01*
X189176089Y-100891911D01*
X189234104Y-100939522D01*
X189300292Y-100974901D01*
X189372111Y-100996687D01*
X189446800Y-101004043D01*
X191146800Y-101004043D01*
X191221489Y-100996687D01*
X191293308Y-100974901D01*
X191359496Y-100939522D01*
X191417511Y-100891911D01*
X191465122Y-100833896D01*
X191500501Y-100767708D01*
X191522287Y-100695889D01*
X191529643Y-100621200D01*
X191529643Y-98921200D01*
X191522287Y-98846511D01*
X191500501Y-98774692D01*
X191465122Y-98708504D01*
X191417511Y-98650489D01*
X191359496Y-98602878D01*
X191293308Y-98567499D01*
X191221489Y-98545713D01*
X191146800Y-98538357D01*
X190649395Y-98538357D01*
X190666512Y-98526920D01*
X190782260Y-98411172D01*
X190873203Y-98275066D01*
X190935845Y-98123834D01*
X190967780Y-97963286D01*
X190967780Y-97799594D01*
X190935845Y-97639046D01*
X190873203Y-97487814D01*
X190782260Y-97351708D01*
X190666512Y-97235960D01*
X190530406Y-97145017D01*
X190379174Y-97082375D01*
X190218626Y-97050440D01*
X190054934Y-97050440D01*
X189963631Y-97068601D01*
X189972100Y-97026026D01*
X189972100Y-96862334D01*
X189940165Y-96701786D01*
X189877523Y-96550554D01*
X189786580Y-96414448D01*
X189670832Y-96298700D01*
X189534726Y-96207757D01*
X189383494Y-96145115D01*
X189222946Y-96113180D01*
X189059254Y-96113180D01*
X189005574Y-96123858D01*
X189024680Y-96027806D01*
X189024680Y-95864114D01*
X188992745Y-95703566D01*
X188930103Y-95552334D01*
X188839160Y-95416228D01*
X188723412Y-95300480D01*
X188587306Y-95209537D01*
X188436074Y-95146895D01*
X188275526Y-95114960D01*
X188111834Y-95114960D01*
X187951286Y-95146895D01*
X187800054Y-95209537D01*
X187663948Y-95300480D01*
X187548200Y-95416228D01*
X187457257Y-95552334D01*
X187394615Y-95703566D01*
X187362680Y-95864114D01*
X177853193Y-95864114D01*
X177853112Y-95864033D01*
X177741574Y-95789506D01*
X177617640Y-95738171D01*
X177486073Y-95712000D01*
X177351927Y-95712000D01*
X177220360Y-95738171D01*
X177096426Y-95789506D01*
X176984888Y-95864033D01*
X176890033Y-95958888D01*
X176815506Y-96070426D01*
X176764171Y-96194360D01*
X176738000Y-96325927D01*
X171750000Y-96325927D01*
X171750000Y-96198927D01*
X171723829Y-96067360D01*
X171672494Y-95943426D01*
X171597967Y-95831888D01*
X171503112Y-95737033D01*
X171391574Y-95662506D01*
X171267640Y-95611171D01*
X171136073Y-95585000D01*
X171001927Y-95585000D01*
X170870360Y-95611171D01*
X170746426Y-95662506D01*
X170634888Y-95737033D01*
X170540033Y-95831888D01*
X170465506Y-95943426D01*
X170414171Y-96067360D01*
X170388000Y-96198927D01*
X150406000Y-96198927D01*
X150406000Y-94019853D01*
X150460169Y-93467389D01*
X151689000Y-93467389D01*
X151689000Y-93857611D01*
X151765129Y-94240336D01*
X151914461Y-94600855D01*
X152131257Y-94925314D01*
X152407186Y-95201243D01*
X152731645Y-95418039D01*
X153092164Y-95567371D01*
X153474889Y-95643500D01*
X153865111Y-95643500D01*
X154247836Y-95567371D01*
X154608355Y-95418039D01*
X154932814Y-95201243D01*
X155208743Y-94925314D01*
X155425539Y-94600855D01*
X155574871Y-94240336D01*
X155651000Y-93857611D01*
X155651000Y-93735127D01*
X171658000Y-93735127D01*
X171658000Y-93869273D01*
X171684171Y-94000840D01*
X171735506Y-94124774D01*
X171810033Y-94236312D01*
X171904888Y-94331167D01*
X172016426Y-94405694D01*
X172140360Y-94457029D01*
X172271927Y-94483200D01*
X172406073Y-94483200D01*
X172537640Y-94457029D01*
X172661574Y-94405694D01*
X172773112Y-94331167D01*
X172867967Y-94236312D01*
X172942494Y-94124774D01*
X172993829Y-94000840D01*
X173020000Y-93869273D01*
X173020000Y-93735127D01*
X173017474Y-93722427D01*
X173436000Y-93722427D01*
X173436000Y-93856573D01*
X173462171Y-93988140D01*
X173513506Y-94112074D01*
X173588033Y-94223612D01*
X173682888Y-94318467D01*
X173794426Y-94392994D01*
X173918360Y-94444329D01*
X174049927Y-94470500D01*
X174184073Y-94470500D01*
X174315640Y-94444329D01*
X174439574Y-94392994D01*
X174498000Y-94353955D01*
X174556426Y-94392994D01*
X174680360Y-94444329D01*
X174811927Y-94470500D01*
X174946073Y-94470500D01*
X175077640Y-94444329D01*
X175201574Y-94392994D01*
X175313112Y-94318467D01*
X175407967Y-94223612D01*
X175482494Y-94112074D01*
X175533829Y-93988140D01*
X175560000Y-93856573D01*
X175560000Y-93722427D01*
X175555453Y-93699567D01*
X183689980Y-93699567D01*
X183689980Y-93833713D01*
X183716151Y-93965280D01*
X183767486Y-94089214D01*
X183842013Y-94200752D01*
X183936868Y-94295607D01*
X184048406Y-94370134D01*
X184172340Y-94421469D01*
X184303907Y-94447640D01*
X184438053Y-94447640D01*
X184569620Y-94421469D01*
X184693554Y-94370134D01*
X184805092Y-94295607D01*
X184899947Y-94200752D01*
X184974474Y-94089214D01*
X185025809Y-93965280D01*
X185051980Y-93833713D01*
X185051980Y-93699567D01*
X187690480Y-93699567D01*
X187690480Y-93833713D01*
X187716651Y-93965280D01*
X187767986Y-94089214D01*
X187842513Y-94200752D01*
X187937368Y-94295607D01*
X188048906Y-94370134D01*
X188172840Y-94421469D01*
X188304407Y-94447640D01*
X188438553Y-94447640D01*
X188570120Y-94421469D01*
X188694054Y-94370134D01*
X188805592Y-94295607D01*
X188900447Y-94200752D01*
X188974974Y-94089214D01*
X189026309Y-93965280D01*
X189052480Y-93833713D01*
X189052480Y-93699567D01*
X189026309Y-93568000D01*
X188984635Y-93467389D01*
X194297500Y-93467389D01*
X194297500Y-93857611D01*
X194373629Y-94240336D01*
X194522961Y-94600855D01*
X194739757Y-94925314D01*
X195015686Y-95201243D01*
X195340145Y-95418039D01*
X195700664Y-95567371D01*
X196083389Y-95643500D01*
X196473611Y-95643500D01*
X196856336Y-95567371D01*
X197216855Y-95418039D01*
X197541314Y-95201243D01*
X197817243Y-94925314D01*
X198034039Y-94600855D01*
X198183371Y-94240336D01*
X198259500Y-93857611D01*
X198259500Y-93467389D01*
X198183371Y-93084664D01*
X198034039Y-92724145D01*
X197817243Y-92399686D01*
X197541314Y-92123757D01*
X197216855Y-91906961D01*
X196856336Y-91757629D01*
X196473611Y-91681500D01*
X196083389Y-91681500D01*
X195700664Y-91757629D01*
X195340145Y-91906961D01*
X195015686Y-92123757D01*
X194739757Y-92399686D01*
X194522961Y-92724145D01*
X194373629Y-93084664D01*
X194297500Y-93467389D01*
X188984635Y-93467389D01*
X188974974Y-93444066D01*
X188900447Y-93332528D01*
X188805592Y-93237673D01*
X188694054Y-93163146D01*
X188570120Y-93111811D01*
X188438553Y-93085640D01*
X188304407Y-93085640D01*
X188172840Y-93111811D01*
X188048906Y-93163146D01*
X187937368Y-93237673D01*
X187842513Y-93332528D01*
X187767986Y-93444066D01*
X187716651Y-93568000D01*
X187690480Y-93699567D01*
X185051980Y-93699567D01*
X185025809Y-93568000D01*
X184974474Y-93444066D01*
X184899947Y-93332528D01*
X184805092Y-93237673D01*
X184693554Y-93163146D01*
X184569620Y-93111811D01*
X184438053Y-93085640D01*
X184303907Y-93085640D01*
X184172340Y-93111811D01*
X184048406Y-93163146D01*
X183936868Y-93237673D01*
X183842013Y-93332528D01*
X183767486Y-93444066D01*
X183716151Y-93568000D01*
X183689980Y-93699567D01*
X175555453Y-93699567D01*
X175533829Y-93590860D01*
X175482494Y-93466926D01*
X175407967Y-93355388D01*
X175313112Y-93260533D01*
X175201574Y-93186006D01*
X175077640Y-93134671D01*
X174946073Y-93108500D01*
X174811927Y-93108500D01*
X174680360Y-93134671D01*
X174556426Y-93186006D01*
X174498000Y-93225045D01*
X174439574Y-93186006D01*
X174315640Y-93134671D01*
X174184073Y-93108500D01*
X174049927Y-93108500D01*
X173918360Y-93134671D01*
X173794426Y-93186006D01*
X173682888Y-93260533D01*
X173588033Y-93355388D01*
X173513506Y-93466926D01*
X173462171Y-93590860D01*
X173436000Y-93722427D01*
X173017474Y-93722427D01*
X172993829Y-93603560D01*
X172942494Y-93479626D01*
X172867967Y-93368088D01*
X172773112Y-93273233D01*
X172661574Y-93198706D01*
X172537640Y-93147371D01*
X172406073Y-93121200D01*
X172271927Y-93121200D01*
X172140360Y-93147371D01*
X172016426Y-93198706D01*
X171904888Y-93273233D01*
X171810033Y-93368088D01*
X171735506Y-93479626D01*
X171684171Y-93603560D01*
X171658000Y-93735127D01*
X155651000Y-93735127D01*
X155651000Y-93467389D01*
X155574871Y-93084664D01*
X155425539Y-92724145D01*
X155208743Y-92399686D01*
X155183211Y-92374154D01*
X162745000Y-92374154D01*
X162745000Y-92537846D01*
X162776935Y-92698394D01*
X162839577Y-92849626D01*
X162930520Y-92985732D01*
X163046268Y-93101480D01*
X163182374Y-93192423D01*
X163333606Y-93255065D01*
X163494154Y-93287000D01*
X163657846Y-93287000D01*
X163818394Y-93255065D01*
X163969626Y-93192423D01*
X164105732Y-93101480D01*
X164221480Y-92985732D01*
X164312423Y-92849626D01*
X164375065Y-92698394D01*
X164407000Y-92537846D01*
X164407000Y-92374154D01*
X164375065Y-92213606D01*
X164312423Y-92062374D01*
X164221480Y-91926268D01*
X164105732Y-91810520D01*
X163969626Y-91719577D01*
X163899252Y-91690427D01*
X173499500Y-91690427D01*
X173499500Y-91824573D01*
X173525671Y-91956140D01*
X173577006Y-92080074D01*
X173651533Y-92191612D01*
X173746388Y-92286467D01*
X173857926Y-92360994D01*
X173981860Y-92412329D01*
X174113427Y-92438500D01*
X174247573Y-92438500D01*
X174379140Y-92412329D01*
X174503074Y-92360994D01*
X174614612Y-92286467D01*
X174709467Y-92191612D01*
X174783994Y-92080074D01*
X174835329Y-91956140D01*
X174861500Y-91824573D01*
X174861500Y-91690427D01*
X174835329Y-91558860D01*
X174783994Y-91434926D01*
X174709467Y-91323388D01*
X174614612Y-91228533D01*
X174503074Y-91154006D01*
X174379140Y-91102671D01*
X174247573Y-91076500D01*
X174113427Y-91076500D01*
X173981860Y-91102671D01*
X173857926Y-91154006D01*
X173746388Y-91228533D01*
X173651533Y-91323388D01*
X173577006Y-91434926D01*
X173525671Y-91558860D01*
X173499500Y-91690427D01*
X163899252Y-91690427D01*
X163818394Y-91656935D01*
X163657846Y-91625000D01*
X163494154Y-91625000D01*
X163333606Y-91656935D01*
X163182374Y-91719577D01*
X163046268Y-91810520D01*
X162930520Y-91926268D01*
X162839577Y-92062374D01*
X162776935Y-92213606D01*
X162745000Y-92374154D01*
X155183211Y-92374154D01*
X154932814Y-92123757D01*
X154608355Y-91906961D01*
X154247836Y-91757629D01*
X153865111Y-91681500D01*
X153474889Y-91681500D01*
X153092164Y-91757629D01*
X152731645Y-91906961D01*
X152407186Y-92123757D01*
X152131257Y-92399686D01*
X151914461Y-92724145D01*
X151765129Y-93084664D01*
X151689000Y-93467389D01*
X150460169Y-93467389D01*
X150476356Y-93302304D01*
X150678982Y-92631176D01*
X151008102Y-92012190D01*
X151451184Y-91468916D01*
X151991347Y-91022054D01*
X152608022Y-90688619D01*
X153277716Y-90481314D01*
X153994053Y-90406024D01*
X154000834Y-90406000D01*
X195980147Y-90406000D01*
X196697696Y-90476356D01*
%TA.AperFunction,Conductor*%
D15*
G36*
X196697696Y-90476356D02*
G01*
X197368824Y-90678982D01*
X197987810Y-91008102D01*
X198531084Y-91451184D01*
X198977946Y-91991347D01*
X199311381Y-92608022D01*
X199518686Y-93277716D01*
X199593976Y-93994053D01*
X199594001Y-94001122D01*
X199594001Y-108967822D01*
X199541098Y-108840103D01*
X199406380Y-108638483D01*
X199234917Y-108467020D01*
X199033297Y-108332302D01*
X198809269Y-108239507D01*
X198571443Y-108192200D01*
X198328957Y-108192200D01*
X198091131Y-108239507D01*
X197867103Y-108332302D01*
X197665483Y-108467020D01*
X197494020Y-108638483D01*
X197409242Y-108765363D01*
X197334912Y-108691033D01*
X197223374Y-108616506D01*
X197099440Y-108565171D01*
X196967873Y-108539000D01*
X196833727Y-108539000D01*
X196702160Y-108565171D01*
X196578226Y-108616506D01*
X196466688Y-108691033D01*
X196371833Y-108785888D01*
X196297306Y-108897426D01*
X196245971Y-109021360D01*
X196219800Y-109152927D01*
X196219800Y-109287073D01*
X196245971Y-109418640D01*
X196297306Y-109542574D01*
X196371833Y-109654112D01*
X196466688Y-109748967D01*
X196578226Y-109823494D01*
X196702160Y-109874829D01*
X196833727Y-109901000D01*
X196967873Y-109901000D01*
X197099440Y-109874829D01*
X197223374Y-109823494D01*
X197270531Y-109791985D01*
X197359302Y-110006297D01*
X197494020Y-110207917D01*
X197665483Y-110379380D01*
X197867103Y-110514098D01*
X198091131Y-110606893D01*
X198328957Y-110654200D01*
X198571443Y-110654200D01*
X198809269Y-110606893D01*
X199033297Y-110514098D01*
X199234917Y-110379380D01*
X199406380Y-110207917D01*
X199541098Y-110006297D01*
X199594001Y-109878578D01*
X199594001Y-111507822D01*
X199541098Y-111380103D01*
X199406380Y-111178483D01*
X199234917Y-111007020D01*
X199033297Y-110872302D01*
X198809269Y-110779507D01*
X198571443Y-110732200D01*
X198328957Y-110732200D01*
X198091131Y-110779507D01*
X197867103Y-110872302D01*
X197665483Y-111007020D01*
X197494020Y-111178483D01*
X197359302Y-111380103D01*
X197266507Y-111604131D01*
X197219200Y-111841957D01*
X197219200Y-112084443D01*
X197266507Y-112322269D01*
X197359302Y-112546297D01*
X197494020Y-112747917D01*
X197665483Y-112919380D01*
X197867103Y-113054098D01*
X198091131Y-113146893D01*
X198328957Y-113194200D01*
X198571443Y-113194200D01*
X198809269Y-113146893D01*
X199033297Y-113054098D01*
X199234917Y-112919380D01*
X199406380Y-112747917D01*
X199541098Y-112546297D01*
X199594001Y-112418578D01*
X199594001Y-114047822D01*
X199541098Y-113920103D01*
X199406380Y-113718483D01*
X199234917Y-113547020D01*
X199033297Y-113412302D01*
X198809269Y-113319507D01*
X198571443Y-113272200D01*
X198328957Y-113272200D01*
X198091131Y-113319507D01*
X197867103Y-113412302D01*
X197665483Y-113547020D01*
X197494020Y-113718483D01*
X197359302Y-113920103D01*
X197266507Y-114144131D01*
X197219200Y-114381957D01*
X197219200Y-114624443D01*
X197266507Y-114862269D01*
X197359302Y-115086297D01*
X197494020Y-115287917D01*
X197665483Y-115459380D01*
X197867103Y-115594098D01*
X198091131Y-115686893D01*
X198328957Y-115734200D01*
X198571443Y-115734200D01*
X198809269Y-115686893D01*
X199033297Y-115594098D01*
X199234917Y-115459380D01*
X199406380Y-115287917D01*
X199541098Y-115086297D01*
X199594001Y-114958578D01*
X199594000Y-115950624D01*
X199570911Y-115922489D01*
X199512896Y-115874878D01*
X199446708Y-115839499D01*
X199374889Y-115817713D01*
X199300200Y-115810357D01*
X197600200Y-115810357D01*
X197525511Y-115817713D01*
X197453692Y-115839499D01*
X197387504Y-115874878D01*
X197329489Y-115922489D01*
X197281878Y-115980504D01*
X197246499Y-116046692D01*
X197224713Y-116118511D01*
X197217357Y-116193200D01*
X197217357Y-117893200D01*
X197224713Y-117967889D01*
X197246499Y-118039708D01*
X197281878Y-118105896D01*
X197329489Y-118163911D01*
X197387504Y-118211522D01*
X197453692Y-118246901D01*
X197525511Y-118268687D01*
X197600200Y-118276043D01*
X199300200Y-118276043D01*
X199374889Y-118268687D01*
X199446708Y-118246901D01*
X199512896Y-118211522D01*
X199570911Y-118163911D01*
X199594000Y-118135776D01*
X199594000Y-135980146D01*
X199523644Y-136697696D01*
X199321017Y-137368828D01*
X198991896Y-137987814D01*
X198548815Y-138531084D01*
X198008652Y-138977946D01*
X197391977Y-139311381D01*
X196722284Y-139518686D01*
X196005947Y-139593976D01*
X195999166Y-139594000D01*
X154019854Y-139594000D01*
X153302304Y-139523644D01*
X152631172Y-139321017D01*
X152012186Y-138991896D01*
X151468916Y-138548815D01*
X151022054Y-138008652D01*
X150688619Y-137391977D01*
X150481314Y-136722284D01*
X150420050Y-136139389D01*
X151689000Y-136139389D01*
X151689000Y-136529611D01*
X151765129Y-136912336D01*
X151914461Y-137272855D01*
X152131257Y-137597314D01*
X152407186Y-137873243D01*
X152731645Y-138090039D01*
X153092164Y-138239371D01*
X153474889Y-138315500D01*
X153865111Y-138315500D01*
X154247836Y-138239371D01*
X154608355Y-138090039D01*
X154932814Y-137873243D01*
X155208743Y-137597314D01*
X155425539Y-137272855D01*
X155574871Y-136912336D01*
X155651000Y-136529611D01*
X155651000Y-136139389D01*
X155574871Y-135756664D01*
X155425539Y-135396145D01*
X155208743Y-135071686D01*
X155062757Y-134925700D01*
X158787157Y-134925700D01*
X158787157Y-136625700D01*
X158794513Y-136700389D01*
X158816299Y-136772208D01*
X158851678Y-136838396D01*
X158899289Y-136896411D01*
X158957304Y-136944022D01*
X159023492Y-136979401D01*
X159095311Y-137001187D01*
X159170000Y-137008543D01*
X160870000Y-137008543D01*
X160944689Y-137001187D01*
X161016508Y-136979401D01*
X161082696Y-136944022D01*
X161140711Y-136896411D01*
X161188322Y-136838396D01*
X161223701Y-136772208D01*
X161245487Y-136700389D01*
X161252843Y-136625700D01*
X161252843Y-135654457D01*
X161329000Y-135654457D01*
X161329000Y-135896943D01*
X161376307Y-136134769D01*
X161469102Y-136358797D01*
X161603820Y-136560417D01*
X161775283Y-136731880D01*
X161976903Y-136866598D01*
X162200931Y-136959393D01*
X162438757Y-137006700D01*
X162681243Y-137006700D01*
X162919069Y-136959393D01*
X163143097Y-136866598D01*
X163344717Y-136731880D01*
X163516180Y-136560417D01*
X163650898Y-136358797D01*
X163743693Y-136134769D01*
X163791000Y-135896943D01*
X163791000Y-135654457D01*
X163869000Y-135654457D01*
X163869000Y-135896943D01*
X163916307Y-136134769D01*
X164009102Y-136358797D01*
X164143820Y-136560417D01*
X164315283Y-136731880D01*
X164516903Y-136866598D01*
X164740931Y-136959393D01*
X164978757Y-137006700D01*
X165221243Y-137006700D01*
X165459069Y-136959393D01*
X165683097Y-136866598D01*
X165884717Y-136731880D01*
X166056180Y-136560417D01*
X166190898Y-136358797D01*
X166283693Y-136134769D01*
X166331000Y-135896943D01*
X166331000Y-135654457D01*
X166409000Y-135654457D01*
X166409000Y-135896943D01*
X166456307Y-136134769D01*
X166549102Y-136358797D01*
X166683820Y-136560417D01*
X166855283Y-136731880D01*
X167056903Y-136866598D01*
X167280931Y-136959393D01*
X167518757Y-137006700D01*
X167761243Y-137006700D01*
X167999069Y-136959393D01*
X168223097Y-136866598D01*
X168424717Y-136731880D01*
X168596180Y-136560417D01*
X168730898Y-136358797D01*
X168823693Y-136134769D01*
X168871000Y-135896943D01*
X168871000Y-135654457D01*
X168823693Y-135416631D01*
X168730898Y-135192603D01*
X168596180Y-134990983D01*
X168556297Y-134951100D01*
X181431257Y-134951100D01*
X181431257Y-136651100D01*
X181438613Y-136725789D01*
X181460399Y-136797608D01*
X181495778Y-136863796D01*
X181543389Y-136921811D01*
X181601404Y-136969422D01*
X181667592Y-137004801D01*
X181739411Y-137026587D01*
X181814100Y-137033943D01*
X183514100Y-137033943D01*
X183588789Y-137026587D01*
X183660608Y-137004801D01*
X183726796Y-136969422D01*
X183784811Y-136921811D01*
X183832422Y-136863796D01*
X183867801Y-136797608D01*
X183889587Y-136725789D01*
X183896943Y-136651100D01*
X183896943Y-135679857D01*
X183973100Y-135679857D01*
X183973100Y-135922343D01*
X184020407Y-136160169D01*
X184113202Y-136384197D01*
X184247920Y-136585817D01*
X184419383Y-136757280D01*
X184621003Y-136891998D01*
X184845031Y-136984793D01*
X185082857Y-137032100D01*
X185325343Y-137032100D01*
X185563169Y-136984793D01*
X185787197Y-136891998D01*
X185988817Y-136757280D01*
X186160280Y-136585817D01*
X186294998Y-136384197D01*
X186387793Y-136160169D01*
X186435100Y-135922343D01*
X186435100Y-135679857D01*
X186513100Y-135679857D01*
X186513100Y-135922343D01*
X186560407Y-136160169D01*
X186653202Y-136384197D01*
X186787920Y-136585817D01*
X186959383Y-136757280D01*
X187161003Y-136891998D01*
X187385031Y-136984793D01*
X187622857Y-137032100D01*
X187865343Y-137032100D01*
X188103169Y-136984793D01*
X188327197Y-136891998D01*
X188528817Y-136757280D01*
X188700280Y-136585817D01*
X188834998Y-136384197D01*
X188927793Y-136160169D01*
X188975100Y-135922343D01*
X188975100Y-135679857D01*
X189053100Y-135679857D01*
X189053100Y-135922343D01*
X189100407Y-136160169D01*
X189193202Y-136384197D01*
X189327920Y-136585817D01*
X189499383Y-136757280D01*
X189701003Y-136891998D01*
X189925031Y-136984793D01*
X190162857Y-137032100D01*
X190405343Y-137032100D01*
X190643169Y-136984793D01*
X190867197Y-136891998D01*
X191068817Y-136757280D01*
X191240280Y-136585817D01*
X191374998Y-136384197D01*
X191467793Y-136160169D01*
X191471926Y-136139389D01*
X194361000Y-136139389D01*
X194361000Y-136529611D01*
X194437129Y-136912336D01*
X194586461Y-137272855D01*
X194803257Y-137597314D01*
X195079186Y-137873243D01*
X195403645Y-138090039D01*
X195764164Y-138239371D01*
X196146889Y-138315500D01*
X196537111Y-138315500D01*
X196919836Y-138239371D01*
X197280355Y-138090039D01*
X197604814Y-137873243D01*
X197880743Y-137597314D01*
X198097539Y-137272855D01*
X198246871Y-136912336D01*
X198323000Y-136529611D01*
X198323000Y-136139389D01*
X198246871Y-135756664D01*
X198097539Y-135396145D01*
X197880743Y-135071686D01*
X197604814Y-134795757D01*
X197280355Y-134578961D01*
X196919836Y-134429629D01*
X196537111Y-134353500D01*
X196146889Y-134353500D01*
X195764164Y-134429629D01*
X195403645Y-134578961D01*
X195079186Y-134795757D01*
X194803257Y-135071686D01*
X194586461Y-135396145D01*
X194437129Y-135756664D01*
X194361000Y-136139389D01*
X191471926Y-136139389D01*
X191515100Y-135922343D01*
X191515100Y-135679857D01*
X191467793Y-135442031D01*
X191374998Y-135218003D01*
X191240280Y-135016383D01*
X191068817Y-134844920D01*
X190867197Y-134710202D01*
X190643169Y-134617407D01*
X190405343Y-134570100D01*
X190162857Y-134570100D01*
X189925031Y-134617407D01*
X189701003Y-134710202D01*
X189499383Y-134844920D01*
X189327920Y-135016383D01*
X189193202Y-135218003D01*
X189100407Y-135442031D01*
X189053100Y-135679857D01*
X188975100Y-135679857D01*
X188927793Y-135442031D01*
X188834998Y-135218003D01*
X188700280Y-135016383D01*
X188528817Y-134844920D01*
X188327197Y-134710202D01*
X188103169Y-134617407D01*
X187865343Y-134570100D01*
X187622857Y-134570100D01*
X187385031Y-134617407D01*
X187161003Y-134710202D01*
X186959383Y-134844920D01*
X186787920Y-135016383D01*
X186653202Y-135218003D01*
X186560407Y-135442031D01*
X186513100Y-135679857D01*
X186435100Y-135679857D01*
X186387793Y-135442031D01*
X186294998Y-135218003D01*
X186160280Y-135016383D01*
X185988817Y-134844920D01*
X185787197Y-134710202D01*
X185563169Y-134617407D01*
X185325343Y-134570100D01*
X185082857Y-134570100D01*
X184845031Y-134617407D01*
X184621003Y-134710202D01*
X184419383Y-134844920D01*
X184247920Y-135016383D01*
X184113202Y-135218003D01*
X184020407Y-135442031D01*
X183973100Y-135679857D01*
X183896943Y-135679857D01*
X183896943Y-134951100D01*
X183889587Y-134876411D01*
X183867801Y-134804592D01*
X183832422Y-134738404D01*
X183784811Y-134680389D01*
X183726796Y-134632778D01*
X183660608Y-134597399D01*
X183588789Y-134575613D01*
X183514100Y-134568257D01*
X181814100Y-134568257D01*
X181739411Y-134575613D01*
X181667592Y-134597399D01*
X181601404Y-134632778D01*
X181543389Y-134680389D01*
X181495778Y-134738404D01*
X181460399Y-134804592D01*
X181438613Y-134876411D01*
X181431257Y-134951100D01*
X168556297Y-134951100D01*
X168424717Y-134819520D01*
X168223097Y-134684802D01*
X167999069Y-134592007D01*
X167761243Y-134544700D01*
X167518757Y-134544700D01*
X167280931Y-134592007D01*
X167056903Y-134684802D01*
X166855283Y-134819520D01*
X166683820Y-134990983D01*
X166549102Y-135192603D01*
X166456307Y-135416631D01*
X166409000Y-135654457D01*
X166331000Y-135654457D01*
X166283693Y-135416631D01*
X166190898Y-135192603D01*
X166056180Y-134990983D01*
X165884717Y-134819520D01*
X165683097Y-134684802D01*
X165459069Y-134592007D01*
X165221243Y-134544700D01*
X164978757Y-134544700D01*
X164740931Y-134592007D01*
X164516903Y-134684802D01*
X164315283Y-134819520D01*
X164143820Y-134990983D01*
X164009102Y-135192603D01*
X163916307Y-135416631D01*
X163869000Y-135654457D01*
X163791000Y-135654457D01*
X163743693Y-135416631D01*
X163650898Y-135192603D01*
X163516180Y-134990983D01*
X163344717Y-134819520D01*
X163143097Y-134684802D01*
X162919069Y-134592007D01*
X162681243Y-134544700D01*
X162438757Y-134544700D01*
X162200931Y-134592007D01*
X161976903Y-134684802D01*
X161775283Y-134819520D01*
X161603820Y-134990983D01*
X161469102Y-135192603D01*
X161376307Y-135416631D01*
X161329000Y-135654457D01*
X161252843Y-135654457D01*
X161252843Y-134925700D01*
X161245487Y-134851011D01*
X161223701Y-134779192D01*
X161188322Y-134713004D01*
X161140711Y-134654989D01*
X161082696Y-134607378D01*
X161016508Y-134571999D01*
X160944689Y-134550213D01*
X160870000Y-134542857D01*
X159170000Y-134542857D01*
X159095311Y-134550213D01*
X159023492Y-134571999D01*
X158957304Y-134607378D01*
X158899289Y-134654989D01*
X158851678Y-134713004D01*
X158816299Y-134779192D01*
X158794513Y-134851011D01*
X158787157Y-134925700D01*
X155062757Y-134925700D01*
X154932814Y-134795757D01*
X154608355Y-134578961D01*
X154247836Y-134429629D01*
X153865111Y-134353500D01*
X153474889Y-134353500D01*
X153092164Y-134429629D01*
X152731645Y-134578961D01*
X152407186Y-134795757D01*
X152131257Y-135071686D01*
X151914461Y-135396145D01*
X151765129Y-135756664D01*
X151689000Y-136139389D01*
X150420050Y-136139389D01*
X150406024Y-136005947D01*
X150406000Y-135999166D01*
X150406000Y-132455354D01*
X157563400Y-132455354D01*
X157563400Y-132619046D01*
X157595335Y-132779594D01*
X157657977Y-132930826D01*
X157748920Y-133066932D01*
X157864668Y-133182680D01*
X158000774Y-133273623D01*
X158152006Y-133336265D01*
X158312554Y-133368200D01*
X158476246Y-133368200D01*
X158636794Y-133336265D01*
X158788026Y-133273623D01*
X158924132Y-133182680D01*
X159039880Y-133066932D01*
X159130823Y-132930826D01*
X159193465Y-132779594D01*
X159225400Y-132619046D01*
X159225400Y-132455354D01*
X159193465Y-132294806D01*
X159130823Y-132143574D01*
X159039880Y-132007468D01*
X158924132Y-131891720D01*
X158788026Y-131800777D01*
X158636794Y-131738135D01*
X158476246Y-131706200D01*
X158312554Y-131706200D01*
X158152006Y-131738135D01*
X158000774Y-131800777D01*
X157864668Y-131891720D01*
X157748920Y-132007468D01*
X157657977Y-132143574D01*
X157595335Y-132294806D01*
X157563400Y-132455354D01*
X150406000Y-132455354D01*
X150406000Y-130880554D01*
X180423400Y-130880554D01*
X180423400Y-131044246D01*
X180455335Y-131204794D01*
X180517977Y-131356026D01*
X180608920Y-131492132D01*
X180724668Y-131607880D01*
X180860774Y-131698823D01*
X181012006Y-131761465D01*
X181172554Y-131793400D01*
X181336246Y-131793400D01*
X181496794Y-131761465D01*
X181648026Y-131698823D01*
X181784132Y-131607880D01*
X181899880Y-131492132D01*
X181990823Y-131356026D01*
X182053465Y-131204794D01*
X182067436Y-131134554D01*
X188754600Y-131134554D01*
X188754600Y-131298246D01*
X188786535Y-131458794D01*
X188849177Y-131610026D01*
X188940120Y-131746132D01*
X189055868Y-131861880D01*
X189191974Y-131952823D01*
X189343206Y-132015465D01*
X189503754Y-132047400D01*
X189667446Y-132047400D01*
X189827994Y-132015465D01*
X189979226Y-131952823D01*
X190115332Y-131861880D01*
X190231080Y-131746132D01*
X190322023Y-131610026D01*
X190384665Y-131458794D01*
X190416600Y-131298246D01*
X190416600Y-131272304D01*
X192702350Y-131272304D01*
X192702350Y-131435996D01*
X192734285Y-131596544D01*
X192796927Y-131747776D01*
X192887870Y-131883882D01*
X193003618Y-131999630D01*
X193139724Y-132090573D01*
X193290956Y-132153215D01*
X193451504Y-132185150D01*
X193615196Y-132185150D01*
X193775744Y-132153215D01*
X193926976Y-132090573D01*
X194063082Y-131999630D01*
X194178830Y-131883882D01*
X194269773Y-131747776D01*
X194332415Y-131596544D01*
X194364350Y-131435996D01*
X194364350Y-131272304D01*
X194332415Y-131111756D01*
X194269773Y-130960524D01*
X194178830Y-130824418D01*
X194063082Y-130708670D01*
X193926976Y-130617727D01*
X193775744Y-130555085D01*
X193615196Y-130523150D01*
X193451504Y-130523150D01*
X193290956Y-130555085D01*
X193139724Y-130617727D01*
X193003618Y-130708670D01*
X192887870Y-130824418D01*
X192796927Y-130960524D01*
X192734285Y-131111756D01*
X192702350Y-131272304D01*
X190416600Y-131272304D01*
X190416600Y-131134554D01*
X190384665Y-130974006D01*
X190322023Y-130822774D01*
X190231080Y-130686668D01*
X190115332Y-130570920D01*
X189979226Y-130479977D01*
X189827994Y-130417335D01*
X189667446Y-130385400D01*
X189503754Y-130385400D01*
X189343206Y-130417335D01*
X189191974Y-130479977D01*
X189055868Y-130570920D01*
X188940120Y-130686668D01*
X188849177Y-130822774D01*
X188786535Y-130974006D01*
X188754600Y-131134554D01*
X182067436Y-131134554D01*
X182085400Y-131044246D01*
X182085400Y-130880554D01*
X182053465Y-130720006D01*
X181990823Y-130568774D01*
X181899880Y-130432668D01*
X181784132Y-130316920D01*
X181648026Y-130225977D01*
X181496794Y-130163335D01*
X181336246Y-130131400D01*
X181172554Y-130131400D01*
X181012006Y-130163335D01*
X180860774Y-130225977D01*
X180724668Y-130316920D01*
X180608920Y-130432668D01*
X180517977Y-130568774D01*
X180455335Y-130720006D01*
X180423400Y-130880554D01*
X150406000Y-130880554D01*
X150406000Y-129572454D01*
X163634000Y-129572454D01*
X163634000Y-129736146D01*
X163665935Y-129896694D01*
X163728577Y-130047926D01*
X163819520Y-130184032D01*
X163935268Y-130299780D01*
X164071374Y-130390723D01*
X164222606Y-130453365D01*
X164383154Y-130485300D01*
X164546846Y-130485300D01*
X164707394Y-130453365D01*
X164858626Y-130390723D01*
X164994732Y-130299780D01*
X165110480Y-130184032D01*
X165201423Y-130047926D01*
X165264065Y-129896694D01*
X165296000Y-129736146D01*
X165296000Y-129572454D01*
X165264065Y-129411906D01*
X165201423Y-129260674D01*
X165110480Y-129124568D01*
X164994732Y-129008820D01*
X164858626Y-128917877D01*
X164707394Y-128855235D01*
X164546846Y-128823300D01*
X164383154Y-128823300D01*
X164222606Y-128855235D01*
X164071374Y-128917877D01*
X163935268Y-129008820D01*
X163819520Y-129124568D01*
X163728577Y-129260674D01*
X163665935Y-129411906D01*
X163634000Y-129572454D01*
X150406000Y-129572454D01*
X150406000Y-128202927D01*
X152531800Y-128202927D01*
X152531800Y-128337073D01*
X152557971Y-128468640D01*
X152609306Y-128592574D01*
X152683833Y-128704112D01*
X152778688Y-128798967D01*
X152890226Y-128873494D01*
X153014160Y-128924829D01*
X153145727Y-128951000D01*
X153279873Y-128951000D01*
X153411440Y-128924829D01*
X153535374Y-128873494D01*
X153646912Y-128798967D01*
X153741767Y-128704112D01*
X153816294Y-128592574D01*
X153867629Y-128468640D01*
X153893800Y-128337073D01*
X153893800Y-128202927D01*
X153867629Y-128071360D01*
X153816294Y-127947426D01*
X153741767Y-127835888D01*
X153646912Y-127741033D01*
X153535374Y-127666506D01*
X153411440Y-127615171D01*
X153279873Y-127589000D01*
X153145727Y-127589000D01*
X153014160Y-127615171D01*
X152890226Y-127666506D01*
X152778688Y-127741033D01*
X152683833Y-127835888D01*
X152609306Y-127947426D01*
X152557971Y-128071360D01*
X152531800Y-128202927D01*
X150406000Y-128202927D01*
X150406000Y-125256527D01*
X152531800Y-125256527D01*
X152531800Y-125390673D01*
X152557971Y-125522240D01*
X152609306Y-125646174D01*
X152683833Y-125757712D01*
X152778688Y-125852567D01*
X152890226Y-125927094D01*
X153014160Y-125978429D01*
X153145727Y-126004600D01*
X153279873Y-126004600D01*
X153411440Y-125978429D01*
X153535374Y-125927094D01*
X153646912Y-125852567D01*
X153741767Y-125757712D01*
X153816294Y-125646174D01*
X153867629Y-125522240D01*
X153893800Y-125390673D01*
X153893800Y-125256527D01*
X153867629Y-125124960D01*
X153816294Y-125001026D01*
X153741767Y-124889488D01*
X153702406Y-124850127D01*
X196169000Y-124850127D01*
X196169000Y-124984273D01*
X196195171Y-125115840D01*
X196246506Y-125239774D01*
X196321033Y-125351312D01*
X196415888Y-125446167D01*
X196527426Y-125520694D01*
X196651360Y-125572029D01*
X196782927Y-125598200D01*
X196917073Y-125598200D01*
X197048640Y-125572029D01*
X197172574Y-125520694D01*
X197284112Y-125446167D01*
X197378967Y-125351312D01*
X197453494Y-125239774D01*
X197504829Y-125115840D01*
X197531000Y-124984273D01*
X197531000Y-124850127D01*
X197504829Y-124718560D01*
X197453494Y-124594626D01*
X197378967Y-124483088D01*
X197284112Y-124388233D01*
X197172574Y-124313706D01*
X197048640Y-124262371D01*
X196917073Y-124236200D01*
X196782927Y-124236200D01*
X196651360Y-124262371D01*
X196527426Y-124313706D01*
X196415888Y-124388233D01*
X196321033Y-124483088D01*
X196246506Y-124594626D01*
X196195171Y-124718560D01*
X196169000Y-124850127D01*
X153702406Y-124850127D01*
X153646912Y-124794633D01*
X153535374Y-124720106D01*
X153411440Y-124668771D01*
X153279873Y-124642600D01*
X153145727Y-124642600D01*
X153014160Y-124668771D01*
X152890226Y-124720106D01*
X152778688Y-124794633D01*
X152683833Y-124889488D01*
X152609306Y-125001026D01*
X152557971Y-125124960D01*
X152531800Y-125256527D01*
X150406000Y-125256527D01*
X150406000Y-123856154D01*
X156072500Y-123856154D01*
X156072500Y-124019846D01*
X156104435Y-124180394D01*
X156167077Y-124331626D01*
X156258020Y-124467732D01*
X156373768Y-124583480D01*
X156509874Y-124674423D01*
X156661106Y-124737065D01*
X156821654Y-124769000D01*
X156985346Y-124769000D01*
X157145894Y-124737065D01*
X157297126Y-124674423D01*
X157433232Y-124583480D01*
X157548980Y-124467732D01*
X157639923Y-124331626D01*
X157702565Y-124180394D01*
X157734500Y-124019846D01*
X157734500Y-123875154D01*
X177472000Y-123875154D01*
X177472000Y-124038846D01*
X177503935Y-124199394D01*
X177566577Y-124350626D01*
X177657520Y-124486732D01*
X177773268Y-124602480D01*
X177909374Y-124693423D01*
X178060606Y-124756065D01*
X178221154Y-124788000D01*
X178384846Y-124788000D01*
X178545394Y-124756065D01*
X178696626Y-124693423D01*
X178832732Y-124602480D01*
X178948480Y-124486732D01*
X179039423Y-124350626D01*
X179102065Y-124199394D01*
X179134000Y-124038846D01*
X179134000Y-123884927D01*
X182656200Y-123884927D01*
X182656200Y-124019073D01*
X182682371Y-124150640D01*
X182733706Y-124274574D01*
X182808233Y-124386112D01*
X182903088Y-124480967D01*
X183014626Y-124555494D01*
X183138560Y-124606829D01*
X183270127Y-124633000D01*
X183404273Y-124633000D01*
X183535840Y-124606829D01*
X183659774Y-124555494D01*
X183769000Y-124482512D01*
X183878226Y-124555494D01*
X184002160Y-124606829D01*
X184133727Y-124633000D01*
X184267873Y-124633000D01*
X184399440Y-124606829D01*
X184523374Y-124555494D01*
X184634912Y-124480967D01*
X184729767Y-124386112D01*
X184804294Y-124274574D01*
X184855629Y-124150640D01*
X184881800Y-124019073D01*
X184881800Y-123884927D01*
X184855629Y-123753360D01*
X184804294Y-123629426D01*
X184729767Y-123517888D01*
X184634912Y-123423033D01*
X184523374Y-123348506D01*
X184399440Y-123297171D01*
X184267873Y-123271000D01*
X184133727Y-123271000D01*
X184002160Y-123297171D01*
X183878226Y-123348506D01*
X183769000Y-123421488D01*
X183659774Y-123348506D01*
X183535840Y-123297171D01*
X183404273Y-123271000D01*
X183270127Y-123271000D01*
X183138560Y-123297171D01*
X183014626Y-123348506D01*
X182903088Y-123423033D01*
X182808233Y-123517888D01*
X182733706Y-123629426D01*
X182682371Y-123753360D01*
X182656200Y-123884927D01*
X179134000Y-123884927D01*
X179134000Y-123875154D01*
X179102065Y-123714606D01*
X179039423Y-123563374D01*
X178948480Y-123427268D01*
X178832732Y-123311520D01*
X178696626Y-123220577D01*
X178545394Y-123157935D01*
X178384846Y-123126000D01*
X178221154Y-123126000D01*
X178060606Y-123157935D01*
X177909374Y-123220577D01*
X177773268Y-123311520D01*
X177657520Y-123427268D01*
X177566577Y-123563374D01*
X177503935Y-123714606D01*
X177472000Y-123875154D01*
X157734500Y-123875154D01*
X157734500Y-123856154D01*
X157702565Y-123695606D01*
X157639923Y-123544374D01*
X157548980Y-123408268D01*
X157433232Y-123292520D01*
X157297126Y-123201577D01*
X157145894Y-123138935D01*
X156985346Y-123107000D01*
X156821654Y-123107000D01*
X156661106Y-123138935D01*
X156509874Y-123201577D01*
X156373768Y-123292520D01*
X156258020Y-123408268D01*
X156167077Y-123544374D01*
X156104435Y-123695606D01*
X156072500Y-123856154D01*
X150406000Y-123856154D01*
X150406000Y-118688554D01*
X155074200Y-118688554D01*
X155074200Y-118852246D01*
X155106135Y-119012794D01*
X155168777Y-119164026D01*
X155259720Y-119300132D01*
X155375468Y-119415880D01*
X155511574Y-119506823D01*
X155662806Y-119569465D01*
X155823354Y-119601400D01*
X155987046Y-119601400D01*
X156147594Y-119569465D01*
X156298826Y-119506823D01*
X156434932Y-119415880D01*
X156550680Y-119300132D01*
X156641623Y-119164026D01*
X156704265Y-119012794D01*
X156715298Y-118957327D01*
X160964600Y-118957327D01*
X160964600Y-119091473D01*
X160990771Y-119223040D01*
X161042106Y-119346974D01*
X161116633Y-119458512D01*
X161211488Y-119553367D01*
X161323026Y-119627894D01*
X161446960Y-119679229D01*
X161578527Y-119705400D01*
X161712673Y-119705400D01*
X161844240Y-119679229D01*
X161968174Y-119627894D01*
X162079712Y-119553367D01*
X162174567Y-119458512D01*
X162249094Y-119346974D01*
X162263196Y-119312927D01*
X168330600Y-119312927D01*
X168330600Y-119447073D01*
X168356771Y-119578640D01*
X168408106Y-119702574D01*
X168482633Y-119814112D01*
X168577488Y-119908967D01*
X168689026Y-119983494D01*
X168812960Y-120034829D01*
X168944527Y-120061000D01*
X169078673Y-120061000D01*
X169210240Y-120034829D01*
X169334174Y-119983494D01*
X169445712Y-119908967D01*
X169540567Y-119814112D01*
X169615094Y-119702574D01*
X169666429Y-119578640D01*
X169692600Y-119447073D01*
X169692600Y-119348954D01*
X182099800Y-119348954D01*
X182099800Y-119512646D01*
X182131735Y-119673194D01*
X182194377Y-119824426D01*
X182285320Y-119960532D01*
X182401068Y-120076280D01*
X182537174Y-120167223D01*
X182688406Y-120229865D01*
X182848954Y-120261800D01*
X183012646Y-120261800D01*
X183173194Y-120229865D01*
X183324426Y-120167223D01*
X183460532Y-120076280D01*
X183576280Y-119960532D01*
X183667223Y-119824426D01*
X183729865Y-119673194D01*
X183761800Y-119512646D01*
X183761800Y-119348954D01*
X183729865Y-119188406D01*
X183667223Y-119037174D01*
X183576280Y-118901068D01*
X183460532Y-118785320D01*
X183324426Y-118694377D01*
X183173194Y-118631735D01*
X183012646Y-118599800D01*
X182848954Y-118599800D01*
X182688406Y-118631735D01*
X182537174Y-118694377D01*
X182401068Y-118785320D01*
X182285320Y-118901068D01*
X182194377Y-119037174D01*
X182131735Y-119188406D01*
X182099800Y-119348954D01*
X169692600Y-119348954D01*
X169692600Y-119312927D01*
X169666429Y-119181360D01*
X169615094Y-119057426D01*
X169540567Y-118945888D01*
X169445712Y-118851033D01*
X169334174Y-118776506D01*
X169210240Y-118725171D01*
X169078673Y-118699000D01*
X168944527Y-118699000D01*
X168812960Y-118725171D01*
X168689026Y-118776506D01*
X168577488Y-118851033D01*
X168482633Y-118945888D01*
X168408106Y-119057426D01*
X168356771Y-119181360D01*
X168330600Y-119312927D01*
X162263196Y-119312927D01*
X162300429Y-119223040D01*
X162326600Y-119091473D01*
X162326600Y-118957327D01*
X162300429Y-118825760D01*
X162249094Y-118701826D01*
X162174567Y-118590288D01*
X162079712Y-118495433D01*
X161968174Y-118420906D01*
X161844240Y-118369571D01*
X161712673Y-118343400D01*
X161578527Y-118343400D01*
X161446960Y-118369571D01*
X161323026Y-118420906D01*
X161211488Y-118495433D01*
X161116633Y-118590288D01*
X161042106Y-118701826D01*
X160990771Y-118825760D01*
X160964600Y-118957327D01*
X156715298Y-118957327D01*
X156736200Y-118852246D01*
X156736200Y-118688554D01*
X156704265Y-118528006D01*
X156641623Y-118376774D01*
X156550680Y-118240668D01*
X156434932Y-118124920D01*
X156298826Y-118033977D01*
X156147594Y-117971335D01*
X155987046Y-117939400D01*
X155823354Y-117939400D01*
X155662806Y-117971335D01*
X155511574Y-118033977D01*
X155375468Y-118124920D01*
X155259720Y-118240668D01*
X155168777Y-118376774D01*
X155106135Y-118528006D01*
X155074200Y-118688554D01*
X150406000Y-118688554D01*
X150406000Y-115335754D01*
X158833400Y-115335754D01*
X158833400Y-115499446D01*
X158865335Y-115659994D01*
X158927977Y-115811226D01*
X159018920Y-115947332D01*
X159134668Y-116063080D01*
X159270774Y-116154023D01*
X159422006Y-116216665D01*
X159582554Y-116248600D01*
X159746246Y-116248600D01*
X159906794Y-116216665D01*
X160037029Y-116162720D01*
X174184637Y-116162720D01*
X174184637Y-117862720D01*
X174191993Y-117937409D01*
X174213779Y-118009228D01*
X174249158Y-118075416D01*
X174296769Y-118133431D01*
X174354784Y-118181042D01*
X174420972Y-118216421D01*
X174492791Y-118238207D01*
X174567480Y-118245563D01*
X176267480Y-118245563D01*
X176342169Y-118238207D01*
X176413988Y-118216421D01*
X176480176Y-118181042D01*
X176538191Y-118133431D01*
X176585802Y-118075416D01*
X176621181Y-118009228D01*
X176642967Y-117937409D01*
X176650323Y-117862720D01*
X176650323Y-116162720D01*
X176642967Y-116088031D01*
X176621181Y-116016212D01*
X176585802Y-115950024D01*
X176538191Y-115892009D01*
X176480176Y-115844398D01*
X176413988Y-115809019D01*
X176342169Y-115787233D01*
X176267480Y-115779877D01*
X174567480Y-115779877D01*
X174492791Y-115787233D01*
X174420972Y-115809019D01*
X174354784Y-115844398D01*
X174296769Y-115892009D01*
X174249158Y-115950024D01*
X174213779Y-116016212D01*
X174191993Y-116088031D01*
X174184637Y-116162720D01*
X160037029Y-116162720D01*
X160058026Y-116154023D01*
X160194132Y-116063080D01*
X160309880Y-115947332D01*
X160400823Y-115811226D01*
X160463465Y-115659994D01*
X160495400Y-115499446D01*
X160495400Y-115335754D01*
X160463465Y-115175206D01*
X160400823Y-115023974D01*
X160309880Y-114887868D01*
X160194132Y-114772120D01*
X160058026Y-114681177D01*
X159906794Y-114618535D01*
X159746246Y-114586600D01*
X159582554Y-114586600D01*
X159422006Y-114618535D01*
X159270774Y-114681177D01*
X159134668Y-114772120D01*
X159018920Y-114887868D01*
X158927977Y-115023974D01*
X158865335Y-115175206D01*
X158833400Y-115335754D01*
X150406000Y-115335754D01*
X150406000Y-114351477D01*
X174186480Y-114351477D01*
X174186480Y-114593963D01*
X174233787Y-114831789D01*
X174326582Y-115055817D01*
X174461300Y-115257437D01*
X174632763Y-115428900D01*
X174834383Y-115563618D01*
X175058411Y-115656413D01*
X175296237Y-115703720D01*
X175538723Y-115703720D01*
X175776549Y-115656413D01*
X176000577Y-115563618D01*
X176202197Y-115428900D01*
X176373660Y-115257437D01*
X176389217Y-115234154D01*
X180423400Y-115234154D01*
X180423400Y-115397846D01*
X180455335Y-115558394D01*
X180517977Y-115709626D01*
X180608920Y-115845732D01*
X180724668Y-115961480D01*
X180860774Y-116052423D01*
X181012006Y-116115065D01*
X181172554Y-116147000D01*
X181336246Y-116147000D01*
X181496794Y-116115065D01*
X181648026Y-116052423D01*
X181784132Y-115961480D01*
X181899880Y-115845732D01*
X181990823Y-115709626D01*
X182029954Y-115615154D01*
X192738500Y-115615154D01*
X192738500Y-115778846D01*
X192770435Y-115939394D01*
X192833077Y-116090626D01*
X192924020Y-116226732D01*
X193039768Y-116342480D01*
X193175874Y-116433423D01*
X193327106Y-116496065D01*
X193487654Y-116528000D01*
X193651346Y-116528000D01*
X193811894Y-116496065D01*
X193963126Y-116433423D01*
X194099232Y-116342480D01*
X194214980Y-116226732D01*
X194305923Y-116090626D01*
X194368565Y-115939394D01*
X194400500Y-115778846D01*
X194400500Y-115615154D01*
X194368565Y-115454606D01*
X194305923Y-115303374D01*
X194214980Y-115167268D01*
X194099232Y-115051520D01*
X193963126Y-114960577D01*
X193811894Y-114897935D01*
X193651346Y-114866000D01*
X193487654Y-114866000D01*
X193327106Y-114897935D01*
X193175874Y-114960577D01*
X193039768Y-115051520D01*
X192924020Y-115167268D01*
X192833077Y-115303374D01*
X192770435Y-115454606D01*
X192738500Y-115615154D01*
X182029954Y-115615154D01*
X182053465Y-115558394D01*
X182085400Y-115397846D01*
X182085400Y-115234154D01*
X182053465Y-115073606D01*
X181990823Y-114922374D01*
X181899880Y-114786268D01*
X181784132Y-114670520D01*
X181648026Y-114579577D01*
X181496794Y-114516935D01*
X181336246Y-114485000D01*
X181172554Y-114485000D01*
X181012006Y-114516935D01*
X180860774Y-114579577D01*
X180724668Y-114670520D01*
X180608920Y-114786268D01*
X180517977Y-114922374D01*
X180455335Y-115073606D01*
X180423400Y-115234154D01*
X176389217Y-115234154D01*
X176508378Y-115055817D01*
X176601173Y-114831789D01*
X176648480Y-114593963D01*
X176648480Y-114351477D01*
X176601173Y-114113651D01*
X176508378Y-113889623D01*
X176447862Y-113799054D01*
X186697200Y-113799054D01*
X186697200Y-113962746D01*
X186729135Y-114123294D01*
X186791777Y-114274526D01*
X186882720Y-114410632D01*
X186998468Y-114526380D01*
X187134574Y-114617323D01*
X187285806Y-114679965D01*
X187446354Y-114711900D01*
X187610046Y-114711900D01*
X187770594Y-114679965D01*
X187921826Y-114617323D01*
X188057932Y-114526380D01*
X188173680Y-114410632D01*
X188264623Y-114274526D01*
X188327265Y-114123294D01*
X188359200Y-113962746D01*
X188359200Y-113799054D01*
X188327265Y-113638506D01*
X188264623Y-113487274D01*
X188173680Y-113351168D01*
X188057932Y-113235420D01*
X187921826Y-113144477D01*
X187770594Y-113081835D01*
X187610046Y-113049900D01*
X187446354Y-113049900D01*
X187285806Y-113081835D01*
X187134574Y-113144477D01*
X186998468Y-113235420D01*
X186882720Y-113351168D01*
X186791777Y-113487274D01*
X186729135Y-113638506D01*
X186697200Y-113799054D01*
X176447862Y-113799054D01*
X176373660Y-113688003D01*
X176202197Y-113516540D01*
X176000577Y-113381822D01*
X175776549Y-113289027D01*
X175538723Y-113241720D01*
X175296237Y-113241720D01*
X175058411Y-113289027D01*
X174834383Y-113381822D01*
X174632763Y-113516540D01*
X174461300Y-113688003D01*
X174326582Y-113889623D01*
X174233787Y-114113651D01*
X174186480Y-114351477D01*
X150406000Y-114351477D01*
X150406000Y-112658127D01*
X152531800Y-112658127D01*
X152531800Y-112792273D01*
X152557971Y-112923840D01*
X152609306Y-113047774D01*
X152683833Y-113159312D01*
X152778688Y-113254167D01*
X152890226Y-113328694D01*
X153014160Y-113380029D01*
X153145727Y-113406200D01*
X153279873Y-113406200D01*
X153411440Y-113380029D01*
X153535374Y-113328694D01*
X153646912Y-113254167D01*
X153741767Y-113159312D01*
X153816294Y-113047774D01*
X153867629Y-112923840D01*
X153893800Y-112792273D01*
X153893800Y-112658127D01*
X153867629Y-112526560D01*
X153816294Y-112402626D01*
X153741767Y-112291088D01*
X153646912Y-112196233D01*
X153535374Y-112121706D01*
X153411440Y-112070371D01*
X153279873Y-112044200D01*
X153145727Y-112044200D01*
X153014160Y-112070371D01*
X152890226Y-112121706D01*
X152778688Y-112196233D01*
X152683833Y-112291088D01*
X152609306Y-112402626D01*
X152557971Y-112526560D01*
X152531800Y-112658127D01*
X150406000Y-112658127D01*
X150406000Y-111811477D01*
X174186480Y-111811477D01*
X174186480Y-112053963D01*
X174233787Y-112291789D01*
X174326582Y-112515817D01*
X174461300Y-112717437D01*
X174632763Y-112888900D01*
X174834383Y-113023618D01*
X175058411Y-113116413D01*
X175296237Y-113163720D01*
X175538723Y-113163720D01*
X175776549Y-113116413D01*
X176000577Y-113023618D01*
X176202197Y-112888900D01*
X176373660Y-112717437D01*
X176508378Y-112515817D01*
X176601173Y-112291789D01*
X176648480Y-112053963D01*
X176648480Y-111811477D01*
X176601173Y-111573651D01*
X176508378Y-111349623D01*
X176373660Y-111148003D01*
X176202197Y-110976540D01*
X176000577Y-110841822D01*
X175776549Y-110749027D01*
X175538723Y-110701720D01*
X175296237Y-110701720D01*
X175058411Y-110749027D01*
X174834383Y-110841822D01*
X174632763Y-110976540D01*
X174461300Y-111148003D01*
X174326582Y-111349623D01*
X174233787Y-111573651D01*
X174186480Y-111811477D01*
X150406000Y-111811477D01*
X150406000Y-109711727D01*
X152531800Y-109711727D01*
X152531800Y-109845873D01*
X152557971Y-109977440D01*
X152609306Y-110101374D01*
X152683833Y-110212912D01*
X152778688Y-110307767D01*
X152890226Y-110382294D01*
X153014160Y-110433629D01*
X153145727Y-110459800D01*
X153279873Y-110459800D01*
X153411440Y-110433629D01*
X153535374Y-110382294D01*
X153646912Y-110307767D01*
X153658752Y-110295927D01*
X162818800Y-110295927D01*
X162818800Y-110430073D01*
X162844971Y-110561640D01*
X162896306Y-110685574D01*
X162970833Y-110797112D01*
X163065688Y-110891967D01*
X163177226Y-110966494D01*
X163301160Y-111017829D01*
X163432727Y-111044000D01*
X163566873Y-111044000D01*
X163698440Y-111017829D01*
X163822374Y-110966494D01*
X163933912Y-110891967D01*
X164028767Y-110797112D01*
X164103294Y-110685574D01*
X164154629Y-110561640D01*
X164180800Y-110430073D01*
X164180800Y-110295927D01*
X164154629Y-110164360D01*
X164103294Y-110040426D01*
X164028767Y-109928888D01*
X163933912Y-109834033D01*
X163822374Y-109759506D01*
X163698440Y-109708171D01*
X163566873Y-109682000D01*
X163432727Y-109682000D01*
X163301160Y-109708171D01*
X163177226Y-109759506D01*
X163065688Y-109834033D01*
X162970833Y-109928888D01*
X162896306Y-110040426D01*
X162844971Y-110164360D01*
X162818800Y-110295927D01*
X153658752Y-110295927D01*
X153741767Y-110212912D01*
X153816294Y-110101374D01*
X153867629Y-109977440D01*
X153893800Y-109845873D01*
X153893800Y-109711727D01*
X153867629Y-109580160D01*
X153816294Y-109456226D01*
X153741767Y-109344688D01*
X153668556Y-109271477D01*
X174186480Y-109271477D01*
X174186480Y-109513963D01*
X174233787Y-109751789D01*
X174326582Y-109975817D01*
X174461300Y-110177437D01*
X174632763Y-110348900D01*
X174834383Y-110483618D01*
X175058411Y-110576413D01*
X175296237Y-110623720D01*
X175538723Y-110623720D01*
X175776549Y-110576413D01*
X176000577Y-110483618D01*
X176202197Y-110348900D01*
X176373660Y-110177437D01*
X176508378Y-109975817D01*
X176601173Y-109751789D01*
X176648480Y-109513963D01*
X176648480Y-109271477D01*
X176601173Y-109033651D01*
X176508378Y-108809623D01*
X176373660Y-108608003D01*
X176202197Y-108436540D01*
X176000577Y-108301822D01*
X175839626Y-108235154D01*
X177472000Y-108235154D01*
X177472000Y-108398846D01*
X177503935Y-108559394D01*
X177566577Y-108710626D01*
X177657520Y-108846732D01*
X177773268Y-108962480D01*
X177909374Y-109053423D01*
X178060606Y-109116065D01*
X178221154Y-109148000D01*
X178384846Y-109148000D01*
X178545394Y-109116065D01*
X178696626Y-109053423D01*
X178832732Y-108962480D01*
X178948480Y-108846732D01*
X179039423Y-108710626D01*
X179102065Y-108559394D01*
X179134000Y-108398846D01*
X179134000Y-108390927D01*
X182656200Y-108390927D01*
X182656200Y-108525073D01*
X182682371Y-108656640D01*
X182733706Y-108780574D01*
X182808233Y-108892112D01*
X182903088Y-108986967D01*
X183014626Y-109061494D01*
X183138560Y-109112829D01*
X183270127Y-109139000D01*
X183404273Y-109139000D01*
X183535840Y-109112829D01*
X183659774Y-109061494D01*
X183743600Y-109005483D01*
X183827426Y-109061494D01*
X183951360Y-109112829D01*
X184082927Y-109139000D01*
X184217073Y-109139000D01*
X184348640Y-109112829D01*
X184472574Y-109061494D01*
X184584112Y-108986967D01*
X184678967Y-108892112D01*
X184753494Y-108780574D01*
X184804829Y-108656640D01*
X184831000Y-108525073D01*
X184831000Y-108390927D01*
X184804829Y-108259360D01*
X184753494Y-108135426D01*
X184678967Y-108023888D01*
X184584112Y-107929033D01*
X184472574Y-107854506D01*
X184348640Y-107803171D01*
X184217073Y-107777000D01*
X184082927Y-107777000D01*
X183951360Y-107803171D01*
X183827426Y-107854506D01*
X183743600Y-107910517D01*
X183659774Y-107854506D01*
X183535840Y-107803171D01*
X183404273Y-107777000D01*
X183270127Y-107777000D01*
X183138560Y-107803171D01*
X183014626Y-107854506D01*
X182903088Y-107929033D01*
X182808233Y-108023888D01*
X182733706Y-108135426D01*
X182682371Y-108259360D01*
X182656200Y-108390927D01*
X179134000Y-108390927D01*
X179134000Y-108235154D01*
X179102065Y-108074606D01*
X179039423Y-107923374D01*
X178948480Y-107787268D01*
X178832732Y-107671520D01*
X178696626Y-107580577D01*
X178545394Y-107517935D01*
X178384846Y-107486000D01*
X178221154Y-107486000D01*
X178060606Y-107517935D01*
X177909374Y-107580577D01*
X177773268Y-107671520D01*
X177657520Y-107787268D01*
X177566577Y-107923374D01*
X177503935Y-108074606D01*
X177472000Y-108235154D01*
X175839626Y-108235154D01*
X175776549Y-108209027D01*
X175538723Y-108161720D01*
X175296237Y-108161720D01*
X175058411Y-108209027D01*
X174834383Y-108301822D01*
X174632763Y-108436540D01*
X174461300Y-108608003D01*
X174326582Y-108809623D01*
X174233787Y-109033651D01*
X174186480Y-109271477D01*
X153668556Y-109271477D01*
X153646912Y-109249833D01*
X153535374Y-109175306D01*
X153411440Y-109123971D01*
X153279873Y-109097800D01*
X153145727Y-109097800D01*
X153014160Y-109123971D01*
X152890226Y-109175306D01*
X152778688Y-109249833D01*
X152683833Y-109344688D01*
X152609306Y-109456226D01*
X152557971Y-109580160D01*
X152531800Y-109711727D01*
X150406000Y-109711727D01*
X150406000Y-108235154D01*
X156072500Y-108235154D01*
X156072500Y-108398846D01*
X156104435Y-108559394D01*
X156167077Y-108710626D01*
X156258020Y-108846732D01*
X156373768Y-108962480D01*
X156509874Y-109053423D01*
X156661106Y-109116065D01*
X156821654Y-109148000D01*
X156985346Y-109148000D01*
X157145894Y-109116065D01*
X157297126Y-109053423D01*
X157433232Y-108962480D01*
X157548980Y-108846732D01*
X157639923Y-108710626D01*
X157702565Y-108559394D01*
X157734500Y-108398846D01*
X157734500Y-108235154D01*
X157702565Y-108074606D01*
X157639923Y-107923374D01*
X157548980Y-107787268D01*
X157433232Y-107671520D01*
X157297126Y-107580577D01*
X157145894Y-107517935D01*
X156985346Y-107486000D01*
X156821654Y-107486000D01*
X156661106Y-107517935D01*
X156509874Y-107580577D01*
X156373768Y-107671520D01*
X156258020Y-107787268D01*
X156167077Y-107923374D01*
X156104435Y-108074606D01*
X156072500Y-108235154D01*
X150406000Y-108235154D01*
X150406000Y-103702554D01*
X153499400Y-103702554D01*
X153499400Y-103866246D01*
X153531335Y-104026794D01*
X153593977Y-104178026D01*
X153684920Y-104314132D01*
X153800668Y-104429880D01*
X153936774Y-104520823D01*
X154088006Y-104583465D01*
X154248554Y-104615400D01*
X154412246Y-104615400D01*
X154572794Y-104583465D01*
X154724026Y-104520823D01*
X154860132Y-104429880D01*
X154975880Y-104314132D01*
X155066823Y-104178026D01*
X155129465Y-104026794D01*
X155161400Y-103866246D01*
X155161400Y-103717327D01*
X168330600Y-103717327D01*
X168330600Y-103851473D01*
X168356771Y-103983040D01*
X168408106Y-104106974D01*
X168482633Y-104218512D01*
X168577488Y-104313367D01*
X168689026Y-104387894D01*
X168812960Y-104439229D01*
X168944527Y-104465400D01*
X169078673Y-104465400D01*
X169210240Y-104439229D01*
X169334174Y-104387894D01*
X169445712Y-104313367D01*
X169540567Y-104218512D01*
X169615094Y-104106974D01*
X169666429Y-103983040D01*
X169692600Y-103851473D01*
X169692600Y-103753354D01*
X182099800Y-103753354D01*
X182099800Y-103917046D01*
X182131735Y-104077594D01*
X182194377Y-104228826D01*
X182285320Y-104364932D01*
X182401068Y-104480680D01*
X182537174Y-104571623D01*
X182688406Y-104634265D01*
X182848954Y-104666200D01*
X183012646Y-104666200D01*
X183173194Y-104634265D01*
X183324426Y-104571623D01*
X183460532Y-104480680D01*
X183576280Y-104364932D01*
X183667223Y-104228826D01*
X183729865Y-104077594D01*
X183761800Y-103917046D01*
X183761800Y-103753354D01*
X183729865Y-103592806D01*
X183667223Y-103441574D01*
X183576280Y-103305468D01*
X183460532Y-103189720D01*
X183324426Y-103098777D01*
X183173194Y-103036135D01*
X183012646Y-103004200D01*
X182848954Y-103004200D01*
X182688406Y-103036135D01*
X182537174Y-103098777D01*
X182401068Y-103189720D01*
X182285320Y-103305468D01*
X182194377Y-103441574D01*
X182131735Y-103592806D01*
X182099800Y-103753354D01*
X169692600Y-103753354D01*
X169692600Y-103717327D01*
X169666429Y-103585760D01*
X169615094Y-103461826D01*
X169540567Y-103350288D01*
X169445712Y-103255433D01*
X169334174Y-103180906D01*
X169210240Y-103129571D01*
X169078673Y-103103400D01*
X168944527Y-103103400D01*
X168812960Y-103129571D01*
X168689026Y-103180906D01*
X168577488Y-103255433D01*
X168482633Y-103350288D01*
X168408106Y-103461826D01*
X168356771Y-103585760D01*
X168330600Y-103717327D01*
X155161400Y-103717327D01*
X155161400Y-103702554D01*
X155129465Y-103542006D01*
X155066823Y-103390774D01*
X154975880Y-103254668D01*
X154860132Y-103138920D01*
X154724026Y-103047977D01*
X154572794Y-102985335D01*
X154412246Y-102953400D01*
X154248554Y-102953400D01*
X154088006Y-102985335D01*
X153936774Y-103047977D01*
X153800668Y-103138920D01*
X153684920Y-103254668D01*
X153593977Y-103390774D01*
X153531335Y-103542006D01*
X153499400Y-103702554D01*
X150406000Y-103702554D01*
X150406000Y-102802927D01*
X160050200Y-102802927D01*
X160050200Y-102937073D01*
X160076371Y-103068640D01*
X160127706Y-103192574D01*
X160202233Y-103304112D01*
X160297088Y-103398967D01*
X160408626Y-103473494D01*
X160532560Y-103524829D01*
X160664127Y-103551000D01*
X160798273Y-103551000D01*
X160929840Y-103524829D01*
X161053774Y-103473494D01*
X161165312Y-103398967D01*
X161260167Y-103304112D01*
X161334694Y-103192574D01*
X161386029Y-103068640D01*
X161412200Y-102937073D01*
X161412200Y-102802927D01*
X161386029Y-102671360D01*
X161334694Y-102547426D01*
X161260167Y-102435888D01*
X161165312Y-102341033D01*
X161053774Y-102266506D01*
X160929840Y-102215171D01*
X160798273Y-102189000D01*
X160664127Y-102189000D01*
X160532560Y-102215171D01*
X160408626Y-102266506D01*
X160297088Y-102341033D01*
X160202233Y-102435888D01*
X160127706Y-102547426D01*
X160076371Y-102671360D01*
X160050200Y-102802927D01*
X150406000Y-102802927D01*
X150406000Y-99246927D01*
X169803800Y-99246927D01*
X169803800Y-99381073D01*
X169829971Y-99512640D01*
X169881306Y-99636574D01*
X169955833Y-99748112D01*
X170050688Y-99842967D01*
X170162226Y-99917494D01*
X170286160Y-99968829D01*
X170417727Y-99995000D01*
X170551873Y-99995000D01*
X170683440Y-99968829D01*
X170807374Y-99917494D01*
X170918912Y-99842967D01*
X171013767Y-99748112D01*
X171079351Y-99649957D01*
X183985800Y-99649957D01*
X183985800Y-99892443D01*
X184033107Y-100130269D01*
X184125902Y-100354297D01*
X184260620Y-100555917D01*
X184432083Y-100727380D01*
X184633703Y-100862098D01*
X184857731Y-100954893D01*
X185095557Y-101002200D01*
X185338043Y-101002200D01*
X185575869Y-100954893D01*
X185799897Y-100862098D01*
X186001517Y-100727380D01*
X186172980Y-100555917D01*
X186307698Y-100354297D01*
X186400493Y-100130269D01*
X186447800Y-99892443D01*
X186447800Y-99649957D01*
X186525800Y-99649957D01*
X186525800Y-99892443D01*
X186573107Y-100130269D01*
X186665902Y-100354297D01*
X186800620Y-100555917D01*
X186972083Y-100727380D01*
X187173703Y-100862098D01*
X187397731Y-100954893D01*
X187635557Y-101002200D01*
X187878043Y-101002200D01*
X188115869Y-100954893D01*
X188339897Y-100862098D01*
X188541517Y-100727380D01*
X188712980Y-100555917D01*
X188847698Y-100354297D01*
X188940493Y-100130269D01*
X188987800Y-99892443D01*
X188987800Y-99649957D01*
X188940493Y-99412131D01*
X188847698Y-99188103D01*
X188712980Y-98986483D01*
X188541517Y-98815020D01*
X188339897Y-98680302D01*
X188115869Y-98587507D01*
X187878043Y-98540200D01*
X187635557Y-98540200D01*
X187397731Y-98587507D01*
X187173703Y-98680302D01*
X186972083Y-98815020D01*
X186800620Y-98986483D01*
X186665902Y-99188103D01*
X186573107Y-99412131D01*
X186525800Y-99649957D01*
X186447800Y-99649957D01*
X186400493Y-99412131D01*
X186307698Y-99188103D01*
X186172980Y-98986483D01*
X186001517Y-98815020D01*
X185799897Y-98680302D01*
X185575869Y-98587507D01*
X185338043Y-98540200D01*
X185095557Y-98540200D01*
X184857731Y-98587507D01*
X184633703Y-98680302D01*
X184432083Y-98815020D01*
X184260620Y-98986483D01*
X184125902Y-99188103D01*
X184033107Y-99412131D01*
X183985800Y-99649957D01*
X171079351Y-99649957D01*
X171088294Y-99636574D01*
X171139629Y-99512640D01*
X171165800Y-99381073D01*
X171165800Y-99246927D01*
X171139629Y-99115360D01*
X171088294Y-98991426D01*
X171013767Y-98879888D01*
X170918912Y-98785033D01*
X170807374Y-98710506D01*
X170683440Y-98659171D01*
X170551873Y-98633000D01*
X170417727Y-98633000D01*
X170286160Y-98659171D01*
X170162226Y-98710506D01*
X170050688Y-98785033D01*
X169955833Y-98879888D01*
X169881306Y-98991426D01*
X169829971Y-99115360D01*
X169803800Y-99246927D01*
X150406000Y-99246927D01*
X150406000Y-96198927D01*
X170388000Y-96198927D01*
X170388000Y-96333073D01*
X170414171Y-96464640D01*
X170465506Y-96588574D01*
X170540033Y-96700112D01*
X170634888Y-96794967D01*
X170746426Y-96869494D01*
X170870360Y-96920829D01*
X171001927Y-96947000D01*
X171136073Y-96947000D01*
X171267640Y-96920829D01*
X171391574Y-96869494D01*
X171503112Y-96794967D01*
X171597967Y-96700112D01*
X171672494Y-96588574D01*
X171723829Y-96464640D01*
X171750000Y-96333073D01*
X171750000Y-96325927D01*
X176738000Y-96325927D01*
X176738000Y-96460073D01*
X176764171Y-96591640D01*
X176815506Y-96715574D01*
X176890033Y-96827112D01*
X176984888Y-96921967D01*
X177096426Y-96996494D01*
X177220360Y-97047829D01*
X177351927Y-97074000D01*
X177486073Y-97074000D01*
X177617640Y-97047829D01*
X177741574Y-96996494D01*
X177853112Y-96921967D01*
X177947967Y-96827112D01*
X178022494Y-96715574D01*
X178073829Y-96591640D01*
X178100000Y-96460073D01*
X178100000Y-96325927D01*
X178073829Y-96194360D01*
X178022494Y-96070426D01*
X177947967Y-95958888D01*
X177853193Y-95864114D01*
X187362680Y-95864114D01*
X187362680Y-96027806D01*
X187394615Y-96188354D01*
X187457257Y-96339586D01*
X187548200Y-96475692D01*
X187663948Y-96591440D01*
X187800054Y-96682383D01*
X187951286Y-96745025D01*
X188111834Y-96776960D01*
X188275526Y-96776960D01*
X188329206Y-96766282D01*
X188310100Y-96862334D01*
X188310100Y-97026026D01*
X188342035Y-97186574D01*
X188404677Y-97337806D01*
X188495620Y-97473912D01*
X188611368Y-97589660D01*
X188747474Y-97680603D01*
X188898706Y-97743245D01*
X189059254Y-97775180D01*
X189222946Y-97775180D01*
X189314249Y-97757019D01*
X189305780Y-97799594D01*
X189305780Y-97963286D01*
X189337715Y-98123834D01*
X189400357Y-98275066D01*
X189491300Y-98411172D01*
X189607048Y-98526920D01*
X189624165Y-98538357D01*
X189446800Y-98538357D01*
X189372111Y-98545713D01*
X189300292Y-98567499D01*
X189234104Y-98602878D01*
X189176089Y-98650489D01*
X189128478Y-98708504D01*
X189093099Y-98774692D01*
X189071313Y-98846511D01*
X189063957Y-98921200D01*
X189063957Y-100621200D01*
X189071313Y-100695889D01*
X189093099Y-100767708D01*
X189128478Y-100833896D01*
X189176089Y-100891911D01*
X189234104Y-100939522D01*
X189300292Y-100974901D01*
X189372111Y-100996687D01*
X189446800Y-101004043D01*
X191146800Y-101004043D01*
X191221489Y-100996687D01*
X191293308Y-100974901D01*
X191359496Y-100939522D01*
X191417511Y-100891911D01*
X191465122Y-100833896D01*
X191500501Y-100767708D01*
X191522287Y-100695889D01*
X191529643Y-100621200D01*
X191529643Y-98921200D01*
X191522287Y-98846511D01*
X191500501Y-98774692D01*
X191465122Y-98708504D01*
X191417511Y-98650489D01*
X191359496Y-98602878D01*
X191293308Y-98567499D01*
X191221489Y-98545713D01*
X191146800Y-98538357D01*
X190649395Y-98538357D01*
X190666512Y-98526920D01*
X190782260Y-98411172D01*
X190873203Y-98275066D01*
X190935845Y-98123834D01*
X190967780Y-97963286D01*
X190967780Y-97799594D01*
X190935845Y-97639046D01*
X190873203Y-97487814D01*
X190782260Y-97351708D01*
X190666512Y-97235960D01*
X190530406Y-97145017D01*
X190379174Y-97082375D01*
X190218626Y-97050440D01*
X190054934Y-97050440D01*
X189963631Y-97068601D01*
X189972100Y-97026026D01*
X189972100Y-96862334D01*
X189940165Y-96701786D01*
X189877523Y-96550554D01*
X189786580Y-96414448D01*
X189670832Y-96298700D01*
X189534726Y-96207757D01*
X189383494Y-96145115D01*
X189222946Y-96113180D01*
X189059254Y-96113180D01*
X189005574Y-96123858D01*
X189024680Y-96027806D01*
X189024680Y-95864114D01*
X188992745Y-95703566D01*
X188930103Y-95552334D01*
X188839160Y-95416228D01*
X188723412Y-95300480D01*
X188587306Y-95209537D01*
X188436074Y-95146895D01*
X188275526Y-95114960D01*
X188111834Y-95114960D01*
X187951286Y-95146895D01*
X187800054Y-95209537D01*
X187663948Y-95300480D01*
X187548200Y-95416228D01*
X187457257Y-95552334D01*
X187394615Y-95703566D01*
X187362680Y-95864114D01*
X177853193Y-95864114D01*
X177853112Y-95864033D01*
X177741574Y-95789506D01*
X177617640Y-95738171D01*
X177486073Y-95712000D01*
X177351927Y-95712000D01*
X177220360Y-95738171D01*
X177096426Y-95789506D01*
X176984888Y-95864033D01*
X176890033Y-95958888D01*
X176815506Y-96070426D01*
X176764171Y-96194360D01*
X176738000Y-96325927D01*
X171750000Y-96325927D01*
X171750000Y-96198927D01*
X171723829Y-96067360D01*
X171672494Y-95943426D01*
X171597967Y-95831888D01*
X171503112Y-95737033D01*
X171391574Y-95662506D01*
X171267640Y-95611171D01*
X171136073Y-95585000D01*
X171001927Y-95585000D01*
X170870360Y-95611171D01*
X170746426Y-95662506D01*
X170634888Y-95737033D01*
X170540033Y-95831888D01*
X170465506Y-95943426D01*
X170414171Y-96067360D01*
X170388000Y-96198927D01*
X150406000Y-96198927D01*
X150406000Y-94019853D01*
X150460169Y-93467389D01*
X151689000Y-93467389D01*
X151689000Y-93857611D01*
X151765129Y-94240336D01*
X151914461Y-94600855D01*
X152131257Y-94925314D01*
X152407186Y-95201243D01*
X152731645Y-95418039D01*
X153092164Y-95567371D01*
X153474889Y-95643500D01*
X153865111Y-95643500D01*
X154247836Y-95567371D01*
X154608355Y-95418039D01*
X154932814Y-95201243D01*
X155208743Y-94925314D01*
X155425539Y-94600855D01*
X155574871Y-94240336D01*
X155651000Y-93857611D01*
X155651000Y-93735127D01*
X171658000Y-93735127D01*
X171658000Y-93869273D01*
X171684171Y-94000840D01*
X171735506Y-94124774D01*
X171810033Y-94236312D01*
X171904888Y-94331167D01*
X172016426Y-94405694D01*
X172140360Y-94457029D01*
X172271927Y-94483200D01*
X172406073Y-94483200D01*
X172537640Y-94457029D01*
X172661574Y-94405694D01*
X172773112Y-94331167D01*
X172867967Y-94236312D01*
X172942494Y-94124774D01*
X172993829Y-94000840D01*
X173020000Y-93869273D01*
X173020000Y-93735127D01*
X173017474Y-93722427D01*
X173436000Y-93722427D01*
X173436000Y-93856573D01*
X173462171Y-93988140D01*
X173513506Y-94112074D01*
X173588033Y-94223612D01*
X173682888Y-94318467D01*
X173794426Y-94392994D01*
X173918360Y-94444329D01*
X174049927Y-94470500D01*
X174184073Y-94470500D01*
X174315640Y-94444329D01*
X174439574Y-94392994D01*
X174498000Y-94353955D01*
X174556426Y-94392994D01*
X174680360Y-94444329D01*
X174811927Y-94470500D01*
X174946073Y-94470500D01*
X175077640Y-94444329D01*
X175201574Y-94392994D01*
X175313112Y-94318467D01*
X175407967Y-94223612D01*
X175482494Y-94112074D01*
X175533829Y-93988140D01*
X175560000Y-93856573D01*
X175560000Y-93722427D01*
X175555453Y-93699567D01*
X183689980Y-93699567D01*
X183689980Y-93833713D01*
X183716151Y-93965280D01*
X183767486Y-94089214D01*
X183842013Y-94200752D01*
X183936868Y-94295607D01*
X184048406Y-94370134D01*
X184172340Y-94421469D01*
X184303907Y-94447640D01*
X184438053Y-94447640D01*
X184569620Y-94421469D01*
X184693554Y-94370134D01*
X184805092Y-94295607D01*
X184899947Y-94200752D01*
X184974474Y-94089214D01*
X185025809Y-93965280D01*
X185051980Y-93833713D01*
X185051980Y-93699567D01*
X187690480Y-93699567D01*
X187690480Y-93833713D01*
X187716651Y-93965280D01*
X187767986Y-94089214D01*
X187842513Y-94200752D01*
X187937368Y-94295607D01*
X188048906Y-94370134D01*
X188172840Y-94421469D01*
X188304407Y-94447640D01*
X188438553Y-94447640D01*
X188570120Y-94421469D01*
X188694054Y-94370134D01*
X188805592Y-94295607D01*
X188900447Y-94200752D01*
X188974974Y-94089214D01*
X189026309Y-93965280D01*
X189052480Y-93833713D01*
X189052480Y-93699567D01*
X189026309Y-93568000D01*
X188984635Y-93467389D01*
X194297500Y-93467389D01*
X194297500Y-93857611D01*
X194373629Y-94240336D01*
X194522961Y-94600855D01*
X194739757Y-94925314D01*
X195015686Y-95201243D01*
X195340145Y-95418039D01*
X195700664Y-95567371D01*
X196083389Y-95643500D01*
X196473611Y-95643500D01*
X196856336Y-95567371D01*
X197216855Y-95418039D01*
X197541314Y-95201243D01*
X197817243Y-94925314D01*
X198034039Y-94600855D01*
X198183371Y-94240336D01*
X198259500Y-93857611D01*
X198259500Y-93467389D01*
X198183371Y-93084664D01*
X198034039Y-92724145D01*
X197817243Y-92399686D01*
X197541314Y-92123757D01*
X197216855Y-91906961D01*
X196856336Y-91757629D01*
X196473611Y-91681500D01*
X196083389Y-91681500D01*
X195700664Y-91757629D01*
X195340145Y-91906961D01*
X195015686Y-92123757D01*
X194739757Y-92399686D01*
X194522961Y-92724145D01*
X194373629Y-93084664D01*
X194297500Y-93467389D01*
X188984635Y-93467389D01*
X188974974Y-93444066D01*
X188900447Y-93332528D01*
X188805592Y-93237673D01*
X188694054Y-93163146D01*
X188570120Y-93111811D01*
X188438553Y-93085640D01*
X188304407Y-93085640D01*
X188172840Y-93111811D01*
X188048906Y-93163146D01*
X187937368Y-93237673D01*
X187842513Y-93332528D01*
X187767986Y-93444066D01*
X187716651Y-93568000D01*
X187690480Y-93699567D01*
X185051980Y-93699567D01*
X185025809Y-93568000D01*
X184974474Y-93444066D01*
X184899947Y-93332528D01*
X184805092Y-93237673D01*
X184693554Y-93163146D01*
X184569620Y-93111811D01*
X184438053Y-93085640D01*
X184303907Y-93085640D01*
X184172340Y-93111811D01*
X184048406Y-93163146D01*
X183936868Y-93237673D01*
X183842013Y-93332528D01*
X183767486Y-93444066D01*
X183716151Y-93568000D01*
X183689980Y-93699567D01*
X175555453Y-93699567D01*
X175533829Y-93590860D01*
X175482494Y-93466926D01*
X175407967Y-93355388D01*
X175313112Y-93260533D01*
X175201574Y-93186006D01*
X175077640Y-93134671D01*
X174946073Y-93108500D01*
X174811927Y-93108500D01*
X174680360Y-93134671D01*
X174556426Y-93186006D01*
X174498000Y-93225045D01*
X174439574Y-93186006D01*
X174315640Y-93134671D01*
X174184073Y-93108500D01*
X174049927Y-93108500D01*
X173918360Y-93134671D01*
X173794426Y-93186006D01*
X173682888Y-93260533D01*
X173588033Y-93355388D01*
X173513506Y-93466926D01*
X173462171Y-93590860D01*
X173436000Y-93722427D01*
X173017474Y-93722427D01*
X172993829Y-93603560D01*
X172942494Y-93479626D01*
X172867967Y-93368088D01*
X172773112Y-93273233D01*
X172661574Y-93198706D01*
X172537640Y-93147371D01*
X172406073Y-93121200D01*
X172271927Y-93121200D01*
X172140360Y-93147371D01*
X172016426Y-93198706D01*
X171904888Y-93273233D01*
X171810033Y-93368088D01*
X171735506Y-93479626D01*
X171684171Y-93603560D01*
X171658000Y-93735127D01*
X155651000Y-93735127D01*
X155651000Y-93467389D01*
X155574871Y-93084664D01*
X155425539Y-92724145D01*
X155208743Y-92399686D01*
X155183211Y-92374154D01*
X162745000Y-92374154D01*
X162745000Y-92537846D01*
X162776935Y-92698394D01*
X162839577Y-92849626D01*
X162930520Y-92985732D01*
X163046268Y-93101480D01*
X163182374Y-93192423D01*
X163333606Y-93255065D01*
X163494154Y-93287000D01*
X163657846Y-93287000D01*
X163818394Y-93255065D01*
X163969626Y-93192423D01*
X164105732Y-93101480D01*
X164221480Y-92985732D01*
X164312423Y-92849626D01*
X164375065Y-92698394D01*
X164407000Y-92537846D01*
X164407000Y-92374154D01*
X164375065Y-92213606D01*
X164312423Y-92062374D01*
X164221480Y-91926268D01*
X164105732Y-91810520D01*
X163969626Y-91719577D01*
X163899252Y-91690427D01*
X173499500Y-91690427D01*
X173499500Y-91824573D01*
X173525671Y-91956140D01*
X173577006Y-92080074D01*
X173651533Y-92191612D01*
X173746388Y-92286467D01*
X173857926Y-92360994D01*
X173981860Y-92412329D01*
X174113427Y-92438500D01*
X174247573Y-92438500D01*
X174379140Y-92412329D01*
X174503074Y-92360994D01*
X174614612Y-92286467D01*
X174709467Y-92191612D01*
X174783994Y-92080074D01*
X174835329Y-91956140D01*
X174861500Y-91824573D01*
X174861500Y-91690427D01*
X174835329Y-91558860D01*
X174783994Y-91434926D01*
X174709467Y-91323388D01*
X174614612Y-91228533D01*
X174503074Y-91154006D01*
X174379140Y-91102671D01*
X174247573Y-91076500D01*
X174113427Y-91076500D01*
X173981860Y-91102671D01*
X173857926Y-91154006D01*
X173746388Y-91228533D01*
X173651533Y-91323388D01*
X173577006Y-91434926D01*
X173525671Y-91558860D01*
X173499500Y-91690427D01*
X163899252Y-91690427D01*
X163818394Y-91656935D01*
X163657846Y-91625000D01*
X163494154Y-91625000D01*
X163333606Y-91656935D01*
X163182374Y-91719577D01*
X163046268Y-91810520D01*
X162930520Y-91926268D01*
X162839577Y-92062374D01*
X162776935Y-92213606D01*
X162745000Y-92374154D01*
X155183211Y-92374154D01*
X154932814Y-92123757D01*
X154608355Y-91906961D01*
X154247836Y-91757629D01*
X153865111Y-91681500D01*
X153474889Y-91681500D01*
X153092164Y-91757629D01*
X152731645Y-91906961D01*
X152407186Y-92123757D01*
X152131257Y-92399686D01*
X151914461Y-92724145D01*
X151765129Y-93084664D01*
X151689000Y-93467389D01*
X150460169Y-93467389D01*
X150476356Y-93302304D01*
X150678982Y-92631176D01*
X151008102Y-92012190D01*
X151451184Y-91468916D01*
X151991347Y-91022054D01*
X152608022Y-90688619D01*
X153277716Y-90481314D01*
X153994053Y-90406024D01*
X154000834Y-90406000D01*
X195980147Y-90406000D01*
X196697696Y-90476356D01*
G37*
%TD.AperFunction*%
%TD*%
M02*
