M48
; DRILL file {KiCad (5.1.12)-1} date 03/26/22 18:35:54
; FORMAT={-:-/ absolute / metric / decimal}
; #@! TF.CreationDate,2022-03-26T18:35:54+01:00
; #@! TF.GenerationSoftware,Kicad,Pcbnew,(5.1.12)-1
; #@! TF.FileFunction,Plated,1,4,PTH
FMAT,2
METRIC
T1C0.300
T2C0.400
T3C0.550
T4C1.000
%
G90
G05
T1
X153.213Y-109.779
X153.213Y-112.725
X153.213Y-125.324
X153.213Y-128.27
X155.346Y-129.235
X155.397Y-113.64
X157.683Y-111.252
X157.683Y-126.848
X158.293Y-108.814
X158.344Y-124.511
X160.731Y-102.87
X161.646Y-119.024
X162.662Y-128.778
X162.763Y-113.132
X163.5Y-110.363
X169.012Y-103.784
X169.012Y-119.38
X169.113Y-91.846
X169.469Y-110.846
X169.469Y-126.441
X170.485Y-99.314
X171.069Y-96.266
X172.339Y-93.802
X174.117Y-93.789
X174.18Y-91.757
X174.193Y-98.806
X174.879Y-93.789
X176.632Y-129.235
X176.733Y-113.64
X177.419Y-96.393
X178.156Y-126.238
X178.257Y-110.744
X179.73Y-108.661
X179.73Y-124.46
X183.337Y-108.458
X183.337Y-123.952
X184.15Y-108.458
X184.201Y-123.952
X193.7Y-108.61
X196.85Y-124.917
X196.901Y-109.22
T2
X154.33Y-103.784
X155.905Y-118.77
X156.87Y-106.172
X156.903Y-108.317
X156.903Y-123.938
X156.921Y-121.818
X158.394Y-132.537
X159.664Y-115.418
X162.966Y-98.196
X163.576Y-92.456
X164.465Y-129.654
X165.76Y-96.926
X172.923Y-108.915
X172.923Y-110.134
X172.923Y-125.781
X172.974Y-124.562
X177.952Y-101.651
X178.303Y-108.317
X178.303Y-121.863
X178.303Y-123.957
X179.578Y-91.948
X181.254Y-115.316
X181.254Y-130.962
X182.677Y-97.892
X182.9Y-105.334
X182.931Y-103.835
X182.931Y-119.431
X183.617Y-96.952
X184.607Y-95.961
X187.452Y-124.46
X187.528Y-113.881
X187.554Y-108.864
X188.194Y-95.946
X189.141Y-96.944
X189.586Y-131.216
X190.137Y-97.881
X191.427Y-131.394
X191.529Y-115.71
X193.357Y-124.511
X193.533Y-131.354
X193.57Y-115.697
X197.104Y-110.782
T3
X184.371Y-93.767
X188.371Y-93.767
T4
X160.02Y-135.776
X162.56Y-135.776
X165.1Y-135.776
X167.64Y-135.776
X175.417Y-109.393
X175.417Y-111.933
X175.417Y-114.473
X175.417Y-117.013
X182.664Y-135.801
X182.677Y-99.771
X185.204Y-135.801
X185.217Y-99.771
X187.744Y-135.801
X187.757Y-99.771
X190.284Y-135.801
X190.297Y-99.771
X198.45Y-109.423
X198.45Y-111.963
X198.45Y-114.503
X198.45Y-117.043
T0
M30
