%FSLAX45Y45*%
G04 Gerber Fmt 4.5, Leading zero omitted, Abs format (unit mm)*
G04 Created by KiCad (PCBNEW (5.1.12)-1) date 2022-03-26 18:35:55*
%MOMM*%
%LPD*%
G01*
G04 APERTURE LIST*
%TA.AperFunction,Profile*%
%ADD10C,0.050000*%
%TD*%
%ADD11C,0.200000*%
%ADD12C,0.300000*%
G04 APERTURE END LIST*
D10*
X19600000Y-9000000D02*
G75*
G02*
X20000000Y-9400000I0J-400000D01*
G01*
X15000000Y-9400000D02*
G75*
G02*
X15400000Y-9000000I400000J0D01*
G01*
X15400000Y-14000000D02*
G75*
G02*
X15000000Y-13600000I0J400000D01*
G01*
X20000000Y-13600000D02*
G75*
G02*
X19600000Y-14000000I-400000J0D01*
G01*
X19600000Y-9000000D02*
X15400000Y-9000000D01*
X20000000Y-13600000D02*
X20000000Y-9400000D01*
X15400000Y-14000000D02*
X19600000Y-14000000D01*
X15000000Y-9400000D02*
X15000000Y-13600000D01*
D11*
X15306280Y-10962880D02*
X15336280Y-10992880D01*
X15336280Y-10962880D02*
X15306280Y-10992880D01*
X15306280Y-11257520D02*
X15336280Y-11287520D01*
X15336280Y-11257520D02*
X15306280Y-11287520D01*
X15306280Y-12517360D02*
X15336280Y-12547360D01*
X15336280Y-12517360D02*
X15306280Y-12547360D01*
X15306280Y-12812000D02*
X15336280Y-12842000D01*
X15336280Y-12812000D02*
X15306280Y-12842000D01*
X15519640Y-12908520D02*
X15549640Y-12938520D01*
X15549640Y-12908520D02*
X15519640Y-12938520D01*
X15524720Y-11348960D02*
X15554720Y-11378960D01*
X15554720Y-11348960D02*
X15524720Y-11378960D01*
X15753320Y-11110200D02*
X15783320Y-11140200D01*
X15783320Y-11110200D02*
X15753320Y-11140200D01*
X15753320Y-12669760D02*
X15783320Y-12699760D01*
X15783320Y-12669760D02*
X15753320Y-12699760D01*
X15814280Y-10866360D02*
X15844280Y-10896360D01*
X15844280Y-10866360D02*
X15814280Y-10896360D01*
X15819360Y-12436080D02*
X15849360Y-12466080D01*
X15849360Y-12436080D02*
X15819360Y-12466080D01*
X16058120Y-10272000D02*
X16088120Y-10302000D01*
X16088120Y-10272000D02*
X16058120Y-10302000D01*
X16149560Y-11887440D02*
X16179560Y-11917440D01*
X16179560Y-11887440D02*
X16149560Y-11917440D01*
X16251160Y-12862800D02*
X16281160Y-12892800D01*
X16281160Y-12862800D02*
X16251160Y-12892800D01*
X16261320Y-11298160D02*
X16291320Y-11328160D01*
X16291320Y-11298160D02*
X16261320Y-11328160D01*
X16334980Y-11021300D02*
X16364980Y-11051300D01*
X16364980Y-11021300D02*
X16334980Y-11051300D01*
X16886160Y-10363440D02*
X16916160Y-10393440D01*
X16916160Y-10363440D02*
X16886160Y-10393440D01*
X16886160Y-11923000D02*
X16916160Y-11953000D01*
X16916160Y-11923000D02*
X16886160Y-11953000D01*
X16896320Y-9169640D02*
X16926320Y-9199640D01*
X16926320Y-9169640D02*
X16896320Y-9199640D01*
X16931880Y-11069560D02*
X16961880Y-11099560D01*
X16961880Y-11069560D02*
X16931880Y-11099560D01*
X16931880Y-12629120D02*
X16961880Y-12659120D01*
X16961880Y-12629120D02*
X16931880Y-12659120D01*
X17033480Y-9916400D02*
X17063480Y-9946400D01*
X17063480Y-9916400D02*
X17033480Y-9946400D01*
X17091900Y-9611600D02*
X17121900Y-9641600D01*
X17121900Y-9611600D02*
X17091900Y-9641600D01*
X17218900Y-9365220D02*
X17248900Y-9395220D01*
X17248900Y-9365220D02*
X17218900Y-9395220D01*
X17396700Y-9363950D02*
X17426700Y-9393950D01*
X17426700Y-9363950D02*
X17396700Y-9393950D01*
X17403050Y-9160750D02*
X17433050Y-9190750D01*
X17433050Y-9160750D02*
X17403050Y-9190750D01*
X17404320Y-9865600D02*
X17434320Y-9895600D01*
X17434320Y-9865600D02*
X17404320Y-9895600D01*
X17472900Y-9363950D02*
X17502900Y-9393950D01*
X17502900Y-9363950D02*
X17472900Y-9393950D01*
X17648160Y-12908520D02*
X17678160Y-12938520D01*
X17678160Y-12908520D02*
X17648160Y-12938520D01*
X17658320Y-11348960D02*
X17688320Y-11378960D01*
X17688320Y-11348960D02*
X17658320Y-11378960D01*
X17726900Y-9624300D02*
X17756900Y-9654300D01*
X17756900Y-9624300D02*
X17726900Y-9654300D01*
X17800560Y-12608800D02*
X17830560Y-12638800D01*
X17830560Y-12608800D02*
X17800560Y-12638800D01*
X17810720Y-11059400D02*
X17840720Y-11089400D01*
X17840720Y-11059400D02*
X17810720Y-11089400D01*
X17958040Y-10851120D02*
X17988040Y-10881120D01*
X17988040Y-10851120D02*
X17958040Y-10881120D01*
X17958040Y-12431000D02*
X17988040Y-12461000D01*
X17988040Y-12431000D02*
X17958040Y-12461000D01*
X18318720Y-10830800D02*
X18348720Y-10860800D01*
X18348720Y-10830800D02*
X18318720Y-10860800D01*
X18318720Y-12380200D02*
X18348720Y-12410200D01*
X18348720Y-12380200D02*
X18318720Y-12410200D01*
X18400000Y-10830800D02*
X18430000Y-10860800D01*
X18430000Y-10830800D02*
X18400000Y-10860800D01*
X18405080Y-12380200D02*
X18435080Y-12410200D01*
X18435080Y-12380200D02*
X18405080Y-12410200D01*
X19355040Y-10846040D02*
X19385040Y-10876040D01*
X19385040Y-10846040D02*
X19355040Y-10876040D01*
X19670000Y-12476720D02*
X19700000Y-12506720D01*
X19700000Y-12476720D02*
X19670000Y-12506720D01*
X19675080Y-10907000D02*
X19705080Y-10937000D01*
X19705080Y-10907000D02*
X19675080Y-10937000D01*
X15453040Y-10378440D02*
G75*
G03*
X15453040Y-10378440I-20000J0D01*
G01*
X15610520Y-11877040D02*
G75*
G03*
X15610520Y-11877040I-20000J0D01*
G01*
X15707040Y-10617200D02*
G75*
G03*
X15707040Y-10617200I-20000J0D01*
G01*
X15710350Y-10831700D02*
G75*
G03*
X15710350Y-10831700I-20000J0D01*
G01*
X15710350Y-12393800D02*
G75*
G03*
X15710350Y-12393800I-20000J0D01*
G01*
X15712120Y-12181840D02*
G75*
G03*
X15712120Y-12181840I-20000J0D01*
G01*
X15859440Y-13253720D02*
G75*
G03*
X15859440Y-13253720I-20000J0D01*
G01*
X15986440Y-11541760D02*
G75*
G03*
X15986440Y-11541760I-20000J0D01*
G01*
X16316640Y-9819640D02*
G75*
G03*
X16316640Y-9819640I-20000J0D01*
G01*
X16377600Y-9245600D02*
G75*
G03*
X16377600Y-9245600I-20000J0D01*
G01*
X16466500Y-12965430D02*
G75*
G03*
X16466500Y-12965430I-20000J0D01*
G01*
X16596040Y-9692640D02*
G75*
G03*
X16596040Y-9692640I-20000J0D01*
G01*
X17312320Y-10891520D02*
G75*
G03*
X17312320Y-10891520I-20000J0D01*
G01*
X17312320Y-11013440D02*
G75*
G03*
X17312320Y-11013440I-20000J0D01*
G01*
X17312320Y-12578080D02*
G75*
G03*
X17312320Y-12578080I-20000J0D01*
G01*
X17317400Y-12456160D02*
G75*
G03*
X17317400Y-12456160I-20000J0D01*
G01*
X17815240Y-10165080D02*
G75*
G03*
X17815240Y-10165080I-20000J0D01*
G01*
X17850300Y-10831700D02*
G75*
G03*
X17850300Y-10831700I-20000J0D01*
G01*
X17850300Y-12186303D02*
G75*
G03*
X17850300Y-12186303I-20000J0D01*
G01*
X17850300Y-12395700D02*
G75*
G03*
X17850300Y-12395700I-20000J0D01*
G01*
X17977800Y-9194800D02*
G75*
G03*
X17977800Y-9194800I-20000J0D01*
G01*
X18145440Y-11531600D02*
G75*
G03*
X18145440Y-11531600I-20000J0D01*
G01*
X18145440Y-13096240D02*
G75*
G03*
X18145440Y-13096240I-20000J0D01*
G01*
X18287680Y-9789160D02*
G75*
G03*
X18287680Y-9789160I-20000J0D01*
G01*
X18310032Y-10533380D02*
G75*
G03*
X18310032Y-10533380I-20000J0D01*
G01*
X18313080Y-10383520D02*
G75*
G03*
X18313080Y-10383520I-20000J0D01*
G01*
X18313080Y-11943080D02*
G75*
G03*
X18313080Y-11943080I-20000J0D01*
G01*
X18381660Y-9695180D02*
G75*
G03*
X18381660Y-9695180I-20000J0D01*
G01*
X18480720Y-9596120D02*
G75*
G03*
X18480720Y-9596120I-20000J0D01*
G01*
X18765200Y-12446000D02*
G75*
G03*
X18765200Y-12446000I-20000J0D01*
G01*
X18772820Y-11388090D02*
G75*
G03*
X18772820Y-11388090I-20000J0D01*
G01*
X18775360Y-10886440D02*
G75*
G03*
X18775360Y-10886440I-20000J0D01*
G01*
X18839368Y-9594596D02*
G75*
G03*
X18839368Y-9594596I-20000J0D01*
G01*
X18934110Y-9694418D02*
G75*
G03*
X18934110Y-9694418I-20000J0D01*
G01*
X18978560Y-13121640D02*
G75*
G03*
X18978560Y-13121640I-20000J0D01*
G01*
X19033678Y-9788144D02*
G75*
G03*
X19033678Y-9788144I-20000J0D01*
G01*
X19162710Y-13139420D02*
G75*
G03*
X19162710Y-13139420I-20000J0D01*
G01*
X19172870Y-11570970D02*
G75*
G03*
X19172870Y-11570970I-20000J0D01*
G01*
X19355750Y-12451080D02*
G75*
G03*
X19355750Y-12451080I-20000J0D01*
G01*
X19373335Y-13135415D02*
G75*
G03*
X19373335Y-13135415I-20000J0D01*
G01*
X19376950Y-11569700D02*
G75*
G03*
X19376950Y-11569700I-20000J0D01*
G01*
X19730400Y-11078210D02*
G75*
G03*
X19730400Y-11078210I-20000J0D01*
G01*
X18437098Y-9349164D02*
X18437098Y-9404164D01*
X18409598Y-9376664D02*
X18464598Y-9376664D01*
X18837148Y-9349164D02*
X18837148Y-9404164D01*
X18809648Y-9376664D02*
X18864648Y-9376664D01*
X16037356Y-13612926D02*
X16037356Y-13542214D01*
X15966644Y-13542214D01*
X15966644Y-13612926D01*
X16037356Y-13612926D01*
X16291356Y-13612926D02*
X16291356Y-13542214D01*
X16220644Y-13542214D01*
X16220644Y-13612926D01*
X16291356Y-13612926D01*
X16545356Y-13612926D02*
X16545356Y-13542214D01*
X16474644Y-13542214D01*
X16474644Y-13612926D01*
X16545356Y-13612926D01*
X16799356Y-13612926D02*
X16799356Y-13542214D01*
X16728644Y-13542214D01*
X16728644Y-13612926D01*
X16799356Y-13612926D01*
X17577104Y-10974628D02*
X17577104Y-10903916D01*
X17506392Y-10903916D01*
X17506392Y-10974628D01*
X17577104Y-10974628D01*
X17577104Y-11228628D02*
X17577104Y-11157916D01*
X17506392Y-11157916D01*
X17506392Y-11228628D01*
X17577104Y-11228628D01*
X17577104Y-11482628D02*
X17577104Y-11411916D01*
X17506392Y-11411916D01*
X17506392Y-11482628D01*
X17577104Y-11482628D01*
X17577104Y-11736628D02*
X17577104Y-11665916D01*
X17506392Y-11665916D01*
X17506392Y-11736628D01*
X17577104Y-11736628D01*
X18301766Y-13615466D02*
X18301766Y-13544754D01*
X18231054Y-13544754D01*
X18231054Y-13615466D01*
X18301766Y-13615466D01*
X18303036Y-10012476D02*
X18303036Y-9941764D01*
X18232324Y-9941764D01*
X18232324Y-10012476D01*
X18303036Y-10012476D01*
X18555766Y-13615466D02*
X18555766Y-13544754D01*
X18485054Y-13544754D01*
X18485054Y-13615466D01*
X18555766Y-13615466D01*
X18557036Y-10012476D02*
X18557036Y-9941764D01*
X18486324Y-9941764D01*
X18486324Y-10012476D01*
X18557036Y-10012476D01*
X18809766Y-13615466D02*
X18809766Y-13544754D01*
X18739054Y-13544754D01*
X18739054Y-13615466D01*
X18809766Y-13615466D01*
X18811036Y-10012476D02*
X18811036Y-9941764D01*
X18740324Y-9941764D01*
X18740324Y-10012476D01*
X18811036Y-10012476D01*
X19063766Y-13615466D02*
X19063766Y-13544754D01*
X18993054Y-13544754D01*
X18993054Y-13615466D01*
X19063766Y-13615466D01*
X19065036Y-10012476D02*
X19065036Y-9941764D01*
X18994324Y-9941764D01*
X18994324Y-10012476D01*
X19065036Y-10012476D01*
X19880376Y-10977676D02*
X19880376Y-10906964D01*
X19809664Y-10906964D01*
X19809664Y-10977676D01*
X19880376Y-10977676D01*
X19880376Y-11231676D02*
X19880376Y-11160964D01*
X19809664Y-11160964D01*
X19809664Y-11231676D01*
X19880376Y-11231676D01*
X19880376Y-11485676D02*
X19880376Y-11414964D01*
X19809664Y-11414964D01*
X19809664Y-11485676D01*
X19880376Y-11485676D01*
X19880376Y-11739676D02*
X19880376Y-11668964D01*
X19809664Y-11668964D01*
X19809664Y-11739676D01*
X19880376Y-11739676D01*
D12*
X15283928Y-14468214D02*
X15283928Y-14168214D01*
X15355357Y-14168214D01*
X15398214Y-14182500D01*
X15426786Y-14211071D01*
X15441071Y-14239643D01*
X15455357Y-14296786D01*
X15455357Y-14339643D01*
X15441071Y-14396786D01*
X15426786Y-14425357D01*
X15398214Y-14453929D01*
X15355357Y-14468214D01*
X15283928Y-14468214D01*
X15583928Y-14468214D02*
X15583928Y-14268214D01*
X15583928Y-14325357D02*
X15598214Y-14296786D01*
X15612500Y-14282500D01*
X15641071Y-14268214D01*
X15669643Y-14268214D01*
X15769643Y-14468214D02*
X15769643Y-14268214D01*
X15769643Y-14168214D02*
X15755357Y-14182500D01*
X15769643Y-14196786D01*
X15783928Y-14182500D01*
X15769643Y-14168214D01*
X15769643Y-14196786D01*
X15955357Y-14468214D02*
X15926786Y-14453929D01*
X15912500Y-14425357D01*
X15912500Y-14168214D01*
X16112500Y-14468214D02*
X16083928Y-14453929D01*
X16069643Y-14425357D01*
X16069643Y-14168214D01*
X16455357Y-14468214D02*
X16455357Y-14168214D01*
X16555357Y-14382500D01*
X16655357Y-14168214D01*
X16655357Y-14468214D01*
X16926786Y-14468214D02*
X16926786Y-14311071D01*
X16912500Y-14282500D01*
X16883928Y-14268214D01*
X16826786Y-14268214D01*
X16798214Y-14282500D01*
X16926786Y-14453929D02*
X16898214Y-14468214D01*
X16826786Y-14468214D01*
X16798214Y-14453929D01*
X16783928Y-14425357D01*
X16783928Y-14396786D01*
X16798214Y-14368214D01*
X16826786Y-14353929D01*
X16898214Y-14353929D01*
X16926786Y-14339643D01*
X17069643Y-14268214D02*
X17069643Y-14568214D01*
X17069643Y-14282500D02*
X17098214Y-14268214D01*
X17155357Y-14268214D01*
X17183928Y-14282500D01*
X17198214Y-14296786D01*
X17212500Y-14325357D01*
X17212500Y-14411071D01*
X17198214Y-14439643D01*
X17183928Y-14453929D01*
X17155357Y-14468214D01*
X17098214Y-14468214D01*
X17069643Y-14453929D01*
X17341071Y-14439643D02*
X17355357Y-14453929D01*
X17341071Y-14468214D01*
X17326786Y-14453929D01*
X17341071Y-14439643D01*
X17341071Y-14468214D01*
X17341071Y-14282500D02*
X17355357Y-14296786D01*
X17341071Y-14311071D01*
X17326786Y-14296786D01*
X17341071Y-14282500D01*
X17341071Y-14311071D01*
X14967500Y-14947500D02*
X14997500Y-14977500D01*
X14997500Y-14947500D02*
X14967500Y-14977500D01*
X15341071Y-14798214D02*
X15369643Y-14798214D01*
X15398214Y-14812500D01*
X15412500Y-14826786D01*
X15426786Y-14855357D01*
X15441071Y-14912500D01*
X15441071Y-14983929D01*
X15426786Y-15041071D01*
X15412500Y-15069643D01*
X15398214Y-15083929D01*
X15369643Y-15098214D01*
X15341071Y-15098214D01*
X15312500Y-15083929D01*
X15298214Y-15069643D01*
X15283928Y-15041071D01*
X15269643Y-14983929D01*
X15269643Y-14912500D01*
X15283928Y-14855357D01*
X15298214Y-14826786D01*
X15312500Y-14812500D01*
X15341071Y-14798214D01*
X15569643Y-15069643D02*
X15583928Y-15083929D01*
X15569643Y-15098214D01*
X15555357Y-15083929D01*
X15569643Y-15069643D01*
X15569643Y-15098214D01*
X15683928Y-14798214D02*
X15869643Y-14798214D01*
X15769643Y-14912500D01*
X15812500Y-14912500D01*
X15841071Y-14926786D01*
X15855357Y-14941071D01*
X15869643Y-14969643D01*
X15869643Y-15041071D01*
X15855357Y-15069643D01*
X15841071Y-15083929D01*
X15812500Y-15098214D01*
X15726786Y-15098214D01*
X15698214Y-15083929D01*
X15683928Y-15069643D01*
X16055357Y-14798214D02*
X16083928Y-14798214D01*
X16112500Y-14812500D01*
X16126786Y-14826786D01*
X16141071Y-14855357D01*
X16155357Y-14912500D01*
X16155357Y-14983929D01*
X16141071Y-15041071D01*
X16126786Y-15069643D01*
X16112500Y-15083929D01*
X16083928Y-15098214D01*
X16055357Y-15098214D01*
X16026786Y-15083929D01*
X16012500Y-15069643D01*
X15998214Y-15041071D01*
X15983928Y-14983929D01*
X15983928Y-14912500D01*
X15998214Y-14855357D01*
X16012500Y-14826786D01*
X16026786Y-14812500D01*
X16055357Y-14798214D01*
X16341071Y-14798214D02*
X16369643Y-14798214D01*
X16398214Y-14812500D01*
X16412500Y-14826786D01*
X16426786Y-14855357D01*
X16441071Y-14912500D01*
X16441071Y-14983929D01*
X16426786Y-15041071D01*
X16412500Y-15069643D01*
X16398214Y-15083929D01*
X16369643Y-15098214D01*
X16341071Y-15098214D01*
X16312500Y-15083929D01*
X16298214Y-15069643D01*
X16283928Y-15041071D01*
X16269643Y-14983929D01*
X16269643Y-14912500D01*
X16283928Y-14855357D01*
X16298214Y-14826786D01*
X16312500Y-14812500D01*
X16341071Y-14798214D01*
X16569643Y-15098214D02*
X16569643Y-14898214D01*
X16569643Y-14926786D02*
X16583928Y-14912500D01*
X16612500Y-14898214D01*
X16655357Y-14898214D01*
X16683928Y-14912500D01*
X16698214Y-14941071D01*
X16698214Y-15098214D01*
X16698214Y-14941071D02*
X16712500Y-14912500D01*
X16741071Y-14898214D01*
X16783928Y-14898214D01*
X16812500Y-14912500D01*
X16826786Y-14941071D01*
X16826786Y-15098214D01*
X16969643Y-15098214D02*
X16969643Y-14898214D01*
X16969643Y-14926786D02*
X16983928Y-14912500D01*
X17012500Y-14898214D01*
X17055357Y-14898214D01*
X17083928Y-14912500D01*
X17098214Y-14941071D01*
X17098214Y-15098214D01*
X17098214Y-14941071D02*
X17112500Y-14912500D01*
X17141071Y-14898214D01*
X17183928Y-14898214D01*
X17212500Y-14912500D01*
X17226786Y-14941071D01*
X17226786Y-15098214D01*
X17812500Y-14783929D02*
X17555357Y-15169643D01*
X18198214Y-14798214D02*
X18226786Y-14798214D01*
X18255357Y-14812500D01*
X18269643Y-14826786D01*
X18283928Y-14855357D01*
X18298214Y-14912500D01*
X18298214Y-14983929D01*
X18283928Y-15041071D01*
X18269643Y-15069643D01*
X18255357Y-15083929D01*
X18226786Y-15098214D01*
X18198214Y-15098214D01*
X18169643Y-15083929D01*
X18155357Y-15069643D01*
X18141071Y-15041071D01*
X18126786Y-14983929D01*
X18126786Y-14912500D01*
X18141071Y-14855357D01*
X18155357Y-14826786D01*
X18169643Y-14812500D01*
X18198214Y-14798214D01*
X18426786Y-15069643D02*
X18441071Y-15083929D01*
X18426786Y-15098214D01*
X18412500Y-15083929D01*
X18426786Y-15069643D01*
X18426786Y-15098214D01*
X18626786Y-14798214D02*
X18655357Y-14798214D01*
X18683928Y-14812500D01*
X18698214Y-14826786D01*
X18712500Y-14855357D01*
X18726786Y-14912500D01*
X18726786Y-14983929D01*
X18712500Y-15041071D01*
X18698214Y-15069643D01*
X18683928Y-15083929D01*
X18655357Y-15098214D01*
X18626786Y-15098214D01*
X18598214Y-15083929D01*
X18583928Y-15069643D01*
X18569643Y-15041071D01*
X18555357Y-14983929D01*
X18555357Y-14912500D01*
X18569643Y-14855357D01*
X18583928Y-14826786D01*
X18598214Y-14812500D01*
X18626786Y-14798214D01*
X19012500Y-15098214D02*
X18841071Y-15098214D01*
X18926786Y-15098214D02*
X18926786Y-14798214D01*
X18898214Y-14841071D01*
X18869643Y-14869643D01*
X18841071Y-14883929D01*
X19298214Y-15098214D02*
X19126786Y-15098214D01*
X19212500Y-15098214D02*
X19212500Y-14798214D01*
X19183928Y-14841071D01*
X19155357Y-14869643D01*
X19126786Y-14883929D01*
X19469643Y-14926786D02*
X19441071Y-14912500D01*
X19426786Y-14898214D01*
X19412500Y-14869643D01*
X19412500Y-14855357D01*
X19426786Y-14826786D01*
X19441071Y-14812500D01*
X19469643Y-14798214D01*
X19526786Y-14798214D01*
X19555357Y-14812500D01*
X19569643Y-14826786D01*
X19583928Y-14855357D01*
X19583928Y-14869643D01*
X19569643Y-14898214D01*
X19555357Y-14912500D01*
X19526786Y-14926786D01*
X19469643Y-14926786D01*
X19441071Y-14941071D01*
X19426786Y-14955357D01*
X19412500Y-14983929D01*
X19412500Y-15041071D01*
X19426786Y-15069643D01*
X19441071Y-15083929D01*
X19469643Y-15098214D01*
X19526786Y-15098214D01*
X19555357Y-15083929D01*
X19569643Y-15069643D01*
X19583928Y-15041071D01*
X19583928Y-14983929D01*
X19569643Y-14955357D01*
X19555357Y-14941071D01*
X19526786Y-14926786D01*
X19698214Y-14798214D02*
X19698214Y-14855357D01*
X19812500Y-14798214D02*
X19812500Y-14855357D01*
X20255357Y-15212500D02*
X20241071Y-15198214D01*
X20212500Y-15155357D01*
X20198214Y-15126786D01*
X20183928Y-15083929D01*
X20169643Y-15012500D01*
X20169643Y-14955357D01*
X20183928Y-14883929D01*
X20198214Y-14841071D01*
X20212500Y-14812500D01*
X20241071Y-14769643D01*
X20255357Y-14755357D01*
X20498214Y-14898214D02*
X20498214Y-15098214D01*
X20426786Y-14783929D02*
X20355357Y-14998214D01*
X20541071Y-14998214D01*
X20812500Y-15098214D02*
X20641071Y-15098214D01*
X20726786Y-15098214D02*
X20726786Y-14798214D01*
X20698214Y-14841071D01*
X20669643Y-14869643D01*
X20641071Y-14883929D01*
X21169643Y-15098214D02*
X21169643Y-14798214D01*
X21298214Y-15098214D02*
X21298214Y-14941071D01*
X21283928Y-14912500D01*
X21255357Y-14898214D01*
X21212500Y-14898214D01*
X21183928Y-14912500D01*
X21169643Y-14926786D01*
X21483928Y-15098214D02*
X21455357Y-15083929D01*
X21441071Y-15069643D01*
X21426786Y-15041071D01*
X21426786Y-14955357D01*
X21441071Y-14926786D01*
X21455357Y-14912500D01*
X21483928Y-14898214D01*
X21526786Y-14898214D01*
X21555357Y-14912500D01*
X21569643Y-14926786D01*
X21583928Y-14955357D01*
X21583928Y-15041071D01*
X21569643Y-15069643D01*
X21555357Y-15083929D01*
X21526786Y-15098214D01*
X21483928Y-15098214D01*
X21755357Y-15098214D02*
X21726786Y-15083929D01*
X21712500Y-15055357D01*
X21712500Y-14798214D01*
X21983928Y-15083929D02*
X21955357Y-15098214D01*
X21898214Y-15098214D01*
X21869643Y-15083929D01*
X21855357Y-15055357D01*
X21855357Y-14941071D01*
X21869643Y-14912500D01*
X21898214Y-14898214D01*
X21955357Y-14898214D01*
X21983928Y-14912500D01*
X21998214Y-14941071D01*
X21998214Y-14969643D01*
X21855357Y-14998214D01*
X22112500Y-15083929D02*
X22141071Y-15098214D01*
X22198214Y-15098214D01*
X22226786Y-15083929D01*
X22241071Y-15055357D01*
X22241071Y-15041071D01*
X22226786Y-15012500D01*
X22198214Y-14998214D01*
X22155357Y-14998214D01*
X22126786Y-14983929D01*
X22112500Y-14955357D01*
X22112500Y-14941071D01*
X22126786Y-14912500D01*
X22155357Y-14898214D01*
X22198214Y-14898214D01*
X22226786Y-14912500D01*
X22341071Y-15212500D02*
X22355357Y-15198214D01*
X22383928Y-15155357D01*
X22398214Y-15126786D01*
X22412500Y-15083929D01*
X22426786Y-15012500D01*
X22426786Y-14955357D01*
X22412500Y-14883929D01*
X22398214Y-14841071D01*
X22383928Y-14812500D01*
X22355357Y-14769643D01*
X22341071Y-14755357D01*
X14997500Y-15358500D02*
G75*
G03*
X14997500Y-15358500I-20000J0D01*
G01*
X15341071Y-15194214D02*
X15369643Y-15194214D01*
X15398214Y-15208500D01*
X15412500Y-15222786D01*
X15426786Y-15251357D01*
X15441071Y-15308500D01*
X15441071Y-15379929D01*
X15426786Y-15437071D01*
X15412500Y-15465643D01*
X15398214Y-15479929D01*
X15369643Y-15494214D01*
X15341071Y-15494214D01*
X15312500Y-15479929D01*
X15298214Y-15465643D01*
X15283928Y-15437071D01*
X15269643Y-15379929D01*
X15269643Y-15308500D01*
X15283928Y-15251357D01*
X15298214Y-15222786D01*
X15312500Y-15208500D01*
X15341071Y-15194214D01*
X15569643Y-15465643D02*
X15583928Y-15479929D01*
X15569643Y-15494214D01*
X15555357Y-15479929D01*
X15569643Y-15465643D01*
X15569643Y-15494214D01*
X15841071Y-15294214D02*
X15841071Y-15494214D01*
X15769643Y-15179929D02*
X15698214Y-15394214D01*
X15883928Y-15394214D01*
X16055357Y-15194214D02*
X16083928Y-15194214D01*
X16112500Y-15208500D01*
X16126786Y-15222786D01*
X16141071Y-15251357D01*
X16155357Y-15308500D01*
X16155357Y-15379929D01*
X16141071Y-15437071D01*
X16126786Y-15465643D01*
X16112500Y-15479929D01*
X16083928Y-15494214D01*
X16055357Y-15494214D01*
X16026786Y-15479929D01*
X16012500Y-15465643D01*
X15998214Y-15437071D01*
X15983928Y-15379929D01*
X15983928Y-15308500D01*
X15998214Y-15251357D01*
X16012500Y-15222786D01*
X16026786Y-15208500D01*
X16055357Y-15194214D01*
X16341071Y-15194214D02*
X16369643Y-15194214D01*
X16398214Y-15208500D01*
X16412500Y-15222786D01*
X16426786Y-15251357D01*
X16441071Y-15308500D01*
X16441071Y-15379929D01*
X16426786Y-15437071D01*
X16412500Y-15465643D01*
X16398214Y-15479929D01*
X16369643Y-15494214D01*
X16341071Y-15494214D01*
X16312500Y-15479929D01*
X16298214Y-15465643D01*
X16283928Y-15437071D01*
X16269643Y-15379929D01*
X16269643Y-15308500D01*
X16283928Y-15251357D01*
X16298214Y-15222786D01*
X16312500Y-15208500D01*
X16341071Y-15194214D01*
X16569643Y-15494214D02*
X16569643Y-15294214D01*
X16569643Y-15322786D02*
X16583928Y-15308500D01*
X16612500Y-15294214D01*
X16655357Y-15294214D01*
X16683928Y-15308500D01*
X16698214Y-15337071D01*
X16698214Y-15494214D01*
X16698214Y-15337071D02*
X16712500Y-15308500D01*
X16741071Y-15294214D01*
X16783928Y-15294214D01*
X16812500Y-15308500D01*
X16826786Y-15337071D01*
X16826786Y-15494214D01*
X16969643Y-15494214D02*
X16969643Y-15294214D01*
X16969643Y-15322786D02*
X16983928Y-15308500D01*
X17012500Y-15294214D01*
X17055357Y-15294214D01*
X17083928Y-15308500D01*
X17098214Y-15337071D01*
X17098214Y-15494214D01*
X17098214Y-15337071D02*
X17112500Y-15308500D01*
X17141071Y-15294214D01*
X17183928Y-15294214D01*
X17212500Y-15308500D01*
X17226786Y-15337071D01*
X17226786Y-15494214D01*
X17812500Y-15179929D02*
X17555357Y-15565643D01*
X18198214Y-15194214D02*
X18226786Y-15194214D01*
X18255357Y-15208500D01*
X18269643Y-15222786D01*
X18283928Y-15251357D01*
X18298214Y-15308500D01*
X18298214Y-15379929D01*
X18283928Y-15437071D01*
X18269643Y-15465643D01*
X18255357Y-15479929D01*
X18226786Y-15494214D01*
X18198214Y-15494214D01*
X18169643Y-15479929D01*
X18155357Y-15465643D01*
X18141071Y-15437071D01*
X18126786Y-15379929D01*
X18126786Y-15308500D01*
X18141071Y-15251357D01*
X18155357Y-15222786D01*
X18169643Y-15208500D01*
X18198214Y-15194214D01*
X18426786Y-15465643D02*
X18441071Y-15479929D01*
X18426786Y-15494214D01*
X18412500Y-15479929D01*
X18426786Y-15465643D01*
X18426786Y-15494214D01*
X18626786Y-15194214D02*
X18655357Y-15194214D01*
X18683928Y-15208500D01*
X18698214Y-15222786D01*
X18712500Y-15251357D01*
X18726786Y-15308500D01*
X18726786Y-15379929D01*
X18712500Y-15437071D01*
X18698214Y-15465643D01*
X18683928Y-15479929D01*
X18655357Y-15494214D01*
X18626786Y-15494214D01*
X18598214Y-15479929D01*
X18583928Y-15465643D01*
X18569643Y-15437071D01*
X18555357Y-15379929D01*
X18555357Y-15308500D01*
X18569643Y-15251357D01*
X18583928Y-15222786D01*
X18598214Y-15208500D01*
X18626786Y-15194214D01*
X19012500Y-15494214D02*
X18841071Y-15494214D01*
X18926786Y-15494214D02*
X18926786Y-15194214D01*
X18898214Y-15237071D01*
X18869643Y-15265643D01*
X18841071Y-15279929D01*
X19283928Y-15194214D02*
X19141071Y-15194214D01*
X19126786Y-15337071D01*
X19141071Y-15322786D01*
X19169643Y-15308500D01*
X19241071Y-15308500D01*
X19269643Y-15322786D01*
X19283928Y-15337071D01*
X19298214Y-15365643D01*
X19298214Y-15437071D01*
X19283928Y-15465643D01*
X19269643Y-15479929D01*
X19241071Y-15494214D01*
X19169643Y-15494214D01*
X19141071Y-15479929D01*
X19126786Y-15465643D01*
X19398214Y-15194214D02*
X19598214Y-15194214D01*
X19469643Y-15494214D01*
X19698214Y-15194214D02*
X19698214Y-15251357D01*
X19812500Y-15194214D02*
X19812500Y-15251357D01*
X20255357Y-15608500D02*
X20241071Y-15594214D01*
X20212500Y-15551357D01*
X20198214Y-15522786D01*
X20183928Y-15479929D01*
X20169643Y-15408500D01*
X20169643Y-15351357D01*
X20183928Y-15279929D01*
X20198214Y-15237071D01*
X20212500Y-15208500D01*
X20241071Y-15165643D01*
X20255357Y-15151357D01*
X20498214Y-15294214D02*
X20498214Y-15494214D01*
X20426786Y-15179929D02*
X20355357Y-15394214D01*
X20541071Y-15394214D01*
X20641071Y-15222786D02*
X20655357Y-15208500D01*
X20683928Y-15194214D01*
X20755357Y-15194214D01*
X20783928Y-15208500D01*
X20798214Y-15222786D01*
X20812500Y-15251357D01*
X20812500Y-15279929D01*
X20798214Y-15322786D01*
X20626786Y-15494214D01*
X20812500Y-15494214D01*
X21169643Y-15494214D02*
X21169643Y-15194214D01*
X21298214Y-15494214D02*
X21298214Y-15337071D01*
X21283928Y-15308500D01*
X21255357Y-15294214D01*
X21212500Y-15294214D01*
X21183928Y-15308500D01*
X21169643Y-15322786D01*
X21483928Y-15494214D02*
X21455357Y-15479929D01*
X21441071Y-15465643D01*
X21426786Y-15437071D01*
X21426786Y-15351357D01*
X21441071Y-15322786D01*
X21455357Y-15308500D01*
X21483928Y-15294214D01*
X21526786Y-15294214D01*
X21555357Y-15308500D01*
X21569643Y-15322786D01*
X21583928Y-15351357D01*
X21583928Y-15437071D01*
X21569643Y-15465643D01*
X21555357Y-15479929D01*
X21526786Y-15494214D01*
X21483928Y-15494214D01*
X21755357Y-15494214D02*
X21726786Y-15479929D01*
X21712500Y-15451357D01*
X21712500Y-15194214D01*
X21983928Y-15479929D02*
X21955357Y-15494214D01*
X21898214Y-15494214D01*
X21869643Y-15479929D01*
X21855357Y-15451357D01*
X21855357Y-15337071D01*
X21869643Y-15308500D01*
X21898214Y-15294214D01*
X21955357Y-15294214D01*
X21983928Y-15308500D01*
X21998214Y-15337071D01*
X21998214Y-15365643D01*
X21855357Y-15394214D01*
X22112500Y-15479929D02*
X22141071Y-15494214D01*
X22198214Y-15494214D01*
X22226786Y-15479929D01*
X22241071Y-15451357D01*
X22241071Y-15437071D01*
X22226786Y-15408500D01*
X22198214Y-15394214D01*
X22155357Y-15394214D01*
X22126786Y-15379929D01*
X22112500Y-15351357D01*
X22112500Y-15337071D01*
X22126786Y-15308500D01*
X22155357Y-15294214D01*
X22198214Y-15294214D01*
X22226786Y-15308500D01*
X22341071Y-15608500D02*
X22355357Y-15594214D01*
X22383928Y-15551357D01*
X22398214Y-15522786D01*
X22412500Y-15479929D01*
X22426786Y-15408500D01*
X22426786Y-15351357D01*
X22412500Y-15279929D01*
X22398214Y-15237071D01*
X22383928Y-15208500D01*
X22355357Y-15165643D01*
X22341071Y-15151357D01*
X14970000Y-15727000D02*
X14970000Y-15782000D01*
X14942500Y-15754500D02*
X14997500Y-15754500D01*
X15341071Y-15590214D02*
X15369643Y-15590214D01*
X15398214Y-15604500D01*
X15412500Y-15618786D01*
X15426786Y-15647357D01*
X15441071Y-15704500D01*
X15441071Y-15775929D01*
X15426786Y-15833071D01*
X15412500Y-15861643D01*
X15398214Y-15875929D01*
X15369643Y-15890214D01*
X15341071Y-15890214D01*
X15312500Y-15875929D01*
X15298214Y-15861643D01*
X15283928Y-15833071D01*
X15269643Y-15775929D01*
X15269643Y-15704500D01*
X15283928Y-15647357D01*
X15298214Y-15618786D01*
X15312500Y-15604500D01*
X15341071Y-15590214D01*
X15569643Y-15861643D02*
X15583928Y-15875929D01*
X15569643Y-15890214D01*
X15555357Y-15875929D01*
X15569643Y-15861643D01*
X15569643Y-15890214D01*
X15855357Y-15590214D02*
X15712500Y-15590214D01*
X15698214Y-15733071D01*
X15712500Y-15718786D01*
X15741071Y-15704500D01*
X15812500Y-15704500D01*
X15841071Y-15718786D01*
X15855357Y-15733071D01*
X15869643Y-15761643D01*
X15869643Y-15833071D01*
X15855357Y-15861643D01*
X15841071Y-15875929D01*
X15812500Y-15890214D01*
X15741071Y-15890214D01*
X15712500Y-15875929D01*
X15698214Y-15861643D01*
X16141071Y-15590214D02*
X15998214Y-15590214D01*
X15983928Y-15733071D01*
X15998214Y-15718786D01*
X16026786Y-15704500D01*
X16098214Y-15704500D01*
X16126786Y-15718786D01*
X16141071Y-15733071D01*
X16155357Y-15761643D01*
X16155357Y-15833071D01*
X16141071Y-15861643D01*
X16126786Y-15875929D01*
X16098214Y-15890214D01*
X16026786Y-15890214D01*
X15998214Y-15875929D01*
X15983928Y-15861643D01*
X16341071Y-15590214D02*
X16369643Y-15590214D01*
X16398214Y-15604500D01*
X16412500Y-15618786D01*
X16426786Y-15647357D01*
X16441071Y-15704500D01*
X16441071Y-15775929D01*
X16426786Y-15833071D01*
X16412500Y-15861643D01*
X16398214Y-15875929D01*
X16369643Y-15890214D01*
X16341071Y-15890214D01*
X16312500Y-15875929D01*
X16298214Y-15861643D01*
X16283928Y-15833071D01*
X16269643Y-15775929D01*
X16269643Y-15704500D01*
X16283928Y-15647357D01*
X16298214Y-15618786D01*
X16312500Y-15604500D01*
X16341071Y-15590214D01*
X16569643Y-15890214D02*
X16569643Y-15690214D01*
X16569643Y-15718786D02*
X16583928Y-15704500D01*
X16612500Y-15690214D01*
X16655357Y-15690214D01*
X16683928Y-15704500D01*
X16698214Y-15733071D01*
X16698214Y-15890214D01*
X16698214Y-15733071D02*
X16712500Y-15704500D01*
X16741071Y-15690214D01*
X16783928Y-15690214D01*
X16812500Y-15704500D01*
X16826786Y-15733071D01*
X16826786Y-15890214D01*
X16969643Y-15890214D02*
X16969643Y-15690214D01*
X16969643Y-15718786D02*
X16983928Y-15704500D01*
X17012500Y-15690214D01*
X17055357Y-15690214D01*
X17083928Y-15704500D01*
X17098214Y-15733071D01*
X17098214Y-15890214D01*
X17098214Y-15733071D02*
X17112500Y-15704500D01*
X17141071Y-15690214D01*
X17183928Y-15690214D01*
X17212500Y-15704500D01*
X17226786Y-15733071D01*
X17226786Y-15890214D01*
X17812500Y-15575929D02*
X17555357Y-15961643D01*
X18198214Y-15590214D02*
X18226786Y-15590214D01*
X18255357Y-15604500D01*
X18269643Y-15618786D01*
X18283928Y-15647357D01*
X18298214Y-15704500D01*
X18298214Y-15775929D01*
X18283928Y-15833071D01*
X18269643Y-15861643D01*
X18255357Y-15875929D01*
X18226786Y-15890214D01*
X18198214Y-15890214D01*
X18169643Y-15875929D01*
X18155357Y-15861643D01*
X18141071Y-15833071D01*
X18126786Y-15775929D01*
X18126786Y-15704500D01*
X18141071Y-15647357D01*
X18155357Y-15618786D01*
X18169643Y-15604500D01*
X18198214Y-15590214D01*
X18426786Y-15861643D02*
X18441071Y-15875929D01*
X18426786Y-15890214D01*
X18412500Y-15875929D01*
X18426786Y-15861643D01*
X18426786Y-15890214D01*
X18626786Y-15590214D02*
X18655357Y-15590214D01*
X18683928Y-15604500D01*
X18698214Y-15618786D01*
X18712500Y-15647357D01*
X18726786Y-15704500D01*
X18726786Y-15775929D01*
X18712500Y-15833071D01*
X18698214Y-15861643D01*
X18683928Y-15875929D01*
X18655357Y-15890214D01*
X18626786Y-15890214D01*
X18598214Y-15875929D01*
X18583928Y-15861643D01*
X18569643Y-15833071D01*
X18555357Y-15775929D01*
X18555357Y-15704500D01*
X18569643Y-15647357D01*
X18583928Y-15618786D01*
X18598214Y-15604500D01*
X18626786Y-15590214D01*
X18841071Y-15618786D02*
X18855357Y-15604500D01*
X18883928Y-15590214D01*
X18955357Y-15590214D01*
X18983928Y-15604500D01*
X18998214Y-15618786D01*
X19012500Y-15647357D01*
X19012500Y-15675929D01*
X18998214Y-15718786D01*
X18826786Y-15890214D01*
X19012500Y-15890214D01*
X19298214Y-15890214D02*
X19126786Y-15890214D01*
X19212500Y-15890214D02*
X19212500Y-15590214D01*
X19183928Y-15633071D01*
X19155357Y-15661643D01*
X19126786Y-15675929D01*
X19398214Y-15590214D02*
X19598214Y-15590214D01*
X19469643Y-15890214D01*
X19698214Y-15590214D02*
X19698214Y-15647357D01*
X19812500Y-15590214D02*
X19812500Y-15647357D01*
X20255357Y-16004500D02*
X20241071Y-15990214D01*
X20212500Y-15947357D01*
X20198214Y-15918786D01*
X20183928Y-15875929D01*
X20169643Y-15804500D01*
X20169643Y-15747357D01*
X20183928Y-15675929D01*
X20198214Y-15633071D01*
X20212500Y-15604500D01*
X20241071Y-15561643D01*
X20255357Y-15547357D01*
X20355357Y-15618786D02*
X20369643Y-15604500D01*
X20398214Y-15590214D01*
X20469643Y-15590214D01*
X20498214Y-15604500D01*
X20512500Y-15618786D01*
X20526786Y-15647357D01*
X20526786Y-15675929D01*
X20512500Y-15718786D01*
X20341071Y-15890214D01*
X20526786Y-15890214D01*
X20883928Y-15890214D02*
X20883928Y-15590214D01*
X21012500Y-15890214D02*
X21012500Y-15733071D01*
X20998214Y-15704500D01*
X20969643Y-15690214D01*
X20926786Y-15690214D01*
X20898214Y-15704500D01*
X20883928Y-15718786D01*
X21198214Y-15890214D02*
X21169643Y-15875929D01*
X21155357Y-15861643D01*
X21141071Y-15833071D01*
X21141071Y-15747357D01*
X21155357Y-15718786D01*
X21169643Y-15704500D01*
X21198214Y-15690214D01*
X21241071Y-15690214D01*
X21269643Y-15704500D01*
X21283928Y-15718786D01*
X21298214Y-15747357D01*
X21298214Y-15833071D01*
X21283928Y-15861643D01*
X21269643Y-15875929D01*
X21241071Y-15890214D01*
X21198214Y-15890214D01*
X21469643Y-15890214D02*
X21441071Y-15875929D01*
X21426786Y-15847357D01*
X21426786Y-15590214D01*
X21698214Y-15875929D02*
X21669643Y-15890214D01*
X21612500Y-15890214D01*
X21583928Y-15875929D01*
X21569643Y-15847357D01*
X21569643Y-15733071D01*
X21583928Y-15704500D01*
X21612500Y-15690214D01*
X21669643Y-15690214D01*
X21698214Y-15704500D01*
X21712500Y-15733071D01*
X21712500Y-15761643D01*
X21569643Y-15790214D01*
X21826786Y-15875929D02*
X21855357Y-15890214D01*
X21912500Y-15890214D01*
X21941071Y-15875929D01*
X21955357Y-15847357D01*
X21955357Y-15833071D01*
X21941071Y-15804500D01*
X21912500Y-15790214D01*
X21869643Y-15790214D01*
X21841071Y-15775929D01*
X21826786Y-15747357D01*
X21826786Y-15733071D01*
X21841071Y-15704500D01*
X21869643Y-15690214D01*
X21912500Y-15690214D01*
X21941071Y-15704500D01*
X22055357Y-16004500D02*
X22069643Y-15990214D01*
X22098214Y-15947357D01*
X22112500Y-15918786D01*
X22126786Y-15875929D01*
X22141071Y-15804500D01*
X22141071Y-15747357D01*
X22126786Y-15675929D01*
X22112500Y-15633071D01*
X22098214Y-15604500D01*
X22069643Y-15561643D01*
X22055357Y-15547357D01*
X14982856Y-16185856D02*
X14982856Y-16115144D01*
X14912144Y-16115144D01*
X14912144Y-16185856D01*
X14982856Y-16185856D01*
X15441071Y-16286214D02*
X15269643Y-16286214D01*
X15355357Y-16286214D02*
X15355357Y-15986214D01*
X15326786Y-16029071D01*
X15298214Y-16057643D01*
X15269643Y-16071929D01*
X15569643Y-16257643D02*
X15583928Y-16271929D01*
X15569643Y-16286214D01*
X15555357Y-16271929D01*
X15569643Y-16257643D01*
X15569643Y-16286214D01*
X15769643Y-15986214D02*
X15798214Y-15986214D01*
X15826786Y-16000500D01*
X15841071Y-16014786D01*
X15855357Y-16043357D01*
X15869643Y-16100500D01*
X15869643Y-16171929D01*
X15855357Y-16229071D01*
X15841071Y-16257643D01*
X15826786Y-16271929D01*
X15798214Y-16286214D01*
X15769643Y-16286214D01*
X15741071Y-16271929D01*
X15726786Y-16257643D01*
X15712500Y-16229071D01*
X15698214Y-16171929D01*
X15698214Y-16100500D01*
X15712500Y-16043357D01*
X15726786Y-16014786D01*
X15741071Y-16000500D01*
X15769643Y-15986214D01*
X16055357Y-15986214D02*
X16083928Y-15986214D01*
X16112500Y-16000500D01*
X16126786Y-16014786D01*
X16141071Y-16043357D01*
X16155357Y-16100500D01*
X16155357Y-16171929D01*
X16141071Y-16229071D01*
X16126786Y-16257643D01*
X16112500Y-16271929D01*
X16083928Y-16286214D01*
X16055357Y-16286214D01*
X16026786Y-16271929D01*
X16012500Y-16257643D01*
X15998214Y-16229071D01*
X15983928Y-16171929D01*
X15983928Y-16100500D01*
X15998214Y-16043357D01*
X16012500Y-16014786D01*
X16026786Y-16000500D01*
X16055357Y-15986214D01*
X16341071Y-15986214D02*
X16369643Y-15986214D01*
X16398214Y-16000500D01*
X16412500Y-16014786D01*
X16426786Y-16043357D01*
X16441071Y-16100500D01*
X16441071Y-16171929D01*
X16426786Y-16229071D01*
X16412500Y-16257643D01*
X16398214Y-16271929D01*
X16369643Y-16286214D01*
X16341071Y-16286214D01*
X16312500Y-16271929D01*
X16298214Y-16257643D01*
X16283928Y-16229071D01*
X16269643Y-16171929D01*
X16269643Y-16100500D01*
X16283928Y-16043357D01*
X16298214Y-16014786D01*
X16312500Y-16000500D01*
X16341071Y-15986214D01*
X16569643Y-16286214D02*
X16569643Y-16086214D01*
X16569643Y-16114786D02*
X16583928Y-16100500D01*
X16612500Y-16086214D01*
X16655357Y-16086214D01*
X16683928Y-16100500D01*
X16698214Y-16129071D01*
X16698214Y-16286214D01*
X16698214Y-16129071D02*
X16712500Y-16100500D01*
X16741071Y-16086214D01*
X16783928Y-16086214D01*
X16812500Y-16100500D01*
X16826786Y-16129071D01*
X16826786Y-16286214D01*
X16969643Y-16286214D02*
X16969643Y-16086214D01*
X16969643Y-16114786D02*
X16983928Y-16100500D01*
X17012500Y-16086214D01*
X17055357Y-16086214D01*
X17083928Y-16100500D01*
X17098214Y-16129071D01*
X17098214Y-16286214D01*
X17098214Y-16129071D02*
X17112500Y-16100500D01*
X17141071Y-16086214D01*
X17183928Y-16086214D01*
X17212500Y-16100500D01*
X17226786Y-16129071D01*
X17226786Y-16286214D01*
X17812500Y-15971929D02*
X17555357Y-16357643D01*
X18198214Y-15986214D02*
X18226786Y-15986214D01*
X18255357Y-16000500D01*
X18269643Y-16014786D01*
X18283928Y-16043357D01*
X18298214Y-16100500D01*
X18298214Y-16171929D01*
X18283928Y-16229071D01*
X18269643Y-16257643D01*
X18255357Y-16271929D01*
X18226786Y-16286214D01*
X18198214Y-16286214D01*
X18169643Y-16271929D01*
X18155357Y-16257643D01*
X18141071Y-16229071D01*
X18126786Y-16171929D01*
X18126786Y-16100500D01*
X18141071Y-16043357D01*
X18155357Y-16014786D01*
X18169643Y-16000500D01*
X18198214Y-15986214D01*
X18426786Y-16257643D02*
X18441071Y-16271929D01*
X18426786Y-16286214D01*
X18412500Y-16271929D01*
X18426786Y-16257643D01*
X18426786Y-16286214D01*
X18626786Y-15986214D02*
X18655357Y-15986214D01*
X18683928Y-16000500D01*
X18698214Y-16014786D01*
X18712500Y-16043357D01*
X18726786Y-16100500D01*
X18726786Y-16171929D01*
X18712500Y-16229071D01*
X18698214Y-16257643D01*
X18683928Y-16271929D01*
X18655357Y-16286214D01*
X18626786Y-16286214D01*
X18598214Y-16271929D01*
X18583928Y-16257643D01*
X18569643Y-16229071D01*
X18555357Y-16171929D01*
X18555357Y-16100500D01*
X18569643Y-16043357D01*
X18583928Y-16014786D01*
X18598214Y-16000500D01*
X18626786Y-15986214D01*
X18826786Y-15986214D02*
X19012500Y-15986214D01*
X18912500Y-16100500D01*
X18955357Y-16100500D01*
X18983928Y-16114786D01*
X18998214Y-16129071D01*
X19012500Y-16157643D01*
X19012500Y-16229071D01*
X18998214Y-16257643D01*
X18983928Y-16271929D01*
X18955357Y-16286214D01*
X18869643Y-16286214D01*
X18841071Y-16271929D01*
X18826786Y-16257643D01*
X19155357Y-16286214D02*
X19212500Y-16286214D01*
X19241071Y-16271929D01*
X19255357Y-16257643D01*
X19283928Y-16214786D01*
X19298214Y-16157643D01*
X19298214Y-16043357D01*
X19283928Y-16014786D01*
X19269643Y-16000500D01*
X19241071Y-15986214D01*
X19183928Y-15986214D01*
X19155357Y-16000500D01*
X19141071Y-16014786D01*
X19126786Y-16043357D01*
X19126786Y-16114786D01*
X19141071Y-16143357D01*
X19155357Y-16157643D01*
X19183928Y-16171929D01*
X19241071Y-16171929D01*
X19269643Y-16157643D01*
X19283928Y-16143357D01*
X19298214Y-16114786D01*
X19555357Y-16086214D02*
X19555357Y-16286214D01*
X19483928Y-15971929D02*
X19412500Y-16186214D01*
X19598214Y-16186214D01*
X19698214Y-15986214D02*
X19698214Y-16043357D01*
X19812500Y-15986214D02*
X19812500Y-16043357D01*
X20255357Y-16400500D02*
X20241071Y-16386214D01*
X20212500Y-16343357D01*
X20198214Y-16314786D01*
X20183928Y-16271929D01*
X20169643Y-16200500D01*
X20169643Y-16143357D01*
X20183928Y-16071929D01*
X20198214Y-16029071D01*
X20212500Y-16000500D01*
X20241071Y-15957643D01*
X20255357Y-15943357D01*
X20355357Y-16014786D02*
X20369643Y-16000500D01*
X20398214Y-15986214D01*
X20469643Y-15986214D01*
X20498214Y-16000500D01*
X20512500Y-16014786D01*
X20526786Y-16043357D01*
X20526786Y-16071929D01*
X20512500Y-16114786D01*
X20341071Y-16286214D01*
X20526786Y-16286214D01*
X20712500Y-15986214D02*
X20741071Y-15986214D01*
X20769643Y-16000500D01*
X20783928Y-16014786D01*
X20798214Y-16043357D01*
X20812500Y-16100500D01*
X20812500Y-16171929D01*
X20798214Y-16229071D01*
X20783928Y-16257643D01*
X20769643Y-16271929D01*
X20741071Y-16286214D01*
X20712500Y-16286214D01*
X20683928Y-16271929D01*
X20669643Y-16257643D01*
X20655357Y-16229071D01*
X20641071Y-16171929D01*
X20641071Y-16100500D01*
X20655357Y-16043357D01*
X20669643Y-16014786D01*
X20683928Y-16000500D01*
X20712500Y-15986214D01*
X21169643Y-16286214D02*
X21169643Y-15986214D01*
X21298214Y-16286214D02*
X21298214Y-16129071D01*
X21283928Y-16100500D01*
X21255357Y-16086214D01*
X21212500Y-16086214D01*
X21183928Y-16100500D01*
X21169643Y-16114786D01*
X21483928Y-16286214D02*
X21455357Y-16271929D01*
X21441071Y-16257643D01*
X21426786Y-16229071D01*
X21426786Y-16143357D01*
X21441071Y-16114786D01*
X21455357Y-16100500D01*
X21483928Y-16086214D01*
X21526786Y-16086214D01*
X21555357Y-16100500D01*
X21569643Y-16114786D01*
X21583928Y-16143357D01*
X21583928Y-16229071D01*
X21569643Y-16257643D01*
X21555357Y-16271929D01*
X21526786Y-16286214D01*
X21483928Y-16286214D01*
X21755357Y-16286214D02*
X21726786Y-16271929D01*
X21712500Y-16243357D01*
X21712500Y-15986214D01*
X21983928Y-16271929D02*
X21955357Y-16286214D01*
X21898214Y-16286214D01*
X21869643Y-16271929D01*
X21855357Y-16243357D01*
X21855357Y-16129071D01*
X21869643Y-16100500D01*
X21898214Y-16086214D01*
X21955357Y-16086214D01*
X21983928Y-16100500D01*
X21998214Y-16129071D01*
X21998214Y-16157643D01*
X21855357Y-16186214D01*
X22112500Y-16271929D02*
X22141071Y-16286214D01*
X22198214Y-16286214D01*
X22226786Y-16271929D01*
X22241071Y-16243357D01*
X22241071Y-16229071D01*
X22226786Y-16200500D01*
X22198214Y-16186214D01*
X22155357Y-16186214D01*
X22126786Y-16171929D01*
X22112500Y-16143357D01*
X22112500Y-16129071D01*
X22126786Y-16100500D01*
X22155357Y-16086214D01*
X22198214Y-16086214D01*
X22226786Y-16100500D01*
X22341071Y-16400500D02*
X22355357Y-16386214D01*
X22383928Y-16343357D01*
X22398214Y-16314786D01*
X22412500Y-16271929D01*
X22426786Y-16200500D01*
X22426786Y-16143357D01*
X22412500Y-16071929D01*
X22398214Y-16029071D01*
X22383928Y-16000500D01*
X22355357Y-15957643D01*
X22341071Y-15943357D01*
M02*
