%TF.GenerationSoftware,KiCad,Pcbnew,(5.1.12)-1*%
%TF.CreationDate,2022-03-26T18:35:52+01:00*%
%TF.ProjectId,Duino Coin,4475696e-6f20-4436-9f69-6e2e6b696361,rev?*%
%TF.SameCoordinates,Original*%
%TF.FileFunction,Copper,L4,Bot*%
%TF.FilePolarity,Positive*%
%FSLAX46Y46*%
G04 Gerber Fmt 4.6, Leading zero omitted, Abs format (unit mm)*
G04 Created by KiCad (PCBNEW (5.1.12)-1) date 2022-03-26 18:35:52*
%MOMM*%
%LPD*%
G01*
G04 APERTURE LIST*
%TA.AperFunction,ComponentPad*%
%ADD10O,1.700000X1.700000*%
%TD*%
%TA.AperFunction,ComponentPad*%
%ADD11R,1.700000X1.700000*%
%TD*%
%TA.AperFunction,SMDPad,CuDef*%
%ADD12R,2.000000X2.400000*%
%TD*%
%TA.AperFunction,SMDPad,CuDef*%
%ADD13R,0.400000X1.200000*%
%TD*%
%TA.AperFunction,ViaPad*%
%ADD14C,0.600000*%
%TD*%
%TA.AperFunction,ViaPad*%
%ADD15C,0.900000*%
%TD*%
%TA.AperFunction,Conductor*%
%ADD16C,0.300000*%
%TD*%
%TA.AperFunction,Conductor*%
%ADD17C,0.400000*%
%TD*%
%TA.AperFunction,Conductor*%
%ADD18C,0.200000*%
%TD*%
%TA.AperFunction,Conductor*%
%ADD19C,0.228600*%
%TD*%
G04 APERTURE END LIST*
D10*
%TO.P,J2,4*%
%TO.N,/SS4*%
X198450200Y-109423200D03*
%TO.P,J2,3*%
%TO.N,/SCK4*%
X198450200Y-111963200D03*
%TO.P,J2,2*%
%TO.N,/MISO4*%
X198450200Y-114503200D03*
D11*
%TO.P,J2,1*%
%TO.N,/MOSI4*%
X198450200Y-117043200D03*
%TD*%
%TO.P,J6,1*%
%TO.N,/MOSI1*%
X175417480Y-117012720D03*
D10*
%TO.P,J6,2*%
%TO.N,/MISO1*%
X175417480Y-114472720D03*
%TO.P,J6,3*%
%TO.N,/SCK1*%
X175417480Y-111932720D03*
%TO.P,J6,4*%
%TO.N,/SS1*%
X175417480Y-109392720D03*
%TD*%
%TO.P,J5,4*%
%TO.N,/SS2*%
X167640000Y-135775700D03*
%TO.P,J5,3*%
%TO.N,/SCK2*%
X165100000Y-135775700D03*
%TO.P,J5,2*%
%TO.N,/MISO2*%
X162560000Y-135775700D03*
D11*
%TO.P,J5,1*%
%TO.N,/MOSI2*%
X160020000Y-135775700D03*
%TD*%
D10*
%TO.P,J3,4*%
%TO.N,/SS3*%
X190284100Y-135801100D03*
%TO.P,J3,3*%
%TO.N,/SCK3*%
X187744100Y-135801100D03*
%TO.P,J3,2*%
%TO.N,/MISO3*%
X185204100Y-135801100D03*
D11*
%TO.P,J3,1*%
%TO.N,/MOSI3*%
X182664100Y-135801100D03*
%TD*%
%TO.P,J4,1*%
%TO.N,+5V*%
X190296800Y-99771200D03*
D10*
%TO.P,J4,2*%
%TO.N,/D-*%
X187756800Y-99771200D03*
%TO.P,J4,3*%
%TO.N,/D+*%
X185216800Y-99771200D03*
%TO.P,J4,4*%
%TO.N,GND*%
X182676800Y-99771200D03*
%TD*%
D12*
%TO.P,Y5,2*%
%TO.N,Net-(U5-Pad3)*%
X176407200Y-105664000D03*
%TO.P,Y5,1*%
%TO.N,Net-(U5-Pad2)*%
X180107200Y-105664000D03*
%TD*%
%TO.P,R9,2*%
%TO.N,Net-(D1-Pad2)*%
%TA.AperFunction,SMDPad,CuDef*%
G36*
G01*
X186099500Y-114865999D02*
X186099500Y-115766001D01*
G75*
G02*
X185849501Y-116016000I-249999J0D01*
G01*
X185149499Y-116016000D01*
G75*
G02*
X184899500Y-115766001I0J249999D01*
G01*
X184899500Y-114865999D01*
G75*
G02*
X185149499Y-114616000I249999J0D01*
G01*
X185849501Y-114616000D01*
G75*
G02*
X186099500Y-114865999I0J-249999D01*
G01*
G37*
%TD.AperFunction*%
%TO.P,R9,1*%
%TO.N,+5V*%
%TA.AperFunction,SMDPad,CuDef*%
G36*
G01*
X188099500Y-114865999D02*
X188099500Y-115766001D01*
G75*
G02*
X187849501Y-116016000I-249999J0D01*
G01*
X187149499Y-116016000D01*
G75*
G02*
X186899500Y-115766001I0J249999D01*
G01*
X186899500Y-114865999D01*
G75*
G02*
X187149499Y-114616000I249999J0D01*
G01*
X187849501Y-114616000D01*
G75*
G02*
X188099500Y-114865999I0J-249999D01*
G01*
G37*
%TD.AperFunction*%
%TD*%
%TO.P,R10,2*%
%TO.N,Net-(D2-Pad2)*%
%TA.AperFunction,SMDPad,CuDef*%
G36*
G01*
X180129601Y-110699600D02*
X179229599Y-110699600D01*
G75*
G02*
X178979600Y-110449601I0J249999D01*
G01*
X178979600Y-109749599D01*
G75*
G02*
X179229599Y-109499600I249999J0D01*
G01*
X180129601Y-109499600D01*
G75*
G02*
X180379600Y-109749599I0J-249999D01*
G01*
X180379600Y-110449601D01*
G75*
G02*
X180129601Y-110699600I-249999J0D01*
G01*
G37*
%TD.AperFunction*%
%TO.P,R10,1*%
%TO.N,+5V*%
%TA.AperFunction,SMDPad,CuDef*%
G36*
G01*
X180129601Y-112699600D02*
X179229599Y-112699600D01*
G75*
G02*
X178979600Y-112449601I0J249999D01*
G01*
X178979600Y-111749599D01*
G75*
G02*
X179229599Y-111499600I249999J0D01*
G01*
X180129601Y-111499600D01*
G75*
G02*
X180379600Y-111749599I0J-249999D01*
G01*
X180379600Y-112449601D01*
G75*
G02*
X180129601Y-112699600I-249999J0D01*
G01*
G37*
%TD.AperFunction*%
%TD*%
%TO.P,R11,2*%
%TO.N,Net-(D3-Pad2)*%
%TA.AperFunction,SMDPad,CuDef*%
G36*
G01*
X157016500Y-130550499D02*
X157016500Y-131450501D01*
G75*
G02*
X156766501Y-131700500I-249999J0D01*
G01*
X156066499Y-131700500D01*
G75*
G02*
X155816500Y-131450501I0J249999D01*
G01*
X155816500Y-130550499D01*
G75*
G02*
X156066499Y-130300500I249999J0D01*
G01*
X156766501Y-130300500D01*
G75*
G02*
X157016500Y-130550499I0J-249999D01*
G01*
G37*
%TD.AperFunction*%
%TO.P,R11,1*%
%TO.N,+5V*%
%TA.AperFunction,SMDPad,CuDef*%
G36*
G01*
X159016500Y-130550499D02*
X159016500Y-131450501D01*
G75*
G02*
X158766501Y-131700500I-249999J0D01*
G01*
X158066499Y-131700500D01*
G75*
G02*
X157816500Y-131450501I0J249999D01*
G01*
X157816500Y-130550499D01*
G75*
G02*
X158066499Y-130300500I249999J0D01*
G01*
X158766501Y-130300500D01*
G75*
G02*
X159016500Y-130550499I0J-249999D01*
G01*
G37*
%TD.AperFunction*%
%TD*%
%TO.P,R12,2*%
%TO.N,Net-(D4-Pad2)*%
%TA.AperFunction,SMDPad,CuDef*%
G36*
G01*
X153931199Y-120846800D02*
X154831201Y-120846800D01*
G75*
G02*
X155081200Y-121096799I0J-249999D01*
G01*
X155081200Y-121796801D01*
G75*
G02*
X154831201Y-122046800I-249999J0D01*
G01*
X153931199Y-122046800D01*
G75*
G02*
X153681200Y-121796801I0J249999D01*
G01*
X153681200Y-121096799D01*
G75*
G02*
X153931199Y-120846800I249999J0D01*
G01*
G37*
%TD.AperFunction*%
%TO.P,R12,1*%
%TO.N,+5V*%
%TA.AperFunction,SMDPad,CuDef*%
G36*
G01*
X153931199Y-118846800D02*
X154831201Y-118846800D01*
G75*
G02*
X155081200Y-119096799I0J-249999D01*
G01*
X155081200Y-119796801D01*
G75*
G02*
X154831201Y-120046800I-249999J0D01*
G01*
X153931199Y-120046800D01*
G75*
G02*
X153681200Y-119796801I0J249999D01*
G01*
X153681200Y-119096799D01*
G75*
G02*
X153931199Y-118846800I249999J0D01*
G01*
G37*
%TD.AperFunction*%
%TD*%
%TO.P,R13,2*%
%TO.N,Net-(D5-Pad2)*%
%TA.AperFunction,SMDPad,CuDef*%
G36*
G01*
X186036000Y-130550499D02*
X186036000Y-131450501D01*
G75*
G02*
X185786001Y-131700500I-249999J0D01*
G01*
X185085999Y-131700500D01*
G75*
G02*
X184836000Y-131450501I0J249999D01*
G01*
X184836000Y-130550499D01*
G75*
G02*
X185085999Y-130300500I249999J0D01*
G01*
X185786001Y-130300500D01*
G75*
G02*
X186036000Y-130550499I0J-249999D01*
G01*
G37*
%TD.AperFunction*%
%TO.P,R13,1*%
%TO.N,+5V*%
%TA.AperFunction,SMDPad,CuDef*%
G36*
G01*
X188036000Y-130550499D02*
X188036000Y-131450501D01*
G75*
G02*
X187786001Y-131700500I-249999J0D01*
G01*
X187085999Y-131700500D01*
G75*
G02*
X186836000Y-131450501I0J249999D01*
G01*
X186836000Y-130550499D01*
G75*
G02*
X187085999Y-130300500I249999J0D01*
G01*
X187786001Y-130300500D01*
G75*
G02*
X188036000Y-130550499I0J-249999D01*
G01*
G37*
%TD.AperFunction*%
%TD*%
%TO.P,R14,2*%
%TO.N,Net-(D6-Pad2)*%
%TA.AperFunction,SMDPad,CuDef*%
G36*
G01*
X180129601Y-126396800D02*
X179229599Y-126396800D01*
G75*
G02*
X178979600Y-126146801I0J249999D01*
G01*
X178979600Y-125446799D01*
G75*
G02*
X179229599Y-125196800I249999J0D01*
G01*
X180129601Y-125196800D01*
G75*
G02*
X180379600Y-125446799I0J-249999D01*
G01*
X180379600Y-126146801D01*
G75*
G02*
X180129601Y-126396800I-249999J0D01*
G01*
G37*
%TD.AperFunction*%
%TO.P,R14,1*%
%TO.N,+5V*%
%TA.AperFunction,SMDPad,CuDef*%
G36*
G01*
X180129601Y-128396800D02*
X179229599Y-128396800D01*
G75*
G02*
X178979600Y-128146801I0J249999D01*
G01*
X178979600Y-127446799D01*
G75*
G02*
X179229599Y-127196800I249999J0D01*
G01*
X180129601Y-127196800D01*
G75*
G02*
X180379600Y-127446799I0J-249999D01*
G01*
X180379600Y-128146801D01*
G75*
G02*
X180129601Y-128396800I-249999J0D01*
G01*
G37*
%TD.AperFunction*%
%TD*%
%TO.P,R15,2*%
%TO.N,Net-(D7-Pad2)*%
%TA.AperFunction,SMDPad,CuDef*%
G36*
G01*
X157016500Y-114929499D02*
X157016500Y-115829501D01*
G75*
G02*
X156766501Y-116079500I-249999J0D01*
G01*
X156066499Y-116079500D01*
G75*
G02*
X155816500Y-115829501I0J249999D01*
G01*
X155816500Y-114929499D01*
G75*
G02*
X156066499Y-114679500I249999J0D01*
G01*
X156766501Y-114679500D01*
G75*
G02*
X157016500Y-114929499I0J-249999D01*
G01*
G37*
%TD.AperFunction*%
%TO.P,R15,1*%
%TO.N,+5V*%
%TA.AperFunction,SMDPad,CuDef*%
G36*
G01*
X159016500Y-114929499D02*
X159016500Y-115829501D01*
G75*
G02*
X158766501Y-116079500I-249999J0D01*
G01*
X158066499Y-116079500D01*
G75*
G02*
X157816500Y-115829501I0J249999D01*
G01*
X157816500Y-114929499D01*
G75*
G02*
X158066499Y-114679500I249999J0D01*
G01*
X158766501Y-114679500D01*
G75*
G02*
X159016500Y-114929499I0J-249999D01*
G01*
G37*
%TD.AperFunction*%
%TD*%
%TO.P,R16,2*%
%TO.N,Net-(D8-Pad2)*%
%TA.AperFunction,SMDPad,CuDef*%
G36*
G01*
X153880399Y-105200400D02*
X154780401Y-105200400D01*
G75*
G02*
X155030400Y-105450399I0J-249999D01*
G01*
X155030400Y-106150401D01*
G75*
G02*
X154780401Y-106400400I-249999J0D01*
G01*
X153880399Y-106400400D01*
G75*
G02*
X153630400Y-106150401I0J249999D01*
G01*
X153630400Y-105450399D01*
G75*
G02*
X153880399Y-105200400I249999J0D01*
G01*
G37*
%TD.AperFunction*%
%TO.P,R16,1*%
%TO.N,+5V*%
%TA.AperFunction,SMDPad,CuDef*%
G36*
G01*
X153880399Y-103200400D02*
X154780401Y-103200400D01*
G75*
G02*
X155030400Y-103450399I0J-249999D01*
G01*
X155030400Y-104150401D01*
G75*
G02*
X154780401Y-104400400I-249999J0D01*
G01*
X153880399Y-104400400D01*
G75*
G02*
X153630400Y-104150401I0J249999D01*
G01*
X153630400Y-103450399D01*
G75*
G02*
X153880399Y-103200400I249999J0D01*
G01*
G37*
%TD.AperFunction*%
%TD*%
%TO.P,C4,2*%
%TO.N,GND*%
%TA.AperFunction,SMDPad,CuDef*%
G36*
G01*
X192018500Y-130906500D02*
X192018500Y-131856500D01*
G75*
G02*
X191768500Y-132106500I-250000J0D01*
G01*
X191093500Y-132106500D01*
G75*
G02*
X190843500Y-131856500I0J250000D01*
G01*
X190843500Y-130906500D01*
G75*
G02*
X191093500Y-130656500I250000J0D01*
G01*
X191768500Y-130656500D01*
G75*
G02*
X192018500Y-130906500I0J-250000D01*
G01*
G37*
%TD.AperFunction*%
%TO.P,C4,1*%
%TO.N,+5V*%
%TA.AperFunction,SMDPad,CuDef*%
G36*
G01*
X194093500Y-130906500D02*
X194093500Y-131856500D01*
G75*
G02*
X193843500Y-132106500I-250000J0D01*
G01*
X193168500Y-132106500D01*
G75*
G02*
X192918500Y-131856500I0J250000D01*
G01*
X192918500Y-130906500D01*
G75*
G02*
X193168500Y-130656500I250000J0D01*
G01*
X193843500Y-130656500D01*
G75*
G02*
X194093500Y-130906500I0J-250000D01*
G01*
G37*
%TD.AperFunction*%
%TD*%
%TO.P,U3,1*%
%TO.N,GND*%
%TA.AperFunction,SMDPad,CuDef*%
G36*
G01*
X189209000Y-128864500D02*
X189209000Y-128564500D01*
G75*
G02*
X189359000Y-128414500I150000J0D01*
G01*
X191009000Y-128414500D01*
G75*
G02*
X191159000Y-128564500I0J-150000D01*
G01*
X191159000Y-128864500D01*
G75*
G02*
X191009000Y-129014500I-150000J0D01*
G01*
X189359000Y-129014500D01*
G75*
G02*
X189209000Y-128864500I0J150000D01*
G01*
G37*
%TD.AperFunction*%
%TO.P,U3,2*%
%TO.N,Net-(R3-Pad2)*%
%TA.AperFunction,SMDPad,CuDef*%
G36*
G01*
X189209000Y-127594500D02*
X189209000Y-127294500D01*
G75*
G02*
X189359000Y-127144500I150000J0D01*
G01*
X191009000Y-127144500D01*
G75*
G02*
X191159000Y-127294500I0J-150000D01*
G01*
X191159000Y-127594500D01*
G75*
G02*
X191009000Y-127744500I-150000J0D01*
G01*
X189359000Y-127744500D01*
G75*
G02*
X189209000Y-127594500I0J150000D01*
G01*
G37*
%TD.AperFunction*%
%TO.P,U3,3*%
%TO.N,Net-(R7-Pad1)*%
%TA.AperFunction,SMDPad,CuDef*%
G36*
G01*
X189209000Y-126324500D02*
X189209000Y-126024500D01*
G75*
G02*
X189359000Y-125874500I150000J0D01*
G01*
X191009000Y-125874500D01*
G75*
G02*
X191159000Y-126024500I0J-150000D01*
G01*
X191159000Y-126324500D01*
G75*
G02*
X191009000Y-126474500I-150000J0D01*
G01*
X189359000Y-126474500D01*
G75*
G02*
X189209000Y-126324500I0J150000D01*
G01*
G37*
%TD.AperFunction*%
%TO.P,U3,4*%
%TO.N,+5V*%
%TA.AperFunction,SMDPad,CuDef*%
G36*
G01*
X189209000Y-125054500D02*
X189209000Y-124754500D01*
G75*
G02*
X189359000Y-124604500I150000J0D01*
G01*
X191009000Y-124604500D01*
G75*
G02*
X191159000Y-124754500I0J-150000D01*
G01*
X191159000Y-125054500D01*
G75*
G02*
X191009000Y-125204500I-150000J0D01*
G01*
X189359000Y-125204500D01*
G75*
G02*
X189209000Y-125054500I0J150000D01*
G01*
G37*
%TD.AperFunction*%
%TO.P,U3,5*%
%TO.N,/D3_P*%
%TA.AperFunction,SMDPad,CuDef*%
G36*
G01*
X189209000Y-123784500D02*
X189209000Y-123484500D01*
G75*
G02*
X189359000Y-123334500I150000J0D01*
G01*
X191009000Y-123334500D01*
G75*
G02*
X191159000Y-123484500I0J-150000D01*
G01*
X191159000Y-123784500D01*
G75*
G02*
X191009000Y-123934500I-150000J0D01*
G01*
X189359000Y-123934500D01*
G75*
G02*
X189209000Y-123784500I0J150000D01*
G01*
G37*
%TD.AperFunction*%
%TO.P,U3,6*%
%TO.N,/D3_N*%
%TA.AperFunction,SMDPad,CuDef*%
G36*
G01*
X189209000Y-122514500D02*
X189209000Y-122214500D01*
G75*
G02*
X189359000Y-122064500I150000J0D01*
G01*
X191009000Y-122064500D01*
G75*
G02*
X191159000Y-122214500I0J-150000D01*
G01*
X191159000Y-122514500D01*
G75*
G02*
X191009000Y-122664500I-150000J0D01*
G01*
X189359000Y-122664500D01*
G75*
G02*
X189209000Y-122514500I0J150000D01*
G01*
G37*
%TD.AperFunction*%
%TO.P,U3,7*%
%TO.N,Net-(U3-Pad7)*%
%TA.AperFunction,SMDPad,CuDef*%
G36*
G01*
X189209000Y-121244500D02*
X189209000Y-120944500D01*
G75*
G02*
X189359000Y-120794500I150000J0D01*
G01*
X191009000Y-120794500D01*
G75*
G02*
X191159000Y-120944500I0J-150000D01*
G01*
X191159000Y-121244500D01*
G75*
G02*
X191009000Y-121394500I-150000J0D01*
G01*
X189359000Y-121394500D01*
G75*
G02*
X189209000Y-121244500I0J150000D01*
G01*
G37*
%TD.AperFunction*%
%TO.P,U3,8*%
%TO.N,Net-(U3-Pad8)*%
%TA.AperFunction,SMDPad,CuDef*%
G36*
G01*
X189209000Y-119974500D02*
X189209000Y-119674500D01*
G75*
G02*
X189359000Y-119524500I150000J0D01*
G01*
X191009000Y-119524500D01*
G75*
G02*
X191159000Y-119674500I0J-150000D01*
G01*
X191159000Y-119974500D01*
G75*
G02*
X191009000Y-120124500I-150000J0D01*
G01*
X189359000Y-120124500D01*
G75*
G02*
X189209000Y-119974500I0J150000D01*
G01*
G37*
%TD.AperFunction*%
%TO.P,U3,9*%
%TO.N,Net-(U3-Pad9)*%
%TA.AperFunction,SMDPad,CuDef*%
G36*
G01*
X194159000Y-119974500D02*
X194159000Y-119674500D01*
G75*
G02*
X194309000Y-119524500I150000J0D01*
G01*
X195959000Y-119524500D01*
G75*
G02*
X196109000Y-119674500I0J-150000D01*
G01*
X196109000Y-119974500D01*
G75*
G02*
X195959000Y-120124500I-150000J0D01*
G01*
X194309000Y-120124500D01*
G75*
G02*
X194159000Y-119974500I0J150000D01*
G01*
G37*
%TD.AperFunction*%
%TO.P,U3,10*%
%TO.N,Net-(U3-Pad10)*%
%TA.AperFunction,SMDPad,CuDef*%
G36*
G01*
X194159000Y-121244500D02*
X194159000Y-120944500D01*
G75*
G02*
X194309000Y-120794500I150000J0D01*
G01*
X195959000Y-120794500D01*
G75*
G02*
X196109000Y-120944500I0J-150000D01*
G01*
X196109000Y-121244500D01*
G75*
G02*
X195959000Y-121394500I-150000J0D01*
G01*
X194309000Y-121394500D01*
G75*
G02*
X194159000Y-121244500I0J150000D01*
G01*
G37*
%TD.AperFunction*%
%TO.P,U3,11*%
%TO.N,Net-(U3-Pad11)*%
%TA.AperFunction,SMDPad,CuDef*%
G36*
G01*
X194159000Y-122514500D02*
X194159000Y-122214500D01*
G75*
G02*
X194309000Y-122064500I150000J0D01*
G01*
X195959000Y-122064500D01*
G75*
G02*
X196109000Y-122214500I0J-150000D01*
G01*
X196109000Y-122514500D01*
G75*
G02*
X195959000Y-122664500I-150000J0D01*
G01*
X194309000Y-122664500D01*
G75*
G02*
X194159000Y-122514500I0J150000D01*
G01*
G37*
%TD.AperFunction*%
%TO.P,U3,12*%
%TO.N,Net-(U3-Pad12)*%
%TA.AperFunction,SMDPad,CuDef*%
G36*
G01*
X194159000Y-123784500D02*
X194159000Y-123484500D01*
G75*
G02*
X194309000Y-123334500I150000J0D01*
G01*
X195959000Y-123334500D01*
G75*
G02*
X196109000Y-123484500I0J-150000D01*
G01*
X196109000Y-123784500D01*
G75*
G02*
X195959000Y-123934500I-150000J0D01*
G01*
X194309000Y-123934500D01*
G75*
G02*
X194159000Y-123784500I0J150000D01*
G01*
G37*
%TD.AperFunction*%
%TO.P,U3,13*%
%TO.N,/DTR_3*%
%TA.AperFunction,SMDPad,CuDef*%
G36*
G01*
X194159000Y-125054500D02*
X194159000Y-124754500D01*
G75*
G02*
X194309000Y-124604500I150000J0D01*
G01*
X195959000Y-124604500D01*
G75*
G02*
X196109000Y-124754500I0J-150000D01*
G01*
X196109000Y-125054500D01*
G75*
G02*
X195959000Y-125204500I-150000J0D01*
G01*
X194309000Y-125204500D01*
G75*
G02*
X194159000Y-125054500I0J150000D01*
G01*
G37*
%TD.AperFunction*%
%TO.P,U3,14*%
%TO.N,Net-(U3-Pad14)*%
%TA.AperFunction,SMDPad,CuDef*%
G36*
G01*
X194159000Y-126324500D02*
X194159000Y-126024500D01*
G75*
G02*
X194309000Y-125874500I150000J0D01*
G01*
X195959000Y-125874500D01*
G75*
G02*
X196109000Y-126024500I0J-150000D01*
G01*
X196109000Y-126324500D01*
G75*
G02*
X195959000Y-126474500I-150000J0D01*
G01*
X194309000Y-126474500D01*
G75*
G02*
X194159000Y-126324500I0J150000D01*
G01*
G37*
%TD.AperFunction*%
%TO.P,U3,15*%
%TO.N,Net-(U3-Pad15)*%
%TA.AperFunction,SMDPad,CuDef*%
G36*
G01*
X194159000Y-127594500D02*
X194159000Y-127294500D01*
G75*
G02*
X194309000Y-127144500I150000J0D01*
G01*
X195959000Y-127144500D01*
G75*
G02*
X196109000Y-127294500I0J-150000D01*
G01*
X196109000Y-127594500D01*
G75*
G02*
X195959000Y-127744500I-150000J0D01*
G01*
X194309000Y-127744500D01*
G75*
G02*
X194159000Y-127594500I0J150000D01*
G01*
G37*
%TD.AperFunction*%
%TO.P,U3,16*%
%TO.N,+5V*%
%TA.AperFunction,SMDPad,CuDef*%
G36*
G01*
X194159000Y-128864500D02*
X194159000Y-128564500D01*
G75*
G02*
X194309000Y-128414500I150000J0D01*
G01*
X195959000Y-128414500D01*
G75*
G02*
X196109000Y-128564500I0J-150000D01*
G01*
X196109000Y-128864500D01*
G75*
G02*
X195959000Y-129014500I-150000J0D01*
G01*
X194309000Y-129014500D01*
G75*
G02*
X194159000Y-128864500I0J150000D01*
G01*
G37*
%TD.AperFunction*%
%TD*%
D13*
%TO.P,U5,1*%
%TO.N,GND*%
X177419000Y-100390000D03*
%TO.P,U5,2*%
%TO.N,Net-(U5-Pad2)*%
X176784000Y-100390000D03*
%TO.P,U5,3*%
%TO.N,Net-(U5-Pad3)*%
X176149000Y-100390000D03*
%TO.P,U5,4*%
%TO.N,/D4_N*%
X175514000Y-100390000D03*
%TO.P,U5,5*%
%TO.N,/D4_P*%
X174879000Y-100390000D03*
%TO.P,U5,6*%
%TO.N,/D3_N*%
X174244000Y-100390000D03*
%TO.P,U5,7*%
%TO.N,/D3_P*%
X173609000Y-100390000D03*
%TO.P,U5,8*%
%TO.N,/D2_N*%
X172974000Y-100390000D03*
%TO.P,U5,9*%
%TO.N,/D2_P*%
X172339000Y-100390000D03*
%TO.P,U5,10*%
%TO.N,/D1_N*%
X171704000Y-100390000D03*
%TO.P,U5,11*%
%TO.N,/D1_P*%
X171069000Y-100390000D03*
%TO.P,U5,12*%
%TO.N,Net-(C19-Pad1)*%
X170434000Y-100390000D03*
%TO.P,U5,13*%
%TO.N,+3V3*%
X169799000Y-100390000D03*
%TO.P,U5,14*%
%TO.N,Net-(R29-Pad1)*%
X169164000Y-100390000D03*
%TO.P,U5,15*%
%TO.N,/D-*%
X169164000Y-95190000D03*
%TO.P,U5,16*%
%TO.N,/D+*%
X169799000Y-95190000D03*
%TO.P,U5,17*%
%TO.N,+3V3*%
X170434000Y-95190000D03*
%TO.P,U5,18*%
%TO.N,Net-(R25-Pad2)*%
X171069000Y-95190000D03*
%TO.P,U5,19*%
%TO.N,+3V3*%
X171704000Y-95190000D03*
%TO.P,U5,20*%
%TO.N,+5V*%
X172339000Y-95190000D03*
%TO.P,U5,21*%
%TO.N,+3V3*%
X172974000Y-95190000D03*
%TO.P,U5,22*%
%TO.N,Net-(D17-Pad2)*%
X173609000Y-95190000D03*
%TO.P,U5,23*%
%TO.N,Net-(R27-Pad2)*%
X174244000Y-95190000D03*
%TO.P,U5,24*%
%TO.N,Net-(R28-Pad2)*%
X174879000Y-95190000D03*
%TO.P,U5,25*%
%TO.N,Net-(U5-Pad25)*%
X175514000Y-95190000D03*
%TO.P,U5,26*%
%TO.N,+3V3*%
X176149000Y-95190000D03*
%TO.P,U5,27*%
%TO.N,Net-(U5-Pad27)*%
X176784000Y-95190000D03*
%TO.P,U5,28*%
%TO.N,Net-(C19-Pad1)*%
X177419000Y-95190000D03*
%TD*%
%TO.P,U4,1*%
%TO.N,GND*%
%TA.AperFunction,SMDPad,CuDef*%
G36*
G01*
X160189500Y-113243500D02*
X160189500Y-112943500D01*
G75*
G02*
X160339500Y-112793500I150000J0D01*
G01*
X161989500Y-112793500D01*
G75*
G02*
X162139500Y-112943500I0J-150000D01*
G01*
X162139500Y-113243500D01*
G75*
G02*
X161989500Y-113393500I-150000J0D01*
G01*
X160339500Y-113393500D01*
G75*
G02*
X160189500Y-113243500I0J150000D01*
G01*
G37*
%TD.AperFunction*%
%TO.P,U4,2*%
%TO.N,Net-(R4-Pad2)*%
%TA.AperFunction,SMDPad,CuDef*%
G36*
G01*
X160189500Y-111973500D02*
X160189500Y-111673500D01*
G75*
G02*
X160339500Y-111523500I150000J0D01*
G01*
X161989500Y-111523500D01*
G75*
G02*
X162139500Y-111673500I0J-150000D01*
G01*
X162139500Y-111973500D01*
G75*
G02*
X161989500Y-112123500I-150000J0D01*
G01*
X160339500Y-112123500D01*
G75*
G02*
X160189500Y-111973500I0J150000D01*
G01*
G37*
%TD.AperFunction*%
%TO.P,U4,3*%
%TO.N,Net-(R8-Pad1)*%
%TA.AperFunction,SMDPad,CuDef*%
G36*
G01*
X160189500Y-110703500D02*
X160189500Y-110403500D01*
G75*
G02*
X160339500Y-110253500I150000J0D01*
G01*
X161989500Y-110253500D01*
G75*
G02*
X162139500Y-110403500I0J-150000D01*
G01*
X162139500Y-110703500D01*
G75*
G02*
X161989500Y-110853500I-150000J0D01*
G01*
X160339500Y-110853500D01*
G75*
G02*
X160189500Y-110703500I0J150000D01*
G01*
G37*
%TD.AperFunction*%
%TO.P,U4,4*%
%TO.N,+5V*%
%TA.AperFunction,SMDPad,CuDef*%
G36*
G01*
X160189500Y-109433500D02*
X160189500Y-109133500D01*
G75*
G02*
X160339500Y-108983500I150000J0D01*
G01*
X161989500Y-108983500D01*
G75*
G02*
X162139500Y-109133500I0J-150000D01*
G01*
X162139500Y-109433500D01*
G75*
G02*
X161989500Y-109583500I-150000J0D01*
G01*
X160339500Y-109583500D01*
G75*
G02*
X160189500Y-109433500I0J150000D01*
G01*
G37*
%TD.AperFunction*%
%TO.P,U4,5*%
%TO.N,/D1_P*%
%TA.AperFunction,SMDPad,CuDef*%
G36*
G01*
X160189500Y-108163500D02*
X160189500Y-107863500D01*
G75*
G02*
X160339500Y-107713500I150000J0D01*
G01*
X161989500Y-107713500D01*
G75*
G02*
X162139500Y-107863500I0J-150000D01*
G01*
X162139500Y-108163500D01*
G75*
G02*
X161989500Y-108313500I-150000J0D01*
G01*
X160339500Y-108313500D01*
G75*
G02*
X160189500Y-108163500I0J150000D01*
G01*
G37*
%TD.AperFunction*%
%TO.P,U4,6*%
%TO.N,/D1_N*%
%TA.AperFunction,SMDPad,CuDef*%
G36*
G01*
X160189500Y-106893500D02*
X160189500Y-106593500D01*
G75*
G02*
X160339500Y-106443500I150000J0D01*
G01*
X161989500Y-106443500D01*
G75*
G02*
X162139500Y-106593500I0J-150000D01*
G01*
X162139500Y-106893500D01*
G75*
G02*
X161989500Y-107043500I-150000J0D01*
G01*
X160339500Y-107043500D01*
G75*
G02*
X160189500Y-106893500I0J150000D01*
G01*
G37*
%TD.AperFunction*%
%TO.P,U4,7*%
%TO.N,Net-(U4-Pad7)*%
%TA.AperFunction,SMDPad,CuDef*%
G36*
G01*
X160189500Y-105623500D02*
X160189500Y-105323500D01*
G75*
G02*
X160339500Y-105173500I150000J0D01*
G01*
X161989500Y-105173500D01*
G75*
G02*
X162139500Y-105323500I0J-150000D01*
G01*
X162139500Y-105623500D01*
G75*
G02*
X161989500Y-105773500I-150000J0D01*
G01*
X160339500Y-105773500D01*
G75*
G02*
X160189500Y-105623500I0J150000D01*
G01*
G37*
%TD.AperFunction*%
%TO.P,U4,8*%
%TO.N,Net-(U4-Pad8)*%
%TA.AperFunction,SMDPad,CuDef*%
G36*
G01*
X160189500Y-104353500D02*
X160189500Y-104053500D01*
G75*
G02*
X160339500Y-103903500I150000J0D01*
G01*
X161989500Y-103903500D01*
G75*
G02*
X162139500Y-104053500I0J-150000D01*
G01*
X162139500Y-104353500D01*
G75*
G02*
X161989500Y-104503500I-150000J0D01*
G01*
X160339500Y-104503500D01*
G75*
G02*
X160189500Y-104353500I0J150000D01*
G01*
G37*
%TD.AperFunction*%
%TO.P,U4,9*%
%TO.N,Net-(U4-Pad9)*%
%TA.AperFunction,SMDPad,CuDef*%
G36*
G01*
X165139500Y-104353500D02*
X165139500Y-104053500D01*
G75*
G02*
X165289500Y-103903500I150000J0D01*
G01*
X166939500Y-103903500D01*
G75*
G02*
X167089500Y-104053500I0J-150000D01*
G01*
X167089500Y-104353500D01*
G75*
G02*
X166939500Y-104503500I-150000J0D01*
G01*
X165289500Y-104503500D01*
G75*
G02*
X165139500Y-104353500I0J150000D01*
G01*
G37*
%TD.AperFunction*%
%TO.P,U4,10*%
%TO.N,Net-(U4-Pad10)*%
%TA.AperFunction,SMDPad,CuDef*%
G36*
G01*
X165139500Y-105623500D02*
X165139500Y-105323500D01*
G75*
G02*
X165289500Y-105173500I150000J0D01*
G01*
X166939500Y-105173500D01*
G75*
G02*
X167089500Y-105323500I0J-150000D01*
G01*
X167089500Y-105623500D01*
G75*
G02*
X166939500Y-105773500I-150000J0D01*
G01*
X165289500Y-105773500D01*
G75*
G02*
X165139500Y-105623500I0J150000D01*
G01*
G37*
%TD.AperFunction*%
%TO.P,U4,11*%
%TO.N,Net-(U4-Pad11)*%
%TA.AperFunction,SMDPad,CuDef*%
G36*
G01*
X165139500Y-106893500D02*
X165139500Y-106593500D01*
G75*
G02*
X165289500Y-106443500I150000J0D01*
G01*
X166939500Y-106443500D01*
G75*
G02*
X167089500Y-106593500I0J-150000D01*
G01*
X167089500Y-106893500D01*
G75*
G02*
X166939500Y-107043500I-150000J0D01*
G01*
X165289500Y-107043500D01*
G75*
G02*
X165139500Y-106893500I0J150000D01*
G01*
G37*
%TD.AperFunction*%
%TO.P,U4,12*%
%TO.N,Net-(U4-Pad12)*%
%TA.AperFunction,SMDPad,CuDef*%
G36*
G01*
X165139500Y-108163500D02*
X165139500Y-107863500D01*
G75*
G02*
X165289500Y-107713500I150000J0D01*
G01*
X166939500Y-107713500D01*
G75*
G02*
X167089500Y-107863500I0J-150000D01*
G01*
X167089500Y-108163500D01*
G75*
G02*
X166939500Y-108313500I-150000J0D01*
G01*
X165289500Y-108313500D01*
G75*
G02*
X165139500Y-108163500I0J150000D01*
G01*
G37*
%TD.AperFunction*%
%TO.P,U4,13*%
%TO.N,/DTR_1*%
%TA.AperFunction,SMDPad,CuDef*%
G36*
G01*
X165139500Y-109433500D02*
X165139500Y-109133500D01*
G75*
G02*
X165289500Y-108983500I150000J0D01*
G01*
X166939500Y-108983500D01*
G75*
G02*
X167089500Y-109133500I0J-150000D01*
G01*
X167089500Y-109433500D01*
G75*
G02*
X166939500Y-109583500I-150000J0D01*
G01*
X165289500Y-109583500D01*
G75*
G02*
X165139500Y-109433500I0J150000D01*
G01*
G37*
%TD.AperFunction*%
%TO.P,U4,14*%
%TO.N,Net-(U4-Pad14)*%
%TA.AperFunction,SMDPad,CuDef*%
G36*
G01*
X165139500Y-110703500D02*
X165139500Y-110403500D01*
G75*
G02*
X165289500Y-110253500I150000J0D01*
G01*
X166939500Y-110253500D01*
G75*
G02*
X167089500Y-110403500I0J-150000D01*
G01*
X167089500Y-110703500D01*
G75*
G02*
X166939500Y-110853500I-150000J0D01*
G01*
X165289500Y-110853500D01*
G75*
G02*
X165139500Y-110703500I0J150000D01*
G01*
G37*
%TD.AperFunction*%
%TO.P,U4,15*%
%TO.N,Net-(U4-Pad15)*%
%TA.AperFunction,SMDPad,CuDef*%
G36*
G01*
X165139500Y-111973500D02*
X165139500Y-111673500D01*
G75*
G02*
X165289500Y-111523500I150000J0D01*
G01*
X166939500Y-111523500D01*
G75*
G02*
X167089500Y-111673500I0J-150000D01*
G01*
X167089500Y-111973500D01*
G75*
G02*
X166939500Y-112123500I-150000J0D01*
G01*
X165289500Y-112123500D01*
G75*
G02*
X165139500Y-111973500I0J150000D01*
G01*
G37*
%TD.AperFunction*%
%TO.P,U4,16*%
%TO.N,+5V*%
%TA.AperFunction,SMDPad,CuDef*%
G36*
G01*
X165139500Y-113243500D02*
X165139500Y-112943500D01*
G75*
G02*
X165289500Y-112793500I150000J0D01*
G01*
X166939500Y-112793500D01*
G75*
G02*
X167089500Y-112943500I0J-150000D01*
G01*
X167089500Y-113243500D01*
G75*
G02*
X166939500Y-113393500I-150000J0D01*
G01*
X165289500Y-113393500D01*
G75*
G02*
X165139500Y-113243500I0J150000D01*
G01*
G37*
%TD.AperFunction*%
%TD*%
%TO.P,U2,1*%
%TO.N,GND*%
%TA.AperFunction,SMDPad,CuDef*%
G36*
G01*
X160189500Y-128864500D02*
X160189500Y-128564500D01*
G75*
G02*
X160339500Y-128414500I150000J0D01*
G01*
X161989500Y-128414500D01*
G75*
G02*
X162139500Y-128564500I0J-150000D01*
G01*
X162139500Y-128864500D01*
G75*
G02*
X161989500Y-129014500I-150000J0D01*
G01*
X160339500Y-129014500D01*
G75*
G02*
X160189500Y-128864500I0J150000D01*
G01*
G37*
%TD.AperFunction*%
%TO.P,U2,2*%
%TO.N,Net-(R2-Pad2)*%
%TA.AperFunction,SMDPad,CuDef*%
G36*
G01*
X160189500Y-127594500D02*
X160189500Y-127294500D01*
G75*
G02*
X160339500Y-127144500I150000J0D01*
G01*
X161989500Y-127144500D01*
G75*
G02*
X162139500Y-127294500I0J-150000D01*
G01*
X162139500Y-127594500D01*
G75*
G02*
X161989500Y-127744500I-150000J0D01*
G01*
X160339500Y-127744500D01*
G75*
G02*
X160189500Y-127594500I0J150000D01*
G01*
G37*
%TD.AperFunction*%
%TO.P,U2,3*%
%TO.N,Net-(R6-Pad1)*%
%TA.AperFunction,SMDPad,CuDef*%
G36*
G01*
X160189500Y-126324500D02*
X160189500Y-126024500D01*
G75*
G02*
X160339500Y-125874500I150000J0D01*
G01*
X161989500Y-125874500D01*
G75*
G02*
X162139500Y-126024500I0J-150000D01*
G01*
X162139500Y-126324500D01*
G75*
G02*
X161989500Y-126474500I-150000J0D01*
G01*
X160339500Y-126474500D01*
G75*
G02*
X160189500Y-126324500I0J150000D01*
G01*
G37*
%TD.AperFunction*%
%TO.P,U2,4*%
%TO.N,+5V*%
%TA.AperFunction,SMDPad,CuDef*%
G36*
G01*
X160189500Y-125054500D02*
X160189500Y-124754500D01*
G75*
G02*
X160339500Y-124604500I150000J0D01*
G01*
X161989500Y-124604500D01*
G75*
G02*
X162139500Y-124754500I0J-150000D01*
G01*
X162139500Y-125054500D01*
G75*
G02*
X161989500Y-125204500I-150000J0D01*
G01*
X160339500Y-125204500D01*
G75*
G02*
X160189500Y-125054500I0J150000D01*
G01*
G37*
%TD.AperFunction*%
%TO.P,U2,5*%
%TO.N,/D2_P*%
%TA.AperFunction,SMDPad,CuDef*%
G36*
G01*
X160189500Y-123784500D02*
X160189500Y-123484500D01*
G75*
G02*
X160339500Y-123334500I150000J0D01*
G01*
X161989500Y-123334500D01*
G75*
G02*
X162139500Y-123484500I0J-150000D01*
G01*
X162139500Y-123784500D01*
G75*
G02*
X161989500Y-123934500I-150000J0D01*
G01*
X160339500Y-123934500D01*
G75*
G02*
X160189500Y-123784500I0J150000D01*
G01*
G37*
%TD.AperFunction*%
%TO.P,U2,6*%
%TO.N,/D2_N*%
%TA.AperFunction,SMDPad,CuDef*%
G36*
G01*
X160189500Y-122514500D02*
X160189500Y-122214500D01*
G75*
G02*
X160339500Y-122064500I150000J0D01*
G01*
X161989500Y-122064500D01*
G75*
G02*
X162139500Y-122214500I0J-150000D01*
G01*
X162139500Y-122514500D01*
G75*
G02*
X161989500Y-122664500I-150000J0D01*
G01*
X160339500Y-122664500D01*
G75*
G02*
X160189500Y-122514500I0J150000D01*
G01*
G37*
%TD.AperFunction*%
%TO.P,U2,7*%
%TO.N,Net-(U2-Pad7)*%
%TA.AperFunction,SMDPad,CuDef*%
G36*
G01*
X160189500Y-121244500D02*
X160189500Y-120944500D01*
G75*
G02*
X160339500Y-120794500I150000J0D01*
G01*
X161989500Y-120794500D01*
G75*
G02*
X162139500Y-120944500I0J-150000D01*
G01*
X162139500Y-121244500D01*
G75*
G02*
X161989500Y-121394500I-150000J0D01*
G01*
X160339500Y-121394500D01*
G75*
G02*
X160189500Y-121244500I0J150000D01*
G01*
G37*
%TD.AperFunction*%
%TO.P,U2,8*%
%TO.N,Net-(U2-Pad8)*%
%TA.AperFunction,SMDPad,CuDef*%
G36*
G01*
X160189500Y-119974500D02*
X160189500Y-119674500D01*
G75*
G02*
X160339500Y-119524500I150000J0D01*
G01*
X161989500Y-119524500D01*
G75*
G02*
X162139500Y-119674500I0J-150000D01*
G01*
X162139500Y-119974500D01*
G75*
G02*
X161989500Y-120124500I-150000J0D01*
G01*
X160339500Y-120124500D01*
G75*
G02*
X160189500Y-119974500I0J150000D01*
G01*
G37*
%TD.AperFunction*%
%TO.P,U2,9*%
%TO.N,Net-(U2-Pad9)*%
%TA.AperFunction,SMDPad,CuDef*%
G36*
G01*
X165139500Y-119974500D02*
X165139500Y-119674500D01*
G75*
G02*
X165289500Y-119524500I150000J0D01*
G01*
X166939500Y-119524500D01*
G75*
G02*
X167089500Y-119674500I0J-150000D01*
G01*
X167089500Y-119974500D01*
G75*
G02*
X166939500Y-120124500I-150000J0D01*
G01*
X165289500Y-120124500D01*
G75*
G02*
X165139500Y-119974500I0J150000D01*
G01*
G37*
%TD.AperFunction*%
%TO.P,U2,10*%
%TO.N,Net-(U2-Pad10)*%
%TA.AperFunction,SMDPad,CuDef*%
G36*
G01*
X165139500Y-121244500D02*
X165139500Y-120944500D01*
G75*
G02*
X165289500Y-120794500I150000J0D01*
G01*
X166939500Y-120794500D01*
G75*
G02*
X167089500Y-120944500I0J-150000D01*
G01*
X167089500Y-121244500D01*
G75*
G02*
X166939500Y-121394500I-150000J0D01*
G01*
X165289500Y-121394500D01*
G75*
G02*
X165139500Y-121244500I0J150000D01*
G01*
G37*
%TD.AperFunction*%
%TO.P,U2,11*%
%TO.N,Net-(U2-Pad11)*%
%TA.AperFunction,SMDPad,CuDef*%
G36*
G01*
X165139500Y-122514500D02*
X165139500Y-122214500D01*
G75*
G02*
X165289500Y-122064500I150000J0D01*
G01*
X166939500Y-122064500D01*
G75*
G02*
X167089500Y-122214500I0J-150000D01*
G01*
X167089500Y-122514500D01*
G75*
G02*
X166939500Y-122664500I-150000J0D01*
G01*
X165289500Y-122664500D01*
G75*
G02*
X165139500Y-122514500I0J150000D01*
G01*
G37*
%TD.AperFunction*%
%TO.P,U2,12*%
%TO.N,Net-(U2-Pad12)*%
%TA.AperFunction,SMDPad,CuDef*%
G36*
G01*
X165139500Y-123784500D02*
X165139500Y-123484500D01*
G75*
G02*
X165289500Y-123334500I150000J0D01*
G01*
X166939500Y-123334500D01*
G75*
G02*
X167089500Y-123484500I0J-150000D01*
G01*
X167089500Y-123784500D01*
G75*
G02*
X166939500Y-123934500I-150000J0D01*
G01*
X165289500Y-123934500D01*
G75*
G02*
X165139500Y-123784500I0J150000D01*
G01*
G37*
%TD.AperFunction*%
%TO.P,U2,13*%
%TO.N,/DTR_2*%
%TA.AperFunction,SMDPad,CuDef*%
G36*
G01*
X165139500Y-125054500D02*
X165139500Y-124754500D01*
G75*
G02*
X165289500Y-124604500I150000J0D01*
G01*
X166939500Y-124604500D01*
G75*
G02*
X167089500Y-124754500I0J-150000D01*
G01*
X167089500Y-125054500D01*
G75*
G02*
X166939500Y-125204500I-150000J0D01*
G01*
X165289500Y-125204500D01*
G75*
G02*
X165139500Y-125054500I0J150000D01*
G01*
G37*
%TD.AperFunction*%
%TO.P,U2,14*%
%TO.N,Net-(U2-Pad14)*%
%TA.AperFunction,SMDPad,CuDef*%
G36*
G01*
X165139500Y-126324500D02*
X165139500Y-126024500D01*
G75*
G02*
X165289500Y-125874500I150000J0D01*
G01*
X166939500Y-125874500D01*
G75*
G02*
X167089500Y-126024500I0J-150000D01*
G01*
X167089500Y-126324500D01*
G75*
G02*
X166939500Y-126474500I-150000J0D01*
G01*
X165289500Y-126474500D01*
G75*
G02*
X165139500Y-126324500I0J150000D01*
G01*
G37*
%TD.AperFunction*%
%TO.P,U2,15*%
%TO.N,Net-(U2-Pad15)*%
%TA.AperFunction,SMDPad,CuDef*%
G36*
G01*
X165139500Y-127594500D02*
X165139500Y-127294500D01*
G75*
G02*
X165289500Y-127144500I150000J0D01*
G01*
X166939500Y-127144500D01*
G75*
G02*
X167089500Y-127294500I0J-150000D01*
G01*
X167089500Y-127594500D01*
G75*
G02*
X166939500Y-127744500I-150000J0D01*
G01*
X165289500Y-127744500D01*
G75*
G02*
X165139500Y-127594500I0J150000D01*
G01*
G37*
%TD.AperFunction*%
%TO.P,U2,16*%
%TO.N,+5V*%
%TA.AperFunction,SMDPad,CuDef*%
G36*
G01*
X165139500Y-128864500D02*
X165139500Y-128564500D01*
G75*
G02*
X165289500Y-128414500I150000J0D01*
G01*
X166939500Y-128414500D01*
G75*
G02*
X167089500Y-128564500I0J-150000D01*
G01*
X167089500Y-128864500D01*
G75*
G02*
X166939500Y-129014500I-150000J0D01*
G01*
X165289500Y-129014500D01*
G75*
G02*
X165139500Y-128864500I0J150000D01*
G01*
G37*
%TD.AperFunction*%
%TD*%
%TO.P,U1,1*%
%TO.N,GND*%
%TA.AperFunction,SMDPad,CuDef*%
G36*
G01*
X189272500Y-113180000D02*
X189272500Y-112880000D01*
G75*
G02*
X189422500Y-112730000I150000J0D01*
G01*
X191072500Y-112730000D01*
G75*
G02*
X191222500Y-112880000I0J-150000D01*
G01*
X191222500Y-113180000D01*
G75*
G02*
X191072500Y-113330000I-150000J0D01*
G01*
X189422500Y-113330000D01*
G75*
G02*
X189272500Y-113180000I0J150000D01*
G01*
G37*
%TD.AperFunction*%
%TO.P,U1,2*%
%TO.N,Net-(R1-Pad2)*%
%TA.AperFunction,SMDPad,CuDef*%
G36*
G01*
X189272500Y-111910000D02*
X189272500Y-111610000D01*
G75*
G02*
X189422500Y-111460000I150000J0D01*
G01*
X191072500Y-111460000D01*
G75*
G02*
X191222500Y-111610000I0J-150000D01*
G01*
X191222500Y-111910000D01*
G75*
G02*
X191072500Y-112060000I-150000J0D01*
G01*
X189422500Y-112060000D01*
G75*
G02*
X189272500Y-111910000I0J150000D01*
G01*
G37*
%TD.AperFunction*%
%TO.P,U1,3*%
%TO.N,Net-(R5-Pad1)*%
%TA.AperFunction,SMDPad,CuDef*%
G36*
G01*
X189272500Y-110640000D02*
X189272500Y-110340000D01*
G75*
G02*
X189422500Y-110190000I150000J0D01*
G01*
X191072500Y-110190000D01*
G75*
G02*
X191222500Y-110340000I0J-150000D01*
G01*
X191222500Y-110640000D01*
G75*
G02*
X191072500Y-110790000I-150000J0D01*
G01*
X189422500Y-110790000D01*
G75*
G02*
X189272500Y-110640000I0J150000D01*
G01*
G37*
%TD.AperFunction*%
%TO.P,U1,4*%
%TO.N,+5V*%
%TA.AperFunction,SMDPad,CuDef*%
G36*
G01*
X189272500Y-109370000D02*
X189272500Y-109070000D01*
G75*
G02*
X189422500Y-108920000I150000J0D01*
G01*
X191072500Y-108920000D01*
G75*
G02*
X191222500Y-109070000I0J-150000D01*
G01*
X191222500Y-109370000D01*
G75*
G02*
X191072500Y-109520000I-150000J0D01*
G01*
X189422500Y-109520000D01*
G75*
G02*
X189272500Y-109370000I0J150000D01*
G01*
G37*
%TD.AperFunction*%
%TO.P,U1,5*%
%TO.N,/D4_P*%
%TA.AperFunction,SMDPad,CuDef*%
G36*
G01*
X189272500Y-108100000D02*
X189272500Y-107800000D01*
G75*
G02*
X189422500Y-107650000I150000J0D01*
G01*
X191072500Y-107650000D01*
G75*
G02*
X191222500Y-107800000I0J-150000D01*
G01*
X191222500Y-108100000D01*
G75*
G02*
X191072500Y-108250000I-150000J0D01*
G01*
X189422500Y-108250000D01*
G75*
G02*
X189272500Y-108100000I0J150000D01*
G01*
G37*
%TD.AperFunction*%
%TO.P,U1,6*%
%TO.N,/D4_N*%
%TA.AperFunction,SMDPad,CuDef*%
G36*
G01*
X189272500Y-106830000D02*
X189272500Y-106530000D01*
G75*
G02*
X189422500Y-106380000I150000J0D01*
G01*
X191072500Y-106380000D01*
G75*
G02*
X191222500Y-106530000I0J-150000D01*
G01*
X191222500Y-106830000D01*
G75*
G02*
X191072500Y-106980000I-150000J0D01*
G01*
X189422500Y-106980000D01*
G75*
G02*
X189272500Y-106830000I0J150000D01*
G01*
G37*
%TD.AperFunction*%
%TO.P,U1,7*%
%TO.N,Net-(U1-Pad7)*%
%TA.AperFunction,SMDPad,CuDef*%
G36*
G01*
X189272500Y-105560000D02*
X189272500Y-105260000D01*
G75*
G02*
X189422500Y-105110000I150000J0D01*
G01*
X191072500Y-105110000D01*
G75*
G02*
X191222500Y-105260000I0J-150000D01*
G01*
X191222500Y-105560000D01*
G75*
G02*
X191072500Y-105710000I-150000J0D01*
G01*
X189422500Y-105710000D01*
G75*
G02*
X189272500Y-105560000I0J150000D01*
G01*
G37*
%TD.AperFunction*%
%TO.P,U1,8*%
%TO.N,Net-(U1-Pad8)*%
%TA.AperFunction,SMDPad,CuDef*%
G36*
G01*
X189272500Y-104290000D02*
X189272500Y-103990000D01*
G75*
G02*
X189422500Y-103840000I150000J0D01*
G01*
X191072500Y-103840000D01*
G75*
G02*
X191222500Y-103990000I0J-150000D01*
G01*
X191222500Y-104290000D01*
G75*
G02*
X191072500Y-104440000I-150000J0D01*
G01*
X189422500Y-104440000D01*
G75*
G02*
X189272500Y-104290000I0J150000D01*
G01*
G37*
%TD.AperFunction*%
%TO.P,U1,9*%
%TO.N,Net-(U1-Pad9)*%
%TA.AperFunction,SMDPad,CuDef*%
G36*
G01*
X194222500Y-104290000D02*
X194222500Y-103990000D01*
G75*
G02*
X194372500Y-103840000I150000J0D01*
G01*
X196022500Y-103840000D01*
G75*
G02*
X196172500Y-103990000I0J-150000D01*
G01*
X196172500Y-104290000D01*
G75*
G02*
X196022500Y-104440000I-150000J0D01*
G01*
X194372500Y-104440000D01*
G75*
G02*
X194222500Y-104290000I0J150000D01*
G01*
G37*
%TD.AperFunction*%
%TO.P,U1,10*%
%TO.N,Net-(U1-Pad10)*%
%TA.AperFunction,SMDPad,CuDef*%
G36*
G01*
X194222500Y-105560000D02*
X194222500Y-105260000D01*
G75*
G02*
X194372500Y-105110000I150000J0D01*
G01*
X196022500Y-105110000D01*
G75*
G02*
X196172500Y-105260000I0J-150000D01*
G01*
X196172500Y-105560000D01*
G75*
G02*
X196022500Y-105710000I-150000J0D01*
G01*
X194372500Y-105710000D01*
G75*
G02*
X194222500Y-105560000I0J150000D01*
G01*
G37*
%TD.AperFunction*%
%TO.P,U1,11*%
%TO.N,Net-(U1-Pad11)*%
%TA.AperFunction,SMDPad,CuDef*%
G36*
G01*
X194222500Y-106830000D02*
X194222500Y-106530000D01*
G75*
G02*
X194372500Y-106380000I150000J0D01*
G01*
X196022500Y-106380000D01*
G75*
G02*
X196172500Y-106530000I0J-150000D01*
G01*
X196172500Y-106830000D01*
G75*
G02*
X196022500Y-106980000I-150000J0D01*
G01*
X194372500Y-106980000D01*
G75*
G02*
X194222500Y-106830000I0J150000D01*
G01*
G37*
%TD.AperFunction*%
%TO.P,U1,12*%
%TO.N,Net-(U1-Pad12)*%
%TA.AperFunction,SMDPad,CuDef*%
G36*
G01*
X194222500Y-108100000D02*
X194222500Y-107800000D01*
G75*
G02*
X194372500Y-107650000I150000J0D01*
G01*
X196022500Y-107650000D01*
G75*
G02*
X196172500Y-107800000I0J-150000D01*
G01*
X196172500Y-108100000D01*
G75*
G02*
X196022500Y-108250000I-150000J0D01*
G01*
X194372500Y-108250000D01*
G75*
G02*
X194222500Y-108100000I0J150000D01*
G01*
G37*
%TD.AperFunction*%
%TO.P,U1,13*%
%TO.N,/DTR_4*%
%TA.AperFunction,SMDPad,CuDef*%
G36*
G01*
X194222500Y-109370000D02*
X194222500Y-109070000D01*
G75*
G02*
X194372500Y-108920000I150000J0D01*
G01*
X196022500Y-108920000D01*
G75*
G02*
X196172500Y-109070000I0J-150000D01*
G01*
X196172500Y-109370000D01*
G75*
G02*
X196022500Y-109520000I-150000J0D01*
G01*
X194372500Y-109520000D01*
G75*
G02*
X194222500Y-109370000I0J150000D01*
G01*
G37*
%TD.AperFunction*%
%TO.P,U1,14*%
%TO.N,Net-(U1-Pad14)*%
%TA.AperFunction,SMDPad,CuDef*%
G36*
G01*
X194222500Y-110640000D02*
X194222500Y-110340000D01*
G75*
G02*
X194372500Y-110190000I150000J0D01*
G01*
X196022500Y-110190000D01*
G75*
G02*
X196172500Y-110340000I0J-150000D01*
G01*
X196172500Y-110640000D01*
G75*
G02*
X196022500Y-110790000I-150000J0D01*
G01*
X194372500Y-110790000D01*
G75*
G02*
X194222500Y-110640000I0J150000D01*
G01*
G37*
%TD.AperFunction*%
%TO.P,U1,15*%
%TO.N,Net-(U1-Pad15)*%
%TA.AperFunction,SMDPad,CuDef*%
G36*
G01*
X194222500Y-111910000D02*
X194222500Y-111610000D01*
G75*
G02*
X194372500Y-111460000I150000J0D01*
G01*
X196022500Y-111460000D01*
G75*
G02*
X196172500Y-111610000I0J-150000D01*
G01*
X196172500Y-111910000D01*
G75*
G02*
X196022500Y-112060000I-150000J0D01*
G01*
X194372500Y-112060000D01*
G75*
G02*
X194222500Y-111910000I0J150000D01*
G01*
G37*
%TD.AperFunction*%
%TO.P,U1,16*%
%TO.N,+5V*%
%TA.AperFunction,SMDPad,CuDef*%
G36*
G01*
X194222500Y-113180000D02*
X194222500Y-112880000D01*
G75*
G02*
X194372500Y-112730000I150000J0D01*
G01*
X196022500Y-112730000D01*
G75*
G02*
X196172500Y-112880000I0J-150000D01*
G01*
X196172500Y-113180000D01*
G75*
G02*
X196022500Y-113330000I-150000J0D01*
G01*
X194372500Y-113330000D01*
G75*
G02*
X194222500Y-113180000I0J150000D01*
G01*
G37*
%TD.AperFunction*%
%TD*%
%TO.P,R29,2*%
%TO.N,GND*%
%TA.AperFunction,SMDPad,CuDef*%
G36*
G01*
X166185001Y-98977500D02*
X165284999Y-98977500D01*
G75*
G02*
X165035000Y-98727501I0J249999D01*
G01*
X165035000Y-98027499D01*
G75*
G02*
X165284999Y-97777500I249999J0D01*
G01*
X166185001Y-97777500D01*
G75*
G02*
X166435000Y-98027499I0J-249999D01*
G01*
X166435000Y-98727501D01*
G75*
G02*
X166185001Y-98977500I-249999J0D01*
G01*
G37*
%TD.AperFunction*%
%TO.P,R29,1*%
%TO.N,Net-(R29-Pad1)*%
%TA.AperFunction,SMDPad,CuDef*%
G36*
G01*
X166185001Y-100977500D02*
X165284999Y-100977500D01*
G75*
G02*
X165035000Y-100727501I0J249999D01*
G01*
X165035000Y-100027499D01*
G75*
G02*
X165284999Y-99777500I249999J0D01*
G01*
X166185001Y-99777500D01*
G75*
G02*
X166435000Y-100027499I0J-249999D01*
G01*
X166435000Y-100727501D01*
G75*
G02*
X166185001Y-100977500I-249999J0D01*
G01*
G37*
%TD.AperFunction*%
%TD*%
%TO.P,R8,1*%
%TO.N,Net-(R8-Pad1)*%
%TA.AperFunction,SMDPad,CuDef*%
G36*
G01*
X159070500Y-110062000D02*
X159070500Y-110537000D01*
G75*
G02*
X158833000Y-110774500I-237500J0D01*
G01*
X158333000Y-110774500D01*
G75*
G02*
X158095500Y-110537000I0J237500D01*
G01*
X158095500Y-110062000D01*
G75*
G02*
X158333000Y-109824500I237500J0D01*
G01*
X158833000Y-109824500D01*
G75*
G02*
X159070500Y-110062000I0J-237500D01*
G01*
G37*
%TD.AperFunction*%
%TO.P,R8,2*%
%TO.N,/TXD_1*%
%TA.AperFunction,SMDPad,CuDef*%
G36*
G01*
X157245500Y-110062000D02*
X157245500Y-110537000D01*
G75*
G02*
X157008000Y-110774500I-237500J0D01*
G01*
X156508000Y-110774500D01*
G75*
G02*
X156270500Y-110537000I0J237500D01*
G01*
X156270500Y-110062000D01*
G75*
G02*
X156508000Y-109824500I237500J0D01*
G01*
X157008000Y-109824500D01*
G75*
G02*
X157245500Y-110062000I0J-237500D01*
G01*
G37*
%TD.AperFunction*%
%TD*%
%TO.P,R7,1*%
%TO.N,Net-(R7-Pad1)*%
%TA.AperFunction,SMDPad,CuDef*%
G36*
G01*
X188090000Y-125683000D02*
X188090000Y-126158000D01*
G75*
G02*
X187852500Y-126395500I-237500J0D01*
G01*
X187352500Y-126395500D01*
G75*
G02*
X187115000Y-126158000I0J237500D01*
G01*
X187115000Y-125683000D01*
G75*
G02*
X187352500Y-125445500I237500J0D01*
G01*
X187852500Y-125445500D01*
G75*
G02*
X188090000Y-125683000I0J-237500D01*
G01*
G37*
%TD.AperFunction*%
%TO.P,R7,2*%
%TO.N,/TXD_3*%
%TA.AperFunction,SMDPad,CuDef*%
G36*
G01*
X186265000Y-125683000D02*
X186265000Y-126158000D01*
G75*
G02*
X186027500Y-126395500I-237500J0D01*
G01*
X185527500Y-126395500D01*
G75*
G02*
X185290000Y-126158000I0J237500D01*
G01*
X185290000Y-125683000D01*
G75*
G02*
X185527500Y-125445500I237500J0D01*
G01*
X186027500Y-125445500D01*
G75*
G02*
X186265000Y-125683000I0J-237500D01*
G01*
G37*
%TD.AperFunction*%
%TD*%
%TO.P,R6,1*%
%TO.N,Net-(R6-Pad1)*%
%TA.AperFunction,SMDPad,CuDef*%
G36*
G01*
X159070500Y-125683000D02*
X159070500Y-126158000D01*
G75*
G02*
X158833000Y-126395500I-237500J0D01*
G01*
X158333000Y-126395500D01*
G75*
G02*
X158095500Y-126158000I0J237500D01*
G01*
X158095500Y-125683000D01*
G75*
G02*
X158333000Y-125445500I237500J0D01*
G01*
X158833000Y-125445500D01*
G75*
G02*
X159070500Y-125683000I0J-237500D01*
G01*
G37*
%TD.AperFunction*%
%TO.P,R6,2*%
%TO.N,/TXD_2*%
%TA.AperFunction,SMDPad,CuDef*%
G36*
G01*
X157245500Y-125683000D02*
X157245500Y-126158000D01*
G75*
G02*
X157008000Y-126395500I-237500J0D01*
G01*
X156508000Y-126395500D01*
G75*
G02*
X156270500Y-126158000I0J237500D01*
G01*
X156270500Y-125683000D01*
G75*
G02*
X156508000Y-125445500I237500J0D01*
G01*
X157008000Y-125445500D01*
G75*
G02*
X157245500Y-125683000I0J-237500D01*
G01*
G37*
%TD.AperFunction*%
%TD*%
%TO.P,R5,1*%
%TO.N,Net-(R5-Pad1)*%
%TA.AperFunction,SMDPad,CuDef*%
G36*
G01*
X188153500Y-109998500D02*
X188153500Y-110473500D01*
G75*
G02*
X187916000Y-110711000I-237500J0D01*
G01*
X187416000Y-110711000D01*
G75*
G02*
X187178500Y-110473500I0J237500D01*
G01*
X187178500Y-109998500D01*
G75*
G02*
X187416000Y-109761000I237500J0D01*
G01*
X187916000Y-109761000D01*
G75*
G02*
X188153500Y-109998500I0J-237500D01*
G01*
G37*
%TD.AperFunction*%
%TO.P,R5,2*%
%TO.N,/TXD_4*%
%TA.AperFunction,SMDPad,CuDef*%
G36*
G01*
X186328500Y-109998500D02*
X186328500Y-110473500D01*
G75*
G02*
X186091000Y-110711000I-237500J0D01*
G01*
X185591000Y-110711000D01*
G75*
G02*
X185353500Y-110473500I0J237500D01*
G01*
X185353500Y-109998500D01*
G75*
G02*
X185591000Y-109761000I237500J0D01*
G01*
X186091000Y-109761000D01*
G75*
G02*
X186328500Y-109998500I0J-237500D01*
G01*
G37*
%TD.AperFunction*%
%TD*%
%TO.P,R4,1*%
%TO.N,/RXD_1*%
%TA.AperFunction,SMDPad,CuDef*%
G36*
G01*
X156270500Y-112251500D02*
X156270500Y-111776500D01*
G75*
G02*
X156508000Y-111539000I237500J0D01*
G01*
X157008000Y-111539000D01*
G75*
G02*
X157245500Y-111776500I0J-237500D01*
G01*
X157245500Y-112251500D01*
G75*
G02*
X157008000Y-112489000I-237500J0D01*
G01*
X156508000Y-112489000D01*
G75*
G02*
X156270500Y-112251500I0J237500D01*
G01*
G37*
%TD.AperFunction*%
%TO.P,R4,2*%
%TO.N,Net-(R4-Pad2)*%
%TA.AperFunction,SMDPad,CuDef*%
G36*
G01*
X158095500Y-112251500D02*
X158095500Y-111776500D01*
G75*
G02*
X158333000Y-111539000I237500J0D01*
G01*
X158833000Y-111539000D01*
G75*
G02*
X159070500Y-111776500I0J-237500D01*
G01*
X159070500Y-112251500D01*
G75*
G02*
X158833000Y-112489000I-237500J0D01*
G01*
X158333000Y-112489000D01*
G75*
G02*
X158095500Y-112251500I0J237500D01*
G01*
G37*
%TD.AperFunction*%
%TD*%
%TO.P,R3,1*%
%TO.N,/RXD_3*%
%TA.AperFunction,SMDPad,CuDef*%
G36*
G01*
X185290000Y-127872500D02*
X185290000Y-127397500D01*
G75*
G02*
X185527500Y-127160000I237500J0D01*
G01*
X186027500Y-127160000D01*
G75*
G02*
X186265000Y-127397500I0J-237500D01*
G01*
X186265000Y-127872500D01*
G75*
G02*
X186027500Y-128110000I-237500J0D01*
G01*
X185527500Y-128110000D01*
G75*
G02*
X185290000Y-127872500I0J237500D01*
G01*
G37*
%TD.AperFunction*%
%TO.P,R3,2*%
%TO.N,Net-(R3-Pad2)*%
%TA.AperFunction,SMDPad,CuDef*%
G36*
G01*
X187115000Y-127872500D02*
X187115000Y-127397500D01*
G75*
G02*
X187352500Y-127160000I237500J0D01*
G01*
X187852500Y-127160000D01*
G75*
G02*
X188090000Y-127397500I0J-237500D01*
G01*
X188090000Y-127872500D01*
G75*
G02*
X187852500Y-128110000I-237500J0D01*
G01*
X187352500Y-128110000D01*
G75*
G02*
X187115000Y-127872500I0J237500D01*
G01*
G37*
%TD.AperFunction*%
%TD*%
%TO.P,R2,1*%
%TO.N,/RXD_2*%
%TA.AperFunction,SMDPad,CuDef*%
G36*
G01*
X156270500Y-127872500D02*
X156270500Y-127397500D01*
G75*
G02*
X156508000Y-127160000I237500J0D01*
G01*
X157008000Y-127160000D01*
G75*
G02*
X157245500Y-127397500I0J-237500D01*
G01*
X157245500Y-127872500D01*
G75*
G02*
X157008000Y-128110000I-237500J0D01*
G01*
X156508000Y-128110000D01*
G75*
G02*
X156270500Y-127872500I0J237500D01*
G01*
G37*
%TD.AperFunction*%
%TO.P,R2,2*%
%TO.N,Net-(R2-Pad2)*%
%TA.AperFunction,SMDPad,CuDef*%
G36*
G01*
X158095500Y-127872500D02*
X158095500Y-127397500D01*
G75*
G02*
X158333000Y-127160000I237500J0D01*
G01*
X158833000Y-127160000D01*
G75*
G02*
X159070500Y-127397500I0J-237500D01*
G01*
X159070500Y-127872500D01*
G75*
G02*
X158833000Y-128110000I-237500J0D01*
G01*
X158333000Y-128110000D01*
G75*
G02*
X158095500Y-127872500I0J237500D01*
G01*
G37*
%TD.AperFunction*%
%TD*%
%TO.P,R1,1*%
%TO.N,/RXD_4*%
%TA.AperFunction,SMDPad,CuDef*%
G36*
G01*
X185353500Y-112188000D02*
X185353500Y-111713000D01*
G75*
G02*
X185591000Y-111475500I237500J0D01*
G01*
X186091000Y-111475500D01*
G75*
G02*
X186328500Y-111713000I0J-237500D01*
G01*
X186328500Y-112188000D01*
G75*
G02*
X186091000Y-112425500I-237500J0D01*
G01*
X185591000Y-112425500D01*
G75*
G02*
X185353500Y-112188000I0J237500D01*
G01*
G37*
%TD.AperFunction*%
%TO.P,R1,2*%
%TO.N,Net-(R1-Pad2)*%
%TA.AperFunction,SMDPad,CuDef*%
G36*
G01*
X187178500Y-112188000D02*
X187178500Y-111713000D01*
G75*
G02*
X187416000Y-111475500I237500J0D01*
G01*
X187916000Y-111475500D01*
G75*
G02*
X188153500Y-111713000I0J-237500D01*
G01*
X188153500Y-112188000D01*
G75*
G02*
X187916000Y-112425500I-237500J0D01*
G01*
X187416000Y-112425500D01*
G75*
G02*
X187178500Y-112188000I0J237500D01*
G01*
G37*
%TD.AperFunction*%
%TD*%
%TO.P,D8,1*%
%TO.N,/TXD_1*%
%TA.AperFunction,SMDPad,CuDef*%
G36*
G01*
X154542500Y-110239000D02*
X154067500Y-110239000D01*
G75*
G02*
X153830000Y-110001500I0J237500D01*
G01*
X153830000Y-109426500D01*
G75*
G02*
X154067500Y-109189000I237500J0D01*
G01*
X154542500Y-109189000D01*
G75*
G02*
X154780000Y-109426500I0J-237500D01*
G01*
X154780000Y-110001500D01*
G75*
G02*
X154542500Y-110239000I-237500J0D01*
G01*
G37*
%TD.AperFunction*%
%TO.P,D8,2*%
%TO.N,Net-(D8-Pad2)*%
%TA.AperFunction,SMDPad,CuDef*%
G36*
G01*
X154542500Y-108489000D02*
X154067500Y-108489000D01*
G75*
G02*
X153830000Y-108251500I0J237500D01*
G01*
X153830000Y-107676500D01*
G75*
G02*
X154067500Y-107439000I237500J0D01*
G01*
X154542500Y-107439000D01*
G75*
G02*
X154780000Y-107676500I0J-237500D01*
G01*
X154780000Y-108251500D01*
G75*
G02*
X154542500Y-108489000I-237500J0D01*
G01*
G37*
%TD.AperFunction*%
%TD*%
%TO.P,D7,1*%
%TO.N,/RXD_1*%
%TA.AperFunction,SMDPad,CuDef*%
G36*
G01*
X154067500Y-112201500D02*
X154542500Y-112201500D01*
G75*
G02*
X154780000Y-112439000I0J-237500D01*
G01*
X154780000Y-113014000D01*
G75*
G02*
X154542500Y-113251500I-237500J0D01*
G01*
X154067500Y-113251500D01*
G75*
G02*
X153830000Y-113014000I0J237500D01*
G01*
X153830000Y-112439000D01*
G75*
G02*
X154067500Y-112201500I237500J0D01*
G01*
G37*
%TD.AperFunction*%
%TO.P,D7,2*%
%TO.N,Net-(D7-Pad2)*%
%TA.AperFunction,SMDPad,CuDef*%
G36*
G01*
X154067500Y-113951500D02*
X154542500Y-113951500D01*
G75*
G02*
X154780000Y-114189000I0J-237500D01*
G01*
X154780000Y-114764000D01*
G75*
G02*
X154542500Y-115001500I-237500J0D01*
G01*
X154067500Y-115001500D01*
G75*
G02*
X153830000Y-114764000I0J237500D01*
G01*
X153830000Y-114189000D01*
G75*
G02*
X154067500Y-113951500I237500J0D01*
G01*
G37*
%TD.AperFunction*%
%TD*%
%TO.P,D6,1*%
%TO.N,/TXD_3*%
%TA.AperFunction,SMDPad,CuDef*%
G36*
G01*
X184407000Y-125492500D02*
X184407000Y-125967500D01*
G75*
G02*
X184169500Y-126205000I-237500J0D01*
G01*
X183594500Y-126205000D01*
G75*
G02*
X183357000Y-125967500I0J237500D01*
G01*
X183357000Y-125492500D01*
G75*
G02*
X183594500Y-125255000I237500J0D01*
G01*
X184169500Y-125255000D01*
G75*
G02*
X184407000Y-125492500I0J-237500D01*
G01*
G37*
%TD.AperFunction*%
%TO.P,D6,2*%
%TO.N,Net-(D6-Pad2)*%
%TA.AperFunction,SMDPad,CuDef*%
G36*
G01*
X182657000Y-125492500D02*
X182657000Y-125967500D01*
G75*
G02*
X182419500Y-126205000I-237500J0D01*
G01*
X181844500Y-126205000D01*
G75*
G02*
X181607000Y-125967500I0J237500D01*
G01*
X181607000Y-125492500D01*
G75*
G02*
X181844500Y-125255000I237500J0D01*
G01*
X182419500Y-125255000D01*
G75*
G02*
X182657000Y-125492500I0J-237500D01*
G01*
G37*
%TD.AperFunction*%
%TD*%
%TO.P,D5,1*%
%TO.N,/RXD_3*%
%TA.AperFunction,SMDPad,CuDef*%
G36*
G01*
X184407000Y-127588000D02*
X184407000Y-128063000D01*
G75*
G02*
X184169500Y-128300500I-237500J0D01*
G01*
X183594500Y-128300500D01*
G75*
G02*
X183357000Y-128063000I0J237500D01*
G01*
X183357000Y-127588000D01*
G75*
G02*
X183594500Y-127350500I237500J0D01*
G01*
X184169500Y-127350500D01*
G75*
G02*
X184407000Y-127588000I0J-237500D01*
G01*
G37*
%TD.AperFunction*%
%TO.P,D5,2*%
%TO.N,Net-(D5-Pad2)*%
%TA.AperFunction,SMDPad,CuDef*%
G36*
G01*
X182657000Y-127588000D02*
X182657000Y-128063000D01*
G75*
G02*
X182419500Y-128300500I-237500J0D01*
G01*
X181844500Y-128300500D01*
G75*
G02*
X181607000Y-128063000I0J237500D01*
G01*
X181607000Y-127588000D01*
G75*
G02*
X181844500Y-127350500I237500J0D01*
G01*
X182419500Y-127350500D01*
G75*
G02*
X182657000Y-127588000I0J-237500D01*
G01*
G37*
%TD.AperFunction*%
%TD*%
%TO.P,D4,1*%
%TO.N,/TXD_2*%
%TA.AperFunction,SMDPad,CuDef*%
G36*
G01*
X154606000Y-125860000D02*
X154131000Y-125860000D01*
G75*
G02*
X153893500Y-125622500I0J237500D01*
G01*
X153893500Y-125047500D01*
G75*
G02*
X154131000Y-124810000I237500J0D01*
G01*
X154606000Y-124810000D01*
G75*
G02*
X154843500Y-125047500I0J-237500D01*
G01*
X154843500Y-125622500D01*
G75*
G02*
X154606000Y-125860000I-237500J0D01*
G01*
G37*
%TD.AperFunction*%
%TO.P,D4,2*%
%TO.N,Net-(D4-Pad2)*%
%TA.AperFunction,SMDPad,CuDef*%
G36*
G01*
X154606000Y-124110000D02*
X154131000Y-124110000D01*
G75*
G02*
X153893500Y-123872500I0J237500D01*
G01*
X153893500Y-123297500D01*
G75*
G02*
X154131000Y-123060000I237500J0D01*
G01*
X154606000Y-123060000D01*
G75*
G02*
X154843500Y-123297500I0J-237500D01*
G01*
X154843500Y-123872500D01*
G75*
G02*
X154606000Y-124110000I-237500J0D01*
G01*
G37*
%TD.AperFunction*%
%TD*%
%TO.P,D3,1*%
%TO.N,/RXD_2*%
%TA.AperFunction,SMDPad,CuDef*%
G36*
G01*
X154131000Y-127759000D02*
X154606000Y-127759000D01*
G75*
G02*
X154843500Y-127996500I0J-237500D01*
G01*
X154843500Y-128571500D01*
G75*
G02*
X154606000Y-128809000I-237500J0D01*
G01*
X154131000Y-128809000D01*
G75*
G02*
X153893500Y-128571500I0J237500D01*
G01*
X153893500Y-127996500D01*
G75*
G02*
X154131000Y-127759000I237500J0D01*
G01*
G37*
%TD.AperFunction*%
%TO.P,D3,2*%
%TO.N,Net-(D3-Pad2)*%
%TA.AperFunction,SMDPad,CuDef*%
G36*
G01*
X154131000Y-129509000D02*
X154606000Y-129509000D01*
G75*
G02*
X154843500Y-129746500I0J-237500D01*
G01*
X154843500Y-130321500D01*
G75*
G02*
X154606000Y-130559000I-237500J0D01*
G01*
X154131000Y-130559000D01*
G75*
G02*
X153893500Y-130321500I0J237500D01*
G01*
X153893500Y-129746500D01*
G75*
G02*
X154131000Y-129509000I237500J0D01*
G01*
G37*
%TD.AperFunction*%
%TD*%
%TO.P,D2,1*%
%TO.N,/TXD_4*%
%TA.AperFunction,SMDPad,CuDef*%
G36*
G01*
X184470500Y-109808000D02*
X184470500Y-110283000D01*
G75*
G02*
X184233000Y-110520500I-237500J0D01*
G01*
X183658000Y-110520500D01*
G75*
G02*
X183420500Y-110283000I0J237500D01*
G01*
X183420500Y-109808000D01*
G75*
G02*
X183658000Y-109570500I237500J0D01*
G01*
X184233000Y-109570500D01*
G75*
G02*
X184470500Y-109808000I0J-237500D01*
G01*
G37*
%TD.AperFunction*%
%TO.P,D2,2*%
%TO.N,Net-(D2-Pad2)*%
%TA.AperFunction,SMDPad,CuDef*%
G36*
G01*
X182720500Y-109808000D02*
X182720500Y-110283000D01*
G75*
G02*
X182483000Y-110520500I-237500J0D01*
G01*
X181908000Y-110520500D01*
G75*
G02*
X181670500Y-110283000I0J237500D01*
G01*
X181670500Y-109808000D01*
G75*
G02*
X181908000Y-109570500I237500J0D01*
G01*
X182483000Y-109570500D01*
G75*
G02*
X182720500Y-109808000I0J-237500D01*
G01*
G37*
%TD.AperFunction*%
%TD*%
%TO.P,D1,1*%
%TO.N,/RXD_4*%
%TA.AperFunction,SMDPad,CuDef*%
G36*
G01*
X184470500Y-111903500D02*
X184470500Y-112378500D01*
G75*
G02*
X184233000Y-112616000I-237500J0D01*
G01*
X183658000Y-112616000D01*
G75*
G02*
X183420500Y-112378500I0J237500D01*
G01*
X183420500Y-111903500D01*
G75*
G02*
X183658000Y-111666000I237500J0D01*
G01*
X184233000Y-111666000D01*
G75*
G02*
X184470500Y-111903500I0J-237500D01*
G01*
G37*
%TD.AperFunction*%
%TO.P,D1,2*%
%TO.N,Net-(D1-Pad2)*%
%TA.AperFunction,SMDPad,CuDef*%
G36*
G01*
X182720500Y-111903500D02*
X182720500Y-112378500D01*
G75*
G02*
X182483000Y-112616000I-237500J0D01*
G01*
X181908000Y-112616000D01*
G75*
G02*
X181670500Y-112378500I0J237500D01*
G01*
X181670500Y-111903500D01*
G75*
G02*
X181908000Y-111666000I237500J0D01*
G01*
X182483000Y-111666000D01*
G75*
G02*
X182720500Y-111903500I0J-237500D01*
G01*
G37*
%TD.AperFunction*%
%TD*%
%TO.P,C23,2*%
%TO.N,GND*%
%TA.AperFunction,SMDPad,CuDef*%
G36*
G01*
X170873000Y-91473000D02*
X170873000Y-92423000D01*
G75*
G02*
X170623000Y-92673000I-250000J0D01*
G01*
X169948000Y-92673000D01*
G75*
G02*
X169698000Y-92423000I0J250000D01*
G01*
X169698000Y-91473000D01*
G75*
G02*
X169948000Y-91223000I250000J0D01*
G01*
X170623000Y-91223000D01*
G75*
G02*
X170873000Y-91473000I0J-250000D01*
G01*
G37*
%TD.AperFunction*%
%TO.P,C23,1*%
%TO.N,+5V*%
%TA.AperFunction,SMDPad,CuDef*%
G36*
G01*
X172948000Y-91473000D02*
X172948000Y-92423000D01*
G75*
G02*
X172698000Y-92673000I-250000J0D01*
G01*
X172023000Y-92673000D01*
G75*
G02*
X171773000Y-92423000I0J250000D01*
G01*
X171773000Y-91473000D01*
G75*
G02*
X172023000Y-91223000I250000J0D01*
G01*
X172698000Y-91223000D01*
G75*
G02*
X172948000Y-91473000I0J-250000D01*
G01*
G37*
%TD.AperFunction*%
%TD*%
%TO.P,C21,2*%
%TO.N,GND*%
%TA.AperFunction,SMDPad,CuDef*%
G36*
G01*
X177551500Y-92423000D02*
X177551500Y-91473000D01*
G75*
G02*
X177801500Y-91223000I250000J0D01*
G01*
X178476500Y-91223000D01*
G75*
G02*
X178726500Y-91473000I0J-250000D01*
G01*
X178726500Y-92423000D01*
G75*
G02*
X178476500Y-92673000I-250000J0D01*
G01*
X177801500Y-92673000D01*
G75*
G02*
X177551500Y-92423000I0J250000D01*
G01*
G37*
%TD.AperFunction*%
%TO.P,C21,1*%
%TO.N,+3V3*%
%TA.AperFunction,SMDPad,CuDef*%
G36*
G01*
X175476500Y-92423000D02*
X175476500Y-91473000D01*
G75*
G02*
X175726500Y-91223000I250000J0D01*
G01*
X176401500Y-91223000D01*
G75*
G02*
X176651500Y-91473000I0J-250000D01*
G01*
X176651500Y-92423000D01*
G75*
G02*
X176401500Y-92673000I-250000J0D01*
G01*
X175726500Y-92673000D01*
G75*
G02*
X175476500Y-92423000I0J250000D01*
G01*
G37*
%TD.AperFunction*%
%TD*%
%TO.P,C5,2*%
%TO.N,GND*%
%TA.AperFunction,SMDPad,CuDef*%
G36*
G01*
X162999000Y-115285500D02*
X162999000Y-116235500D01*
G75*
G02*
X162749000Y-116485500I-250000J0D01*
G01*
X162074000Y-116485500D01*
G75*
G02*
X161824000Y-116235500I0J250000D01*
G01*
X161824000Y-115285500D01*
G75*
G02*
X162074000Y-115035500I250000J0D01*
G01*
X162749000Y-115035500D01*
G75*
G02*
X162999000Y-115285500I0J-250000D01*
G01*
G37*
%TD.AperFunction*%
%TO.P,C5,1*%
%TO.N,+5V*%
%TA.AperFunction,SMDPad,CuDef*%
G36*
G01*
X165074000Y-115285500D02*
X165074000Y-116235500D01*
G75*
G02*
X164824000Y-116485500I-250000J0D01*
G01*
X164149000Y-116485500D01*
G75*
G02*
X163899000Y-116235500I0J250000D01*
G01*
X163899000Y-115285500D01*
G75*
G02*
X164149000Y-115035500I250000J0D01*
G01*
X164824000Y-115035500D01*
G75*
G02*
X165074000Y-115285500I0J-250000D01*
G01*
G37*
%TD.AperFunction*%
%TD*%
%TO.P,C3,2*%
%TO.N,GND*%
%TA.AperFunction,SMDPad,CuDef*%
G36*
G01*
X162999000Y-130906500D02*
X162999000Y-131856500D01*
G75*
G02*
X162749000Y-132106500I-250000J0D01*
G01*
X162074000Y-132106500D01*
G75*
G02*
X161824000Y-131856500I0J250000D01*
G01*
X161824000Y-130906500D01*
G75*
G02*
X162074000Y-130656500I250000J0D01*
G01*
X162749000Y-130656500D01*
G75*
G02*
X162999000Y-130906500I0J-250000D01*
G01*
G37*
%TD.AperFunction*%
%TO.P,C3,1*%
%TO.N,+5V*%
%TA.AperFunction,SMDPad,CuDef*%
G36*
G01*
X165074000Y-130906500D02*
X165074000Y-131856500D01*
G75*
G02*
X164824000Y-132106500I-250000J0D01*
G01*
X164149000Y-132106500D01*
G75*
G02*
X163899000Y-131856500I0J250000D01*
G01*
X163899000Y-130906500D01*
G75*
G02*
X164149000Y-130656500I250000J0D01*
G01*
X164824000Y-130656500D01*
G75*
G02*
X165074000Y-130906500I0J-250000D01*
G01*
G37*
%TD.AperFunction*%
%TD*%
%TO.P,C2,2*%
%TO.N,GND*%
%TA.AperFunction,SMDPad,CuDef*%
G36*
G01*
X192082000Y-115222000D02*
X192082000Y-116172000D01*
G75*
G02*
X191832000Y-116422000I-250000J0D01*
G01*
X191157000Y-116422000D01*
G75*
G02*
X190907000Y-116172000I0J250000D01*
G01*
X190907000Y-115222000D01*
G75*
G02*
X191157000Y-114972000I250000J0D01*
G01*
X191832000Y-114972000D01*
G75*
G02*
X192082000Y-115222000I0J-250000D01*
G01*
G37*
%TD.AperFunction*%
%TO.P,C2,1*%
%TO.N,+5V*%
%TA.AperFunction,SMDPad,CuDef*%
G36*
G01*
X194157000Y-115222000D02*
X194157000Y-116172000D01*
G75*
G02*
X193907000Y-116422000I-250000J0D01*
G01*
X193232000Y-116422000D01*
G75*
G02*
X192982000Y-116172000I0J250000D01*
G01*
X192982000Y-115222000D01*
G75*
G02*
X193232000Y-114972000I250000J0D01*
G01*
X193907000Y-114972000D01*
G75*
G02*
X194157000Y-115222000I0J-250000D01*
G01*
G37*
%TD.AperFunction*%
%TD*%
D14*
%TO.N,*%
X188371480Y-93766640D03*
X184370980Y-93766640D03*
D15*
%TO.N,GND*%
X156870400Y-106172000D03*
X172923200Y-110134400D03*
X162966400Y-98196400D03*
X156921200Y-121818400D03*
X172923200Y-125780800D03*
X165760400Y-96926400D03*
X179578000Y-91948000D03*
D14*
X169468800Y-126441200D03*
X176631600Y-129235200D03*
X155346400Y-129235200D03*
X157683200Y-126847600D03*
X158343600Y-124510800D03*
X162661600Y-128778000D03*
D15*
X172974000Y-124561600D03*
X172923200Y-108915200D03*
D14*
X169468800Y-110845600D03*
X155397200Y-113639600D03*
X158292800Y-108813600D03*
X162763200Y-113131600D03*
X157683200Y-111252000D03*
X176733200Y-113639600D03*
X179730400Y-108661200D03*
X178257200Y-110744000D03*
D15*
X187553600Y-108864400D03*
D14*
X193700400Y-108610400D03*
X174193200Y-98806000D03*
X169113200Y-91846400D03*
D15*
X182676800Y-97891600D03*
X183616600Y-96951800D03*
X184607200Y-95961200D03*
D14*
X179730400Y-124460000D03*
X178155600Y-126238000D03*
D15*
X187452000Y-124460000D03*
X177952400Y-101650800D03*
X191427102Y-131394200D03*
X191528700Y-115709700D03*
X197104000Y-110782100D03*
X193357500Y-124510800D03*
X178303000Y-121863028D03*
X182900320Y-105333800D03*
D14*
%TO.N,+5V*%
X161645600Y-119024400D03*
D15*
X182930800Y-119430800D03*
X182930800Y-103835200D03*
X154330400Y-103784400D03*
X156903500Y-108317000D03*
X178303000Y-108317000D03*
X178303000Y-123957000D03*
X156903500Y-123938000D03*
X155905200Y-118770400D03*
X159664400Y-115417600D03*
X158394400Y-132537200D03*
D14*
X160731200Y-102870000D03*
D15*
X193569500Y-115697000D03*
X181254400Y-115316000D03*
D14*
X172339000Y-93802200D03*
D15*
X188193680Y-95945960D03*
X190136780Y-97881440D03*
X189141100Y-96944180D03*
X181254400Y-130962400D03*
X189585600Y-131216400D03*
X193533350Y-131354150D03*
D14*
X163499800Y-110363000D03*
D15*
X164465000Y-129654300D03*
X187528200Y-113880900D03*
D14*
%TO.N,Net-(R25-Pad2)*%
X171069000Y-96266000D03*
%TO.N,Net-(R27-Pad2)*%
X174117000Y-93789500D03*
%TO.N,Net-(R28-Pad2)*%
X174879000Y-93789500D03*
D15*
%TO.N,+3V3*%
X163576000Y-92456000D03*
D14*
%TO.N,Net-(D17-Pad2)*%
X174180500Y-91757500D03*
%TO.N,Net-(C19-Pad1)*%
X177419000Y-96393000D03*
X170484800Y-99314000D03*
%TO.N,/DTR_2*%
X169011600Y-119380000D03*
%TO.N,/DTR_3*%
X196850000Y-124917200D03*
%TO.N,/DTR_1*%
X169011600Y-103784400D03*
%TO.N,/DTR_4*%
X196900800Y-109220000D03*
%TO.N,/RXD_4*%
X184150000Y-108458000D03*
%TO.N,/TXD_4*%
X183337200Y-108458000D03*
%TO.N,/RXD_2*%
X153212800Y-128270000D03*
%TO.N,/TXD_2*%
X153212800Y-125323600D03*
%TO.N,/RXD_3*%
X184200800Y-123952000D03*
%TO.N,/TXD_3*%
X183337200Y-123952000D03*
%TO.N,/RXD_1*%
X153212800Y-112725200D03*
%TO.N,/TXD_1*%
X153212800Y-109778800D03*
%TD*%
D16*
%TO.N,GND*%
X165735000Y-98377500D02*
X165735000Y-96951800D01*
X165735000Y-96951800D02*
X165760400Y-96926400D01*
X162598100Y-128714500D02*
X162661600Y-128778000D01*
X161164500Y-128714500D02*
X162598100Y-128714500D01*
X162661600Y-131131400D02*
X162661600Y-128778000D01*
X162411500Y-131381500D02*
X162661600Y-131131400D01*
X162725100Y-113093500D02*
X162763200Y-113131600D01*
X161164500Y-113093500D02*
X162725100Y-113093500D01*
X162763200Y-115408800D02*
X162411500Y-115760500D01*
X162763200Y-113131600D02*
X162763200Y-115408800D01*
X191494500Y-115548500D02*
X191494500Y-115697000D01*
X190247500Y-113030000D02*
X190247500Y-114301500D01*
X190247500Y-114301500D02*
X191494500Y-115548500D01*
D17*
X170183900Y-91846400D02*
X170285500Y-91948000D01*
X169113200Y-91846400D02*
X170183900Y-91846400D01*
X178139000Y-91948000D02*
X179578000Y-91948000D01*
D16*
X191431000Y-131283800D02*
X191431000Y-131381500D01*
X190184000Y-130036800D02*
X191431000Y-131283800D01*
X190184000Y-128714500D02*
X190184000Y-130036800D01*
X177419000Y-101117400D02*
X177952400Y-101650800D01*
X177419000Y-100390000D02*
X177419000Y-101117400D01*
X191431000Y-131381500D02*
X191427102Y-131385398D01*
X191427102Y-131385398D02*
X191427102Y-131394200D01*
X191494500Y-115697000D02*
X191507200Y-115709700D01*
X191507200Y-115709700D02*
X191528700Y-115709700D01*
D18*
%TO.N,Net-(D1-Pad2)*%
X182195500Y-112904300D02*
X182195500Y-112141000D01*
X184607200Y-115316000D02*
X182195500Y-112904300D01*
X185499500Y-115316000D02*
X184607200Y-115316000D01*
%TO.N,Net-(D2-Pad2)*%
X179733700Y-110045500D02*
X179679600Y-110099600D01*
X182195500Y-110045500D02*
X179733700Y-110045500D01*
%TO.N,Net-(D3-Pad2)*%
X155232100Y-131000500D02*
X156416500Y-131000500D01*
X154368500Y-130136900D02*
X155232100Y-131000500D01*
X154368500Y-130034000D02*
X154368500Y-130136900D01*
%TO.N,Net-(D4-Pad2)*%
X154368500Y-121459500D02*
X154381200Y-121446800D01*
X154368500Y-123585000D02*
X154368500Y-121459500D01*
%TO.N,Net-(D5-Pad2)*%
X185436000Y-131000500D02*
X184391300Y-131000500D01*
X182132000Y-128741200D02*
X182132000Y-127825500D01*
X184391300Y-131000500D02*
X182132000Y-128741200D01*
%TO.N,Net-(D6-Pad2)*%
X179746400Y-125730000D02*
X179679600Y-125796800D01*
X182132000Y-125730000D02*
X179746400Y-125730000D01*
%TO.N,Net-(D7-Pad2)*%
X155513500Y-114476500D02*
X156416500Y-115379500D01*
X154305000Y-114476500D02*
X155513500Y-114476500D01*
%TO.N,Net-(D8-Pad2)*%
X154305000Y-105825800D02*
X154330400Y-105800400D01*
X154305000Y-107964000D02*
X154305000Y-105825800D01*
D16*
%TO.N,+5V*%
X193687700Y-128714500D02*
X195070500Y-128714500D01*
X191452500Y-124904500D02*
X192532000Y-125984000D01*
X190120500Y-124904500D02*
X191452500Y-124904500D01*
X192532000Y-127558800D02*
X193687700Y-128714500D01*
X192532000Y-125984000D02*
X192532000Y-127558800D01*
X193738500Y-113017300D02*
X195121300Y-113017300D01*
X191503300Y-109207300D02*
X192582800Y-110286800D01*
X190171300Y-109207300D02*
X191503300Y-109207300D01*
X192582800Y-111861600D02*
X193738500Y-113017300D01*
X192582800Y-110286800D02*
X192582800Y-111861600D01*
X164680900Y-113118900D02*
X166063700Y-113118900D01*
X162445700Y-109308900D02*
X163499800Y-110363000D01*
X161113700Y-109308900D02*
X162445700Y-109308900D01*
X163525200Y-111963200D02*
X164680900Y-113118900D01*
X163525200Y-110388400D02*
X163525200Y-111963200D01*
D17*
X166114500Y-129753500D02*
X164486500Y-131381500D01*
X166114500Y-128714500D02*
X166114500Y-129753500D01*
X195134000Y-129753500D02*
X193533350Y-131354150D01*
X195134000Y-128714500D02*
X195134000Y-129753500D01*
X166114500Y-114132500D02*
X164486500Y-115760500D01*
X166114500Y-113093500D02*
X166114500Y-114132500D01*
X195197500Y-114069000D02*
X193569500Y-115697000D01*
X195197500Y-113030000D02*
X195197500Y-114069000D01*
D16*
X172339000Y-91969500D02*
X172360500Y-91948000D01*
X172339000Y-95190000D02*
X172339000Y-93802200D01*
D17*
X193506000Y-131381500D02*
X193506000Y-131381500D01*
D16*
X158416500Y-115379500D02*
X159626300Y-115379500D01*
X159626300Y-115379500D02*
X159664400Y-115417600D01*
X158416500Y-132515100D02*
X158394400Y-132537200D01*
X158416500Y-131000500D02*
X158416500Y-132515100D01*
X155057600Y-118770400D02*
X154381200Y-119446800D01*
X155905200Y-118770400D02*
X155057600Y-118770400D01*
D17*
X193569500Y-115697000D02*
X193569500Y-115697000D01*
X179679600Y-112099600D02*
X180273200Y-112099600D01*
X181254400Y-113080800D02*
X181254400Y-115316000D01*
X180273200Y-112099600D02*
X181254400Y-113080800D01*
X181254400Y-115316000D02*
X181254400Y-115316000D01*
D16*
X172339000Y-93802200D02*
X172339000Y-91969500D01*
X187651900Y-131216400D02*
X187436000Y-131000500D01*
X189585600Y-131216400D02*
X187651900Y-131216400D01*
D17*
X193533350Y-131354150D02*
X193506000Y-131381500D01*
D16*
X179679600Y-127796800D02*
X179714400Y-127796800D01*
X181254400Y-129336800D02*
X181254400Y-130962400D01*
X179714400Y-127796800D02*
X181254400Y-129336800D01*
X161164500Y-124904500D02*
X162496500Y-124904500D01*
X162496500Y-124904500D02*
X163576000Y-125984000D01*
X163576000Y-125984000D02*
X163576000Y-127558800D01*
X163576000Y-127558800D02*
X164731700Y-128714500D01*
X164731700Y-128714500D02*
X166114500Y-128714500D01*
X163499800Y-110363000D02*
X163525200Y-110388400D01*
D17*
X164486500Y-131381500D02*
X164486500Y-129675800D01*
X164486500Y-129675800D02*
X164465000Y-129654300D01*
D16*
X187499500Y-115316000D02*
X187499500Y-113909600D01*
X187499500Y-113909600D02*
X187528200Y-113880900D01*
D18*
%TO.N,Net-(R1-Pad2)*%
X187856500Y-111760000D02*
X187666000Y-111950500D01*
X190247500Y-111760000D02*
X187856500Y-111760000D01*
%TO.N,Net-(R2-Pad2)*%
X158773500Y-127444500D02*
X158583000Y-127635000D01*
X161164500Y-127444500D02*
X158773500Y-127444500D01*
%TO.N,Net-(R3-Pad2)*%
X187793000Y-127444500D02*
X187602500Y-127635000D01*
X190184000Y-127444500D02*
X187793000Y-127444500D01*
%TO.N,Net-(R4-Pad2)*%
X158773500Y-111823500D02*
X158583000Y-112014000D01*
X161164500Y-111823500D02*
X158773500Y-111823500D01*
%TO.N,Net-(R5-Pad1)*%
X187920000Y-110490000D02*
X187666000Y-110236000D01*
X190247500Y-110490000D02*
X187920000Y-110490000D01*
%TO.N,Net-(R6-Pad1)*%
X158837000Y-126174500D02*
X158583000Y-125920500D01*
X161164500Y-126174500D02*
X158837000Y-126174500D01*
%TO.N,Net-(R7-Pad1)*%
X187856500Y-126174500D02*
X187602500Y-125920500D01*
X190184000Y-126174500D02*
X187856500Y-126174500D01*
%TO.N,Net-(R8-Pad1)*%
X158837000Y-110553500D02*
X158583000Y-110299500D01*
X161164500Y-110553500D02*
X158837000Y-110553500D01*
%TO.N,Net-(R25-Pad2)*%
X171069000Y-95190000D02*
X171069000Y-96266000D01*
%TO.N,Net-(R27-Pad2)*%
X174244000Y-93916500D02*
X174117000Y-93789500D01*
X174244000Y-95190000D02*
X174244000Y-93916500D01*
%TO.N,Net-(R28-Pad2)*%
X174879000Y-93789500D02*
X174879000Y-95190000D01*
%TO.N,Net-(R29-Pad1)*%
X165747500Y-100390000D02*
X165735000Y-100377500D01*
X169164000Y-100390000D02*
X165747500Y-100390000D01*
%TO.N,Net-(U5-Pad3)*%
X177292000Y-103530400D02*
X177292000Y-104597200D01*
X176149000Y-100390000D02*
X176149000Y-102387400D01*
X176149000Y-102387400D02*
X177292000Y-103530400D01*
X177292000Y-104597200D02*
X176407200Y-105482000D01*
X176407200Y-105482000D02*
X176407200Y-105664000D01*
%TO.N,Net-(U5-Pad2)*%
X176784000Y-100390000D02*
X176784000Y-102173600D01*
X180107200Y-105496800D02*
X180107200Y-105664000D01*
X176784000Y-102173600D02*
X180107200Y-105496800D01*
D16*
%TO.N,+3V3*%
X176149000Y-92033000D02*
X176064000Y-91948000D01*
X176149000Y-95190000D02*
X176149000Y-92033000D01*
X171704000Y-95190000D02*
X171704000Y-96012000D01*
X172021500Y-96329500D02*
X172720000Y-96329500D01*
X171704000Y-96012000D02*
X172021500Y-96329500D01*
X172974000Y-96329500D02*
X172974000Y-95190000D01*
X172720000Y-96329500D02*
X172974000Y-96329500D01*
X171704000Y-94297500D02*
X171704000Y-95190000D01*
X170370500Y-93853000D02*
X171259500Y-93853000D01*
X171259500Y-93853000D02*
X171704000Y-94297500D01*
X170434000Y-93916500D02*
X170370500Y-93853000D01*
X170434000Y-95190000D02*
X170434000Y-93916500D01*
X167894000Y-93853000D02*
X170370500Y-93853000D01*
X167894000Y-97663000D02*
X167894000Y-93853000D01*
X169799000Y-100390000D02*
X169799000Y-99568000D01*
X169799000Y-99568000D02*
X167894000Y-97663000D01*
X166497000Y-92456000D02*
X163576000Y-92456000D01*
X167894000Y-93853000D02*
X166497000Y-92456000D01*
X175806100Y-96329500D02*
X172720000Y-96329500D01*
X176149000Y-95190000D02*
X176149000Y-95986600D01*
X176149000Y-95986600D02*
X175806100Y-96329500D01*
D18*
%TO.N,Net-(D17-Pad2)*%
X173609000Y-94234000D02*
X173609000Y-95190000D01*
X173482000Y-94107000D02*
X173609000Y-94234000D01*
X173482000Y-93281500D02*
X173482000Y-94107000D01*
X174180500Y-92583000D02*
X173482000Y-93281500D01*
X174180500Y-91757500D02*
X174180500Y-92583000D01*
%TO.N,Net-(C19-Pad1)*%
X177419000Y-95190000D02*
X177419000Y-96393000D01*
D16*
X170434000Y-99364800D02*
X170484800Y-99314000D01*
X170434000Y-100390000D02*
X170434000Y-99364800D01*
D19*
%TO.N,/D1_N*%
X160515300Y-106743500D02*
X161164500Y-106743500D01*
X160070800Y-107188000D02*
X160515300Y-106743500D01*
X159832208Y-107188000D02*
X160070800Y-107188000D01*
X158838900Y-106194692D02*
X159832208Y-107188000D01*
X158838900Y-103406108D02*
X158838900Y-106194692D01*
X160200508Y-102044500D02*
X158838900Y-103406108D01*
X163359496Y-102044500D02*
X160200508Y-102044500D01*
X163417151Y-102050997D02*
X163359496Y-102044500D01*
X164162070Y-102465150D02*
X164121043Y-102506177D01*
X163612101Y-102245947D02*
X163592938Y-102191182D01*
X164192938Y-102416023D02*
X164162070Y-102465150D01*
X164244257Y-102191182D02*
X164225094Y-102245947D01*
X163521043Y-102101028D02*
X163471916Y-102070160D01*
X164316152Y-102101028D02*
X164275125Y-102142055D01*
X164212101Y-102361258D02*
X164192938Y-102416023D01*
X164420044Y-102050997D02*
X164365279Y-102070160D01*
X164275125Y-102142055D02*
X164244257Y-102191182D01*
X163592938Y-102191182D02*
X163562070Y-102142055D01*
X164477700Y-102044500D02*
X164420044Y-102050997D01*
X164225094Y-102245947D02*
X164212101Y-102361258D01*
X163716152Y-102506177D02*
X163675125Y-102465150D01*
X164365279Y-102070160D02*
X164316152Y-102101028D01*
X164071916Y-102537045D02*
X164017151Y-102556208D01*
X171704000Y-101290001D02*
X170949501Y-102044500D01*
X170949501Y-102044500D02*
X164477700Y-102044500D01*
X171704000Y-100390000D02*
X171704000Y-101290001D01*
X163562070Y-102142055D02*
X163521043Y-102101028D01*
X164121043Y-102506177D02*
X164071916Y-102537045D01*
X163625094Y-102361258D02*
X163612101Y-102245947D01*
X164017151Y-102556208D02*
X163959496Y-102562704D01*
X163959496Y-102562704D02*
X163877700Y-102562704D01*
X163877700Y-102562704D02*
X163820044Y-102556208D01*
X163820044Y-102556208D02*
X163765279Y-102537045D01*
X163765279Y-102537045D02*
X163716152Y-102506177D01*
X163471916Y-102070160D02*
X163417151Y-102050997D01*
X163675125Y-102465150D02*
X163644257Y-102416023D01*
X163644257Y-102416023D02*
X163625094Y-102361258D01*
%TO.N,/D1_P*%
X160324800Y-107848400D02*
X160489900Y-108013500D01*
X171069000Y-100390000D02*
X171069000Y-101371400D01*
X171069000Y-101371400D02*
X170776900Y-101663500D01*
X170776900Y-101663500D02*
X160042692Y-101663500D01*
X160489900Y-108013500D02*
X161164500Y-108013500D01*
X160042692Y-101663500D02*
X158457900Y-103248292D01*
X159953792Y-107848400D02*
X160324800Y-107848400D01*
X158457900Y-103248292D02*
X158457900Y-106352508D01*
X158457900Y-106352508D02*
X159953792Y-107848400D01*
%TO.N,/D4_N*%
X178381492Y-99098100D02*
X175780700Y-99098100D01*
X179133500Y-99850108D02*
X178381492Y-99098100D01*
X183766292Y-103263700D02*
X183359892Y-102857300D01*
X191995892Y-103263700D02*
X183766292Y-103263700D01*
X175514000Y-99364800D02*
X175514000Y-100390000D01*
X192493900Y-103761708D02*
X191995892Y-103263700D01*
X192493900Y-105991492D02*
X192493900Y-103761708D01*
X179133500Y-101120108D02*
X179133500Y-99850108D01*
X190247500Y-106680000D02*
X190450700Y-106883200D01*
X183359892Y-102857300D02*
X180870692Y-102857300D01*
X175780700Y-99098100D02*
X175514000Y-99364800D01*
X191602192Y-106883200D02*
X192493900Y-105991492D01*
X190450700Y-106883200D02*
X191602192Y-106883200D01*
X180870692Y-102857300D02*
X179133500Y-101120108D01*
%TO.N,/D4_P*%
X174879000Y-99323992D02*
X174879000Y-100390000D01*
X175485892Y-98717100D02*
X174879000Y-99323992D01*
X183517708Y-102476300D02*
X181028508Y-102476300D01*
X190247500Y-107950000D02*
X190399900Y-107797600D01*
X190399900Y-107797600D02*
X191226608Y-107797600D01*
X191226608Y-107797600D02*
X192874900Y-106149308D01*
X181028508Y-102476300D02*
X179514500Y-100962292D01*
X192874900Y-106149308D02*
X192874900Y-103603892D01*
X179514500Y-99692292D02*
X178539308Y-98717100D01*
X178539308Y-98717100D02*
X175485892Y-98717100D01*
X192874900Y-103603892D02*
X192153708Y-102882700D01*
X192153708Y-102882700D02*
X183924108Y-102882700D01*
X183924108Y-102882700D02*
X183517708Y-102476300D01*
X179514500Y-100962292D02*
X179514500Y-99692292D01*
%TO.N,/D2_N*%
X160489900Y-122364500D02*
X161164500Y-122364500D01*
X170049605Y-115232141D02*
X169991587Y-115204201D01*
X170112386Y-115246469D02*
X170049605Y-115232141D01*
X170176780Y-115246469D02*
X170112386Y-115246469D01*
X170297577Y-115204201D02*
X170239559Y-115232141D01*
X170347923Y-115164051D02*
X170297577Y-115204201D01*
X170365506Y-115146467D02*
X170347923Y-115164051D01*
X170405655Y-115096123D02*
X170365506Y-115146467D01*
X170239559Y-115232141D02*
X170176780Y-115246469D01*
X170433595Y-115038104D02*
X170405655Y-115096123D01*
X169991587Y-115204201D02*
X169890895Y-115123901D01*
X170447923Y-114975325D02*
X170433595Y-115038104D01*
X169890895Y-115123901D02*
X169832878Y-115095962D01*
X170447924Y-114910929D02*
X170447923Y-114975325D01*
X170283086Y-114568642D02*
X170297416Y-114631421D01*
X170433594Y-114848150D02*
X170447924Y-114910929D01*
X170405655Y-114790133D02*
X170433594Y-114848150D01*
X172974000Y-101290001D02*
X172847000Y-101417001D01*
X170573700Y-114124908D02*
X170365504Y-114333104D01*
X170365505Y-114739787D02*
X170405655Y-114790133D01*
X170297416Y-114631421D02*
X170325356Y-114689439D01*
X172847000Y-101793208D02*
X170573700Y-104066508D01*
X170573700Y-104066508D02*
X170573700Y-114124908D01*
X172847000Y-101417001D02*
X172847000Y-101793208D01*
X170325356Y-114383449D02*
X170297416Y-114441467D01*
X170365504Y-114333104D02*
X170325356Y-114383449D01*
X170297416Y-114441467D02*
X170283086Y-114504248D01*
X170283086Y-114504248D02*
X170283086Y-114568642D01*
X172974000Y-100390000D02*
X172974000Y-101290001D01*
X170325356Y-114689439D02*
X170365505Y-114739787D01*
X169832878Y-115095962D02*
X169770099Y-115081632D01*
X169770099Y-115081632D02*
X169705703Y-115081633D01*
X169705703Y-115081633D02*
X169642924Y-115095961D01*
X169642924Y-115095961D02*
X169584905Y-115123901D01*
X169584905Y-115123901D02*
X169534561Y-115164050D01*
X169534561Y-115164050D02*
X169516977Y-115181632D01*
X169516977Y-115181632D02*
X169410912Y-115287696D01*
X169410912Y-115287696D02*
X166804508Y-117894100D01*
X166804508Y-117894100D02*
X159844908Y-117894100D01*
X159844908Y-117894100D02*
X159143700Y-118595308D01*
X159143700Y-118595308D02*
X159143700Y-122399892D01*
X159143700Y-122399892D02*
X159552808Y-122809000D01*
X159552808Y-122809000D02*
X160045400Y-122809000D01*
X160045400Y-122809000D02*
X160489900Y-122364500D01*
%TO.N,/D2_P*%
X170192700Y-103908692D02*
X172466000Y-101635392D01*
X170192700Y-113967092D02*
X170192700Y-103908692D01*
X172466000Y-101417001D02*
X172339000Y-101290001D01*
X159687092Y-117513100D02*
X166646692Y-117513100D01*
X158762700Y-118437492D02*
X159687092Y-117513100D01*
X158762700Y-122557708D02*
X158762700Y-118437492D01*
X172466000Y-101635392D02*
X172466000Y-101417001D01*
X166646692Y-117513100D02*
X170192700Y-113967092D01*
X159394992Y-123190000D02*
X158762700Y-122557708D01*
X160070800Y-123190000D02*
X159394992Y-123190000D01*
X172339000Y-101290001D02*
X172339000Y-100390000D01*
X160515300Y-123634500D02*
X160070800Y-123190000D01*
X161164500Y-123634500D02*
X160515300Y-123634500D01*
%TO.N,/D3_N*%
X189496700Y-122364500D02*
X190184000Y-122364500D01*
X189052200Y-122809000D02*
X189496700Y-122364500D01*
X187937308Y-122809000D02*
X189052200Y-122809000D01*
X185587808Y-120459500D02*
X187937308Y-122809000D01*
X177133716Y-120459500D02*
X185587808Y-120459500D01*
X177069717Y-120452290D02*
X177133716Y-120459500D01*
X177008927Y-120431018D02*
X177069717Y-120452290D01*
X176954395Y-120396753D02*
X177008927Y-120431018D01*
X176908855Y-120351213D02*
X176954395Y-120396753D01*
X176874590Y-120296681D02*
X176908855Y-120351213D01*
X174117000Y-101417001D02*
X174117000Y-102148808D01*
X176137820Y-120396753D02*
X176183360Y-120351213D01*
X176274590Y-120047104D02*
X176308855Y-119992572D01*
X176083288Y-120431018D02*
X176137820Y-120396753D01*
X176022498Y-120452290D02*
X176083288Y-120431018D01*
X176469717Y-119891495D02*
X176533716Y-119884284D01*
X175237308Y-120459500D02*
X175958500Y-120459500D01*
X176183360Y-120351213D02*
X176217625Y-120296681D01*
X175958500Y-120459500D02*
X176022498Y-120452290D01*
X176408927Y-119912767D02*
X176469717Y-119891495D01*
X171742100Y-116964292D02*
X175237308Y-120459500D01*
X171742100Y-104523708D02*
X171742100Y-116964292D01*
X176217625Y-120296681D02*
X176238897Y-120235891D01*
X174244000Y-101290001D02*
X174117000Y-101417001D01*
X176683288Y-119912767D02*
X176737820Y-119947032D01*
X174244000Y-100390000D02*
X174244000Y-101290001D01*
X176253318Y-120107894D02*
X176274590Y-120047104D01*
X176238897Y-120235891D02*
X176253318Y-120107894D01*
X176783360Y-119992572D02*
X176817625Y-120047104D01*
X176308855Y-119992572D02*
X176354395Y-119947032D01*
X174117000Y-102148808D02*
X171742100Y-104523708D01*
X176354395Y-119947032D02*
X176408927Y-119912767D01*
X176533716Y-119884284D02*
X176558500Y-119884284D01*
X176558500Y-119884284D02*
X176622498Y-119891495D01*
X176622498Y-119891495D02*
X176683288Y-119912767D01*
X176737820Y-119947032D02*
X176783360Y-119992572D01*
X176853318Y-120235891D02*
X176874590Y-120296681D01*
X176817625Y-120047104D02*
X176838897Y-120107894D01*
X176838897Y-120107894D02*
X176853318Y-120235891D01*
%TO.N,/D3_P*%
X173609000Y-101290001D02*
X173609000Y-100390000D01*
X173736000Y-101417001D02*
X173609000Y-101290001D01*
X171361100Y-117122108D02*
X171361100Y-104365892D01*
X185429992Y-120840500D02*
X175079492Y-120840500D01*
X173736000Y-101990992D02*
X173736000Y-101417001D01*
X189077600Y-123190000D02*
X187779492Y-123190000D01*
X187779492Y-123190000D02*
X185429992Y-120840500D01*
X171361100Y-104365892D02*
X173736000Y-101990992D01*
X189522100Y-123634500D02*
X189077600Y-123190000D01*
X175079492Y-120840500D02*
X171361100Y-117122108D01*
X190184000Y-123634500D02*
X189522100Y-123634500D01*
D18*
%TO.N,/DTR_2*%
X166114500Y-124879100D02*
X167678100Y-124879100D01*
X167678100Y-124879100D02*
X169011600Y-123545600D01*
X169011600Y-123545600D02*
X169011600Y-119380000D01*
%TO.N,/DTR_3*%
X195146700Y-124917200D02*
X195134000Y-124904500D01*
X196850000Y-124917200D02*
X195146700Y-124917200D01*
%TO.N,/DTR_1*%
X166114500Y-109283500D02*
X167678100Y-109283500D01*
X167678100Y-109283500D02*
X169011600Y-107950000D01*
X169011600Y-107950000D02*
X169011600Y-103784400D01*
%TO.N,/DTR_4*%
X196900800Y-109220000D02*
X195197500Y-109220000D01*
X195197500Y-109220000D02*
X195184800Y-109207300D01*
%TO.N,/RXD_4*%
X184136000Y-111950500D02*
X183945500Y-112141000D01*
X185841000Y-111950500D02*
X184136000Y-111950500D01*
X185841000Y-111950500D02*
X185991500Y-111950500D01*
X186131200Y-108813600D02*
X185775600Y-108458000D01*
X185775600Y-108458000D02*
X184150000Y-108458000D01*
X186740800Y-109423200D02*
X186131200Y-108813600D01*
X186740800Y-111201200D02*
X186740800Y-109423200D01*
X185991500Y-111950500D02*
X186740800Y-111201200D01*
%TO.N,/TXD_4*%
X184136000Y-110236000D02*
X183945500Y-110045500D01*
X185841000Y-110236000D02*
X184136000Y-110236000D01*
X183945500Y-110045500D02*
X183857900Y-110045500D01*
X183857900Y-110045500D02*
X183337200Y-109524800D01*
X183337200Y-109524800D02*
X183337200Y-108458000D01*
%TO.N,/RXD_2*%
X155017500Y-127635000D02*
X154368500Y-128284000D01*
X156758000Y-127635000D02*
X155017500Y-127635000D01*
X154354500Y-128270000D02*
X154368500Y-128284000D01*
X154368500Y-128284000D02*
X153226800Y-128284000D01*
X153226800Y-128284000D02*
X153212800Y-128270000D01*
%TO.N,/TXD_2*%
X154954000Y-125920500D02*
X154368500Y-125335000D01*
X156758000Y-125920500D02*
X154954000Y-125920500D01*
X153224200Y-125335000D02*
X153212800Y-125323600D01*
X154368500Y-125335000D02*
X153224200Y-125335000D01*
%TO.N,/RXD_3*%
X184072500Y-127635000D02*
X183882000Y-127825500D01*
X185777500Y-127635000D02*
X184072500Y-127635000D01*
X184200800Y-123952000D02*
X184962800Y-124714000D01*
X184962800Y-124714000D02*
X186131200Y-124714000D01*
X186131200Y-124714000D02*
X186690000Y-125272800D01*
X186690000Y-126722500D02*
X185777500Y-127635000D01*
X186690000Y-125272800D02*
X186690000Y-126722500D01*
%TO.N,/TXD_3*%
X184072500Y-125920500D02*
X183882000Y-125730000D01*
X185777500Y-125920500D02*
X184072500Y-125920500D01*
X183882000Y-124496800D02*
X183882000Y-125730000D01*
X183337200Y-123952000D02*
X183882000Y-124496800D01*
%TO.N,/RXD_1*%
X155017500Y-112014000D02*
X154305000Y-112726500D01*
X156758000Y-112014000D02*
X155017500Y-112014000D01*
X154368500Y-112739200D02*
X153226800Y-112739200D01*
X153226800Y-112739200D02*
X153212800Y-112725200D01*
%TO.N,/TXD_1*%
X156758000Y-110299500D02*
X154890500Y-110299500D01*
X154890500Y-110299500D02*
X154305000Y-109714000D01*
X154368500Y-109790200D02*
X153224200Y-109790200D01*
X153224200Y-109790200D02*
X153212800Y-109778800D01*
D19*
%TO.N,/D-*%
X169291000Y-96217001D02*
X169291000Y-96967208D01*
X178991092Y-97980500D02*
X170304292Y-97980500D01*
X170304292Y-97980500D02*
X169291000Y-96967208D01*
X180200300Y-99189708D02*
X178991092Y-97980500D01*
X180200300Y-100713708D02*
X180200300Y-99189708D01*
X186677300Y-100850700D02*
X186677300Y-101577308D01*
X187756800Y-99771200D02*
X186677300Y-100850700D01*
X186677300Y-101577308D02*
X186311708Y-101942900D01*
X186311708Y-101942900D02*
X181429492Y-101942900D01*
X181429492Y-101942900D02*
X180200300Y-100713708D01*
X169164000Y-96090001D02*
X169291000Y-96217001D01*
X169164000Y-95190000D02*
X169164000Y-96090001D01*
%TO.N,/D+*%
X170462108Y-97599500D02*
X169672000Y-96809392D01*
X177948908Y-97599500D02*
X170462108Y-97599500D01*
X178015664Y-97591978D02*
X177948908Y-97599500D01*
X178079073Y-97569790D02*
X178015664Y-97591978D01*
X178135954Y-97534049D02*
X178079073Y-97569790D01*
X178183457Y-97486546D02*
X178135954Y-97534049D01*
X178219198Y-97429665D02*
X178183457Y-97486546D01*
X178241386Y-97366256D02*
X178219198Y-97429665D01*
X169799000Y-96090001D02*
X169799000Y-95190000D01*
X178248908Y-97299500D02*
X178241386Y-97366256D01*
X178248908Y-97008730D02*
X178248908Y-97299500D01*
X178961861Y-97534049D02*
X178914358Y-97486546D01*
X179018742Y-97569790D02*
X178961861Y-97534049D01*
X178878617Y-97429665D02*
X178856429Y-97366256D01*
X179148908Y-97599500D02*
X179082151Y-97591978D01*
X178314358Y-96821683D02*
X178278617Y-96878564D01*
X178914358Y-97486546D02*
X178878617Y-97429665D01*
X178819198Y-96878564D02*
X178783457Y-96821683D01*
X180581300Y-99031892D02*
X179148908Y-97599500D01*
X186153892Y-101561900D02*
X181587308Y-101561900D01*
X180581300Y-100555892D02*
X180581300Y-99031892D01*
X179082151Y-97591978D02*
X179018742Y-97569790D01*
X186296300Y-101419492D02*
X186153892Y-101561900D01*
X186296300Y-100850700D02*
X186296300Y-101419492D01*
X178482151Y-96716251D02*
X178418742Y-96738439D01*
X169672000Y-96217001D02*
X169799000Y-96090001D01*
X185216800Y-99771200D02*
X186296300Y-100850700D01*
X181587308Y-101561900D02*
X180581300Y-100555892D01*
X178856429Y-97366256D02*
X178848908Y-97299500D01*
X169672000Y-96809392D02*
X169672000Y-96217001D01*
X178841386Y-96941973D02*
X178819198Y-96878564D01*
X178848908Y-97299500D02*
X178848908Y-97008730D01*
X178615664Y-96716251D02*
X178548908Y-96708730D01*
X178848908Y-97008730D02*
X178841386Y-96941973D01*
X178783457Y-96821683D02*
X178735954Y-96774180D01*
X178735954Y-96774180D02*
X178679073Y-96738439D01*
X178679073Y-96738439D02*
X178615664Y-96716251D01*
X178548908Y-96708730D02*
X178482151Y-96716251D01*
X178418742Y-96738439D02*
X178361861Y-96774180D01*
X178361861Y-96774180D02*
X178314358Y-96821683D01*
X178278617Y-96878564D02*
X178256429Y-96941973D01*
X178256429Y-96941973D02*
X178248908Y-97008730D01*
%TD*%
M02*
