%TF.GenerationSoftware,KiCad,Pcbnew,(5.1.12)-1*%
%TF.CreationDate,2022-03-26T18:35:52+01:00*%
%TF.ProjectId,Duino Coin,4475696e-6f20-4436-9f69-6e2e6b696361,rev?*%
%TF.SameCoordinates,Original*%
%TF.FileFunction,Copper,L1,Top*%
%TF.FilePolarity,Positive*%
%FSLAX46Y46*%
G04 Gerber Fmt 4.6, Leading zero omitted, Abs format (unit mm)*
G04 Created by KiCad (PCBNEW (5.1.12)-1) date 2022-03-26 18:35:52*
%MOMM*%
%LPD*%
G01*
G04 APERTURE LIST*
%TA.AperFunction,ComponentPad*%
%ADD10O,1.700000X1.700000*%
%TD*%
%TA.AperFunction,ComponentPad*%
%ADD11R,1.700000X1.700000*%
%TD*%
%TA.AperFunction,SMDPad,CuDef*%
%ADD12R,1.800000X1.900000*%
%TD*%
%TA.AperFunction,SMDPad,CuDef*%
%ADD13R,2.300000X1.900000*%
%TD*%
%TA.AperFunction,SMDPad,CuDef*%
%ADD14R,0.400000X1.400000*%
%TD*%
%TA.AperFunction,SMDPad,CuDef*%
%ADD15R,1.500000X0.600000*%
%TD*%
%TA.AperFunction,SMDPad,CuDef*%
%ADD16R,0.600000X1.500000*%
%TD*%
%TA.AperFunction,SMDPad,CuDef*%
%ADD17R,1.900000X0.400000*%
%TD*%
%TA.AperFunction,ViaPad*%
%ADD18C,0.600000*%
%TD*%
%TA.AperFunction,ViaPad*%
%ADD19C,0.900000*%
%TD*%
%TA.AperFunction,Conductor*%
%ADD20C,0.200000*%
%TD*%
%TA.AperFunction,Conductor*%
%ADD21C,0.300000*%
%TD*%
%TA.AperFunction,Conductor*%
%ADD22C,0.400000*%
%TD*%
%TA.AperFunction,Conductor*%
%ADD23C,0.800000*%
%TD*%
%TA.AperFunction,Conductor*%
%ADD24C,0.600000*%
%TD*%
%TA.AperFunction,Conductor*%
%ADD25C,0.228600*%
%TD*%
G04 APERTURE END LIST*
D10*
%TO.P,J2,4*%
%TO.N,/SS4*%
X198450200Y-109423200D03*
%TO.P,J2,3*%
%TO.N,/SCK4*%
X198450200Y-111963200D03*
%TO.P,J2,2*%
%TO.N,/MISO4*%
X198450200Y-114503200D03*
D11*
%TO.P,J2,1*%
%TO.N,/MOSI4*%
X198450200Y-117043200D03*
%TD*%
%TO.P,J6,1*%
%TO.N,/MOSI1*%
X175417480Y-117012720D03*
D10*
%TO.P,J6,2*%
%TO.N,/MISO1*%
X175417480Y-114472720D03*
%TO.P,J6,3*%
%TO.N,/SCK1*%
X175417480Y-111932720D03*
%TO.P,J6,4*%
%TO.N,/SS1*%
X175417480Y-109392720D03*
%TD*%
%TO.P,J5,4*%
%TO.N,/SS2*%
X167640000Y-135775700D03*
%TO.P,J5,3*%
%TO.N,/SCK2*%
X165100000Y-135775700D03*
%TO.P,J5,2*%
%TO.N,/MISO2*%
X162560000Y-135775700D03*
D11*
%TO.P,J5,1*%
%TO.N,/MOSI2*%
X160020000Y-135775700D03*
%TD*%
D10*
%TO.P,J3,4*%
%TO.N,/SS3*%
X190284100Y-135801100D03*
%TO.P,J3,3*%
%TO.N,/SCK3*%
X187744100Y-135801100D03*
%TO.P,J3,2*%
%TO.N,/MISO3*%
X185204100Y-135801100D03*
D11*
%TO.P,J3,1*%
%TO.N,/MOSI3*%
X182664100Y-135801100D03*
%TD*%
D12*
%TO.P,J1,6*%
%TO.N,Net-(J1-Pad6)*%
X185222500Y-91473500D03*
X187522500Y-91473500D03*
D13*
X182622500Y-91473500D03*
X190122500Y-91473500D03*
D14*
%TO.P,J1,5*%
%TO.N,GND*%
X185072500Y-94323500D03*
%TO.P,J1,4*%
%TO.N,Net-(J1-Pad4)*%
X185722500Y-94323500D03*
%TO.P,J1,3*%
%TO.N,/D+*%
X186372500Y-94323500D03*
%TO.P,J1,2*%
%TO.N,/D-*%
X187022500Y-94323500D03*
%TO.P,J1,1*%
%TO.N,+5V*%
X187672500Y-94323500D03*
%TD*%
D15*
%TO.P,IC2,1*%
%TO.N,Net-(IC2-Pad1)*%
X181101500Y-124037500D03*
%TO.P,IC2,2*%
%TO.N,Net-(IC2-Pad2)*%
X181101500Y-124837500D03*
%TO.P,IC2,3*%
%TO.N,GND*%
X181101500Y-125637500D03*
%TO.P,IC2,4*%
%TO.N,+5V*%
X181101500Y-126437500D03*
%TO.P,IC2,5*%
%TO.N,GND*%
X181101500Y-127237500D03*
%TO.P,IC2,6*%
%TO.N,+5V*%
X181101500Y-128037500D03*
%TO.P,IC2,7*%
%TO.N,Net-(IC2-Pad7)*%
X181101500Y-128837500D03*
%TO.P,IC2,8*%
%TO.N,Net-(IC2-Pad8)*%
X181101500Y-129637500D03*
D16*
%TO.P,IC2,9*%
%TO.N,Net-(IC2-Pad9)*%
X182551500Y-131087500D03*
%TO.P,IC2,10*%
%TO.N,Net-(IC2-Pad10)*%
X183351500Y-131087500D03*
%TO.P,IC2,11*%
%TO.N,Net-(IC2-Pad11)*%
X184151500Y-131087500D03*
%TO.P,IC2,12*%
%TO.N,Net-(IC2-Pad12)*%
X184951500Y-131087500D03*
%TO.P,IC2,13*%
%TO.N,Net-(IC2-Pad13)*%
X185751500Y-131087500D03*
%TO.P,IC2,14*%
%TO.N,Net-(IC2-Pad14)*%
X186551500Y-131087500D03*
%TO.P,IC2,15*%
%TO.N,/MOSI3*%
X187351500Y-131087500D03*
%TO.P,IC2,16*%
%TO.N,/MISO3*%
X188151500Y-131087500D03*
D15*
%TO.P,IC2,17*%
%TO.N,/SCK3*%
X189601500Y-129637500D03*
%TO.P,IC2,18*%
%TO.N,+5V*%
X189601500Y-128837500D03*
%TO.P,IC2,19*%
%TO.N,Net-(IC2-Pad19)*%
X189601500Y-128037500D03*
%TO.P,IC2,20*%
%TO.N,Net-(C15-Pad1)*%
X189601500Y-127237500D03*
%TO.P,IC2,21*%
%TO.N,GND*%
X189601500Y-126437500D03*
%TO.P,IC2,22*%
%TO.N,Net-(IC2-Pad22)*%
X189601500Y-125637500D03*
%TO.P,IC2,23*%
%TO.N,Net-(IC2-Pad23)*%
X189601500Y-124837500D03*
%TO.P,IC2,24*%
%TO.N,Net-(IC2-Pad24)*%
X189601500Y-124037500D03*
D16*
%TO.P,IC2,25*%
%TO.N,Net-(IC2-Pad25)*%
X188151500Y-122587500D03*
%TO.P,IC2,26*%
%TO.N,Net-(IC2-Pad26)*%
X187351500Y-122587500D03*
%TO.P,IC2,27*%
%TO.N,Net-(IC2-Pad27)*%
X186551500Y-122587500D03*
%TO.P,IC2,28*%
%TO.N,Net-(IC2-Pad28)*%
X185751500Y-122587500D03*
%TO.P,IC2,29*%
%TO.N,/SS3*%
X184951500Y-122587500D03*
%TO.P,IC2,30*%
%TO.N,/RXD_3*%
X184151500Y-122587500D03*
%TO.P,IC2,31*%
%TO.N,/TXD_3*%
X183351500Y-122587500D03*
%TO.P,IC2,32*%
%TO.N,Net-(IC2-Pad32)*%
X182551500Y-122587500D03*
%TD*%
D15*
%TO.P,IC1,1*%
%TO.N,Net-(IC1-Pad1)*%
X159702000Y-124037500D03*
%TO.P,IC1,2*%
%TO.N,Net-(IC1-Pad2)*%
X159702000Y-124837500D03*
%TO.P,IC1,3*%
%TO.N,GND*%
X159702000Y-125637500D03*
%TO.P,IC1,4*%
%TO.N,+5V*%
X159702000Y-126437500D03*
%TO.P,IC1,5*%
%TO.N,GND*%
X159702000Y-127237500D03*
%TO.P,IC1,6*%
%TO.N,+5V*%
X159702000Y-128037500D03*
%TO.P,IC1,7*%
%TO.N,Net-(IC1-Pad7)*%
X159702000Y-128837500D03*
%TO.P,IC1,8*%
%TO.N,Net-(IC1-Pad8)*%
X159702000Y-129637500D03*
D16*
%TO.P,IC1,9*%
%TO.N,Net-(IC1-Pad9)*%
X161152000Y-131087500D03*
%TO.P,IC1,10*%
%TO.N,Net-(IC1-Pad10)*%
X161952000Y-131087500D03*
%TO.P,IC1,11*%
%TO.N,Net-(IC1-Pad11)*%
X162752000Y-131087500D03*
%TO.P,IC1,12*%
%TO.N,Net-(IC1-Pad12)*%
X163552000Y-131087500D03*
%TO.P,IC1,13*%
%TO.N,Net-(IC1-Pad13)*%
X164352000Y-131087500D03*
%TO.P,IC1,14*%
%TO.N,Net-(IC1-Pad14)*%
X165152000Y-131087500D03*
%TO.P,IC1,15*%
%TO.N,/MOSI2*%
X165952000Y-131087500D03*
%TO.P,IC1,16*%
%TO.N,/MISO2*%
X166752000Y-131087500D03*
D15*
%TO.P,IC1,17*%
%TO.N,/SCK2*%
X168202000Y-129637500D03*
%TO.P,IC1,18*%
%TO.N,+5V*%
X168202000Y-128837500D03*
%TO.P,IC1,19*%
%TO.N,Net-(IC1-Pad19)*%
X168202000Y-128037500D03*
%TO.P,IC1,20*%
%TO.N,Net-(C14-Pad1)*%
X168202000Y-127237500D03*
%TO.P,IC1,21*%
%TO.N,GND*%
X168202000Y-126437500D03*
%TO.P,IC1,22*%
%TO.N,Net-(IC1-Pad22)*%
X168202000Y-125637500D03*
%TO.P,IC1,23*%
%TO.N,Net-(IC1-Pad23)*%
X168202000Y-124837500D03*
%TO.P,IC1,24*%
%TO.N,Net-(IC1-Pad24)*%
X168202000Y-124037500D03*
D16*
%TO.P,IC1,25*%
%TO.N,Net-(IC1-Pad25)*%
X166752000Y-122587500D03*
%TO.P,IC1,26*%
%TO.N,Net-(IC1-Pad26)*%
X165952000Y-122587500D03*
%TO.P,IC1,27*%
%TO.N,Net-(IC1-Pad27)*%
X165152000Y-122587500D03*
%TO.P,IC1,28*%
%TO.N,Net-(IC1-Pad28)*%
X164352000Y-122587500D03*
%TO.P,IC1,29*%
%TO.N,/SS2*%
X163552000Y-122587500D03*
%TO.P,IC1,30*%
%TO.N,/RXD_2*%
X162752000Y-122587500D03*
%TO.P,IC1,31*%
%TO.N,/TXD_2*%
X161952000Y-122587500D03*
%TO.P,IC1,32*%
%TO.N,Net-(IC1-Pad32)*%
X161152000Y-122587500D03*
%TD*%
D15*
%TO.P,IC4,1*%
%TO.N,Net-(IC4-Pad1)*%
X181101500Y-108416500D03*
%TO.P,IC4,2*%
%TO.N,Net-(IC4-Pad2)*%
X181101500Y-109216500D03*
%TO.P,IC4,3*%
%TO.N,GND*%
X181101500Y-110016500D03*
%TO.P,IC4,4*%
%TO.N,+5V*%
X181101500Y-110816500D03*
%TO.P,IC4,5*%
%TO.N,GND*%
X181101500Y-111616500D03*
%TO.P,IC4,6*%
%TO.N,+5V*%
X181101500Y-112416500D03*
%TO.P,IC4,7*%
%TO.N,Net-(IC4-Pad7)*%
X181101500Y-113216500D03*
%TO.P,IC4,8*%
%TO.N,Net-(IC4-Pad8)*%
X181101500Y-114016500D03*
D16*
%TO.P,IC4,9*%
%TO.N,Net-(IC4-Pad9)*%
X182551500Y-115466500D03*
%TO.P,IC4,10*%
%TO.N,Net-(IC4-Pad10)*%
X183351500Y-115466500D03*
%TO.P,IC4,11*%
%TO.N,Net-(IC4-Pad11)*%
X184151500Y-115466500D03*
%TO.P,IC4,12*%
%TO.N,Net-(IC4-Pad12)*%
X184951500Y-115466500D03*
%TO.P,IC4,13*%
%TO.N,Net-(IC4-Pad13)*%
X185751500Y-115466500D03*
%TO.P,IC4,14*%
%TO.N,Net-(IC4-Pad14)*%
X186551500Y-115466500D03*
%TO.P,IC4,15*%
%TO.N,/MOSI4*%
X187351500Y-115466500D03*
%TO.P,IC4,16*%
%TO.N,/MISO4*%
X188151500Y-115466500D03*
D15*
%TO.P,IC4,17*%
%TO.N,/SCK4*%
X189601500Y-114016500D03*
%TO.P,IC4,18*%
%TO.N,+5V*%
X189601500Y-113216500D03*
%TO.P,IC4,19*%
%TO.N,Net-(IC4-Pad19)*%
X189601500Y-112416500D03*
%TO.P,IC4,20*%
%TO.N,Net-(C17-Pad1)*%
X189601500Y-111616500D03*
%TO.P,IC4,21*%
%TO.N,GND*%
X189601500Y-110816500D03*
%TO.P,IC4,22*%
%TO.N,Net-(IC4-Pad22)*%
X189601500Y-110016500D03*
%TO.P,IC4,23*%
%TO.N,Net-(IC4-Pad23)*%
X189601500Y-109216500D03*
%TO.P,IC4,24*%
%TO.N,Net-(IC4-Pad24)*%
X189601500Y-108416500D03*
D16*
%TO.P,IC4,25*%
%TO.N,Net-(IC4-Pad25)*%
X188151500Y-106966500D03*
%TO.P,IC4,26*%
%TO.N,Net-(IC4-Pad26)*%
X187351500Y-106966500D03*
%TO.P,IC4,27*%
%TO.N,Net-(IC4-Pad27)*%
X186551500Y-106966500D03*
%TO.P,IC4,28*%
%TO.N,Net-(IC4-Pad28)*%
X185751500Y-106966500D03*
%TO.P,IC4,29*%
%TO.N,/SS4*%
X184951500Y-106966500D03*
%TO.P,IC4,30*%
%TO.N,/RXD_4*%
X184151500Y-106966500D03*
%TO.P,IC4,31*%
%TO.N,/TXD_4*%
X183351500Y-106966500D03*
%TO.P,IC4,32*%
%TO.N,Net-(IC4-Pad32)*%
X182551500Y-106966500D03*
%TD*%
D15*
%TO.P,IC3,1*%
%TO.N,Net-(IC3-Pad1)*%
X159702000Y-108416500D03*
%TO.P,IC3,2*%
%TO.N,Net-(IC3-Pad2)*%
X159702000Y-109216500D03*
%TO.P,IC3,3*%
%TO.N,GND*%
X159702000Y-110016500D03*
%TO.P,IC3,4*%
%TO.N,+5V*%
X159702000Y-110816500D03*
%TO.P,IC3,5*%
%TO.N,GND*%
X159702000Y-111616500D03*
%TO.P,IC3,6*%
%TO.N,+5V*%
X159702000Y-112416500D03*
%TO.P,IC3,7*%
%TO.N,Net-(IC3-Pad7)*%
X159702000Y-113216500D03*
%TO.P,IC3,8*%
%TO.N,Net-(IC3-Pad8)*%
X159702000Y-114016500D03*
D16*
%TO.P,IC3,9*%
%TO.N,Net-(IC3-Pad9)*%
X161152000Y-115466500D03*
%TO.P,IC3,10*%
%TO.N,Net-(IC3-Pad10)*%
X161952000Y-115466500D03*
%TO.P,IC3,11*%
%TO.N,Net-(IC3-Pad11)*%
X162752000Y-115466500D03*
%TO.P,IC3,12*%
%TO.N,Net-(IC3-Pad12)*%
X163552000Y-115466500D03*
%TO.P,IC3,13*%
%TO.N,Net-(IC3-Pad13)*%
X164352000Y-115466500D03*
%TO.P,IC3,14*%
%TO.N,Net-(IC3-Pad14)*%
X165152000Y-115466500D03*
%TO.P,IC3,15*%
%TO.N,/MOSI1*%
X165952000Y-115466500D03*
%TO.P,IC3,16*%
%TO.N,/MISO1*%
X166752000Y-115466500D03*
D15*
%TO.P,IC3,17*%
%TO.N,/SCK1*%
X168202000Y-114016500D03*
%TO.P,IC3,18*%
%TO.N,+5V*%
X168202000Y-113216500D03*
%TO.P,IC3,19*%
%TO.N,Net-(IC3-Pad19)*%
X168202000Y-112416500D03*
%TO.P,IC3,20*%
%TO.N,Net-(C16-Pad1)*%
X168202000Y-111616500D03*
%TO.P,IC3,21*%
%TO.N,GND*%
X168202000Y-110816500D03*
%TO.P,IC3,22*%
%TO.N,Net-(IC3-Pad22)*%
X168202000Y-110016500D03*
%TO.P,IC3,23*%
%TO.N,Net-(IC3-Pad23)*%
X168202000Y-109216500D03*
%TO.P,IC3,24*%
%TO.N,Net-(IC3-Pad24)*%
X168202000Y-108416500D03*
D16*
%TO.P,IC3,25*%
%TO.N,Net-(IC3-Pad25)*%
X166752000Y-106966500D03*
%TO.P,IC3,26*%
%TO.N,Net-(IC3-Pad26)*%
X165952000Y-106966500D03*
%TO.P,IC3,27*%
%TO.N,Net-(IC3-Pad27)*%
X165152000Y-106966500D03*
%TO.P,IC3,28*%
%TO.N,Net-(IC3-Pad28)*%
X164352000Y-106966500D03*
%TO.P,IC3,29*%
%TO.N,/SS1*%
X163552000Y-106966500D03*
%TO.P,IC3,30*%
%TO.N,/RXD_1*%
X162752000Y-106966500D03*
%TO.P,IC3,31*%
%TO.N,/TXD_1*%
X161952000Y-106966500D03*
%TO.P,IC3,32*%
%TO.N,Net-(IC3-Pad32)*%
X161152000Y-106966500D03*
%TD*%
D17*
%TO.P,Y4,2*%
%TO.N,GND*%
X178176000Y-113629500D03*
%TO.P,Y4,1*%
%TO.N,Net-(IC4-Pad7)*%
X178176000Y-112429500D03*
%TO.P,Y4,3*%
%TO.N,Net-(IC4-Pad8)*%
X178176000Y-114829500D03*
%TD*%
%TO.P,Y3,2*%
%TO.N,GND*%
X156776500Y-113629500D03*
%TO.P,Y3,1*%
%TO.N,Net-(IC3-Pad7)*%
X156776500Y-112429500D03*
%TO.P,Y3,3*%
%TO.N,Net-(IC3-Pad8)*%
X156776500Y-114829500D03*
%TD*%
%TO.P,Y2,2*%
%TO.N,GND*%
X178176000Y-129250500D03*
%TO.P,Y2,1*%
%TO.N,Net-(IC2-Pad7)*%
X178176000Y-128050500D03*
%TO.P,Y2,3*%
%TO.N,Net-(IC2-Pad8)*%
X178176000Y-130450500D03*
%TD*%
%TO.P,Y1,2*%
%TO.N,GND*%
X156776500Y-129250500D03*
%TO.P,Y1,1*%
%TO.N,Net-(IC1-Pad7)*%
X156776500Y-128050500D03*
%TO.P,Y1,3*%
%TO.N,Net-(IC1-Pad8)*%
X156776500Y-130450500D03*
%TD*%
D11*
%TO.P,J4,1*%
%TO.N,+5V*%
X190296800Y-99771200D03*
D10*
%TO.P,J4,2*%
%TO.N,/D-*%
X187756800Y-99771200D03*
%TO.P,J4,3*%
%TO.N,/D+*%
X185216800Y-99771200D03*
%TO.P,J4,4*%
%TO.N,GND*%
X182676800Y-99771200D03*
%TD*%
%TO.P,R30,2*%
%TO.N,GND*%
%TA.AperFunction,SMDPad,CuDef*%
G36*
G01*
X160928000Y-98684501D02*
X160928000Y-97784499D01*
G75*
G02*
X161177999Y-97534500I249999J0D01*
G01*
X161878001Y-97534500D01*
G75*
G02*
X162128000Y-97784499I0J-249999D01*
G01*
X162128000Y-98684501D01*
G75*
G02*
X161878001Y-98934500I-249999J0D01*
G01*
X161177999Y-98934500D01*
G75*
G02*
X160928000Y-98684501I0J249999D01*
G01*
G37*
%TD.AperFunction*%
%TO.P,R30,1*%
%TO.N,Net-(D17-Pad1)*%
%TA.AperFunction,SMDPad,CuDef*%
G36*
G01*
X158928000Y-98684501D02*
X158928000Y-97784499D01*
G75*
G02*
X159177999Y-97534500I249999J0D01*
G01*
X159878001Y-97534500D01*
G75*
G02*
X160128000Y-97784499I0J-249999D01*
G01*
X160128000Y-98684501D01*
G75*
G02*
X159878001Y-98934500I-249999J0D01*
G01*
X159177999Y-98934500D01*
G75*
G02*
X158928000Y-98684501I0J249999D01*
G01*
G37*
%TD.AperFunction*%
%TD*%
%TO.P,R28,2*%
%TO.N,Net-(R28-Pad2)*%
%TA.AperFunction,SMDPad,CuDef*%
G36*
G01*
X166389000Y-92906001D02*
X166389000Y-92005999D01*
G75*
G02*
X166638999Y-91756000I249999J0D01*
G01*
X167339001Y-91756000D01*
G75*
G02*
X167589000Y-92005999I0J-249999D01*
G01*
X167589000Y-92906001D01*
G75*
G02*
X167339001Y-93156000I-249999J0D01*
G01*
X166638999Y-93156000D01*
G75*
G02*
X166389000Y-92906001I0J249999D01*
G01*
G37*
%TD.AperFunction*%
%TO.P,R28,1*%
%TO.N,+3V3*%
%TA.AperFunction,SMDPad,CuDef*%
G36*
G01*
X164389000Y-92906001D02*
X164389000Y-92005999D01*
G75*
G02*
X164638999Y-91756000I249999J0D01*
G01*
X165339001Y-91756000D01*
G75*
G02*
X165589000Y-92005999I0J-249999D01*
G01*
X165589000Y-92906001D01*
G75*
G02*
X165339001Y-93156000I-249999J0D01*
G01*
X164638999Y-93156000D01*
G75*
G02*
X164389000Y-92906001I0J249999D01*
G01*
G37*
%TD.AperFunction*%
%TD*%
%TO.P,R27,2*%
%TO.N,Net-(R27-Pad2)*%
%TA.AperFunction,SMDPad,CuDef*%
G36*
G01*
X166389000Y-95319001D02*
X166389000Y-94418999D01*
G75*
G02*
X166638999Y-94169000I249999J0D01*
G01*
X167339001Y-94169000D01*
G75*
G02*
X167589000Y-94418999I0J-249999D01*
G01*
X167589000Y-95319001D01*
G75*
G02*
X167339001Y-95569000I-249999J0D01*
G01*
X166638999Y-95569000D01*
G75*
G02*
X166389000Y-95319001I0J249999D01*
G01*
G37*
%TD.AperFunction*%
%TO.P,R27,1*%
%TO.N,Net-(D13-Pad1)*%
%TA.AperFunction,SMDPad,CuDef*%
G36*
G01*
X164389000Y-95319001D02*
X164389000Y-94418999D01*
G75*
G02*
X164638999Y-94169000I249999J0D01*
G01*
X165339001Y-94169000D01*
G75*
G02*
X165589000Y-94418999I0J-249999D01*
G01*
X165589000Y-95319001D01*
G75*
G02*
X165339001Y-95569000I-249999J0D01*
G01*
X164638999Y-95569000D01*
G75*
G02*
X164389000Y-95319001I0J249999D01*
G01*
G37*
%TD.AperFunction*%
%TD*%
%TO.P,R26,2*%
%TO.N,GND*%
%TA.AperFunction,SMDPad,CuDef*%
G36*
G01*
X172485000Y-98494001D02*
X172485000Y-97593999D01*
G75*
G02*
X172734999Y-97344000I249999J0D01*
G01*
X173435001Y-97344000D01*
G75*
G02*
X173685000Y-97593999I0J-249999D01*
G01*
X173685000Y-98494001D01*
G75*
G02*
X173435001Y-98744000I-249999J0D01*
G01*
X172734999Y-98744000D01*
G75*
G02*
X172485000Y-98494001I0J249999D01*
G01*
G37*
%TD.AperFunction*%
%TO.P,R26,1*%
%TO.N,Net-(R25-Pad2)*%
%TA.AperFunction,SMDPad,CuDef*%
G36*
G01*
X170485000Y-98494001D02*
X170485000Y-97593999D01*
G75*
G02*
X170734999Y-97344000I249999J0D01*
G01*
X171435001Y-97344000D01*
G75*
G02*
X171685000Y-97593999I0J-249999D01*
G01*
X171685000Y-98494001D01*
G75*
G02*
X171435001Y-98744000I-249999J0D01*
G01*
X170734999Y-98744000D01*
G75*
G02*
X170485000Y-98494001I0J249999D01*
G01*
G37*
%TD.AperFunction*%
%TD*%
%TO.P,R25,2*%
%TO.N,Net-(R25-Pad2)*%
%TA.AperFunction,SMDPad,CuDef*%
G36*
G01*
X171685000Y-94672999D02*
X171685000Y-95573001D01*
G75*
G02*
X171435001Y-95823000I-249999J0D01*
G01*
X170734999Y-95823000D01*
G75*
G02*
X170485000Y-95573001I0J249999D01*
G01*
X170485000Y-94672999D01*
G75*
G02*
X170734999Y-94423000I249999J0D01*
G01*
X171435001Y-94423000D01*
G75*
G02*
X171685000Y-94672999I0J-249999D01*
G01*
G37*
%TD.AperFunction*%
%TO.P,R25,1*%
%TO.N,+5V*%
%TA.AperFunction,SMDPad,CuDef*%
G36*
G01*
X173685000Y-94672999D02*
X173685000Y-95573001D01*
G75*
G02*
X173435001Y-95823000I-249999J0D01*
G01*
X172734999Y-95823000D01*
G75*
G02*
X172485000Y-95573001I0J249999D01*
G01*
X172485000Y-94672999D01*
G75*
G02*
X172734999Y-94423000I249999J0D01*
G01*
X173435001Y-94423000D01*
G75*
G02*
X173685000Y-94672999I0J-249999D01*
G01*
G37*
%TD.AperFunction*%
%TD*%
%TO.P,R24,2*%
%TO.N,Net-(IC4-Pad19)*%
%TA.AperFunction,SMDPad,CuDef*%
G36*
G01*
X192889000Y-113623999D02*
X192889000Y-114524001D01*
G75*
G02*
X192639001Y-114774000I-249999J0D01*
G01*
X191938999Y-114774000D01*
G75*
G02*
X191689000Y-114524001I0J249999D01*
G01*
X191689000Y-113623999D01*
G75*
G02*
X191938999Y-113374000I249999J0D01*
G01*
X192639001Y-113374000D01*
G75*
G02*
X192889000Y-113623999I0J-249999D01*
G01*
G37*
%TD.AperFunction*%
%TO.P,R24,1*%
%TO.N,Net-(D12-Pad2)*%
%TA.AperFunction,SMDPad,CuDef*%
G36*
G01*
X194889000Y-113623999D02*
X194889000Y-114524001D01*
G75*
G02*
X194639001Y-114774000I-249999J0D01*
G01*
X193938999Y-114774000D01*
G75*
G02*
X193689000Y-114524001I0J249999D01*
G01*
X193689000Y-113623999D01*
G75*
G02*
X193938999Y-113374000I249999J0D01*
G01*
X194639001Y-113374000D01*
G75*
G02*
X194889000Y-113623999I0J-249999D01*
G01*
G37*
%TD.AperFunction*%
%TD*%
%TO.P,R23,2*%
%TO.N,Net-(IC3-Pad19)*%
%TA.AperFunction,SMDPad,CuDef*%
G36*
G01*
X171489500Y-113623999D02*
X171489500Y-114524001D01*
G75*
G02*
X171239501Y-114774000I-249999J0D01*
G01*
X170539499Y-114774000D01*
G75*
G02*
X170289500Y-114524001I0J249999D01*
G01*
X170289500Y-113623999D01*
G75*
G02*
X170539499Y-113374000I249999J0D01*
G01*
X171239501Y-113374000D01*
G75*
G02*
X171489500Y-113623999I0J-249999D01*
G01*
G37*
%TD.AperFunction*%
%TO.P,R23,1*%
%TO.N,Net-(D11-Pad2)*%
%TA.AperFunction,SMDPad,CuDef*%
G36*
G01*
X173489500Y-113623999D02*
X173489500Y-114524001D01*
G75*
G02*
X173239501Y-114774000I-249999J0D01*
G01*
X172539499Y-114774000D01*
G75*
G02*
X172289500Y-114524001I0J249999D01*
G01*
X172289500Y-113623999D01*
G75*
G02*
X172539499Y-113374000I249999J0D01*
G01*
X173239501Y-113374000D01*
G75*
G02*
X173489500Y-113623999I0J-249999D01*
G01*
G37*
%TD.AperFunction*%
%TD*%
%TO.P,R22,2*%
%TO.N,Net-(IC2-Pad19)*%
%TA.AperFunction,SMDPad,CuDef*%
G36*
G01*
X192889000Y-129244999D02*
X192889000Y-130145001D01*
G75*
G02*
X192639001Y-130395000I-249999J0D01*
G01*
X191938999Y-130395000D01*
G75*
G02*
X191689000Y-130145001I0J249999D01*
G01*
X191689000Y-129244999D01*
G75*
G02*
X191938999Y-128995000I249999J0D01*
G01*
X192639001Y-128995000D01*
G75*
G02*
X192889000Y-129244999I0J-249999D01*
G01*
G37*
%TD.AperFunction*%
%TO.P,R22,1*%
%TO.N,Net-(D10-Pad2)*%
%TA.AperFunction,SMDPad,CuDef*%
G36*
G01*
X194889000Y-129244999D02*
X194889000Y-130145001D01*
G75*
G02*
X194639001Y-130395000I-249999J0D01*
G01*
X193938999Y-130395000D01*
G75*
G02*
X193689000Y-130145001I0J249999D01*
G01*
X193689000Y-129244999D01*
G75*
G02*
X193938999Y-128995000I249999J0D01*
G01*
X194639001Y-128995000D01*
G75*
G02*
X194889000Y-129244999I0J-249999D01*
G01*
G37*
%TD.AperFunction*%
%TD*%
%TO.P,R21,2*%
%TO.N,Net-(IC1-Pad19)*%
%TA.AperFunction,SMDPad,CuDef*%
G36*
G01*
X171489500Y-129244999D02*
X171489500Y-130145001D01*
G75*
G02*
X171239501Y-130395000I-249999J0D01*
G01*
X170539499Y-130395000D01*
G75*
G02*
X170289500Y-130145001I0J249999D01*
G01*
X170289500Y-129244999D01*
G75*
G02*
X170539499Y-128995000I249999J0D01*
G01*
X171239501Y-128995000D01*
G75*
G02*
X171489500Y-129244999I0J-249999D01*
G01*
G37*
%TD.AperFunction*%
%TO.P,R21,1*%
%TO.N,Net-(D9-Pad2)*%
%TA.AperFunction,SMDPad,CuDef*%
G36*
G01*
X173489500Y-129244999D02*
X173489500Y-130145001D01*
G75*
G02*
X173239501Y-130395000I-249999J0D01*
G01*
X172539499Y-130395000D01*
G75*
G02*
X172289500Y-130145001I0J249999D01*
G01*
X172289500Y-129244999D01*
G75*
G02*
X172539499Y-128995000I249999J0D01*
G01*
X173239501Y-128995000D01*
G75*
G02*
X173489500Y-129244999I0J-249999D01*
G01*
G37*
%TD.AperFunction*%
%TD*%
%TO.P,R20,1*%
%TO.N,+5V*%
%TA.AperFunction,SMDPad,CuDef*%
G36*
G01*
X182354500Y-104237001D02*
X182354500Y-103336999D01*
G75*
G02*
X182604499Y-103087000I249999J0D01*
G01*
X183304501Y-103087000D01*
G75*
G02*
X183554500Y-103336999I0J-249999D01*
G01*
X183554500Y-104237001D01*
G75*
G02*
X183304501Y-104487000I-249999J0D01*
G01*
X182604499Y-104487000D01*
G75*
G02*
X182354500Y-104237001I0J249999D01*
G01*
G37*
%TD.AperFunction*%
%TO.P,R20,2*%
%TO.N,/SS4*%
%TA.AperFunction,SMDPad,CuDef*%
G36*
G01*
X184354500Y-104237001D02*
X184354500Y-103336999D01*
G75*
G02*
X184604499Y-103087000I249999J0D01*
G01*
X185304501Y-103087000D01*
G75*
G02*
X185554500Y-103336999I0J-249999D01*
G01*
X185554500Y-104237001D01*
G75*
G02*
X185304501Y-104487000I-249999J0D01*
G01*
X184604499Y-104487000D01*
G75*
G02*
X184354500Y-104237001I0J249999D01*
G01*
G37*
%TD.AperFunction*%
%TD*%
%TO.P,R19,1*%
%TO.N,+5V*%
%TA.AperFunction,SMDPad,CuDef*%
G36*
G01*
X160955000Y-104237001D02*
X160955000Y-103336999D01*
G75*
G02*
X161204999Y-103087000I249999J0D01*
G01*
X161905001Y-103087000D01*
G75*
G02*
X162155000Y-103336999I0J-249999D01*
G01*
X162155000Y-104237001D01*
G75*
G02*
X161905001Y-104487000I-249999J0D01*
G01*
X161204999Y-104487000D01*
G75*
G02*
X160955000Y-104237001I0J249999D01*
G01*
G37*
%TD.AperFunction*%
%TO.P,R19,2*%
%TO.N,/SS1*%
%TA.AperFunction,SMDPad,CuDef*%
G36*
G01*
X162955000Y-104237001D02*
X162955000Y-103336999D01*
G75*
G02*
X163204999Y-103087000I249999J0D01*
G01*
X163905001Y-103087000D01*
G75*
G02*
X164155000Y-103336999I0J-249999D01*
G01*
X164155000Y-104237001D01*
G75*
G02*
X163905001Y-104487000I-249999J0D01*
G01*
X163204999Y-104487000D01*
G75*
G02*
X162955000Y-104237001I0J249999D01*
G01*
G37*
%TD.AperFunction*%
%TD*%
%TO.P,R18,1*%
%TO.N,+5V*%
%TA.AperFunction,SMDPad,CuDef*%
G36*
G01*
X182354500Y-119858001D02*
X182354500Y-118957999D01*
G75*
G02*
X182604499Y-118708000I249999J0D01*
G01*
X183304501Y-118708000D01*
G75*
G02*
X183554500Y-118957999I0J-249999D01*
G01*
X183554500Y-119858001D01*
G75*
G02*
X183304501Y-120108000I-249999J0D01*
G01*
X182604499Y-120108000D01*
G75*
G02*
X182354500Y-119858001I0J249999D01*
G01*
G37*
%TD.AperFunction*%
%TO.P,R18,2*%
%TO.N,/SS3*%
%TA.AperFunction,SMDPad,CuDef*%
G36*
G01*
X184354500Y-119858001D02*
X184354500Y-118957999D01*
G75*
G02*
X184604499Y-118708000I249999J0D01*
G01*
X185304501Y-118708000D01*
G75*
G02*
X185554500Y-118957999I0J-249999D01*
G01*
X185554500Y-119858001D01*
G75*
G02*
X185304501Y-120108000I-249999J0D01*
G01*
X184604499Y-120108000D01*
G75*
G02*
X184354500Y-119858001I0J249999D01*
G01*
G37*
%TD.AperFunction*%
%TD*%
%TO.P,R17,1*%
%TO.N,+5V*%
%TA.AperFunction,SMDPad,CuDef*%
G36*
G01*
X160955000Y-119858001D02*
X160955000Y-118957999D01*
G75*
G02*
X161204999Y-118708000I249999J0D01*
G01*
X161905001Y-118708000D01*
G75*
G02*
X162155000Y-118957999I0J-249999D01*
G01*
X162155000Y-119858001D01*
G75*
G02*
X161905001Y-120108000I-249999J0D01*
G01*
X161204999Y-120108000D01*
G75*
G02*
X160955000Y-119858001I0J249999D01*
G01*
G37*
%TD.AperFunction*%
%TO.P,R17,2*%
%TO.N,/SS2*%
%TA.AperFunction,SMDPad,CuDef*%
G36*
G01*
X162955000Y-119858001D02*
X162955000Y-118957999D01*
G75*
G02*
X163204999Y-118708000I249999J0D01*
G01*
X163905001Y-118708000D01*
G75*
G02*
X164155000Y-118957999I0J-249999D01*
G01*
X164155000Y-119858001D01*
G75*
G02*
X163905001Y-120108000I-249999J0D01*
G01*
X163204999Y-120108000D01*
G75*
G02*
X162955000Y-119858001I0J249999D01*
G01*
G37*
%TD.AperFunction*%
%TD*%
%TO.P,D17,2*%
%TO.N,Net-(D17-Pad2)*%
%TA.AperFunction,SMDPad,CuDef*%
G36*
G01*
X159749500Y-93630000D02*
X159274500Y-93630000D01*
G75*
G02*
X159037000Y-93392500I0J237500D01*
G01*
X159037000Y-92817500D01*
G75*
G02*
X159274500Y-92580000I237500J0D01*
G01*
X159749500Y-92580000D01*
G75*
G02*
X159987000Y-92817500I0J-237500D01*
G01*
X159987000Y-93392500D01*
G75*
G02*
X159749500Y-93630000I-237500J0D01*
G01*
G37*
%TD.AperFunction*%
%TO.P,D17,1*%
%TO.N,Net-(D17-Pad1)*%
%TA.AperFunction,SMDPad,CuDef*%
G36*
G01*
X159749500Y-95380000D02*
X159274500Y-95380000D01*
G75*
G02*
X159037000Y-95142500I0J237500D01*
G01*
X159037000Y-94567500D01*
G75*
G02*
X159274500Y-94330000I237500J0D01*
G01*
X159749500Y-94330000D01*
G75*
G02*
X159987000Y-94567500I0J-237500D01*
G01*
X159987000Y-95142500D01*
G75*
G02*
X159749500Y-95380000I-237500J0D01*
G01*
G37*
%TD.AperFunction*%
%TD*%
%TO.P,D13,2*%
%TO.N,+3V3*%
%TA.AperFunction,SMDPad,CuDef*%
G36*
G01*
X162543500Y-93630000D02*
X162068500Y-93630000D01*
G75*
G02*
X161831000Y-93392500I0J237500D01*
G01*
X161831000Y-92817500D01*
G75*
G02*
X162068500Y-92580000I237500J0D01*
G01*
X162543500Y-92580000D01*
G75*
G02*
X162781000Y-92817500I0J-237500D01*
G01*
X162781000Y-93392500D01*
G75*
G02*
X162543500Y-93630000I-237500J0D01*
G01*
G37*
%TD.AperFunction*%
%TO.P,D13,1*%
%TO.N,Net-(D13-Pad1)*%
%TA.AperFunction,SMDPad,CuDef*%
G36*
G01*
X162543500Y-95380000D02*
X162068500Y-95380000D01*
G75*
G02*
X161831000Y-95142500I0J237500D01*
G01*
X161831000Y-94567500D01*
G75*
G02*
X162068500Y-94330000I237500J0D01*
G01*
X162543500Y-94330000D01*
G75*
G02*
X162781000Y-94567500I0J-237500D01*
G01*
X162781000Y-95142500D01*
G75*
G02*
X162543500Y-95380000I-237500J0D01*
G01*
G37*
%TD.AperFunction*%
%TD*%
%TO.P,D12,2*%
%TO.N,Net-(D12-Pad2)*%
%TA.AperFunction,SMDPad,CuDef*%
G36*
G01*
X192939000Y-107359500D02*
X192939000Y-107834500D01*
G75*
G02*
X192701500Y-108072000I-237500J0D01*
G01*
X192126500Y-108072000D01*
G75*
G02*
X191889000Y-107834500I0J237500D01*
G01*
X191889000Y-107359500D01*
G75*
G02*
X192126500Y-107122000I237500J0D01*
G01*
X192701500Y-107122000D01*
G75*
G02*
X192939000Y-107359500I0J-237500D01*
G01*
G37*
%TD.AperFunction*%
%TO.P,D12,1*%
%TO.N,GND*%
%TA.AperFunction,SMDPad,CuDef*%
G36*
G01*
X194689000Y-107359500D02*
X194689000Y-107834500D01*
G75*
G02*
X194451500Y-108072000I-237500J0D01*
G01*
X193876500Y-108072000D01*
G75*
G02*
X193639000Y-107834500I0J237500D01*
G01*
X193639000Y-107359500D01*
G75*
G02*
X193876500Y-107122000I237500J0D01*
G01*
X194451500Y-107122000D01*
G75*
G02*
X194689000Y-107359500I0J-237500D01*
G01*
G37*
%TD.AperFunction*%
%TD*%
%TO.P,D11,2*%
%TO.N,Net-(D11-Pad2)*%
%TA.AperFunction,SMDPad,CuDef*%
G36*
G01*
X171539500Y-107359500D02*
X171539500Y-107834500D01*
G75*
G02*
X171302000Y-108072000I-237500J0D01*
G01*
X170727000Y-108072000D01*
G75*
G02*
X170489500Y-107834500I0J237500D01*
G01*
X170489500Y-107359500D01*
G75*
G02*
X170727000Y-107122000I237500J0D01*
G01*
X171302000Y-107122000D01*
G75*
G02*
X171539500Y-107359500I0J-237500D01*
G01*
G37*
%TD.AperFunction*%
%TO.P,D11,1*%
%TO.N,GND*%
%TA.AperFunction,SMDPad,CuDef*%
G36*
G01*
X173289500Y-107359500D02*
X173289500Y-107834500D01*
G75*
G02*
X173052000Y-108072000I-237500J0D01*
G01*
X172477000Y-108072000D01*
G75*
G02*
X172239500Y-107834500I0J237500D01*
G01*
X172239500Y-107359500D01*
G75*
G02*
X172477000Y-107122000I237500J0D01*
G01*
X173052000Y-107122000D01*
G75*
G02*
X173289500Y-107359500I0J-237500D01*
G01*
G37*
%TD.AperFunction*%
%TD*%
%TO.P,D10,2*%
%TO.N,Net-(D10-Pad2)*%
%TA.AperFunction,SMDPad,CuDef*%
G36*
G01*
X192939000Y-122980500D02*
X192939000Y-123455500D01*
G75*
G02*
X192701500Y-123693000I-237500J0D01*
G01*
X192126500Y-123693000D01*
G75*
G02*
X191889000Y-123455500I0J237500D01*
G01*
X191889000Y-122980500D01*
G75*
G02*
X192126500Y-122743000I237500J0D01*
G01*
X192701500Y-122743000D01*
G75*
G02*
X192939000Y-122980500I0J-237500D01*
G01*
G37*
%TD.AperFunction*%
%TO.P,D10,1*%
%TO.N,GND*%
%TA.AperFunction,SMDPad,CuDef*%
G36*
G01*
X194689000Y-122980500D02*
X194689000Y-123455500D01*
G75*
G02*
X194451500Y-123693000I-237500J0D01*
G01*
X193876500Y-123693000D01*
G75*
G02*
X193639000Y-123455500I0J237500D01*
G01*
X193639000Y-122980500D01*
G75*
G02*
X193876500Y-122743000I237500J0D01*
G01*
X194451500Y-122743000D01*
G75*
G02*
X194689000Y-122980500I0J-237500D01*
G01*
G37*
%TD.AperFunction*%
%TD*%
%TO.P,D9,2*%
%TO.N,Net-(D9-Pad2)*%
%TA.AperFunction,SMDPad,CuDef*%
G36*
G01*
X171539500Y-122980500D02*
X171539500Y-123455500D01*
G75*
G02*
X171302000Y-123693000I-237500J0D01*
G01*
X170727000Y-123693000D01*
G75*
G02*
X170489500Y-123455500I0J237500D01*
G01*
X170489500Y-122980500D01*
G75*
G02*
X170727000Y-122743000I237500J0D01*
G01*
X171302000Y-122743000D01*
G75*
G02*
X171539500Y-122980500I0J-237500D01*
G01*
G37*
%TD.AperFunction*%
%TO.P,D9,1*%
%TO.N,GND*%
%TA.AperFunction,SMDPad,CuDef*%
G36*
G01*
X173289500Y-122980500D02*
X173289500Y-123455500D01*
G75*
G02*
X173052000Y-123693000I-237500J0D01*
G01*
X172477000Y-123693000D01*
G75*
G02*
X172239500Y-123455500I0J237500D01*
G01*
X172239500Y-122980500D01*
G75*
G02*
X172477000Y-122743000I237500J0D01*
G01*
X173052000Y-122743000D01*
G75*
G02*
X173289500Y-122980500I0J-237500D01*
G01*
G37*
%TD.AperFunction*%
%TD*%
%TO.P,C19,2*%
%TO.N,GND*%
%TA.AperFunction,SMDPad,CuDef*%
G36*
G01*
X175889500Y-97569000D02*
X175889500Y-98519000D01*
G75*
G02*
X175639500Y-98769000I-250000J0D01*
G01*
X174964500Y-98769000D01*
G75*
G02*
X174714500Y-98519000I0J250000D01*
G01*
X174714500Y-97569000D01*
G75*
G02*
X174964500Y-97319000I250000J0D01*
G01*
X175639500Y-97319000D01*
G75*
G02*
X175889500Y-97569000I0J-250000D01*
G01*
G37*
%TD.AperFunction*%
%TO.P,C19,1*%
%TO.N,Net-(C19-Pad1)*%
%TA.AperFunction,SMDPad,CuDef*%
G36*
G01*
X177964500Y-97569000D02*
X177964500Y-98519000D01*
G75*
G02*
X177714500Y-98769000I-250000J0D01*
G01*
X177039500Y-98769000D01*
G75*
G02*
X176789500Y-98519000I0J250000D01*
G01*
X176789500Y-97569000D01*
G75*
G02*
X177039500Y-97319000I250000J0D01*
G01*
X177714500Y-97319000D01*
G75*
G02*
X177964500Y-97569000I0J-250000D01*
G01*
G37*
%TD.AperFunction*%
%TD*%
%TO.P,C17,2*%
%TO.N,GND*%
%TA.AperFunction,SMDPad,CuDef*%
G36*
G01*
X193739000Y-112136000D02*
X193739000Y-111186000D01*
G75*
G02*
X193989000Y-110936000I250000J0D01*
G01*
X194664000Y-110936000D01*
G75*
G02*
X194914000Y-111186000I0J-250000D01*
G01*
X194914000Y-112136000D01*
G75*
G02*
X194664000Y-112386000I-250000J0D01*
G01*
X193989000Y-112386000D01*
G75*
G02*
X193739000Y-112136000I0J250000D01*
G01*
G37*
%TD.AperFunction*%
%TO.P,C17,1*%
%TO.N,Net-(C17-Pad1)*%
%TA.AperFunction,SMDPad,CuDef*%
G36*
G01*
X191664000Y-112136000D02*
X191664000Y-111186000D01*
G75*
G02*
X191914000Y-110936000I250000J0D01*
G01*
X192589000Y-110936000D01*
G75*
G02*
X192839000Y-111186000I0J-250000D01*
G01*
X192839000Y-112136000D01*
G75*
G02*
X192589000Y-112386000I-250000J0D01*
G01*
X191914000Y-112386000D01*
G75*
G02*
X191664000Y-112136000I0J250000D01*
G01*
G37*
%TD.AperFunction*%
%TD*%
%TO.P,C16,2*%
%TO.N,GND*%
%TA.AperFunction,SMDPad,CuDef*%
G36*
G01*
X172339500Y-112136000D02*
X172339500Y-111186000D01*
G75*
G02*
X172589500Y-110936000I250000J0D01*
G01*
X173264500Y-110936000D01*
G75*
G02*
X173514500Y-111186000I0J-250000D01*
G01*
X173514500Y-112136000D01*
G75*
G02*
X173264500Y-112386000I-250000J0D01*
G01*
X172589500Y-112386000D01*
G75*
G02*
X172339500Y-112136000I0J250000D01*
G01*
G37*
%TD.AperFunction*%
%TO.P,C16,1*%
%TO.N,Net-(C16-Pad1)*%
%TA.AperFunction,SMDPad,CuDef*%
G36*
G01*
X170264500Y-112136000D02*
X170264500Y-111186000D01*
G75*
G02*
X170514500Y-110936000I250000J0D01*
G01*
X171189500Y-110936000D01*
G75*
G02*
X171439500Y-111186000I0J-250000D01*
G01*
X171439500Y-112136000D01*
G75*
G02*
X171189500Y-112386000I-250000J0D01*
G01*
X170514500Y-112386000D01*
G75*
G02*
X170264500Y-112136000I0J250000D01*
G01*
G37*
%TD.AperFunction*%
%TD*%
%TO.P,C15,2*%
%TO.N,GND*%
%TA.AperFunction,SMDPad,CuDef*%
G36*
G01*
X193739000Y-127757000D02*
X193739000Y-126807000D01*
G75*
G02*
X193989000Y-126557000I250000J0D01*
G01*
X194664000Y-126557000D01*
G75*
G02*
X194914000Y-126807000I0J-250000D01*
G01*
X194914000Y-127757000D01*
G75*
G02*
X194664000Y-128007000I-250000J0D01*
G01*
X193989000Y-128007000D01*
G75*
G02*
X193739000Y-127757000I0J250000D01*
G01*
G37*
%TD.AperFunction*%
%TO.P,C15,1*%
%TO.N,Net-(C15-Pad1)*%
%TA.AperFunction,SMDPad,CuDef*%
G36*
G01*
X191664000Y-127757000D02*
X191664000Y-126807000D01*
G75*
G02*
X191914000Y-126557000I250000J0D01*
G01*
X192589000Y-126557000D01*
G75*
G02*
X192839000Y-126807000I0J-250000D01*
G01*
X192839000Y-127757000D01*
G75*
G02*
X192589000Y-128007000I-250000J0D01*
G01*
X191914000Y-128007000D01*
G75*
G02*
X191664000Y-127757000I0J250000D01*
G01*
G37*
%TD.AperFunction*%
%TD*%
%TO.P,C14,2*%
%TO.N,GND*%
%TA.AperFunction,SMDPad,CuDef*%
G36*
G01*
X172339500Y-127757000D02*
X172339500Y-126807000D01*
G75*
G02*
X172589500Y-126557000I250000J0D01*
G01*
X173264500Y-126557000D01*
G75*
G02*
X173514500Y-126807000I0J-250000D01*
G01*
X173514500Y-127757000D01*
G75*
G02*
X173264500Y-128007000I-250000J0D01*
G01*
X172589500Y-128007000D01*
G75*
G02*
X172339500Y-127757000I0J250000D01*
G01*
G37*
%TD.AperFunction*%
%TO.P,C14,1*%
%TO.N,Net-(C14-Pad1)*%
%TA.AperFunction,SMDPad,CuDef*%
G36*
G01*
X170264500Y-127757000D02*
X170264500Y-126807000D01*
G75*
G02*
X170514500Y-126557000I250000J0D01*
G01*
X171189500Y-126557000D01*
G75*
G02*
X171439500Y-126807000I0J-250000D01*
G01*
X171439500Y-127757000D01*
G75*
G02*
X171189500Y-128007000I-250000J0D01*
G01*
X170514500Y-128007000D01*
G75*
G02*
X170264500Y-127757000I0J250000D01*
G01*
G37*
%TD.AperFunction*%
%TD*%
%TO.P,C13,2*%
%TO.N,GND*%
%TA.AperFunction,SMDPad,CuDef*%
G36*
G01*
X178778000Y-106829500D02*
X177828000Y-106829500D01*
G75*
G02*
X177578000Y-106579500I0J250000D01*
G01*
X177578000Y-105904500D01*
G75*
G02*
X177828000Y-105654500I250000J0D01*
G01*
X178778000Y-105654500D01*
G75*
G02*
X179028000Y-105904500I0J-250000D01*
G01*
X179028000Y-106579500D01*
G75*
G02*
X178778000Y-106829500I-250000J0D01*
G01*
G37*
%TD.AperFunction*%
%TO.P,C13,1*%
%TO.N,+5V*%
%TA.AperFunction,SMDPad,CuDef*%
G36*
G01*
X178778000Y-108904500D02*
X177828000Y-108904500D01*
G75*
G02*
X177578000Y-108654500I0J250000D01*
G01*
X177578000Y-107979500D01*
G75*
G02*
X177828000Y-107729500I250000J0D01*
G01*
X178778000Y-107729500D01*
G75*
G02*
X179028000Y-107979500I0J-250000D01*
G01*
X179028000Y-108654500D01*
G75*
G02*
X178778000Y-108904500I-250000J0D01*
G01*
G37*
%TD.AperFunction*%
%TD*%
%TO.P,C12,2*%
%TO.N,GND*%
%TA.AperFunction,SMDPad,CuDef*%
G36*
G01*
X157378500Y-106829500D02*
X156428500Y-106829500D01*
G75*
G02*
X156178500Y-106579500I0J250000D01*
G01*
X156178500Y-105904500D01*
G75*
G02*
X156428500Y-105654500I250000J0D01*
G01*
X157378500Y-105654500D01*
G75*
G02*
X157628500Y-105904500I0J-250000D01*
G01*
X157628500Y-106579500D01*
G75*
G02*
X157378500Y-106829500I-250000J0D01*
G01*
G37*
%TD.AperFunction*%
%TO.P,C12,1*%
%TO.N,+5V*%
%TA.AperFunction,SMDPad,CuDef*%
G36*
G01*
X157378500Y-108904500D02*
X156428500Y-108904500D01*
G75*
G02*
X156178500Y-108654500I0J250000D01*
G01*
X156178500Y-107979500D01*
G75*
G02*
X156428500Y-107729500I250000J0D01*
G01*
X157378500Y-107729500D01*
G75*
G02*
X157628500Y-107979500I0J-250000D01*
G01*
X157628500Y-108654500D01*
G75*
G02*
X157378500Y-108904500I-250000J0D01*
G01*
G37*
%TD.AperFunction*%
%TD*%
%TO.P,C11,2*%
%TO.N,GND*%
%TA.AperFunction,SMDPad,CuDef*%
G36*
G01*
X178778000Y-122450500D02*
X177828000Y-122450500D01*
G75*
G02*
X177578000Y-122200500I0J250000D01*
G01*
X177578000Y-121525500D01*
G75*
G02*
X177828000Y-121275500I250000J0D01*
G01*
X178778000Y-121275500D01*
G75*
G02*
X179028000Y-121525500I0J-250000D01*
G01*
X179028000Y-122200500D01*
G75*
G02*
X178778000Y-122450500I-250000J0D01*
G01*
G37*
%TD.AperFunction*%
%TO.P,C11,1*%
%TO.N,+5V*%
%TA.AperFunction,SMDPad,CuDef*%
G36*
G01*
X178778000Y-124525500D02*
X177828000Y-124525500D01*
G75*
G02*
X177578000Y-124275500I0J250000D01*
G01*
X177578000Y-123600500D01*
G75*
G02*
X177828000Y-123350500I250000J0D01*
G01*
X178778000Y-123350500D01*
G75*
G02*
X179028000Y-123600500I0J-250000D01*
G01*
X179028000Y-124275500D01*
G75*
G02*
X178778000Y-124525500I-250000J0D01*
G01*
G37*
%TD.AperFunction*%
%TD*%
%TO.P,C10,2*%
%TO.N,GND*%
%TA.AperFunction,SMDPad,CuDef*%
G36*
G01*
X157378500Y-122450500D02*
X156428500Y-122450500D01*
G75*
G02*
X156178500Y-122200500I0J250000D01*
G01*
X156178500Y-121525500D01*
G75*
G02*
X156428500Y-121275500I250000J0D01*
G01*
X157378500Y-121275500D01*
G75*
G02*
X157628500Y-121525500I0J-250000D01*
G01*
X157628500Y-122200500D01*
G75*
G02*
X157378500Y-122450500I-250000J0D01*
G01*
G37*
%TD.AperFunction*%
%TO.P,C10,1*%
%TO.N,+5V*%
%TA.AperFunction,SMDPad,CuDef*%
G36*
G01*
X157378500Y-124525500D02*
X156428500Y-124525500D01*
G75*
G02*
X156178500Y-124275500I0J250000D01*
G01*
X156178500Y-123600500D01*
G75*
G02*
X156428500Y-123350500I250000J0D01*
G01*
X157378500Y-123350500D01*
G75*
G02*
X157628500Y-123600500I0J-250000D01*
G01*
X157628500Y-124275500D01*
G75*
G02*
X157378500Y-124525500I-250000J0D01*
G01*
G37*
%TD.AperFunction*%
%TD*%
%TO.P,C9,1*%
%TO.N,/DTR_4*%
%TA.AperFunction,SMDPad,CuDef*%
G36*
G01*
X189707000Y-103312000D02*
X189707000Y-104262000D01*
G75*
G02*
X189457000Y-104512000I-250000J0D01*
G01*
X188782000Y-104512000D01*
G75*
G02*
X188532000Y-104262000I0J250000D01*
G01*
X188532000Y-103312000D01*
G75*
G02*
X188782000Y-103062000I250000J0D01*
G01*
X189457000Y-103062000D01*
G75*
G02*
X189707000Y-103312000I0J-250000D01*
G01*
G37*
%TD.AperFunction*%
%TO.P,C9,2*%
%TO.N,/SS4*%
%TA.AperFunction,SMDPad,CuDef*%
G36*
G01*
X187632000Y-103312000D02*
X187632000Y-104262000D01*
G75*
G02*
X187382000Y-104512000I-250000J0D01*
G01*
X186707000Y-104512000D01*
G75*
G02*
X186457000Y-104262000I0J250000D01*
G01*
X186457000Y-103312000D01*
G75*
G02*
X186707000Y-103062000I250000J0D01*
G01*
X187382000Y-103062000D01*
G75*
G02*
X187632000Y-103312000I0J-250000D01*
G01*
G37*
%TD.AperFunction*%
%TD*%
%TO.P,C8,1*%
%TO.N,/DTR_1*%
%TA.AperFunction,SMDPad,CuDef*%
G36*
G01*
X168312500Y-103312000D02*
X168312500Y-104262000D01*
G75*
G02*
X168062500Y-104512000I-250000J0D01*
G01*
X167387500Y-104512000D01*
G75*
G02*
X167137500Y-104262000I0J250000D01*
G01*
X167137500Y-103312000D01*
G75*
G02*
X167387500Y-103062000I250000J0D01*
G01*
X168062500Y-103062000D01*
G75*
G02*
X168312500Y-103312000I0J-250000D01*
G01*
G37*
%TD.AperFunction*%
%TO.P,C8,2*%
%TO.N,/SS1*%
%TA.AperFunction,SMDPad,CuDef*%
G36*
G01*
X166237500Y-103312000D02*
X166237500Y-104262000D01*
G75*
G02*
X165987500Y-104512000I-250000J0D01*
G01*
X165312500Y-104512000D01*
G75*
G02*
X165062500Y-104262000I0J250000D01*
G01*
X165062500Y-103312000D01*
G75*
G02*
X165312500Y-103062000I250000J0D01*
G01*
X165987500Y-103062000D01*
G75*
G02*
X166237500Y-103312000I0J-250000D01*
G01*
G37*
%TD.AperFunction*%
%TD*%
%TO.P,C7,1*%
%TO.N,/DTR_3*%
%TA.AperFunction,SMDPad,CuDef*%
G36*
G01*
X189707000Y-118933000D02*
X189707000Y-119883000D01*
G75*
G02*
X189457000Y-120133000I-250000J0D01*
G01*
X188782000Y-120133000D01*
G75*
G02*
X188532000Y-119883000I0J250000D01*
G01*
X188532000Y-118933000D01*
G75*
G02*
X188782000Y-118683000I250000J0D01*
G01*
X189457000Y-118683000D01*
G75*
G02*
X189707000Y-118933000I0J-250000D01*
G01*
G37*
%TD.AperFunction*%
%TO.P,C7,2*%
%TO.N,/SS3*%
%TA.AperFunction,SMDPad,CuDef*%
G36*
G01*
X187632000Y-118933000D02*
X187632000Y-119883000D01*
G75*
G02*
X187382000Y-120133000I-250000J0D01*
G01*
X186707000Y-120133000D01*
G75*
G02*
X186457000Y-119883000I0J250000D01*
G01*
X186457000Y-118933000D01*
G75*
G02*
X186707000Y-118683000I250000J0D01*
G01*
X187382000Y-118683000D01*
G75*
G02*
X187632000Y-118933000I0J-250000D01*
G01*
G37*
%TD.AperFunction*%
%TD*%
%TO.P,C6,1*%
%TO.N,/DTR_2*%
%TA.AperFunction,SMDPad,CuDef*%
G36*
G01*
X168307500Y-118933000D02*
X168307500Y-119883000D01*
G75*
G02*
X168057500Y-120133000I-250000J0D01*
G01*
X167382500Y-120133000D01*
G75*
G02*
X167132500Y-119883000I0J250000D01*
G01*
X167132500Y-118933000D01*
G75*
G02*
X167382500Y-118683000I250000J0D01*
G01*
X168057500Y-118683000D01*
G75*
G02*
X168307500Y-118933000I0J-250000D01*
G01*
G37*
%TD.AperFunction*%
%TO.P,C6,2*%
%TO.N,/SS2*%
%TA.AperFunction,SMDPad,CuDef*%
G36*
G01*
X166232500Y-118933000D02*
X166232500Y-119883000D01*
G75*
G02*
X165982500Y-120133000I-250000J0D01*
G01*
X165307500Y-120133000D01*
G75*
G02*
X165057500Y-119883000I0J250000D01*
G01*
X165057500Y-118933000D01*
G75*
G02*
X165307500Y-118683000I250000J0D01*
G01*
X165982500Y-118683000D01*
G75*
G02*
X166232500Y-118933000I0J-250000D01*
G01*
G37*
%TD.AperFunction*%
%TD*%
D18*
%TO.N,*%
X188371480Y-93766640D03*
X184370980Y-93766640D03*
D19*
%TO.N,GND*%
X156870400Y-106172000D03*
X172923200Y-110134400D03*
X162966400Y-98196400D03*
X156921200Y-121818400D03*
X172923200Y-125780800D03*
X165760400Y-96926400D03*
X179578000Y-91948000D03*
D18*
X169468800Y-126441200D03*
X176631600Y-129235200D03*
X155346400Y-129235200D03*
X157683200Y-126847600D03*
X158343600Y-124510800D03*
X162661600Y-128778000D03*
D19*
X172974000Y-124561600D03*
X172923200Y-108915200D03*
D18*
X169468800Y-110845600D03*
X155397200Y-113639600D03*
X158292800Y-108813600D03*
X162763200Y-113131600D03*
X157683200Y-111252000D03*
X176733200Y-113639600D03*
X179730400Y-108661200D03*
X178257200Y-110744000D03*
D19*
X187553600Y-108864400D03*
D18*
X193700400Y-108610400D03*
X174193200Y-98806000D03*
X169113200Y-91846400D03*
D19*
X182676800Y-97891600D03*
X183616600Y-96951800D03*
X184607200Y-95961200D03*
D18*
X179730400Y-124460000D03*
X178155600Y-126238000D03*
D19*
X187452000Y-124460000D03*
X177952400Y-101650800D03*
X191427102Y-131394200D03*
X191528700Y-115709700D03*
X197104000Y-110782100D03*
X193357500Y-124510800D03*
X178303000Y-121863028D03*
X182900320Y-105333800D03*
D18*
%TO.N,+5V*%
X161645600Y-119024400D03*
D19*
X182930800Y-119430800D03*
X182930800Y-103835200D03*
X154330400Y-103784400D03*
X156903500Y-108317000D03*
X178303000Y-108317000D03*
X178303000Y-123957000D03*
X156903500Y-123938000D03*
X155905200Y-118770400D03*
X159664400Y-115417600D03*
X158394400Y-132537200D03*
D18*
X160731200Y-102870000D03*
D19*
X193569500Y-115697000D03*
X181254400Y-115316000D03*
D18*
X172339000Y-93802200D03*
D19*
X188193680Y-95945960D03*
X190136780Y-97881440D03*
X189141100Y-96944180D03*
X181254400Y-130962400D03*
X189585600Y-131216400D03*
X193533350Y-131354150D03*
D18*
X163499800Y-110363000D03*
D19*
X164465000Y-129654300D03*
X187528200Y-113880900D03*
D18*
%TO.N,Net-(R25-Pad2)*%
X171069000Y-96266000D03*
%TO.N,Net-(R27-Pad2)*%
X174117000Y-93789500D03*
%TO.N,Net-(R28-Pad2)*%
X174879000Y-93789500D03*
D19*
%TO.N,+3V3*%
X163576000Y-92456000D03*
D18*
%TO.N,Net-(D17-Pad2)*%
X174180500Y-91757500D03*
%TO.N,Net-(C19-Pad1)*%
X177419000Y-96393000D03*
X170484800Y-99314000D03*
%TO.N,/DTR_2*%
X169011600Y-119380000D03*
%TO.N,/DTR_3*%
X196850000Y-124917200D03*
%TO.N,/DTR_1*%
X169011600Y-103784400D03*
%TO.N,/DTR_4*%
X196900800Y-109220000D03*
%TO.N,/RXD_4*%
X184150000Y-108458000D03*
%TO.N,/TXD_4*%
X183337200Y-108458000D03*
%TO.N,/RXD_2*%
X153212800Y-128270000D03*
%TO.N,/TXD_2*%
X153212800Y-125323600D03*
%TO.N,/RXD_3*%
X184200800Y-123952000D03*
%TO.N,/TXD_3*%
X183337200Y-123952000D03*
%TO.N,/RXD_1*%
X153212800Y-112725200D03*
%TO.N,/TXD_1*%
X153212800Y-109778800D03*
%TD*%
D20*
%TO.N,Net-(IC1-Pad19)*%
X170832000Y-129637500D02*
X170889500Y-129695000D01*
X170889500Y-129695000D02*
X170889500Y-129948100D01*
X169232000Y-128037500D02*
X170889500Y-129695000D01*
X168202000Y-128037500D02*
X169232000Y-128037500D01*
%TO.N,Net-(IC2-Pad19)*%
X192231500Y-129637500D02*
X192289000Y-129695000D01*
X191820800Y-130163200D02*
X192289000Y-129695000D01*
X192289000Y-129586800D02*
X192289000Y-129695000D01*
X190739700Y-128037500D02*
X192289000Y-129586800D01*
X189601500Y-128037500D02*
X190739700Y-128037500D01*
%TO.N,Net-(IC3-Pad19)*%
X168202000Y-112416500D02*
X169232000Y-112416500D01*
X169232000Y-112416500D02*
X170889500Y-114074000D01*
%TO.N,Net-(IC4-Pad19)*%
X190631500Y-112416500D02*
X192289000Y-114074000D01*
X189601500Y-112416500D02*
X190631500Y-112416500D01*
D21*
%TO.N,GND*%
X158652000Y-125637500D02*
X159702000Y-125637500D01*
X158343600Y-125329100D02*
X158652000Y-125637500D01*
X158343600Y-124510800D02*
X158343600Y-125329100D01*
X169465100Y-126437500D02*
X169468800Y-126441200D01*
X168202000Y-126437500D02*
X169465100Y-126437500D01*
X172927000Y-125784600D02*
X172923200Y-125780800D01*
X172927000Y-127282000D02*
X172927000Y-125784600D01*
X172974000Y-123427500D02*
X172764500Y-123218000D01*
X172974000Y-124561600D02*
X172974000Y-123427500D01*
X176646900Y-129250500D02*
X176631600Y-129235200D01*
X178176000Y-129250500D02*
X176646900Y-129250500D01*
X155361700Y-129250500D02*
X155346400Y-129235200D01*
X156776500Y-129250500D02*
X155361700Y-129250500D01*
X172927000Y-110138200D02*
X172923200Y-110134400D01*
X172927000Y-111661000D02*
X172927000Y-110138200D01*
X172923200Y-107755700D02*
X172764500Y-107597000D01*
X172923200Y-108915200D02*
X172923200Y-107755700D01*
X155407300Y-113629500D02*
X155397200Y-113639600D01*
X156776500Y-113629500D02*
X155407300Y-113629500D01*
X158292800Y-109657300D02*
X158652000Y-110016500D01*
X158652000Y-110016500D02*
X159702000Y-110016500D01*
X158292800Y-108813600D02*
X158292800Y-109657300D01*
X168231100Y-110845600D02*
X168202000Y-110816500D01*
X169468800Y-110845600D02*
X168231100Y-110845600D01*
X158073100Y-127237500D02*
X157683200Y-126847600D01*
X159702000Y-127237500D02*
X158073100Y-127237500D01*
X158047700Y-111616500D02*
X157683200Y-111252000D01*
X159702000Y-111616500D02*
X158047700Y-111616500D01*
X176743300Y-113629500D02*
X176733200Y-113639600D01*
X178176000Y-113629500D02*
X176743300Y-113629500D01*
X180051500Y-110016500D02*
X179730400Y-109695400D01*
X179730400Y-109695400D02*
X179730400Y-108661200D01*
X181101500Y-110016500D02*
X180051500Y-110016500D01*
X181101500Y-111616500D02*
X179637700Y-111616500D01*
X178765200Y-110744000D02*
X178257200Y-110744000D01*
X179637700Y-111616500D02*
X178765200Y-110744000D01*
X189601500Y-110816500D02*
X188032500Y-110816500D01*
X187553600Y-110337600D02*
X187553600Y-108864400D01*
X188032500Y-110816500D02*
X187553600Y-110337600D01*
X193700400Y-108060600D02*
X194164000Y-107597000D01*
X193700400Y-108610400D02*
X193700400Y-108060600D01*
D22*
X173847000Y-98806000D02*
X173085000Y-98044000D01*
X174193200Y-98806000D02*
X173847000Y-98806000D01*
X174540000Y-98806000D02*
X175302000Y-98044000D01*
X174193200Y-98806000D02*
X174540000Y-98806000D01*
X182676800Y-97891600D02*
X182676800Y-97891600D01*
D23*
X182676800Y-97891600D02*
X182676800Y-99771200D01*
X183616600Y-96951800D02*
X182676800Y-97891600D01*
X184607200Y-95961200D02*
X183616600Y-96951800D01*
D22*
X185060400Y-94335600D02*
X185072500Y-94323500D01*
D21*
X179730400Y-125316400D02*
X179730400Y-124460000D01*
X180051500Y-125637500D02*
X179730400Y-125316400D01*
X181101500Y-125637500D02*
X180051500Y-125637500D01*
X178714400Y-126238000D02*
X178155600Y-126238000D01*
X179713900Y-127237500D02*
X178714400Y-126238000D01*
X181101500Y-127237500D02*
X179713900Y-127237500D01*
X194349300Y-127304800D02*
X194326500Y-127282000D01*
X188413500Y-126437500D02*
X189601500Y-126437500D01*
X187452000Y-125476000D02*
X188413500Y-126437500D01*
X187452000Y-124460000D02*
X187452000Y-125476000D01*
X161566100Y-98196400D02*
X161528000Y-98234500D01*
X162966400Y-98196400D02*
X161566100Y-98196400D01*
D22*
X185072500Y-95495900D02*
X184607200Y-95961200D01*
X185072500Y-94323500D02*
X185072500Y-95495900D01*
D21*
X194326500Y-111661000D02*
X196225100Y-111661000D01*
X196225100Y-111661000D02*
X197104000Y-110782100D01*
X194326500Y-127282000D02*
X194326500Y-125479800D01*
X194326500Y-125479800D02*
X193357500Y-124510800D01*
X193357500Y-124024500D02*
X193357500Y-124510800D01*
X194164000Y-123218000D02*
X193357500Y-124024500D01*
X178303000Y-121863000D02*
X178303000Y-121863028D01*
D22*
X179359560Y-105333800D02*
X182900320Y-105333800D01*
X178451360Y-106242000D02*
X179359560Y-105333800D01*
X178303000Y-106242000D02*
X178451360Y-106242000D01*
D20*
%TO.N,Net-(D9-Pad2)*%
X172889500Y-129607000D02*
X172889500Y-129695000D01*
X171894500Y-128612000D02*
X172889500Y-129607000D01*
X171894500Y-125222000D02*
X171894500Y-128612000D01*
X171014500Y-124342000D02*
X171894500Y-125222000D01*
X171014500Y-123218000D02*
X171014500Y-124342000D01*
%TO.N,Net-(D10-Pad2)*%
X194289000Y-129638750D02*
X194289000Y-129695000D01*
X193294000Y-128643750D02*
X194289000Y-129638750D01*
X193294000Y-125679200D02*
X193294000Y-128643750D01*
X192414000Y-124799200D02*
X193294000Y-125679200D01*
X192414000Y-123218000D02*
X192414000Y-124799200D01*
D21*
%TO.N,+5V*%
X182299700Y-112441900D02*
X182680500Y-112061100D01*
X182680500Y-112061100D02*
X182680500Y-110841900D01*
X181088800Y-112441900D02*
X182299700Y-112441900D01*
X160862100Y-112441900D02*
X161242900Y-112061100D01*
X161242900Y-112061100D02*
X161242900Y-110841900D01*
X159651200Y-112441900D02*
X160862100Y-112441900D01*
X182299700Y-128088300D02*
X182680500Y-127707500D01*
X182680500Y-127707500D02*
X182680500Y-126488300D01*
X181088800Y-128088300D02*
X182299700Y-128088300D01*
D22*
X179904500Y-110816500D02*
X181101500Y-110816500D01*
X178303000Y-108317000D02*
X178303000Y-108317000D01*
X178303000Y-109215000D02*
X179904500Y-110816500D01*
X178303000Y-123938000D02*
X178303000Y-123957000D01*
X159702000Y-110816500D02*
X162505500Y-110816500D01*
X162505500Y-110816500D02*
X164905500Y-113216500D01*
X164905500Y-113216500D02*
X168202000Y-113216500D01*
X181101500Y-126437500D02*
X183905000Y-126437500D01*
X183905000Y-126437500D02*
X186305000Y-128837500D01*
X186305000Y-128837500D02*
X189601500Y-128837500D01*
X156903500Y-123938000D02*
X156903500Y-123938000D01*
X156903500Y-124836000D02*
X158505000Y-126437500D01*
X158505000Y-126437500D02*
X159702000Y-126437500D01*
X162505500Y-126437500D02*
X164905500Y-128837500D01*
X164905500Y-128837500D02*
X168202000Y-128837500D01*
X181101500Y-110816500D02*
X183905000Y-110816500D01*
X183905000Y-110816500D02*
X186305000Y-113216500D01*
X186305000Y-113216500D02*
X189601500Y-113216500D01*
D21*
X159702000Y-128037500D02*
X160912900Y-128037500D01*
X161293700Y-127656700D02*
X161293700Y-126437500D01*
X160912900Y-128037500D02*
X161293700Y-127656700D01*
D22*
X161293700Y-126437500D02*
X162505500Y-126437500D01*
X159702000Y-126437500D02*
X161293700Y-126437500D01*
X156903500Y-108317000D02*
X156903500Y-108317000D01*
X158505000Y-110816500D02*
X159702000Y-110816500D01*
X156903500Y-109215000D02*
X158505000Y-110816500D01*
X156903500Y-123938000D02*
X156903500Y-124836000D01*
X156903500Y-108317000D02*
X156903500Y-109215000D01*
X178303000Y-108317000D02*
X178303000Y-109215000D01*
D21*
X161555000Y-103693800D02*
X160731200Y-102870000D01*
X161555000Y-103787000D02*
X161555000Y-103693800D01*
X173085000Y-95005400D02*
X173085000Y-95123000D01*
X172339000Y-94259400D02*
X173085000Y-95005400D01*
X172339000Y-93802200D02*
X172339000Y-94259400D01*
D23*
X190296800Y-98041460D02*
X190136780Y-97881440D01*
X190296800Y-99771200D02*
X190296800Y-98041460D01*
X190078360Y-97881440D02*
X189141100Y-96944180D01*
X190136780Y-97881440D02*
X190078360Y-97881440D01*
X189141100Y-96893380D02*
X188193680Y-95945960D01*
X189141100Y-96944180D02*
X189141100Y-96893380D01*
D22*
X187672500Y-95424780D02*
X188193680Y-95945960D01*
X187672500Y-94323500D02*
X187672500Y-95424780D01*
X178303000Y-123957000D02*
X178303000Y-124836000D01*
X179904500Y-126437500D02*
X181101500Y-126437500D01*
X178303000Y-124836000D02*
X179904500Y-126437500D01*
D20*
%TO.N,Net-(D11-Pad2)*%
X172889500Y-113961500D02*
X172889500Y-114074000D01*
X171894500Y-112966500D02*
X172889500Y-113961500D01*
X171894500Y-109601000D02*
X171894500Y-112966500D01*
X171014500Y-108721000D02*
X171894500Y-109601000D01*
X171014500Y-107597000D02*
X171014500Y-108721000D01*
%TO.N,Net-(D12-Pad2)*%
X194289000Y-113961500D02*
X194289000Y-114074000D01*
X193294000Y-112966500D02*
X194289000Y-113961500D01*
X192414000Y-108721000D02*
X193294000Y-109601000D01*
X193294000Y-109601000D02*
X193294000Y-112966500D01*
X192414000Y-107597000D02*
X192414000Y-108721000D01*
%TO.N,Net-(IC4-Pad8)*%
X178921500Y-114829500D02*
X178176000Y-114829500D01*
X179734500Y-114016500D02*
X178921500Y-114829500D01*
X181101500Y-114016500D02*
X179734500Y-114016500D01*
%TO.N,Net-(IC4-Pad7)*%
X178977500Y-112429500D02*
X178176000Y-112429500D01*
X179764500Y-113216500D02*
X178977500Y-112429500D01*
X181101500Y-113216500D02*
X179764500Y-113216500D01*
%TO.N,Net-(IC1-Pad8)*%
X157649000Y-130450500D02*
X156776500Y-130450500D01*
X158462000Y-129637500D02*
X157649000Y-130450500D01*
X159702000Y-129637500D02*
X158462000Y-129637500D01*
%TO.N,Net-(IC1-Pad7)*%
X158365000Y-128837500D02*
X159702000Y-128837500D01*
X157578000Y-128050500D02*
X158365000Y-128837500D01*
X156776500Y-128050500D02*
X157578000Y-128050500D01*
%TO.N,Net-(IC2-Pad8)*%
X179112000Y-130450500D02*
X178176000Y-130450500D01*
X179925000Y-129637500D02*
X179112000Y-130450500D01*
X181101500Y-129637500D02*
X179925000Y-129637500D01*
%TO.N,Net-(IC2-Pad7)*%
X178977500Y-128050500D02*
X178176000Y-128050500D01*
X179764500Y-128837500D02*
X178977500Y-128050500D01*
X181101500Y-128837500D02*
X179764500Y-128837500D01*
%TO.N,Net-(IC3-Pad8)*%
X157585500Y-114829500D02*
X156776500Y-114829500D01*
X158398500Y-114016500D02*
X157585500Y-114829500D01*
X159702000Y-114016500D02*
X158398500Y-114016500D01*
%TO.N,Net-(IC3-Pad7)*%
X157578000Y-112429500D02*
X156776500Y-112429500D01*
X158365000Y-113216500D02*
X157578000Y-112429500D01*
X159702000Y-113216500D02*
X158365000Y-113216500D01*
%TO.N,Net-(C14-Pad1)*%
X170807500Y-127237500D02*
X170852000Y-127282000D01*
X168202000Y-127237500D02*
X170807500Y-127237500D01*
%TO.N,Net-(C15-Pad1)*%
X192207000Y-127237500D02*
X192251500Y-127282000D01*
X189601500Y-127237500D02*
X192207000Y-127237500D01*
%TO.N,Net-(C16-Pad1)*%
X170807500Y-111616500D02*
X170852000Y-111661000D01*
X168202000Y-111616500D02*
X170807500Y-111616500D01*
D22*
%TO.N,Net-(C17-Pad1)*%
X192207000Y-111616500D02*
X192251500Y-111661000D01*
X189601500Y-111616500D02*
X192207000Y-111616500D01*
D21*
%TO.N,Net-(D13-Pad1)*%
X164975000Y-94855000D02*
X164989000Y-94869000D01*
X162306000Y-94855000D02*
X164975000Y-94855000D01*
%TO.N,Net-(D17-Pad1)*%
X159512000Y-98218500D02*
X159528000Y-98234500D01*
X159512000Y-94855000D02*
X159512000Y-98218500D01*
D20*
%TO.N,Net-(R25-Pad2)*%
X171085000Y-96282000D02*
X171069000Y-96266000D01*
X171085000Y-98044000D02*
X171085000Y-96282000D01*
X171069000Y-95139000D02*
X171085000Y-95123000D01*
X171069000Y-96266000D02*
X171069000Y-95139000D01*
%TO.N,Net-(R27-Pad2)*%
X166989000Y-94869000D02*
X167195500Y-94869000D01*
X167195500Y-94869000D02*
X168846500Y-93218000D01*
X173545500Y-93218000D02*
X174117000Y-93789500D01*
X168846500Y-93218000D02*
X173545500Y-93218000D01*
%TO.N,Net-(R28-Pad2)*%
X166989000Y-92456000D02*
X173926500Y-92456000D01*
X174879000Y-93408500D02*
X174879000Y-93789500D01*
X173926500Y-92456000D02*
X174879000Y-93408500D01*
%TO.N,+3V3*%
X164989000Y-92456000D02*
X164989000Y-92456000D01*
X164989000Y-92456000D02*
X163576000Y-92456000D01*
D21*
X162915600Y-92456000D02*
X163576000Y-92456000D01*
X162306000Y-93105000D02*
X162306000Y-93065600D01*
X162306000Y-93065600D02*
X162915600Y-92456000D01*
D20*
%TO.N,Net-(D17-Pad2)*%
X159512000Y-93105000D02*
X159512000Y-92519500D01*
X159512000Y-92519500D02*
X160845500Y-91186000D01*
X173609000Y-91186000D02*
X174180500Y-91757500D01*
X160845500Y-91186000D02*
X173609000Y-91186000D01*
%TO.N,Net-(C19-Pad1)*%
X177419000Y-98002000D02*
X177377000Y-98044000D01*
X177419000Y-96393000D02*
X177419000Y-98002000D01*
X170942000Y-99314000D02*
X170484800Y-99314000D01*
X171196000Y-99568000D02*
X170942000Y-99314000D01*
X176733200Y-99568000D02*
X171196000Y-99568000D01*
X177377000Y-98924200D02*
X176733200Y-99568000D01*
X177377000Y-98044000D02*
X177377000Y-98924200D01*
D24*
%TO.N,Net-(J1-Pad6)*%
X182622500Y-91473500D02*
X185222500Y-91473500D01*
X185222500Y-91473500D02*
X187522500Y-91473500D01*
X187522500Y-91473500D02*
X190122500Y-91473500D01*
D21*
%TO.N,/SS2*%
X163555000Y-119408000D02*
X165645000Y-119408000D01*
D20*
X163552000Y-119411000D02*
X163555000Y-119408000D01*
X163552000Y-122587500D02*
X163552000Y-119411000D01*
X167017700Y-120878600D02*
X165645000Y-119505900D01*
X173355000Y-120878600D02*
X167017700Y-120878600D01*
X174561500Y-122085100D02*
X173355000Y-120878600D01*
X165645000Y-119505900D02*
X165645000Y-119408000D01*
X174561500Y-131533900D02*
X174561500Y-122085100D01*
X170319700Y-135775700D02*
X174561500Y-131533900D01*
X167640000Y-135775700D02*
X170319700Y-135775700D01*
%TO.N,/DTR_2*%
X167727600Y-119380000D02*
X167725000Y-119382600D01*
X169011600Y-119380000D02*
X167727600Y-119380000D01*
D21*
%TO.N,/SS3*%
X184954500Y-119408000D02*
X187044500Y-119408000D01*
D20*
X184951500Y-119411000D02*
X184954500Y-119408000D01*
X184951500Y-122587500D02*
X184951500Y-119411000D01*
X187044500Y-119544000D02*
X187044500Y-119408000D01*
X188417200Y-120916700D02*
X187044500Y-119544000D01*
X195364100Y-122529600D02*
X193751200Y-120916700D01*
X196215000Y-125857000D02*
X195364100Y-125006100D01*
X196215000Y-130479800D02*
X196215000Y-125857000D01*
X193751200Y-120916700D02*
X188417200Y-120916700D01*
X190893700Y-135801100D02*
X196215000Y-130479800D01*
X195364100Y-125006100D02*
X195364100Y-122529600D01*
X190284100Y-135801100D02*
X190893700Y-135801100D01*
%TO.N,/DTR_3*%
X189119500Y-119408000D02*
X194541200Y-119408000D01*
X196850000Y-121716800D02*
X196850000Y-124917200D01*
X194541200Y-119408000D02*
X196850000Y-121716800D01*
D21*
%TO.N,/SS1*%
X163555000Y-103787000D02*
X165650000Y-103787000D01*
D20*
X163552000Y-103790000D02*
X163555000Y-103787000D01*
X163552000Y-106966500D02*
X163552000Y-103790000D01*
X165650000Y-103917840D02*
X165650000Y-103787000D01*
X167167560Y-105435400D02*
X165650000Y-103917840D01*
X172968920Y-105435400D02*
X167167560Y-105435400D01*
X175425100Y-107891580D02*
X172968920Y-105435400D01*
X175425100Y-109143800D02*
X175425100Y-107891580D01*
%TO.N,/DTR_1*%
X169011600Y-103784400D02*
X167727600Y-103784400D01*
X167727600Y-103784400D02*
X167725000Y-103787000D01*
D21*
%TO.N,/SS4*%
X184954500Y-103787000D02*
X187044500Y-103787000D01*
D20*
X184951500Y-103790000D02*
X184954500Y-103787000D01*
X184951500Y-106966500D02*
X184951500Y-103790000D01*
X198450200Y-109423200D02*
X198450200Y-106324400D01*
X198450200Y-106324400D02*
X194462400Y-102336600D01*
X188494900Y-102336600D02*
X187044500Y-103787000D01*
X194462400Y-102336600D02*
X188494900Y-102336600D01*
%TO.N,/DTR_4*%
X196900800Y-106019600D02*
X196900800Y-109220000D01*
X189170300Y-103710800D02*
X194592000Y-103710800D01*
X194592000Y-103710800D02*
X196900800Y-106019600D01*
%TO.N,/RXD_4*%
X184150000Y-108458000D02*
X184150000Y-106968000D01*
X184150000Y-106968000D02*
X184151500Y-106966500D01*
%TO.N,/TXD_4*%
X183337200Y-106980800D02*
X183351500Y-106966500D01*
X183337200Y-108458000D02*
X183337200Y-106980800D01*
%TO.N,/RXD_2*%
X162752000Y-122587500D02*
X162752000Y-121400800D01*
X162752000Y-121400800D02*
X162102800Y-120751600D01*
X160528000Y-120751600D02*
X159766000Y-119989600D01*
X162102800Y-120751600D02*
X160528000Y-120751600D01*
X159766000Y-119989600D02*
X154940000Y-119989600D01*
X152603200Y-122326400D02*
X152603200Y-127863600D01*
X154940000Y-119989600D02*
X152603200Y-122326400D01*
X153009600Y-128270000D02*
X153212800Y-128270000D01*
X152603200Y-127863600D02*
X153009600Y-128270000D01*
%TO.N,/TXD_2*%
X155143200Y-120396000D02*
X153162000Y-122377200D01*
X153162000Y-125272800D02*
X153212800Y-125323600D01*
X160324800Y-121158000D02*
X159562800Y-120396000D01*
X161696400Y-121158000D02*
X160324800Y-121158000D01*
X159562800Y-120396000D02*
X155143200Y-120396000D01*
X161952000Y-121413600D02*
X161696400Y-121158000D01*
X153162000Y-122377200D02*
X153162000Y-125272800D01*
X161952000Y-122587500D02*
X161952000Y-121413600D01*
%TO.N,/RXD_3*%
X184151500Y-123902700D02*
X184200800Y-123952000D01*
X184151500Y-122587500D02*
X184151500Y-123902700D01*
%TO.N,/TXD_3*%
X183351500Y-123937700D02*
X183337200Y-123952000D01*
X183351500Y-122587500D02*
X183351500Y-123937700D01*
%TO.N,/RXD_1*%
X153009600Y-112725200D02*
X153212800Y-112725200D01*
X154940000Y-104444800D02*
X152603200Y-106781600D01*
X162752000Y-107042700D02*
X162752000Y-105856000D01*
X152603200Y-112318800D02*
X153009600Y-112725200D01*
X162752000Y-105856000D02*
X162102800Y-105206800D01*
X160528000Y-105206800D02*
X159766000Y-104444800D01*
X162102800Y-105206800D02*
X160528000Y-105206800D01*
X159766000Y-104444800D02*
X154940000Y-104444800D01*
X152603200Y-106781600D02*
X152603200Y-112318800D01*
%TO.N,/TXD_1*%
X161696400Y-105613200D02*
X160324800Y-105613200D01*
X161952000Y-107042700D02*
X161952000Y-105868800D01*
X161952000Y-105868800D02*
X161696400Y-105613200D01*
X160324800Y-105613200D02*
X159562800Y-104851200D01*
X159562800Y-104851200D02*
X155143200Y-104851200D01*
X155143200Y-104851200D02*
X153162000Y-106832400D01*
X153162000Y-106832400D02*
X153162000Y-109728000D01*
X153162000Y-109728000D02*
X153212800Y-109778800D01*
D25*
%TO.N,/D-*%
X187756800Y-99771200D02*
X186677300Y-98691700D01*
X186888000Y-97607408D02*
X186888000Y-95508001D01*
X186677300Y-97818108D02*
X186888000Y-97607408D01*
X187022500Y-95373501D02*
X187022500Y-94323500D01*
X186888000Y-95508001D02*
X187022500Y-95373501D01*
X186677300Y-98691700D02*
X186677300Y-97818108D01*
%TO.N,/D+*%
X185216800Y-99771200D02*
X186296300Y-98691700D01*
X186296300Y-97660292D02*
X186507000Y-97449592D01*
X186507000Y-97449592D02*
X186507000Y-95508001D01*
X186507000Y-95508001D02*
X186372500Y-95373501D01*
X186372500Y-95373501D02*
X186372500Y-94323500D01*
X186296300Y-98691700D02*
X186296300Y-97660292D01*
D20*
%TO.N,/MOSI2*%
X165952000Y-132037500D02*
X164969700Y-133019800D01*
X165952000Y-131087500D02*
X165952000Y-132037500D01*
X164969700Y-133019800D02*
X161226500Y-133019800D01*
X160020000Y-134226300D02*
X160020000Y-135775700D01*
X161226500Y-133019800D02*
X160020000Y-134226300D01*
%TO.N,/MISO2*%
X166752000Y-131087500D02*
X166752000Y-132053600D01*
X166752000Y-132053600D02*
X165303200Y-133502400D01*
X165303200Y-133502400D02*
X163296600Y-133502400D01*
X162560000Y-134239000D02*
X162560000Y-135775700D01*
X163296600Y-133502400D02*
X162560000Y-134239000D01*
%TO.N,/SCK2*%
X165100000Y-135775700D02*
X165100000Y-134759700D01*
X168202000Y-131657700D02*
X168202000Y-129637500D01*
X165100000Y-134759700D02*
X168202000Y-131657700D01*
%TO.N,/MOSI3*%
X186207400Y-133743700D02*
X184721500Y-133743700D01*
X187351500Y-132599600D02*
X186207400Y-133743700D01*
X184721500Y-133743700D02*
X182664100Y-135801100D01*
X187351500Y-131087500D02*
X187351500Y-132599600D01*
%TO.N,/MISO3*%
X185204100Y-135737600D02*
X185204100Y-135801100D01*
X188151500Y-132790200D02*
X185204100Y-135737600D01*
X188151500Y-131087500D02*
X188151500Y-132790200D01*
%TO.N,/SCK3*%
X187744100Y-135788400D02*
X187744100Y-135801100D01*
X190474600Y-133057900D02*
X187744100Y-135788400D01*
X190474600Y-130289300D02*
X190474600Y-133057900D01*
X189822800Y-129637500D02*
X190474600Y-130289300D01*
X189601500Y-129637500D02*
X189822800Y-129637500D01*
%TO.N,/MOSI1*%
X166766240Y-117459760D02*
X165952000Y-116645520D01*
X173172120Y-117459760D02*
X166766240Y-117459760D01*
X173619160Y-117012720D02*
X173172120Y-117459760D01*
X165952000Y-116645520D02*
X165952000Y-115466500D01*
X175176180Y-117012720D02*
X173619160Y-117012720D01*
%TO.N,/MISO1*%
X166752000Y-116566680D02*
X166752000Y-115466500D01*
X167116760Y-116931440D02*
X166752000Y-116566680D01*
X172933360Y-116931440D02*
X167116760Y-116931440D01*
X175425100Y-114439700D02*
X172933360Y-116931440D01*
X175425100Y-114223800D02*
X175425100Y-114439700D01*
%TO.N,/SCK1*%
X168202000Y-115771320D02*
X168202000Y-114016500D01*
X168818560Y-116387880D02*
X168202000Y-115771320D01*
X172730160Y-116387880D02*
X168818560Y-116387880D01*
X174096680Y-113573560D02*
X174096680Y-115021360D01*
X175425100Y-112245140D02*
X174096680Y-113573560D01*
X174096680Y-115021360D02*
X172730160Y-116387880D01*
X175425100Y-111683800D02*
X175425100Y-112245140D01*
%TO.N,/MOSI4*%
X187351500Y-116416500D02*
X187351500Y-115466500D01*
X188930700Y-117995700D02*
X187351500Y-116416500D01*
X195821300Y-117995700D02*
X188930700Y-117995700D01*
X196773800Y-117043200D02*
X195821300Y-117995700D01*
X198450200Y-117043200D02*
X196773800Y-117043200D01*
%TO.N,/MISO4*%
X188151500Y-116269500D02*
X188151500Y-115466500D01*
X189369700Y-117487700D02*
X188151500Y-116269500D01*
X195465700Y-117487700D02*
X189369700Y-117487700D01*
X198450200Y-114503200D02*
X195465700Y-117487700D01*
%TO.N,/SCK4*%
X189674500Y-114089500D02*
X189601500Y-114016500D01*
X189674500Y-116205000D02*
X189674500Y-114089500D01*
X195110100Y-116979700D02*
X190449200Y-116979700D01*
X196824600Y-115265200D02*
X195110100Y-116979700D01*
X196824600Y-113588800D02*
X196824600Y-115265200D01*
X190449200Y-116979700D02*
X189674500Y-116205000D01*
X198450200Y-111963200D02*
X196824600Y-113588800D01*
%TD*%
M02*
