%TF.GenerationSoftware,KiCad,Pcbnew,(6.0.4)*%
%TF.CreationDate,2022-04-04T02:45:16+02:00*%
%TF.ProjectId,DUINO,4455494e-4f2e-46b6-9963-61645f706362,rev?*%
%TF.SameCoordinates,Original*%
%TF.FileFunction,Legend,Top*%
%TF.FilePolarity,Positive*%
%FSLAX46Y46*%
G04 Gerber Fmt 4.6, Leading zero omitted, Abs format (unit mm)*
G04 Created by KiCad (PCBNEW (6.0.4)) date 2022-04-04 02:45:16*
%MOMM*%
%LPD*%
G01*
G04 APERTURE LIST*
%ADD10C,0.120000*%
%ADD11C,0.150000*%
%ADD12C,0.300000*%
%ADD13C,0.200000*%
%ADD14C,0.400000*%
%ADD15C,0.100000*%
%ADD16C,0.010000*%
G04 APERTURE END LIST*
D10*
X178628040Y-137012680D02*
X178628040Y-132339080D01*
X178272440Y-136961880D02*
X178272440Y-132339080D01*
D11*
X153575047Y-100442780D02*
X153908380Y-101442780D01*
X154241714Y-100442780D01*
X154575047Y-100442780D02*
X154575047Y-101252304D01*
X154622666Y-101347542D01*
X154670285Y-101395161D01*
X154765523Y-101442780D01*
X154956000Y-101442780D01*
X155051238Y-101395161D01*
X155098857Y-101347542D01*
X155146476Y-101252304D01*
X155146476Y-100442780D01*
X156194095Y-101347542D02*
X156146476Y-101395161D01*
X156003619Y-101442780D01*
X155908380Y-101442780D01*
X155765523Y-101395161D01*
X155670285Y-101299923D01*
X155622666Y-101204685D01*
X155575047Y-101014209D01*
X155575047Y-100871352D01*
X155622666Y-100680876D01*
X155670285Y-100585638D01*
X155765523Y-100490400D01*
X155908380Y-100442780D01*
X156003619Y-100442780D01*
X156146476Y-100490400D01*
X156194095Y-100538019D01*
X156622666Y-101442780D02*
X156622666Y-100442780D01*
X157194095Y-101442780D02*
X156765523Y-100871352D01*
X157194095Y-100442780D02*
X156622666Y-101014209D01*
X157813142Y-100442780D02*
X158003619Y-100442780D01*
X158098857Y-100490400D01*
X158194095Y-100585638D01*
X158241714Y-100776114D01*
X158241714Y-101109447D01*
X158194095Y-101299923D01*
X158098857Y-101395161D01*
X158003619Y-101442780D01*
X157813142Y-101442780D01*
X157717904Y-101395161D01*
X157622666Y-101299923D01*
X157575047Y-101109447D01*
X157575047Y-100776114D01*
X157622666Y-100585638D01*
X157717904Y-100490400D01*
X157813142Y-100442780D01*
D12*
X192895600Y-120539771D02*
X193824171Y-120539771D01*
X193324171Y-121111200D01*
X193538457Y-121111200D01*
X193681314Y-121182628D01*
X193752742Y-121254057D01*
X193824171Y-121396914D01*
X193824171Y-121754057D01*
X193752742Y-121896914D01*
X193681314Y-121968342D01*
X193538457Y-122039771D01*
X193109885Y-122039771D01*
X192967028Y-121968342D01*
X192895600Y-121896914D01*
X172183371Y-106393371D02*
X171326228Y-106393371D01*
X171754800Y-106393371D02*
X171754800Y-104893371D01*
X171611942Y-105107657D01*
X171469085Y-105250514D01*
X171326228Y-105321942D01*
X193630514Y-105444171D02*
X193630514Y-106444171D01*
X193273371Y-104872742D02*
X192916228Y-105944171D01*
X193844800Y-105944171D01*
X171631028Y-120631828D02*
X171702457Y-120560400D01*
X171845314Y-120488971D01*
X172202457Y-120488971D01*
X172345314Y-120560400D01*
X172416742Y-120631828D01*
X172488171Y-120774685D01*
X172488171Y-120917542D01*
X172416742Y-121131828D01*
X171559600Y-121988971D01*
X172488171Y-121988971D01*
D10*
%TO.C,C6*%
X166943752Y-118673000D02*
X166421248Y-118673000D01*
X166943752Y-120143000D02*
X166421248Y-120143000D01*
%TO.C,C7*%
X188343252Y-120143000D02*
X187820748Y-120143000D01*
X188343252Y-118673000D02*
X187820748Y-118673000D01*
%TO.C,C8*%
X166948752Y-104522000D02*
X166426248Y-104522000D01*
X166948752Y-103052000D02*
X166426248Y-103052000D01*
%TO.C,C9*%
X188343252Y-103052000D02*
X187820748Y-103052000D01*
X188343252Y-104522000D02*
X187820748Y-104522000D01*
%TO.C,C10*%
X157638500Y-123161752D02*
X157638500Y-122639248D01*
X156168500Y-123161752D02*
X156168500Y-122639248D01*
%TO.C,C11*%
X177568000Y-123161752D02*
X177568000Y-122639248D01*
X179038000Y-123161752D02*
X179038000Y-122639248D01*
%TO.C,C12*%
X157638500Y-107540752D02*
X157638500Y-107018248D01*
X156168500Y-107540752D02*
X156168500Y-107018248D01*
%TO.C,C13*%
X179038000Y-107540752D02*
X179038000Y-107018248D01*
X177568000Y-107540752D02*
X177568000Y-107018248D01*
%TO.C,C14*%
X171628248Y-128017000D02*
X172150752Y-128017000D01*
X171628248Y-126547000D02*
X172150752Y-126547000D01*
%TO.C,C15*%
X193027748Y-128017000D02*
X193550252Y-128017000D01*
X193027748Y-126547000D02*
X193550252Y-126547000D01*
%TO.C,C16*%
X171628248Y-110926000D02*
X172150752Y-110926000D01*
X171628248Y-112396000D02*
X172150752Y-112396000D01*
%TO.C,C17*%
X193027748Y-112396000D02*
X193550252Y-112396000D01*
X193027748Y-110926000D02*
X193550252Y-110926000D01*
%TO.C,C19*%
X176600752Y-98779000D02*
X176078248Y-98779000D01*
X176600752Y-97309000D02*
X176078248Y-97309000D01*
%TO.C,D9*%
X173549500Y-123953000D02*
X173549500Y-122483000D01*
X171089500Y-123953000D02*
X173549500Y-123953000D01*
X173549500Y-122483000D02*
X171089500Y-122483000D01*
%TO.C,D10*%
X194949000Y-123953000D02*
X194949000Y-122483000D01*
X194949000Y-122483000D02*
X192489000Y-122483000D01*
X192489000Y-123953000D02*
X194949000Y-123953000D01*
%TO.C,D11*%
X171089500Y-108332000D02*
X173549500Y-108332000D01*
X173549500Y-108332000D02*
X173549500Y-106862000D01*
X173549500Y-106862000D02*
X171089500Y-106862000D01*
%TO.C,D12*%
X194949000Y-106862000D02*
X192489000Y-106862000D01*
X194949000Y-108332000D02*
X194949000Y-106862000D01*
X192489000Y-108332000D02*
X194949000Y-108332000D01*
%TO.C,D13*%
X161571000Y-95640000D02*
X163041000Y-95640000D01*
X163041000Y-95640000D02*
X163041000Y-93180000D01*
X161571000Y-93180000D02*
X161571000Y-95640000D01*
%TO.C,D17*%
X160247000Y-95640000D02*
X160247000Y-93180000D01*
X158777000Y-95640000D02*
X160247000Y-95640000D01*
X158777000Y-93180000D02*
X158777000Y-95640000D01*
D13*
%TO.C,IC1*%
X160802000Y-129987500D02*
X160802000Y-123687500D01*
X160802000Y-123687500D02*
X167102000Y-123687500D01*
X167102000Y-123687500D02*
X167102000Y-129987500D01*
X167102000Y-129987500D02*
X160802000Y-129987500D01*
D14*
X159552000Y-122837500D02*
G75*
G03*
X159552000Y-122837500I-200000J0D01*
G01*
%TO.C,IC2*%
X180951500Y-122837500D02*
G75*
G03*
X180951500Y-122837500I-200000J0D01*
G01*
D13*
X188501500Y-123687500D02*
X188501500Y-129987500D01*
X188501500Y-129987500D02*
X182201500Y-129987500D01*
X182201500Y-123687500D02*
X188501500Y-123687500D01*
X182201500Y-129987500D02*
X182201500Y-123687500D01*
%TO.C,IC4*%
X188501500Y-114366500D02*
X182201500Y-114366500D01*
X182201500Y-108066500D02*
X188501500Y-108066500D01*
X182201500Y-114366500D02*
X182201500Y-108066500D01*
X188501500Y-108066500D02*
X188501500Y-114366500D01*
D14*
X180951500Y-107216500D02*
G75*
G03*
X180951500Y-107216500I-200000J0D01*
G01*
D10*
%TO.C,J1*%
X182512500Y-88613500D02*
X182512500Y-90223500D01*
X190232500Y-92723500D02*
X190232500Y-94433500D01*
X188172500Y-94433500D02*
X188172500Y-95023500D01*
X182512500Y-94433500D02*
X184572500Y-94433500D01*
X190232500Y-88613500D02*
X182512500Y-88613500D01*
X182512500Y-92723500D02*
X182512500Y-94433500D01*
X190232500Y-94433500D02*
X188172500Y-94433500D01*
X190232500Y-88613500D02*
X190232500Y-90223500D01*
%TO.C,R17*%
X162327936Y-120143000D02*
X162782064Y-120143000D01*
X162327936Y-118673000D02*
X162782064Y-118673000D01*
%TO.C,R18*%
X183727436Y-118673000D02*
X184181564Y-118673000D01*
X183727436Y-120143000D02*
X184181564Y-120143000D01*
%TO.C,R19*%
X162327936Y-104522000D02*
X162782064Y-104522000D01*
X162327936Y-103052000D02*
X162782064Y-103052000D01*
%TO.C,R20*%
X183727436Y-104522000D02*
X184181564Y-104522000D01*
X183727436Y-103052000D02*
X184181564Y-103052000D01*
%TO.C,R21*%
X172116564Y-130430000D02*
X171662436Y-130430000D01*
X172116564Y-128960000D02*
X171662436Y-128960000D01*
%TO.C,R22*%
X193516064Y-130430000D02*
X193061936Y-130430000D01*
X193516064Y-128960000D02*
X193061936Y-128960000D01*
%TO.C,R23*%
X172116564Y-113339000D02*
X171662436Y-113339000D01*
X172116564Y-114809000D02*
X171662436Y-114809000D01*
%TO.C,R24*%
X193516064Y-114809000D02*
X193061936Y-114809000D01*
X193516064Y-113339000D02*
X193061936Y-113339000D01*
%TO.C,R25*%
X172312064Y-94388000D02*
X171857936Y-94388000D01*
X172312064Y-95858000D02*
X171857936Y-95858000D01*
%TO.C,R26*%
X171857936Y-98779000D02*
X172312064Y-98779000D01*
X171857936Y-97309000D02*
X172312064Y-97309000D01*
%TO.C,R27*%
X165761936Y-94134000D02*
X166216064Y-94134000D01*
X165761936Y-95604000D02*
X166216064Y-95604000D01*
%TO.C,R28*%
X165761936Y-93191000D02*
X166216064Y-93191000D01*
X165761936Y-91721000D02*
X166216064Y-91721000D01*
%TO.C,R30*%
X160300936Y-98969500D02*
X160755064Y-98969500D01*
X160300936Y-97499500D02*
X160755064Y-97499500D01*
D15*
%TO.C,Y1*%
X156126500Y-129650500D02*
X156126500Y-130050500D01*
X157426500Y-127650500D02*
X156126500Y-127650500D01*
X157426500Y-130850500D02*
X156126500Y-130850500D01*
X157426500Y-129650500D02*
X157426500Y-130050500D01*
D13*
X156876500Y-127150500D02*
X156876500Y-127150500D01*
X156676500Y-127150500D02*
X156676500Y-127150500D01*
D15*
X157426500Y-128450500D02*
X157426500Y-128850500D01*
X156126500Y-128450500D02*
X156126500Y-128850500D01*
D13*
X156676500Y-127150500D02*
G75*
G03*
X156876500Y-127150500I100000J0D01*
G01*
X156876500Y-127150500D02*
G75*
G03*
X156676500Y-127150500I-100000J0D01*
G01*
D15*
%TO.C,Y2*%
X177526000Y-129650500D02*
X177526000Y-130050500D01*
X178826000Y-128450500D02*
X178826000Y-128850500D01*
X178826000Y-127650500D02*
X177526000Y-127650500D01*
X178826000Y-130850500D02*
X177526000Y-130850500D01*
X177526000Y-128450500D02*
X177526000Y-128850500D01*
D13*
X178076000Y-127150500D02*
X178076000Y-127150500D01*
X178276000Y-127150500D02*
X178276000Y-127150500D01*
D15*
X178826000Y-129650500D02*
X178826000Y-130050500D01*
D13*
X178276000Y-127150500D02*
G75*
G03*
X178076000Y-127150500I-100000J0D01*
G01*
X178076000Y-127150500D02*
G75*
G03*
X178276000Y-127150500I100000J0D01*
G01*
D15*
%TO.C,Y3*%
X157426500Y-115229500D02*
X156126500Y-115229500D01*
X156126500Y-112829500D02*
X156126500Y-113229500D01*
X157426500Y-114029500D02*
X157426500Y-114429500D01*
X157426500Y-112029500D02*
X156126500Y-112029500D01*
X156126500Y-114029500D02*
X156126500Y-114429500D01*
D13*
X156876500Y-111529500D02*
X156876500Y-111529500D01*
X156676500Y-111529500D02*
X156676500Y-111529500D01*
D15*
X157426500Y-112829500D02*
X157426500Y-113229500D01*
D13*
X156676500Y-111529500D02*
G75*
G03*
X156876500Y-111529500I100000J0D01*
G01*
X156876500Y-111529500D02*
G75*
G03*
X156676500Y-111529500I-100000J0D01*
G01*
D15*
%TO.C,Y4*%
X177526000Y-112829500D02*
X177526000Y-113229500D01*
X178826000Y-115229500D02*
X177526000Y-115229500D01*
X177526000Y-114029500D02*
X177526000Y-114429500D01*
D13*
X178076000Y-111529500D02*
X178076000Y-111529500D01*
X178276000Y-111529500D02*
X178276000Y-111529500D01*
D15*
X178826000Y-112029500D02*
X177526000Y-112029500D01*
X178826000Y-114029500D02*
X178826000Y-114429500D01*
X178826000Y-112829500D02*
X178826000Y-113229500D01*
D13*
X178076000Y-111529500D02*
G75*
G03*
X178276000Y-111529500I100000J0D01*
G01*
X178276000Y-111529500D02*
G75*
G03*
X178076000Y-111529500I-100000J0D01*
G01*
%TO.C,IC3*%
X160802000Y-114366500D02*
X160802000Y-108066500D01*
X167102000Y-114366500D02*
X160802000Y-114366500D01*
X167102000Y-108066500D02*
X167102000Y-114366500D01*
X160802000Y-108066500D02*
X167102000Y-108066500D01*
D14*
X159552000Y-107216500D02*
G75*
G03*
X159552000Y-107216500I-200000J0D01*
G01*
%TO.C,L1*%
G36*
X175156041Y-133684584D02*
G01*
X175250520Y-133687682D01*
X175325306Y-133693900D01*
X175390549Y-133704393D01*
X175456398Y-133720318D01*
X175520975Y-133739154D01*
X175758319Y-133829272D01*
X175969940Y-133946692D01*
X176153732Y-134089742D01*
X176307586Y-134256752D01*
X176429396Y-134446050D01*
X176441057Y-134468779D01*
X176466206Y-134521517D01*
X176487226Y-134573213D01*
X176504485Y-134627931D01*
X176518352Y-134689735D01*
X176529195Y-134762689D01*
X176537382Y-134850857D01*
X176543280Y-134958302D01*
X176547259Y-135089090D01*
X176549687Y-135247283D01*
X176550931Y-135436946D01*
X176551360Y-135662142D01*
X176551372Y-135686400D01*
X176551720Y-136531400D01*
X175772941Y-136531400D01*
X175767330Y-135664910D01*
X175761720Y-134798419D01*
X175711720Y-134724110D01*
X175635645Y-134640304D01*
X175526633Y-134562356D01*
X175391734Y-134495193D01*
X175373825Y-134487968D01*
X175274831Y-134461135D01*
X175150259Y-134445157D01*
X175013045Y-134440076D01*
X174876120Y-134445932D01*
X174752419Y-134462767D01*
X174667459Y-134485693D01*
X174534410Y-134548161D01*
X174420826Y-134627942D01*
X174336559Y-134718013D01*
X174331720Y-134724952D01*
X174281720Y-134798406D01*
X174261720Y-136521400D01*
X173491720Y-136532264D01*
X173491871Y-135706832D01*
X173492393Y-135522729D01*
X173493819Y-135346597D01*
X173496042Y-135183503D01*
X173498954Y-135038514D01*
X173502447Y-134916697D01*
X173506413Y-134823120D01*
X173510745Y-134762849D01*
X173512194Y-134751400D01*
X173559902Y-134570202D01*
X173643934Y-134394601D01*
X173760636Y-134228932D01*
X173906353Y-134077529D01*
X174077429Y-133944725D01*
X174270210Y-133834856D01*
X174294914Y-133823288D01*
X174418957Y-133770365D01*
X174532071Y-133732051D01*
X174645052Y-133706297D01*
X174768698Y-133691053D01*
X174913805Y-133684270D01*
X175031720Y-133683451D01*
X175156041Y-133684584D01*
G37*
D16*
X175156041Y-133684584D02*
X175250520Y-133687682D01*
X175325306Y-133693900D01*
X175390549Y-133704393D01*
X175456398Y-133720318D01*
X175520975Y-133739154D01*
X175758319Y-133829272D01*
X175969940Y-133946692D01*
X176153732Y-134089742D01*
X176307586Y-134256752D01*
X176429396Y-134446050D01*
X176441057Y-134468779D01*
X176466206Y-134521517D01*
X176487226Y-134573213D01*
X176504485Y-134627931D01*
X176518352Y-134689735D01*
X176529195Y-134762689D01*
X176537382Y-134850857D01*
X176543280Y-134958302D01*
X176547259Y-135089090D01*
X176549687Y-135247283D01*
X176550931Y-135436946D01*
X176551360Y-135662142D01*
X176551372Y-135686400D01*
X176551720Y-136531400D01*
X175772941Y-136531400D01*
X175767330Y-135664910D01*
X175761720Y-134798419D01*
X175711720Y-134724110D01*
X175635645Y-134640304D01*
X175526633Y-134562356D01*
X175391734Y-134495193D01*
X175373825Y-134487968D01*
X175274831Y-134461135D01*
X175150259Y-134445157D01*
X175013045Y-134440076D01*
X174876120Y-134445932D01*
X174752419Y-134462767D01*
X174667459Y-134485693D01*
X174534410Y-134548161D01*
X174420826Y-134627942D01*
X174336559Y-134718013D01*
X174331720Y-134724952D01*
X174281720Y-134798406D01*
X174261720Y-136521400D01*
X173491720Y-136532264D01*
X173491871Y-135706832D01*
X173492393Y-135522729D01*
X173493819Y-135346597D01*
X173496042Y-135183503D01*
X173498954Y-135038514D01*
X173502447Y-134916697D01*
X173506413Y-134823120D01*
X173510745Y-134762849D01*
X173512194Y-134751400D01*
X173559902Y-134570202D01*
X173643934Y-134394601D01*
X173760636Y-134228932D01*
X173906353Y-134077529D01*
X174077429Y-133944725D01*
X174270210Y-133834856D01*
X174294914Y-133823288D01*
X174418957Y-133770365D01*
X174532071Y-133732051D01*
X174645052Y-133706297D01*
X174768698Y-133691053D01*
X174913805Y-133684270D01*
X175031720Y-133683451D01*
X175156041Y-133684584D01*
G36*
X175171064Y-131863319D02*
G01*
X175289183Y-131865997D01*
X175384835Y-131871066D01*
X175466779Y-131879179D01*
X175543776Y-131890991D01*
X175624583Y-131907157D01*
X175626393Y-131907550D01*
X175942446Y-131994238D01*
X176236486Y-132112885D01*
X176513090Y-132265567D01*
X176699885Y-132394631D01*
X176946001Y-132601045D01*
X177155896Y-132823816D01*
X177330285Y-133063945D01*
X177469882Y-133322435D01*
X177575402Y-133600286D01*
X177586517Y-133637408D01*
X177640002Y-133821400D01*
X177653542Y-136531400D01*
X176811720Y-136531400D01*
X176811568Y-135336400D01*
X176811383Y-135069388D01*
X176810785Y-134839023D01*
X176809602Y-134641949D01*
X176807659Y-134474816D01*
X176804785Y-134334269D01*
X176800805Y-134216956D01*
X176795548Y-134119522D01*
X176788840Y-134038615D01*
X176780509Y-133970882D01*
X176770380Y-133912970D01*
X176758282Y-133861525D01*
X176744041Y-133813194D01*
X176730998Y-133774542D01*
X176645448Y-133588611D01*
X176524664Y-133411424D01*
X176373095Y-133246703D01*
X176195191Y-133098171D01*
X175995401Y-132969549D01*
X175778175Y-132864562D01*
X175551720Y-132787936D01*
X175484863Y-132771178D01*
X175422357Y-132759077D01*
X175355719Y-132750933D01*
X175276467Y-132746045D01*
X175176117Y-132743712D01*
X175046187Y-132743232D01*
X175011720Y-132743309D01*
X174871929Y-132744358D01*
X174763784Y-132747049D01*
X174678944Y-132752089D01*
X174609065Y-132760181D01*
X174545805Y-132772031D01*
X174481720Y-132788098D01*
X174252568Y-132867085D01*
X174035396Y-132973849D01*
X173835482Y-133104362D01*
X173658103Y-133254593D01*
X173508534Y-133420515D01*
X173392053Y-133598098D01*
X173373322Y-133634395D01*
X173345985Y-133690440D01*
X173322434Y-133741829D01*
X173302387Y-133791914D01*
X173285559Y-133844047D01*
X173271669Y-133901580D01*
X173260433Y-133967865D01*
X173251567Y-134046254D01*
X173244788Y-134140098D01*
X173239814Y-134252751D01*
X173236361Y-134387563D01*
X173234146Y-134547887D01*
X173232885Y-134737075D01*
X173232296Y-134958478D01*
X173232095Y-135215450D01*
X173232067Y-135306400D01*
X173231720Y-136531400D01*
X172390151Y-136531400D01*
X172396982Y-135166400D01*
X172398342Y-134887382D01*
X172399659Y-134645056D01*
X172401271Y-134436116D01*
X172403517Y-134257255D01*
X172406737Y-134105168D01*
X172411267Y-133976549D01*
X172417446Y-133868091D01*
X172425614Y-133776488D01*
X172436108Y-133698434D01*
X172449267Y-133630624D01*
X172465429Y-133569750D01*
X172484933Y-133512507D01*
X172508118Y-133455589D01*
X172535321Y-133395689D01*
X172566882Y-133329502D01*
X172589961Y-133281400D01*
X172727202Y-133038533D01*
X172898788Y-132808560D01*
X173100082Y-132595398D01*
X173326446Y-132402968D01*
X173573247Y-132235187D01*
X173835846Y-132095975D01*
X174109608Y-131989249D01*
X174124225Y-131984610D01*
X174263081Y-131942991D01*
X174385126Y-131911724D01*
X174500430Y-131889438D01*
X174619063Y-131874760D01*
X174751096Y-131866320D01*
X174906599Y-131862746D01*
X175021720Y-131862376D01*
X175171064Y-131863319D01*
G37*
X175171064Y-131863319D02*
X175289183Y-131865997D01*
X175384835Y-131871066D01*
X175466779Y-131879179D01*
X175543776Y-131890991D01*
X175624583Y-131907157D01*
X175626393Y-131907550D01*
X175942446Y-131994238D01*
X176236486Y-132112885D01*
X176513090Y-132265567D01*
X176699885Y-132394631D01*
X176946001Y-132601045D01*
X177155896Y-132823816D01*
X177330285Y-133063945D01*
X177469882Y-133322435D01*
X177575402Y-133600286D01*
X177586517Y-133637408D01*
X177640002Y-133821400D01*
X177653542Y-136531400D01*
X176811720Y-136531400D01*
X176811568Y-135336400D01*
X176811383Y-135069388D01*
X176810785Y-134839023D01*
X176809602Y-134641949D01*
X176807659Y-134474816D01*
X176804785Y-134334269D01*
X176800805Y-134216956D01*
X176795548Y-134119522D01*
X176788840Y-134038615D01*
X176780509Y-133970882D01*
X176770380Y-133912970D01*
X176758282Y-133861525D01*
X176744041Y-133813194D01*
X176730998Y-133774542D01*
X176645448Y-133588611D01*
X176524664Y-133411424D01*
X176373095Y-133246703D01*
X176195191Y-133098171D01*
X175995401Y-132969549D01*
X175778175Y-132864562D01*
X175551720Y-132787936D01*
X175484863Y-132771178D01*
X175422357Y-132759077D01*
X175355719Y-132750933D01*
X175276467Y-132746045D01*
X175176117Y-132743712D01*
X175046187Y-132743232D01*
X175011720Y-132743309D01*
X174871929Y-132744358D01*
X174763784Y-132747049D01*
X174678944Y-132752089D01*
X174609065Y-132760181D01*
X174545805Y-132772031D01*
X174481720Y-132788098D01*
X174252568Y-132867085D01*
X174035396Y-132973849D01*
X173835482Y-133104362D01*
X173658103Y-133254593D01*
X173508534Y-133420515D01*
X173392053Y-133598098D01*
X173373322Y-133634395D01*
X173345985Y-133690440D01*
X173322434Y-133741829D01*
X173302387Y-133791914D01*
X173285559Y-133844047D01*
X173271669Y-133901580D01*
X173260433Y-133967865D01*
X173251567Y-134046254D01*
X173244788Y-134140098D01*
X173239814Y-134252751D01*
X173236361Y-134387563D01*
X173234146Y-134547887D01*
X173232885Y-134737075D01*
X173232296Y-134958478D01*
X173232095Y-135215450D01*
X173232067Y-135306400D01*
X173231720Y-136531400D01*
X172390151Y-136531400D01*
X172396982Y-135166400D01*
X172398342Y-134887382D01*
X172399659Y-134645056D01*
X172401271Y-134436116D01*
X172403517Y-134257255D01*
X172406737Y-134105168D01*
X172411267Y-133976549D01*
X172417446Y-133868091D01*
X172425614Y-133776488D01*
X172436108Y-133698434D01*
X172449267Y-133630624D01*
X172465429Y-133569750D01*
X172484933Y-133512507D01*
X172508118Y-133455589D01*
X172535321Y-133395689D01*
X172566882Y-133329502D01*
X172589961Y-133281400D01*
X172727202Y-133038533D01*
X172898788Y-132808560D01*
X173100082Y-132595398D01*
X173326446Y-132402968D01*
X173573247Y-132235187D01*
X173835846Y-132095975D01*
X174109608Y-131989249D01*
X174124225Y-131984610D01*
X174263081Y-131942991D01*
X174385126Y-131911724D01*
X174500430Y-131889438D01*
X174619063Y-131874760D01*
X174751096Y-131866320D01*
X174906599Y-131862746D01*
X175021720Y-131862376D01*
X175171064Y-131863319D01*
D10*
%TO.C,J2*%
X199780200Y-115773200D02*
X199780200Y-108093200D01*
X197120200Y-115773200D02*
X197120200Y-108093200D01*
X199780200Y-115773200D02*
X197120200Y-115773200D01*
X199780200Y-117043200D02*
X199780200Y-118373200D01*
X199780200Y-118373200D02*
X198450200Y-118373200D01*
X199780200Y-108093200D02*
X197120200Y-108093200D01*
%TO.C,J3*%
X183934100Y-134471100D02*
X191614100Y-134471100D01*
X191614100Y-137131100D02*
X191614100Y-134471100D01*
X183934100Y-137131100D02*
X183934100Y-134471100D01*
X182664100Y-137131100D02*
X181334100Y-137131100D01*
X181334100Y-137131100D02*
X181334100Y-135801100D01*
X183934100Y-137131100D02*
X191614100Y-137131100D01*
%TO.C,J5*%
X158690000Y-137105700D02*
X158690000Y-135775700D01*
X160020000Y-137105700D02*
X158690000Y-137105700D01*
X161290000Y-134445700D02*
X168970000Y-134445700D01*
X161290000Y-137105700D02*
X168970000Y-137105700D01*
X168970000Y-137105700D02*
X168970000Y-134445700D01*
X161290000Y-137105700D02*
X161290000Y-134445700D01*
%TO.C,J6*%
X176747480Y-118342720D02*
X175417480Y-118342720D01*
X176747480Y-115742720D02*
X176747480Y-108062720D01*
X176747480Y-115742720D02*
X174087480Y-115742720D01*
X176747480Y-108062720D02*
X174087480Y-108062720D01*
X176747480Y-117012720D02*
X176747480Y-118342720D01*
X174087480Y-115742720D02*
X174087480Y-108062720D01*
%TD*%
M02*
